<svg width="81" height="82" viewBox="0 0 81 82" fill="none" xmlns="http://www.w3.org/2000/svg">
<path d="M33.4953 38.8183C33.3939 38.5203 32.6013 36.5747 32.1754 35.6928C32.0025 36.0382 31.2275 36.8486 30.8044 36.9531C30.8447 37.1409 30.9742 37.7039 31.049 38.0912C31.8779 38.2856 32.6947 38.5283 33.4953 38.8183Z" fill="#FF9F40"/>
<path d="M39.7588 61.39C38.2788 61.4364 36.8227 61.7746 35.4738 62.3853C34.3743 62.8277 27.8872 65.6025 26.8919 65.8241C26.7133 65.8643 26.6477 65.623 26.7905 65.5261C28.3042 64.6012 36.9043 61.1965 38.4128 60.952C38.3174 60.7256 37.4383 57.0186 38.2547 57.6741C38.5527 57.9093 38.7284 60.469 38.7823 60.9106C40.3077 60.7433 47.2654 61.092 49.2114 61.1579C48.8213 59.4564 48.3624 57.4923 48.1686 56.986C47.4652 56.9023 38.4304 56.7893 37.2356 56.8159C35.0604 56.8665 28.1739 59.7958 26.246 60.9637C25.6263 61.3393 25.1316 61.1873 24.9889 60.9995C20.837 55.5185 13.2383 38.5919 13.8552 33.0912C13.879 32.8676 14.2309 32.9095 14.2397 33.1266C14.4991 40.8178 21.5187 54.0869 25.4288 60.6741C25.9774 60.1851 28.6621 59.0253 29.4278 58.7036C28.069 58.2713 26.4479 56.5319 26.1201 54.8123C21.9486 53.4261 20.8696 45.4422 22.0021 41.1319C22.4312 39.4895 24.8509 38.2114 26.3763 38.2858C26.3763 38.0329 26.32 36.8288 26.3763 35.8247C25.7538 35.8649 23.6947 35.6996 23.8347 33.5746C23.577 33.5702 23.3242 33.5042 23.0972 33.3821C22.8703 33.2601 22.6758 33.0854 22.5302 32.8728C22.3845 32.6603 22.2919 32.4159 22.26 32.1602C22.228 31.9045 22.2578 31.6448 22.3467 31.403C21.1041 31.403 14.6978 31.7484 13.735 32.2049C12.7722 32.6613 10.7993 34.9102 10.5495 36.0394C10.2998 37.1687 10.9698 40.667 15.6167 51.7399C20.2636 62.8128 22.3704 65.9701 24.3116 66.1611C25.679 66.295 33.65 66.3308 36.332 66.1611C36.2488 65.8213 35.5422 64.271 35.3158 63.4225C35.0893 62.5739 38.7039 61.6172 38.9661 62.3797C39.4258 63.6018 39.7962 64.8556 40.0744 66.1314C40.5972 66.1314 43.4747 66.0775 45.0004 66.0477C46.5262 66.0179 49.291 64.4685 49.8544 63.819C49.7917 63.6103 49.595 62.7464 49.3566 61.6944C46.4594 61.6079 42.5031 61.392 39.7588 61.39Z" fill="#FF9F40"/>
<path d="M48.9098 40.0284C48.4184 40.1238 47.9214 40.1874 47.4218 40.219C47.2135 40.219 41.0867 38.8919 40.8265 38.9526C40.5663 39.0134 39.8669 42.0335 39.435 43.5324C40.9459 42.2857 40.9845 40.9103 42.4914 41.7448C43.132 42.1023 43.6387 43.5802 43.5253 44.2148C43.4119 44.8494 42.2831 46.8461 40.6857 48.3297C41.0939 48.0554 43.7546 46.086 45.6322 44.9516C45.6676 44.9113 46.7985 41.3969 47.0892 40.8275C47.1048 40.8026 47.1286 40.7838 47.1564 40.7742C47.1842 40.7647 47.2145 40.7651 47.2421 40.7752C47.2697 40.7853 47.293 40.8046 47.3081 40.8299C47.3231 40.8552 47.3291 40.8848 47.3249 40.9139C46.9493 42.1711 46.523 43.4137 46.1329 44.6656L47.5481 44.017C47.9651 42.8507 48.4002 41.7882 48.8321 40.6288C48.9098 40.4205 49.1511 40.4503 49.0767 40.6586C48.6862 41.7492 48.3198 42.8189 47.9177 43.9068C48.7615 43.6462 49.6739 43.7265 50.4593 44.1304C50.5727 43.9007 53.2426 37.9231 53.1859 37.8877C53.1292 37.8523 49.0405 39.9745 48.9098 40.0284Z" fill="#FF9F40"/>
<path d="M78.4637 75.4697C68.5675 75.4697 8.13386 75.6708 2.57731 75.7355C2.26162 75.7355 2.19003 76.2358 2.51779 76.2358C12.4108 76.2893 72.8384 76.0898 78.3929 76.0573C78.7645 76.0541 78.8421 75.4697 78.4637 75.4697Z" fill="#263B55"/>
<path d="M23.3995 30.5166C22.1392 31.0619 22.7408 33.4966 24.4544 33.1507C24.049 34.5583 25.2289 35.7909 26.9397 35.0461C26.8472 35.7342 26.6863 37.9693 26.819 38.6216C26.521 38.7021 26.25 38.6546 26.2588 38.8959C26.2588 39.2417 27.0273 39.027 27.1528 38.8959C27.2783 38.7648 27.2421 37.6565 27.2509 37.4079C27.3105 35.7213 27.4866 34.7678 27.6772 33.1262C27.7367 32.6255 27.4206 32.8282 27.1826 32.2322C26.9011 31.5228 27.4806 30.8585 28.151 31.2936C28.3267 31.4066 29.3727 30.778 29.5307 29.7827C30.6716 30.4591 31.8459 31.1098 33.2104 31.1267C32.9933 32.1844 31.642 36.6897 29.8999 36.368C29.1937 36.2401 28.7679 35.4293 28.4666 34.8603C28.4476 34.8348 28.4211 34.8159 28.3908 34.8063C28.3605 34.7966 28.3279 34.7968 28.2977 34.8066C28.2674 34.8165 28.241 34.8356 28.2222 34.8612C28.2034 34.8869 28.1931 34.9178 28.1928 34.9496C28.3178 35.8017 29.1342 36.791 29.9803 36.824C30.3708 39.0379 30.0757 38.7222 30.812 38.91C31.2769 39.0262 31.7325 39.1661 32.2035 39.2554C32.2512 39.264 32.3004 39.2547 32.3417 39.2292C32.383 39.2037 32.4134 39.1639 32.4271 39.1173C32.4407 39.0708 32.4367 39.0208 32.4158 38.977C32.3948 38.9333 32.3585 38.8988 32.3136 38.8802C31.7683 38.7101 31.2113 38.5822 30.6568 38.4419C30.5554 37.8877 30.4557 37.3335 30.3588 36.7794C31.4554 36.4605 32.3732 34.7441 32.8023 33.7994C33.0395 33.8784 33.2926 33.8978 33.5391 33.8557C33.7856 33.8137 34.018 33.7116 34.2156 33.5584C34.4133 33.4052 34.5702 33.2057 34.6724 32.9775C34.7746 32.7493 34.8191 32.4994 34.8018 32.2499C35.9937 32.5837 37.0574 31.2445 36.3243 29.911C37.606 30.0063 38.4698 27.825 37.2183 27.0324C38.6488 26.1384 37.3884 24.3782 36.3738 24.4341C37.0502 22.5717 35.4798 21.7999 33.9275 22.6847C33.57 20.1817 31.1205 20.6526 30.557 21.7042C29.8629 20.2163 27.9796 20.8106 27.7054 22.0441C26.9815 21.0101 23.9151 22.3839 24.7435 24.4517C23.0661 23.8887 22.2763 25.6763 23.2925 26.9371C22.0615 27.0332 21.6867 30.1024 23.3995 30.5166Z" fill="#263B55"/>
<path d="M31.049 34.1758C31.3736 34.1794 31.6181 33.9015 31.5047 33.7797C31.3913 33.6578 31.335 33.8657 31.1653 33.9003C30.9672 33.921 30.7679 33.8748 30.599 33.7692C30.3368 33.6486 30.3963 34.1685 31.049 34.1758Z" fill="#263B55"/>
<path d="M29.6274 33.6872C29.3495 33.5641 29.1597 34.5124 29.9612 34.849C30.3633 35.0191 30.6259 34.6435 30.3726 34.5812C29.9523 34.4826 29.7319 34.2832 29.678 33.9852C29.6571 33.848 29.7167 33.7266 29.6274 33.6872Z" fill="#263B55"/>
<path d="M30.6106 32.3404C30.5185 32.0629 30.128 32.6384 30.3395 32.7752C30.5511 32.9119 30.6673 32.4772 30.6106 32.3404Z" fill="#263B55"/>
<path d="M31.007 31.1512C30.8073 31.0858 30.5912 31.0909 30.3948 31.1658C30.1985 31.2407 30.0338 31.3808 29.9284 31.5626C29.8299 31.9857 30.3306 31.442 30.7597 31.4999C31.2982 31.5626 31.0883 31.1794 31.007 31.1512Z" fill="#263B55"/>
<path d="M32.2526 31.8606C32.4911 31.9769 32.5506 32.2001 32.6013 32.2226C32.7649 32.2821 32.7621 32.0259 32.7054 31.9246C32.6758 31.8411 32.6279 31.7654 32.5653 31.7028C32.5027 31.6401 32.4269 31.5923 32.3435 31.5626C32.1026 31.5357 32.1452 31.8007 32.2526 31.8606Z" fill="#263B55"/>
<path d="M31.9578 33.1447C32.1428 33.203 32.1902 32.8467 32.1633 32.7337C32.1026 32.3967 31.7049 33.0655 31.9578 33.1447Z" fill="#263B55"/>
<path d="M40.0001 44.1581C40.4232 43.8005 41.4881 42.6504 41.5319 42.1501C41.5325 42.136 41.5302 42.1219 41.5253 42.1087C41.5204 42.0955 41.5129 42.0833 41.5033 42.073C41.4937 42.0626 41.4822 42.0543 41.4694 42.0484C41.4565 42.0425 41.4427 42.0392 41.4286 42.0387C41.402 42.0375 41.376 42.0464 41.3558 42.0636C40.8791 42.7086 40.351 43.3138 39.7765 43.8733C39.5588 44.0375 39.359 44.2242 39.1805 44.4303C39.1182 44.4995 39.1266 44.8964 40.0001 44.1581Z" fill="#263B55"/>
<path d="M39.3925 48.32C40.7421 47.6194 42.0262 46.0941 42.7565 44.7444C42.8867 44.5463 42.9795 44.3261 43.0304 44.0946C43.0304 43.9787 42.8876 43.8742 42.8192 43.9844C41.5082 46.1089 41.3116 46.4037 39.2433 48.1117C39.2232 48.1339 39.2113 48.1623 39.2096 48.1922C39.2079 48.2221 39.2165 48.2516 39.2339 48.276C39.2514 48.3003 39.2766 48.3179 39.3054 48.326C39.3343 48.334 39.365 48.3319 39.3925 48.32Z" fill="#263B55"/>
<path d="M42.076 42.1795C41.9067 42.249 41.3727 43.2432 41.2745 43.4101C41.0451 43.7912 40.7795 44.1494 40.4815 44.4798C40.3327 44.6467 40.6247 45.1562 41.5577 43.6252C41.6827 43.4193 42.2964 42.5044 42.2695 42.2659C42.2618 42.1706 42.1488 42.1501 42.076 42.1795Z" fill="#263B55"/>
<path d="M42.1753 44.218C42.3329 43.9502 42.7713 43.1841 42.688 42.8982C42.6374 42.7373 42.4552 42.8117 42.3036 43.1217C41.9802 43.8646 41.5669 44.565 41.073 45.2073C40.9921 45.3115 41.075 46.086 42.1753 44.218Z" fill="#263B55"/>
<path d="M37.5091 45.8926C37.488 45.9155 37.4747 45.9446 37.4713 45.9756C37.4679 46.0066 37.4745 46.0379 37.4901 46.0648C37.5057 46.0918 37.5296 46.1131 37.5582 46.1255C37.5868 46.1379 37.6187 46.1409 37.6491 46.1339C38.7695 45.8363 38.3018 44.2385 38.5696 43.6365C38.7099 43.318 39.0345 42.9307 39.0345 42.6681C39.0344 42.6302 39.0192 42.5939 38.9924 42.5671C38.9656 42.5404 38.9292 42.5254 38.8913 42.5254C38.8674 42.5257 38.844 42.5318 38.8229 42.5431C38.5868 42.7767 38.3967 43.0527 38.2627 43.3566C37.8964 44.0865 38.1855 44.6616 38.0126 45.2282C37.9061 45.4901 37.7324 45.7192 37.5091 45.8926Z" fill="#263B55"/>
<path d="M34.1508 41.0651C34.0132 40.9618 33.8765 41.1934 33.9867 41.3036C35.3246 42.6307 36.5761 42.9307 36.8532 44.808C37.0141 45.8833 37.4195 45.6332 37.2767 44.7573C36.9936 43.0116 36.0501 42.494 34.1508 41.0651Z" fill="#263B55"/>
<path d="M24.5288 53.1691C25.0383 53.7291 25.6651 54.1697 26.3647 54.4592C26.3647 54.7363 27.6785 57.4754 29.3949 58.1333C29.4319 58.1403 29.4703 58.1355 29.5044 58.1194C29.5386 58.1033 29.5667 58.0768 29.5849 58.0438C29.6031 58.0107 29.6104 57.9728 29.6058 57.9353C29.6011 57.8979 29.5847 57.8629 29.559 57.8353C28.3782 56.9773 27.4231 55.8458 26.7757 54.5377C27.2131 54.6196 27.6578 54.6565 28.1028 54.6478C32.1376 54.5196 35.6632 51.8111 38.5588 49.189C38.6629 49.0965 38.6541 48.9803 38.6271 48.8403C38.6271 48.8403 38.3589 47.0134 37.4351 46.3313C37.1194 46.0989 37.1536 46.1467 36.893 46.2983C34.3361 47.7646 31.8661 49.2783 28.8624 49.4838C27.894 46.5481 27.8792 45.4968 27.9298 43.4825C27.9298 43.2681 27.6081 43.3393 27.5812 43.5182C27.3934 44.8204 27.7569 48.0984 28.6002 49.4778C28.2427 49.4959 27.882 49.5047 27.5184 49.5135C27.3515 49.5135 27.2711 49.7878 27.4617 49.8264C30.7011 50.4759 34.5597 48.149 37.191 46.5131C37.8199 47.1901 38.1875 48.0688 38.2278 48.992C35.5462 51.3462 32.4529 53.7599 28.7772 54.1472C27.019 54.3378 26.0059 54.2159 24.8079 52.8201C23.1454 50.8833 22.7223 47.5921 22.5764 45.3348C22.3974 42.2925 22.6166 40.2158 25.6275 39.3367C26.9683 41.5887 31.6823 41.9507 33.1478 39.5035C34.6643 39.8373 36.4406 41.2408 37.6354 42.4831C37.9334 42.7811 38.5559 42.2273 35.6628 40.3517C35.4035 40.1816 32.9809 38.7214 32.8972 39.249C32.8972 39.249 31.0023 42.0411 27.2357 40.2741C25.8113 39.6037 25.9665 38.8436 25.6271 38.9389C22.5848 39.7915 21.9977 41.6736 22.099 44.6459C22.1806 47.2422 22.5498 50.9979 24.5288 53.1691Z" fill="#263B55"/>
<path d="M65.5729 53.0171C65.9803 52.8008 69.7831 50.3709 70.0425 50.4365C70.1261 50.4574 70.0931 50.4007 70.0988 50.5113C70.1044 50.6219 66.7207 55.3681 66.3772 55.8748C65.6204 56.9743 65.2452 56.4708 64.085 55.9404C63.8079 55.8153 63.653 56.2384 63.9213 56.3827C64.7525 56.7937 65.5958 57.3837 66.3406 56.618C66.4303 56.5227 70.3992 51.0039 70.5126 50.6259C70.5368 50.5539 70.5426 50.4769 70.5294 50.4021C70.5161 50.3273 70.4843 50.257 70.4369 50.1977C70.3894 50.1383 70.3278 50.0919 70.2576 50.0626C70.1875 50.0333 70.1112 50.022 70.0356 50.0299C69.4159 50.0299 65.9562 52.3065 65.402 52.7296C65.2419 52.8353 65.4008 53.1084 65.5729 53.0171Z" fill="#263B55"/>
<path d="M55.4086 74.9574C57.1427 74.8396 58.9846 75.0467 60.7721 74.9932C61.0939 74.9932 61.7647 74.9932 61.5857 74.4568C61.4429 74.0425 60.9246 73.8937 60.5606 73.7566C59.2645 73.2624 58.0488 72.6153 56.7466 72.1331C56.4651 72.0282 56.2491 72.4484 56.5322 72.553C57.9237 73.0593 59.2319 73.7445 60.6233 74.242C61.2431 74.3844 61.3613 74.579 60.5831 74.5963C58.6492 74.6365 56.7273 74.3876 54.7921 74.5754C53.6717 74.6856 53.2724 74.696 53.1682 74.2593C53.1294 73.7944 53.1533 73.3264 53.2394 72.8678C53.2394 72.701 53.007 72.68 52.9414 72.8051C52.7026 73.305 52.6377 73.8703 52.7568 74.4113C52.9591 75.3656 54.628 75.0105 55.4086 74.9574Z" fill="#263B55"/>
<path d="M35.7868 63.4007C35.9613 64.4712 39.7858 72.1914 40.498 73.5591C41.651 75.7733 42.0949 75.3861 41.4873 73.1778C40.5663 69.8311 39.7202 66.0597 38.5516 62.8469C38.48 62.6531 38.1731 62.7693 38.2178 62.9599C38.9388 65.9785 40.2084 69.8138 41.0904 73.7083C39.7942 71.2318 37.479 66.2821 36.0783 63.2788C36.0035 63.1276 35.7566 63.2173 35.7868 63.4007Z" fill="#263B55"/>
<path d="M26.737 67.0756C26.0606 69.0188 25.4288 70.9765 24.7793 72.931C23.9895 75.3149 23.9835 76.334 25.4823 73.4437C26.6148 71.2628 28.3283 67.7822 28.6111 67.1653C28.7156 66.9421 28.334 66.7479 28.221 66.9715C27.2274 68.9581 26.2401 70.9446 25.2591 72.931C25.8905 71.0155 26.5492 69.1081 27.1541 67.183C27.2168 66.93 26.7965 66.8593 26.737 67.0756Z" fill="#263B55"/>
<path d="M8.18482 72.5083C10.638 66.6143 13.3637 60.7654 16.0992 54.9869C16.2198 54.7396 15.8547 54.5099 15.7324 54.7601C13.0686 60.2193 10.6432 65.7023 8.19366 71.2568C10.3629 64.8083 12.249 58.5238 14.5823 51.1371C14.6539 50.9135 14.2634 50.7796 14.1862 51.0088C11.7813 58.0831 9.75201 65.2909 7.28198 72.4154C5.93477 76.3042 6.69082 76.0943 8.18482 72.5083Z" fill="#263B55"/>
<path d="M44.3775 21.8064C47.0072 22.2061 50.2984 22.3368 53.0189 22.4771C53.74 22.5174 53.859 22.4144 54.0557 21.8184C54.6993 20.0924 54.8032 18.2116 54.3537 16.4251C53.7963 14.4373 52.3067 12.7253 50.2208 12.3457C50.5475 11.5096 50.831 10.6572 51.0701 9.79202C51.371 9.80412 51.6645 9.69704 51.8869 9.49402C55.5619 12.4245 59.3249 15.2427 63.1709 17.9449C63.1153 18.0992 63.0908 18.263 63.0986 18.4268C63.1064 18.5906 63.1465 18.7513 63.2166 18.8996C63.2866 19.048 63.3853 19.181 63.5068 19.2911C63.6284 19.4012 63.7705 19.4863 63.9249 19.5414C63.9467 19.5491 63.9688 19.5563 63.9905 19.5627C63.8385 29.6496 63.8892 40.0163 64.375 50.1027C64.375 50.1762 64.4041 50.2466 64.4561 50.2986C64.5081 50.3506 64.5786 50.3798 64.652 50.3798C64.7255 50.3798 64.796 50.3506 64.848 50.2986C64.8999 50.2466 64.9291 50.1762 64.9291 50.1027C64.6476 39.894 64.4465 29.8579 64.5358 19.6343C64.7802 19.6226 65.0119 19.5225 65.1881 19.3528C66.0407 19.9488 66.8957 20.515 67.7478 21.0962C68.0458 21.3045 68.3438 20.8146 68.0458 20.6103C67.182 20.0441 66.3241 19.4709 65.472 18.8907C65.5237 18.7459 65.5463 18.5923 65.5386 18.4387C65.5309 18.2851 65.493 18.1345 65.4271 17.9955C65.3612 17.8566 65.2685 17.732 65.1544 17.6288C65.0404 17.5256 64.9071 17.446 64.7622 17.3943C64.6889 17.3685 64.6132 17.3497 64.5362 17.3384C64.5362 16.7694 64.5213 16.1999 64.5008 15.6281C64.4954 15.5848 64.4743 15.5451 64.4416 15.5162C64.409 15.4874 64.3669 15.4715 64.3233 15.4715C64.2797 15.4715 64.2376 15.4874 64.2049 15.5162C64.1722 15.5451 64.1512 15.5848 64.1457 15.6281C64.1055 16.1911 64.0742 16.7573 64.0504 17.3207C63.855 17.3426 63.6679 17.4116 63.5051 17.5218C59.6312 14.8193 55.8742 11.9721 52.1817 9.04723C52.3174 8.79015 52.3514 8.4914 52.2769 8.21039C52.2024 7.92939 52.0248 7.68673 51.7795 7.53071L52.322 5.80145C52.4234 5.47972 51.938 5.25894 51.8366 5.5867C51.6484 6.18269 51.4578 6.77868 51.27 7.39277C50.9763 7.38059 50.6876 7.47118 50.4536 7.64894C49.4945 6.85911 48.5285 6.07572 47.5066 5.3812C47.4742 5.35868 47.4346 5.34912 47.3955 5.3544C47.3564 5.35968 47.3208 5.37941 47.2955 5.4097C47.2703 5.44 47.2573 5.47866 47.2592 5.51805C47.261 5.55744 47.2776 5.5947 47.3055 5.62249C48.1861 6.49358 49.1185 7.31063 50.0977 8.06919C50.0105 8.20166 49.9527 8.35129 49.9283 8.50798C49.9038 8.66467 49.9132 8.82478 49.9559 8.97753C49.9985 9.13027 50.0734 9.2721 50.1755 9.39346C50.2776 9.51481 50.4045 9.61287 50.5477 9.68102C50.2491 10.5407 49.994 11.4149 49.7836 12.3002C48.5 12.199 47.2182 12.5162 46.1299 13.2043C45.0416 13.8924 44.2054 14.9145 43.7465 16.1175C43.1482 17.6709 43.0884 19.3801 43.5768 20.9715C43.808 21.5236 43.8269 21.7227 44.3775 21.8064ZM44.1241 16.9001C45.4834 12.1772 51.7912 11.1493 53.6596 16.1223C54.3601 17.9968 54.0557 20.0767 53.3942 21.9153C50.3163 21.8893 47.242 21.6973 44.1848 21.3403C43.9126 19.7176 43.6266 18.6301 44.1241 16.9017V16.9001Z" fill="#263B55"/>
<path d="M65.236 57.6716C65.236 57.4959 64.7385 57.454 64.7414 57.6507C64.7414 62.6627 64.7084 67.1117 64.7084 71.4349C63.925 71.7928 62.277 72.9876 61.3685 73.5953C62.2625 74.0187 62.3666 74.591 62.2625 74.9481C62.7423 74.9783 70.0514 75.0052 71.0142 74.9481C71.878 74.8978 66.7381 71.948 65.3345 71.4176C65.3044 67.0373 65.2778 62.3326 65.236 57.6716Z" fill="#263B55"/>
<path d="M47.9474 55.1031C49.5403 58.079 51.8032 68.7763 52.3546 72.2815C53.9316 72.2441 55.4981 72.0145 57.0195 71.5978C56.9419 70.8438 55.2316 61.1535 54.3557 54.7737C53.7179 50.0062 52.776 49.8811 52.0634 49.75C50.0904 49.3805 45.9635 55.5813 44.8162 56.3051C45.7102 56.2307 46.7144 56.3618 47.9984 56.3526C47.8705 55.9774 47.7455 55.6018 47.626 55.2233C47.6158 55.1822 47.621 55.1386 47.6407 55.101C47.6605 55.0635 47.6934 55.0345 47.7331 55.0196C47.7728 55.0046 47.8167 55.0049 47.8563 55.0202C47.8959 55.0355 47.9284 55.0649 47.9478 55.1027L47.9474 55.1031Z" fill="#263B55"/>
<path d="M51.7224 49.2208C53.5879 49.2208 54.1779 50.7852 54.4908 52.9576C54.9705 53.0706 60.2657 55.0854 63.0164 56.2593C63.3832 55.6392 64.399 53.2407 64.9532 52.4211C63.9478 52.0488 51.3568 44.331 48.8622 44.331C44.9887 44.331 33.138 55.416 31.4454 57.6451C36.3858 55.9521 38.2068 56.2324 43.8084 56.4025C45.8075 55.1896 49.0139 49.2208 51.7224 49.2208Z" fill="#263B55"/>
<path d="M42.0382 38.8364C42.9632 38.9474 43.9283 38.6398 44.8843 38.7411C46.0079 38.9267 47.0925 39.2993 48.093 39.8434C48.3673 39.9717 48.3673 39.5454 49.1121 39.0865C50.066 38.5115 51.8298 38.279 52.3607 37.6979C52.4287 37.6235 52.3607 37.4715 52.2593 37.5254C51.8788 37.7311 51.4797 37.9006 51.0674 38.0317C50.2655 38.2851 48.6416 38.5384 48.1409 39.4264C46.9224 38.8573 46.0191 38.4729 44.9196 38.3892C44.0679 38.3237 42.6495 38.6068 41.7426 38.5235C41.6003 38.5115 41.4483 38.7652 42.0382 38.8364Z" fill="#263B55"/>
</svg>
