<svg width="1213" height="73" xmlns="http://www.w3.org/2000/svg" xmlns:xlink="http://www.w3.org/1999/xlink" xml:space="preserve" overflow="hidden"><defs><clipPath id="clip0"><rect x="33" y="323" width="1213" height="73"/></clipPath></defs><g clip-path="url(#clip0)" transform="translate(-33 -323)"><path d="M33.59 390.49C30.54 377.62 55.95 378.56 63.85 374.81 158.17 354.3 332.94 342.39 429.33 337.3 507.24 333.48 584.99 327.37 663 325.63 720.49 323.07 778.05 325.82 835.57 324.05 956.85 323.14 1078.74 322.17 1199.26 337.38 1211.77 340.02 1225.06 340.3 1237.03 344.83 1267.69 366.25 1211.01 366.36 1198.51 364.09 838.56 335.04 833.83 336.73 560.27 346.24 439.27 350.02 319.05 365.45 133.51 387.7 128.79 388.35 124.33 384.14 125.06 379.34 106.877 381.88 88.7731 384.951 70.77 388.55 61.4399 390.88 52.0699 393.11 42.8199 395.74 38.8304 396.792 34.731 394.465 33.59 390.5Z" fill="#E95C49"/></g></svg>