<svg width="82" height="82" viewBox="0 0 82 82" fill="none" xmlns="http://www.w3.org/2000/svg">
<path d="M46.1594 63.9541C46.0388 63.9967 44.3156 64.6156 44.0988 64.7238C43.8386 64.5722 42.1468 64.3772 42.0599 64.3011C42.5047 64.6699 43.5133 65.6894 43.4272 65.765C43.3946 65.7976 38.0046 66.3831 38.2326 63.9867C34.94 63.1701 31.5956 62.5789 28.2226 62.2172C29.0389 62.7548 29.7304 63.4612 30.2506 64.2887C28.5154 64.3213 24.711 63.3545 24.5895 63.1824C24.312 62.7886 24.633 62.0113 24.904 61.6859C24.0366 61.5448 20.566 60.9158 20.3927 60.9484C20.2193 60.981 20.2527 61.1201 20.3818 61.1977C20.5944 61.3008 20.7758 61.4587 20.9073 61.655C21.0388 61.8513 21.1157 62.0791 21.1302 62.3149C21.0924 62.9769 20.4349 62.9089 19.9587 62.8353C19.6434 62.7866 18.6574 62.5538 18.5914 62.5538C18.4762 62.5448 18.3616 62.5785 18.2697 62.6485C18.1777 62.7185 18.1147 62.8199 18.0927 62.9334C18.0602 63.1502 18.2134 63.2765 18.3964 63.3673C18.879 63.6066 42.3852 67.9547 42.5694 67.8461C42.5922 67.8514 42.6158 67.8512 42.6385 67.8456C42.6612 67.8399 42.6821 67.8289 42.6997 67.8136C43.393 67.2731 46.3002 64.2456 46.3002 64.2456C46.4196 64.1491 46.3432 63.8881 46.1594 63.9541Z" fill="#2ECC71"/>
<path d="M19.6543 62.5333C19.6651 61.9586 18.8303 61.6743 18.3746 61.6441C18.0272 61.61 17.6793 61.705 17.3975 61.911C17.1156 62.117 16.9195 62.4195 16.8464 62.7609C16.7629 63.1694 16.837 63.5943 17.0539 63.9504C17.2707 64.3066 17.6142 64.5675 18.0155 64.6808C18.6002 64.836 19.6905 64.6916 19.7399 63.9324C19.752 63.7482 19.532 63.7023 19.4146 63.8021C19.2272 63.9629 19.1331 64.1165 18.8721 64.1817C18.6163 64.2493 18.3473 64.2493 18.0915 64.1817C17.9483 64.1553 17.812 64.0997 17.6911 64.0185C17.5701 63.9373 17.4672 63.8321 17.3885 63.7095C17.3098 63.5869 17.2572 63.4495 17.2337 63.3058C17.2103 63.162 17.2166 63.015 17.2523 62.8737C17.288 62.7325 17.3522 62.6001 17.4411 62.4847C17.53 62.3693 17.6416 62.2734 17.769 62.2028C17.8964 62.1323 18.037 62.0886 18.182 62.0745C18.3269 62.0605 18.4733 62.0763 18.6119 62.1211C19.222 62.2397 19.5839 62.9053 19.6543 62.5333Z" fill="#263B55"/>
<path d="M24.9358 49.4545C23.6779 49.2481 9.56875 48.1748 8.86377 48.2078C8.6253 48.2186 8.53883 48.5955 8.79863 48.6413C10.0807 48.8677 23.5367 49.7042 24.9033 49.6933C24.9343 49.6963 24.9652 49.6871 24.9896 49.6678C25.014 49.6484 25.03 49.6204 25.0342 49.5895C25.0384 49.5587 25.0305 49.5274 25.0122 49.5022C24.9939 49.477 24.9665 49.4599 24.9358 49.4545Z" fill="#263B55"/>
<path d="M42.3635 50.9834C41.6567 50.8448 40.9359 50.7908 40.2164 50.8226C39.988 50.8523 39.8806 51.2099 40.1621 51.2561C40.8985 51.3282 41.6409 51.3138 42.3739 51.2131C42.4064 51.202 42.4334 51.179 42.4495 51.1488C42.4657 51.1185 42.4697 51.0833 42.4608 51.0502C42.435 51.0195 42.4014 50.9965 42.3635 50.9834Z" fill="#263B55"/>
<path d="M45.3024 51.5907C52.5464 52.099 71.2011 53.4277 73.2822 53.5862C73.5967 53.6103 73.5863 53.1285 73.2822 53.0983C66.0535 52.3745 47.3835 51.4322 45.3024 51.3413C45.1395 51.3361 45.1508 51.5802 45.3024 51.5907Z" fill="#263B55"/>
<path d="M4.62381 46.9708C7.13969 47.2205 24.037 48.1149 24.6326 48.0011C24.6666 47.9912 24.6966 47.9706 24.7179 47.9422C24.7393 47.9138 24.7508 47.8793 24.7508 47.8438C24.7508 47.8084 24.7393 47.7738 24.7179 47.7455C24.6966 47.7171 24.6666 47.6964 24.6326 47.6866C24.1351 47.5507 5.97947 46.7162 4.61296 46.7323C4.58096 46.7323 4.55027 46.745 4.52765 46.7676C4.50502 46.7902 4.49231 46.8209 4.49231 46.8529C4.49707 46.8848 4.51281 46.914 4.53682 46.9356C4.56083 46.9571 4.5916 46.9695 4.62381 46.9708Z" fill="#263B55"/>
<path d="M45.0857 49.8015C47.1029 50.0508 76.8937 51.7194 78.0108 51.6558C78.2059 51.645 78.2819 51.3188 78.0651 51.2871C76.0709 50.9967 47.409 49.514 45.0857 49.5739C45.0537 49.5739 45.023 49.5866 45.0004 49.6092C44.9778 49.6318 44.9651 49.6625 44.9651 49.6945C44.9685 49.7241 44.9826 49.7514 45.0049 49.7711C45.0272 49.7909 45.056 49.8017 45.0857 49.8015Z" fill="#263B55"/>
<path d="M75.8632 21.3552C75.8439 20.1671 75.4923 19.0081 74.8483 18.0095C74.2043 17.0109 73.2936 16.2126 72.2193 15.7049C72.8161 14.4144 73.3139 13.0909 73.1414 11.6275C72.6279 7.26009 68.1149 5.12345 64.4239 6.89816C64.294 5.02211 63.2521 3.3761 61.3655 2.78815C59.7384 2.28063 57.1252 2.73386 56.67 4.64248C55.7684 4.40329 54.8139 4.4584 53.9458 4.79978C53.0777 5.14117 52.3414 5.75096 51.8442 6.54024C51.4232 7.41685 51.1384 8.35257 50.9996 9.3151C50.0453 8.83774 47.213 7.74067 45.0023 10.0848C44.3246 10.8174 43.9554 11.7831 43.9715 12.781C43.9877 13.7789 44.388 14.7321 45.0892 15.4423C44.4054 15.6802 43.8051 16.1108 43.3608 16.6824C42.9165 17.2539 42.6471 17.9419 42.5852 18.6632C42.5232 19.3845 42.6714 20.1082 43.0119 20.7472C43.3523 21.3861 43.8704 21.9128 44.5037 22.2636C43.0177 23.9881 42.1165 26.3656 43.1914 28.5429C44.0794 30.3437 46.3906 31.1999 48.0824 30.0614C48.1581 30.592 48.346 31.1003 48.6336 31.5525C48.9213 32.0048 49.302 32.3905 49.7504 32.6839C50.1989 32.9774 50.7047 33.1719 51.2343 33.2545C51.7638 33.3371 52.3049 33.3058 52.8214 33.1628C52.8774 33.1468 52.9248 33.1092 52.9532 33.0583C52.9815 33.0073 52.9884 32.9472 52.9724 32.8912C52.9564 32.8351 52.9188 32.7877 52.8679 32.7594C52.8169 32.7311 52.7568 32.7241 52.7007 32.7401C52.2148 32.8716 51.7054 32.8914 51.2107 32.7982C50.716 32.7049 50.2487 32.5009 49.844 32.2015C49.4393 31.9021 49.1075 31.5151 48.8736 31.0693C48.6396 30.6235 48.5095 30.1306 48.493 29.6275C48.4929 29.5971 48.4865 29.5671 48.4742 29.5394C48.4618 29.5117 48.4439 29.4868 48.4214 29.4664C48.3989 29.446 48.3724 29.4305 48.3436 29.4209C48.3148 29.4113 48.2844 29.4079 48.2541 29.4107C46.5297 30.9506 44.0814 29.8 43.4066 27.9465C42.6718 25.9285 43.59 23.816 44.9899 22.3505C45.0747 22.262 45.1105 22.069 44.9464 22.0143C44.3124 21.7261 43.7844 21.2467 43.4364 20.6434C43.0885 20.0401 42.9379 19.3431 43.0059 18.65C43.0738 17.9568 43.3569 17.3023 43.8154 16.7781C44.274 16.2539 44.885 15.8862 45.5629 15.7266C45.6023 15.7143 45.6373 15.691 45.6639 15.6595C45.6906 15.628 45.7077 15.5896 45.7134 15.5488C45.7191 15.5079 45.7131 15.4663 45.696 15.4287C45.679 15.3912 45.6517 15.3592 45.6172 15.3365C45.2428 15.0211 44.9406 14.629 44.7309 14.1867C44.5212 13.7443 44.4089 13.2621 44.4017 12.7727C44.3945 12.2832 44.4925 11.7979 44.6891 11.3496C44.8857 10.9012 45.1763 10.5004 45.5412 10.1741C47.5387 8.4195 50.324 9.51256 51.3109 9.97906C51.3623 9.99412 51.4173 9.99164 51.4672 9.97199C51.517 9.95235 51.5589 9.91666 51.5863 9.87057C51.6136 9.82447 51.6248 9.77059 51.6181 9.71741C51.6115 9.66424 51.5873 9.6148 51.5494 9.5769C51.2783 9.40357 52.0376 7.07189 52.3629 6.61625C52.846 5.92739 53.5392 5.4135 54.3388 5.1515C55.1383 4.88951 56.0012 4.89349 56.7983 5.16286C56.8569 5.17758 56.9189 5.16905 56.9714 5.13907C57.0239 5.10909 57.0627 5.05997 57.0798 5.002C57.3404 3.07167 59.9323 2.75638 61.4178 3.28843C63.1427 3.90613 63.988 5.51153 63.988 7.2794C63.988 7.4097 64.1086 7.57217 64.2269 7.50702C66.4934 6.44453 69.3129 6.56357 71.0591 8.288C71.9709 9.19765 72.5448 10.3914 72.6858 11.6717C72.8523 13.1146 72.2647 14.4064 71.7206 15.7166C71.5042 16.2394 73.3361 17.0401 73.5966 17.2785C74.717 18.3806 75.3696 19.8721 75.4188 21.4428C75.4964 24.5881 72.2844 26.7895 69.3563 26.4641C69.2357 26.4641 69.0302 26.6057 69.1613 26.8003C69.6709 27.5071 69.9336 28.3621 69.9086 29.2331C69.8836 30.1041 69.5725 30.9426 69.0232 31.619C68.4739 32.2955 67.7171 32.7721 66.8698 32.9754C66.0225 33.1786 65.1318 33.0971 64.3355 32.7434C64.1746 32.6778 64.0033 32.872 64.0539 33.0249C64.3238 33.8424 63.9023 35.0638 63.0019 35.3023C62.1015 35.5407 60.8705 34.95 60.291 34.2937C60.1482 34.1328 59.9214 34.3701 60.0521 34.5321C60.731 35.371 62.2861 36.1367 63.3598 35.6582C63.7771 35.4367 64.1181 35.0949 64.3386 34.6772C64.5592 34.2595 64.649 33.7851 64.5965 33.3156C65.4435 33.5896 66.3535 33.6011 67.2072 33.3486C68.0608 33.0961 68.8182 32.5914 69.3799 31.9008C69.9416 31.2102 70.2813 30.3658 70.3546 29.4786C70.4278 28.5914 70.2311 27.7028 69.7903 26.9294C72.8482 27.0597 76.018 24.6412 75.8632 21.3552Z" fill="#2ECC71"/>
<path d="M56.7026 24.8692C56.5796 26.1304 56.5469 27.3988 56.6048 28.6647C56.6607 29.4127 56.6394 30.4495 57.4288 30.8118C57.7207 30.9588 58.0563 30.9936 58.3721 30.9097C58.6879 30.8258 58.962 30.629 59.1424 30.3566C59.865 29.2872 60.4962 28.159 61.0293 26.9837C61.0397 26.9647 61.0459 26.9438 61.0477 26.9222C61.0495 26.9007 61.0467 26.879 61.0396 26.8586C61.0325 26.8381 61.0212 26.8194 61.0064 26.8036C60.9916 26.7879 60.9736 26.7754 60.9537 26.7669C60.9183 26.7508 60.8785 26.7474 60.8409 26.7573C60.8033 26.7672 60.7703 26.7898 60.7474 26.8212C60.2294 27.5926 59.7702 28.3928 59.3053 29.1959C58.9353 29.8354 58.3948 30.9956 57.4831 30.3674C57.1365 30.1285 57.1023 29.6411 57.0408 29.2502C56.9343 27.7961 56.9016 26.3375 56.943 24.88C56.9449 24.8636 56.9434 24.847 56.9385 24.8312C56.9337 24.8153 56.9257 24.8007 56.915 24.7881C56.9042 24.7755 56.891 24.7653 56.8762 24.758C56.8613 24.7508 56.8451 24.7466 56.8286 24.7459C56.8121 24.7451 56.7956 24.7478 56.7801 24.7537C56.7647 24.7596 56.7506 24.7686 56.7388 24.7802C56.727 24.7917 56.7177 24.8056 56.7114 24.8209C56.7052 24.8362 56.7022 24.8526 56.7026 24.8692Z" fill="#263B55"/>
<path d="M54.531 22.1579C54.4972 21.8977 54.0323 21.9516 54.0649 22.223C55.1036 30.9522 54.3464 40.9634 54.3251 41.2123C51.8631 41.0712 49.3786 40.8761 46.9069 40.9521C46.8722 40.9559 46.8401 40.9723 46.8167 40.9983C46.7934 41.0243 46.7805 41.058 46.7805 41.0929C46.7805 41.1278 46.7934 41.1615 46.8167 41.1875C46.8401 41.2135 46.8722 41.2299 46.9069 41.2336C49.3472 41.483 51.8414 41.483 54.3033 41.5152C54.2165 42.7297 54.1023 43.945 53.9454 45.1482C53.9241 45.3111 54.2048 45.3433 54.2269 45.1916C55.1278 39.1252 55.591 30.2544 54.531 22.1579Z" fill="#263B55"/>
<path d="M74.5728 42.058C72.178 41.522 62.2098 41.1363 59.7261 41.2666C59.4117 39.9869 58.0584 33.9506 61.938 29.1312C62.1025 28.9265 61.7634 28.7073 61.5909 28.8706C56.3525 33.8255 59.2367 43.2323 60.9185 46.1467C61.0179 46.3192 61.2893 46.2545 61.2222 46.0599C60.7086 44.5787 60.181 43.0775 59.7905 41.5485C62.2308 41.6136 72.0465 42.2322 74.5286 42.3617C74.5657 42.3613 74.6014 42.3478 74.6293 42.3234C74.6573 42.299 74.6756 42.2655 74.6809 42.2288C74.6863 42.1921 74.6783 42.1547 74.6585 42.1234C74.6387 42.0921 74.6083 42.0689 74.5728 42.058Z" fill="#263B55"/>
<path d="M35.0213 15.0216C34.4742 15.2457 33.8884 15.3599 33.2973 15.3578C32.6888 15.275 32.0717 15.2786 31.4643 15.3687C31.0822 15.4598 30.7286 15.6442 30.4353 15.9054C30.1419 16.1666 29.9179 16.4965 29.7833 16.8655C29.4004 17.9316 29.8516 19.1329 30.4339 20.1081C30.5112 20.2376 30.9222 20.8891 30.933 20.8999C30.8427 21.5793 30.6976 22.2503 30.4991 22.9063C30.4923 22.9326 30.4952 22.9604 30.5072 22.9848C30.5193 23.0091 30.5397 23.0283 30.5648 23.0388C30.5899 23.0493 30.6179 23.0505 30.6437 23.042C30.6695 23.0335 30.6914 23.016 30.7054 22.9927C31.1172 22.3638 31.2475 20.2384 31.3018 19.9995C31.1749 19.9319 31.0764 19.8212 31.024 19.6874C30.9715 19.5535 30.9685 19.4054 31.0156 19.2695C31.0627 19.1337 31.1568 19.0192 31.2808 18.9466C31.4049 18.874 31.5508 18.848 31.6923 18.8735C31.9738 18.2336 32.3969 17.5512 32.939 17.5287C33.4485 17.5078 33.6226 18.1142 34.2946 18.2228C34.6834 18.2654 35.0754 18.1792 35.4105 17.9774C35.7455 17.7755 36.0049 17.4692 36.149 17.1056C36.5724 15.9969 35.7014 14.8053 35.0213 15.0216Z" fill="#263B55"/>
<path d="M43.5563 65.7216C42.758 64.6054 41.7159 63.6857 40.5092 63.0324C40.2807 62.9137 39.9864 63.229 40.2164 63.4116C41.1333 64.1443 42.0816 64.7564 42.8304 65.646C41.3881 65.817 39.9274 65.5566 38.6331 64.8975C38.6548 64.6591 38.1779 64.1383 38.5125 63.336C38.521 63.3068 38.5197 63.2756 38.5088 63.2472C38.4979 63.2188 38.478 63.1947 38.4521 63.1787C38.4263 63.1627 38.3959 63.1556 38.3656 63.1585C38.3353 63.1614 38.3068 63.1742 38.2845 63.1948C37.6663 63.9324 38.1871 64.941 38.198 64.9518C39.4885 66.2424 42.4608 66.2532 43.4035 66.1012C43.615 66.0525 43.6536 65.7702 43.5563 65.7216Z" fill="#263B55"/>
<path d="M46.1593 67.382C45.5963 68.944 46.9403 70.8856 48.6861 70.2128C50.2046 69.6277 50.3261 66.9103 48.8164 66.2315C48.6213 66.1438 48.4142 66.3734 48.5775 66.5351C48.8133 66.7342 49.0062 66.9791 49.1445 67.255C49.2827 67.5309 49.3635 67.832 49.3818 68.1401C49.4108 69.9361 47.5641 70.3495 46.6922 69.0618C46.4139 68.556 46.3002 67.976 46.3669 67.4025C46.3673 67.2976 46.2221 67.2549 46.1593 67.382Z" fill="#263B55"/>
<path d="M48.1115 65.0601C48.9789 65.0818 49.6799 65.2181 50.2586 65.917C50.7414 66.5043 51.0396 67.2213 51.1156 67.9777C51.4828 71.5218 46.6822 72.3981 45.4219 69.6691C45.1824 69.1507 45.0815 68.579 45.1291 68.0098C45.2382 67.2795 45.5458 66.5931 46.0183 66.0256C46.1389 65.8523 45.8876 65.7103 45.7472 65.8193C43.7337 67.3829 44.5544 70.7751 46.8331 71.5782C47.4902 71.8044 48.196 71.8503 48.877 71.711C49.5579 71.5718 50.189 71.2524 50.7046 70.7863C52.9969 68.595 50.7504 63.8214 48.0801 64.8433C48.0563 64.8524 48.0362 64.8693 48.0233 64.8913C48.0104 64.9133 48.0053 64.939 48.0089 64.9642C48.0126 64.9895 48.0247 65.0127 48.0434 65.0302C48.062 65.0476 48.0861 65.0581 48.1115 65.0601Z" fill="#263B55"/>
<path d="M20.5652 62.2747C20.5491 61.2223 19.2533 60.5905 18.342 60.5611C17.7866 60.538 17.24 60.7063 16.7939 61.0381C16.3478 61.3698 16.0291 61.8447 15.8913 62.3833C15.7343 63.0551 15.8313 63.7612 16.1636 64.3659C16.4959 64.9705 17.04 65.4309 17.6914 65.6584C18.7189 66.0135 20.3749 65.6552 20.6086 64.4001C20.6392 64.2372 20.426 64.0546 20.2941 64.2159C20.0263 64.5441 19.8517 64.8939 19.4592 65.0833C18.9917 65.3035 18.461 65.3497 17.9624 65.2136C17.3708 65.0397 16.8721 64.6387 16.5754 64.0981C16.2787 63.5575 16.2081 62.9215 16.3791 62.329C16.768 61.0896 18.3782 60.6528 19.5027 61.3747C19.8419 61.6409 20.1284 61.9682 20.3472 62.3398C20.4244 62.4034 20.5672 62.3925 20.5652 62.2747Z" fill="#263B55"/>
<path d="M3.75545 68.303C8.41802 69.8895 37.4181 78.3568 40.1186 78.9958C40.1704 79.0102 40.2257 79.0035 40.2725 78.977C40.3193 78.9506 40.3537 78.9067 40.3681 78.8549C40.3825 78.8031 40.3758 78.7477 40.3493 78.7009C40.3229 78.6541 40.2789 78.6197 40.2272 78.6053C35.5091 77.1946 6.47763 68.8776 3.79889 68.1184C3.67985 68.0657 3.62556 68.2587 3.75545 68.303Z" fill="#263B55"/>
<path d="M7.19349 73.8447C9.31928 74.6735 17.7701 78.1758 19.947 78.8442C20.1308 78.9005 20.2599 78.6094 20.0773 78.5297C18.0086 77.6281 9.43831 74.3759 7.2695 73.5627C7.09577 73.4976 7.02097 73.7763 7.19349 73.8447Z" fill="#263B55"/>
<path d="M39.8367 49.4219C40.4188 49.5617 41.0164 49.6273 41.615 49.6169C41.6508 49.6158 41.6849 49.6018 41.7112 49.5775C41.7375 49.5532 41.7542 49.5202 41.7581 49.4847C41.7621 49.4491 41.7531 49.4133 41.7328 49.3838C41.7125 49.3543 41.6822 49.3331 41.6476 49.3242C41.0604 49.1961 40.4579 49.1524 39.8584 49.1943C39.7389 49.1931 39.7064 49.4002 39.8367 49.4219Z" fill="#263B55"/>
<path d="M42.1467 36.6467C41.2197 36.0189 38.0146 33.7942 37.2987 32.6883C37.2987 32.6774 37.6068 29.7731 37.2014 28.4805C37.1931 28.4512 37.1746 28.4259 37.1491 28.4091C37.1237 28.3923 37.0931 28.3852 37.0629 28.3891C37.0327 28.393 37.0049 28.4076 36.9845 28.4303C36.9642 28.453 36.9527 28.4822 36.9521 28.5127C37.0936 31.1924 36.7444 33.8753 35.9218 36.4295C35.9116 36.4617 35.9137 36.4966 35.9277 36.5273C35.9417 36.558 35.9666 36.5825 35.9976 36.596C36.0285 36.6095 36.0634 36.611 36.0954 36.6003C36.1275 36.5896 36.1544 36.5675 36.1711 36.5381C36.7292 35.4646 37.0927 34.3008 37.2449 33.1005C37.8738 34.3258 41.0207 36.5859 42.0381 36.9177C42.201 36.9708 42.2887 36.7428 42.1467 36.6467Z" fill="#263B55"/>
<path d="M36.0952 39.9218C35.9653 39.9652 35.8784 39.8567 35.7155 39.9218C35.5096 40.0195 35.325 40.1382 35.1191 40.2363C34.7167 40.4257 34.2716 40.5063 33.8283 40.4701C33.3849 40.4339 32.9588 40.2822 32.5924 40.03C32.3342 39.853 32.0825 39.282 31.8549 39.2168C31.7788 39.1951 29.4146 39.5313 28.0593 39.056C28.0385 38.5037 27.9172 37.9598 27.7014 37.451C27.6851 37.425 27.6607 37.4051 27.632 37.3942C27.6033 37.3833 27.5719 37.3821 27.5424 37.3907C27.513 37.3993 27.4871 37.4172 27.4688 37.4418C27.4505 37.4664 27.4406 37.4963 27.4408 37.527C27.506 38.1451 27.6797 38.7523 27.7879 39.36C26.2915 41.312 25.5648 55.2475 25.196 61.1567C24.3177 61.6884 24.2751 63.2387 24.3177 63.2934C25.0456 64.2276 29.1544 64.649 30.3902 64.7246C30.4304 64.7239 30.4697 64.7127 30.5042 64.6921C30.5388 64.6715 30.5673 64.6422 30.5871 64.6072C30.6068 64.5722 30.6171 64.5326 30.6168 64.4924C30.6166 64.4522 30.6058 64.4127 30.5857 64.378C29.7203 63.0681 28.453 62.0746 26.9743 61.5472C28.3191 57.6757 31.5725 46.8199 32.1581 44.5763C32.6246 47.0596 36.9083 58.4036 38.5785 62.9041C38.6992 63.0113 38.8437 63.0885 39 63.1291C39.1563 63.1697 39.3201 63.1727 39.4778 63.1377C39.6355 63.1028 39.7826 63.031 39.9072 62.9281C40.0318 62.8253 40.1302 62.6944 40.1943 62.5462C39.8694 58.564 39.4789 48.0119 36.0952 39.9218ZM29.9137 64.2251C28.9376 64.1383 25.6408 63.7695 24.6539 63.1731C24.7294 62.6273 24.9257 62.1052 25.2286 61.6449C25.4493 61.7797 25.6966 61.865 25.9535 61.8949C26.2104 61.9249 26.4707 61.8987 26.7165 61.8183C26.7254 61.8609 29.0571 62.9781 29.9137 64.2251Z" fill="#263B55"/>
<path d="M47.1138 36.4082C46.6476 36.0006 46.0951 35.7039 45.4979 35.5403C45.4831 35.4308 45.4417 35.3265 45.3773 35.2367C42.7882 33.5645 42.1448 32.274 40.4658 29.4891C39.2384 27.4514 37.8441 25.5058 35.6074 24.5125C35.4867 24.459 35.3918 24.6287 35.5096 24.6858C39.834 26.7878 40.7477 33.2653 44.8147 35.3682C44.4725 35.4595 44.1733 35.668 43.9691 35.9574C43.765 36.2467 43.6688 36.5985 43.6975 36.9515C43.718 37.0721 43.9034 37.0596 43.936 36.9515C43.9993 36.6267 44.1635 36.3302 44.405 36.1042C44.6466 35.8781 44.9534 35.734 45.2816 35.6923C45.6438 35.866 45.9951 36.0615 46.3336 36.2779C47.4403 36.9929 47.0712 37.5245 46.7892 37.8937C46.8974 37.5901 46.8218 37.0263 46.4205 36.9937C46.3662 36.9937 46.2998 37.0588 46.3336 37.1019C46.401 37.1918 46.4459 37.2965 46.4647 37.4073C46.4834 37.518 46.4755 37.6317 46.4416 37.7388C46.4077 37.8459 46.3487 37.9434 46.2696 38.0231C46.1904 38.1029 46.0934 38.1626 45.9865 38.1973C46.0749 38.0295 46.107 37.8377 46.078 37.6502C46.049 37.4627 45.9606 37.2895 45.8257 37.1562C45.7408 37.0568 45.5993 37.1775 45.652 37.2865C45.7134 37.3782 45.7522 37.4832 45.7653 37.5928C45.7784 37.7025 45.7654 37.8137 45.7273 37.9173C45.6892 38.021 45.6272 38.1141 45.5462 38.1892C45.4652 38.2643 45.3677 38.3192 45.2615 38.3493C45.3446 38.1758 45.3813 37.9836 45.368 37.7917C45.3548 37.5997 45.292 37.4144 45.1859 37.2539C45.1308 37.1457 44.959 37.2209 44.9904 37.3408C45.0498 37.4716 45.0814 37.6134 45.0833 37.757C45.0851 37.9007 45.0572 38.0433 45.0013 38.1756C44.8625 38.3831 44.5106 38.5376 44.3176 38.3276C44.2187 38.2203 44.0803 38.3381 44.1009 38.4575C44.1708 38.8689 44.7407 38.772 45.0226 38.6095C45.1469 38.6442 45.2773 38.6513 45.4047 38.6305C45.532 38.6096 45.6533 38.5613 45.7601 38.4889C45.9301 38.5059 46.1018 38.4835 46.2616 38.4233C46.4215 38.3631 46.5653 38.2668 46.6819 38.1418C46.6901 38.1685 46.7081 38.1912 46.7322 38.2053C46.7563 38.2193 46.7849 38.2238 46.8122 38.2178C47.6362 38.0441 47.6141 36.9181 47.1138 36.4082Z" fill="#263B55"/>
<path d="M36.0409 37.4924C35.6317 37.2217 35.1407 37.1027 34.653 37.1562C34.2404 37.1502 33.8278 37.1717 33.418 37.2205C31.6863 35.0626 30.5123 32.5117 29.9997 29.7927C29.9756 29.652 29.7717 29.695 29.7717 29.8249C29.5875 32.6448 31.3336 35.0091 32.9487 37.1236C32.7024 37.3201 32.5117 37.5777 32.3957 37.8706C32.2796 38.1636 32.2422 38.4819 32.2872 38.7938C32.3077 38.9349 32.5136 38.8806 32.5148 38.7612C32.5192 38.5009 32.5867 38.2456 32.7113 38.017C32.836 37.7885 33.0142 37.5936 33.2306 37.4489C33.7542 37.4164 34.2794 37.4164 34.803 37.4489C35.0551 37.4212 35.3097 37.4681 35.5353 37.5838C35.7609 37.6995 35.9476 37.8788 36.0722 38.0996C36.1685 38.2783 36.1963 38.4859 36.1503 38.6836C36.1044 38.8813 35.988 39.0554 35.8229 39.1734C35.8763 38.988 35.8865 38.7929 35.8527 38.603C35.8189 38.4131 35.742 38.2334 35.6278 38.0779C35.5727 37.9919 35.3994 38.0457 35.4433 38.1539C35.562 38.3839 35.5876 38.6507 35.5149 38.899C35.4422 39.1474 35.2767 39.3582 35.0528 39.4879C35.1511 39.2778 35.1882 39.0442 35.1597 38.814C35.1313 38.5838 35.0384 38.3663 34.8919 38.1865C34.8163 38.0888 34.6526 38.2195 34.7182 38.3277C34.9554 38.7189 34.9028 39.4227 34.4797 39.6182C34.5417 39.4214 34.5514 39.2118 34.5076 39.0102C34.4639 38.8086 34.3683 38.6218 34.2304 38.4684C34.2143 38.4534 34.1935 38.4444 34.1716 38.443C34.1496 38.4416 34.1279 38.4478 34.11 38.4606C34.0921 38.4733 34.0792 38.4919 34.0734 38.5131C34.0676 38.5344 34.0694 38.5569 34.0783 38.577C34.5682 39.6548 33.5483 39.9411 33.1675 39.7481C33.1401 39.7344 33.1087 39.7308 33.0789 39.738C33.0492 39.7452 33.0229 39.7627 33.0048 39.7873C32.9866 39.812 32.9778 39.8423 32.9798 39.8729C32.9818 39.9034 32.9946 39.9323 33.0159 39.9544C33.1709 40.1118 33.379 40.2057 33.5996 40.2178C33.8202 40.2298 34.0374 40.1591 34.2086 40.0195C34.2937 40.0403 34.3824 40.0402 34.4674 40.0192C34.5523 39.9982 34.6309 39.9569 34.6965 39.8989C34.8429 39.9188 34.9919 39.9057 35.1326 39.8607C35.2734 39.8157 35.4023 39.7399 35.51 39.6387C35.5506 39.6691 35.6005 39.6845 35.6512 39.6821C36.6915 39.4879 36.7868 38.092 36.0409 37.4924Z" fill="#263B55"/>
<path d="M33.7416 38.5444C33.3986 38.1604 32.7548 38.5042 32.7548 39.0757C32.7565 39.188 32.7912 39.2973 32.8544 39.3901C32.9176 39.4829 33.0066 39.5552 33.1104 39.598C33.2143 39.6407 33.3284 39.6522 33.4386 39.6308C33.5489 39.6095 33.6504 39.5563 33.7308 39.4778C33.8408 39.3478 33.9021 39.1835 33.9041 39.0131C33.9061 38.8427 33.8486 38.677 33.7416 38.5444Z" fill="#2ECC71"/>
<path d="M22.5933 25.9425C18.4899 25.8904 14.5109 24.526 11.2389 22.0493C11.1086 21.9515 10.9373 22.1554 11.0651 22.2769C14.2663 25.3208 20.5865 26.2626 22.5933 26.2353C22.6321 26.2353 22.6693 26.2199 22.6968 26.1924C22.7242 26.165 22.7397 26.1277 22.7397 26.0889C22.7397 26.0501 22.7242 26.0128 22.6968 25.9854C22.6693 25.9579 22.6321 25.9425 22.5933 25.9425Z" fill="#263B55"/>
<path d="M20.1751 31.9926C17.9982 32.1769 15.8116 31.7763 13.8415 30.8319C13.8104 30.817 13.7752 30.8132 13.7416 30.8211C13.708 30.829 13.6781 30.8482 13.6569 30.8754C13.6397 30.906 13.6346 30.9419 13.6426 30.9761C13.6507 31.0103 13.6713 31.0403 13.7004 31.06C15.453 32.4068 18.0517 32.5057 20.1642 32.2962C20.3596 32.2785 20.3701 31.9821 20.1751 31.9926Z" fill="#263B55"/>
<path d="M22.7886 38.382C17.1874 38.7817 11.6125 37.3049 6.94374 34.1847C6.81385 34.0974 6.65057 34.2937 6.77001 34.4127C10.802 38.417 19.6876 39.2313 22.7886 38.653C22.9619 38.6205 22.9619 38.3735 22.7886 38.382Z" fill="#263B55"/>
<path d="M48.5667 64.4528C48.6048 64.4466 48.6399 64.4286 48.6671 64.4014C48.6944 64.3742 48.7125 64.3391 48.7188 64.3011C48.7188 64.2686 48.9138 63.6939 47.45 63.7156C46.2893 59.2799 42.2119 42.416 41.3549 38.5987C42.3961 38.4467 43.4156 38.2951 44.435 38.1648C44.4753 38.1551 44.5124 38.1352 44.5427 38.107C44.5731 38.0789 44.5957 38.0434 44.6083 38.0039C44.6723 37.7864 44.5971 37.3388 44.3699 37.3641C43.153 37.498 38.1341 38.0365 36.8979 38.1447L36.9196 39.327C37.9821 39.1424 39.0667 38.9582 40.1621 38.7954C41.0404 42.4393 43.2961 51.3864 43.5024 52.2213C40.8563 54 43.8925 58.1329 44.9554 57.8172C45.4979 59.8996 46.0617 61.9819 46.6147 64.0639C45.9749 65.2788 47.3197 68.3802 47.6342 68.5539C47.7114 68.5997 47.7974 68.6287 47.8866 68.6393C47.9758 68.6498 48.0662 68.6415 48.152 68.615C48.2378 68.5885 48.3171 68.5443 48.3848 68.4853C48.4525 68.4263 48.507 68.3538 48.545 68.2724C48.687 67.9258 47.2899 65.6673 47.8835 64.7367C47.9601 64.6309 48.0644 64.5484 48.185 64.4983C48.3056 64.4482 48.4377 64.4324 48.5667 64.4528Z" fill="#2ECC71"/>
<path d="M34.3168 23.3941C34.2591 23.381 34.1988 23.3848 34.1431 23.405C33.8502 23.5335 33.585 23.7176 33.3621 23.9471C33.373 23.6977 33.3838 23.4593 33.4055 23.2099C35.0419 22.6819 35.6978 20.1367 35.3685 18.4054C35.3479 18.2968 35.1843 18.3294 35.1843 18.4271V18.8293C35.0577 18.7294 34.9193 18.6456 34.7721 18.5799C34.6422 18.5248 34.5674 18.7408 34.6852 18.7967C34.982 18.9411 35.0757 19.2306 35.1625 19.2954C35.1083 20.1306 34.5424 22.4679 33.3621 22.8745C32.6784 23.1098 32.2763 22.7539 31.9546 22.2021C31.9398 22.1787 31.9179 22.1607 31.8921 22.1506C31.8663 22.1406 31.8379 22.1391 31.8112 22.1463C31.7845 22.1536 31.7608 22.1692 31.7436 22.1909C31.7264 22.2126 31.7166 22.2392 31.7157 22.2669C31.8894 23.2216 33.0066 23.2863 33.1582 23.2646C33.0805 23.5589 33.0731 23.8673 33.1365 24.165C32.7473 24.5987 32.452 25.1082 32.2691 25.6615C32.1484 25.1736 31.0682 23.5469 30.0025 23.1456C29.8308 23.0808 28.8805 23.9314 28.7876 24.089C28.7672 24.1614 28.7749 24.2389 28.8093 24.3058C28.8962 24.3818 28.9831 24.4687 29.0695 24.5447C29.0448 24.5323 29.0178 24.5249 28.9902 24.523C28.9626 24.5212 28.9348 24.5248 28.9087 24.5338C26.6856 25.1736 25.4694 27.5592 25.243 29.7176C24.7894 34.0073 27.884 37.8543 31.367 38.8915C31.3963 38.9 31.4277 38.8976 31.4552 38.8846C31.4828 38.8715 31.5046 38.8489 31.5166 38.8208C31.5286 38.7928 31.5299 38.7614 31.5203 38.7324C31.5106 38.7035 31.4907 38.6791 31.4643 38.6639C30.0156 37.999 28.7198 37.0421 27.658 35.8532C23.9984 31.5341 25.9798 25.6888 29.2521 24.7373C29.686 25.0952 30.0564 25.7568 30.3476 25.9409C30.3838 25.952 30.4221 25.9548 30.4596 25.9491C30.4971 25.9435 30.5329 25.9296 30.5643 25.9084C30.662 25.8002 31.1499 25.4857 31.2367 25.3771C31.2496 25.3644 31.2599 25.3492 31.2669 25.3324C31.2738 25.3157 31.2774 25.2977 31.2774 25.2796C31.2774 25.2615 31.2738 25.2435 31.2669 25.2268C31.2599 25.21 31.2496 25.1948 31.2367 25.1821C31.2202 25.1689 31.2019 25.1579 31.1824 25.1495C30.9009 25.0952 30.6295 25.3337 30.4557 25.5722C30.0782 25.0683 29.6288 24.6225 29.1218 24.2491C29.4336 24.0166 29.7017 23.7307 29.9136 23.4046C30.8732 24.0646 31.6224 24.9871 32.0716 26.0616C32.0937 26.1046 32.4287 26.2454 32.4838 26.0833C32.7929 25.1289 33.3825 24.2899 34.1757 23.6756C34.3881 23.9501 34.6404 24.1914 34.9241 24.3915C34.5412 24.8079 34.2559 25.3044 34.0888 25.8448C33.8273 25.6317 33.5348 25.4597 33.2214 25.3349C33.2006 25.3295 33.1787 25.3309 33.1589 25.339C33.1391 25.3471 33.1224 25.3613 33.1114 25.3797C33.1004 25.398 33.0956 25.4195 33.0978 25.4408C33.1 25.4621 33.1091 25.4821 33.1236 25.4978C33.4051 25.7793 33.7309 26.029 34.0345 26.2892C34.0577 26.3116 34.0862 26.3277 34.1174 26.3362C34.1485 26.3446 34.1812 26.345 34.2126 26.3375C34.2439 26.3299 34.2729 26.3145 34.2967 26.2928C34.3206 26.2711 34.3385 26.2437 34.349 26.2132C34.5857 25.5903 34.907 25.0029 35.3037 24.4675C35.4987 24.2712 34.4467 23.4701 34.3168 23.3941Z" fill="#263B55"/>
<path d="M34.7286 19.5334C34.66 19.7356 34.6414 19.9514 34.6743 20.1624C34.686 20.1809 34.7015 20.1968 34.7199 20.2087C34.7383 20.2207 34.7591 20.2285 34.7808 20.2316C34.8025 20.2347 34.8246 20.233 34.8456 20.2267C34.8666 20.2203 34.886 20.2095 34.9024 20.1949C34.9862 19.9959 35.0016 19.7747 34.9462 19.566C34.9024 19.49 34.8155 19.4248 34.7286 19.5334Z" fill="#263B55"/>
<path d="M32.82 19.9239C32.831 19.9429 32.8457 19.9594 32.8633 19.9725C32.8808 19.9855 32.9009 19.9949 32.9222 19.9999C32.9435 20.005 32.9656 20.0056 32.9872 20.0018C33.0088 19.998 33.0293 19.9898 33.0476 19.9778C33.1462 19.9143 33.2105 19.5008 33.2105 19.4031C33.2105 19.2515 33.0046 19.1216 32.8743 19.3597C32.8259 19.5436 32.8075 19.7341 32.82 19.9239Z" fill="#263B55"/>
<path d="M32.6033 18.8936C32.8254 18.797 33.0585 18.7277 33.2974 18.6873C33.3147 18.6773 33.3296 18.6636 33.3409 18.6471C33.3522 18.6307 33.3598 18.6119 33.3629 18.5921C33.366 18.5724 33.3647 18.5522 33.359 18.533C33.3533 18.5139 33.3433 18.4962 33.3299 18.4814C32.9849 18.1834 32.2272 18.7327 32.5256 18.8835C32.5366 18.8917 32.5496 18.8969 32.5631 18.8987C32.5767 18.9004 32.5905 18.8987 32.6033 18.8936Z" fill="#263B55"/>
<path d="M32.2344 21.0942C32.2105 21.2007 32.212 21.3114 32.2389 21.4173C32.2658 21.5231 32.3172 21.6212 32.389 21.7034C32.4609 21.7857 32.5511 21.8499 32.6524 21.8907C32.7536 21.9316 32.8631 21.948 32.9719 21.9387C33.1018 21.8957 33.0367 21.7545 33.0258 21.7437C32.9176 21.6351 32.538 21.4075 32.4729 21.0713C32.4403 20.9538 32.2678 20.9977 32.2344 21.0942Z" fill="#263B55"/>
<path d="M33.2866 20.9756C33.4474 21.3335 33.8496 21.4421 34.0237 21.0299C34.253 20.3543 34.2719 19.6252 34.078 18.9387C34.0659 18.9017 34.0399 18.8709 34.0056 18.8527C33.9712 18.8345 33.9312 18.8303 33.8938 18.8409C33.867 18.8512 33.8436 18.8689 33.8263 18.8919C33.809 18.9148 33.7985 18.9422 33.7961 18.9708C33.7909 19.2857 33.9167 21.424 33.4925 20.8147C33.408 20.692 33.2323 20.8565 33.2866 20.9756Z" fill="#263B55"/>
</svg>
