<svg width="82" height="81" viewBox="0 0 82 81" fill="none" xmlns="http://www.w3.org/2000/svg">
<path d="M76.5617 42.2722C78.295 42.2722 51.5626 42.2553 51.6455 42.2658C51.5248 42.2404 51.4738 42.4246 51.5944 42.45C51.7995 42.4874 76.3063 42.5344 76.5806 42.4246C76.7206 42.4246 76.6675 42.2457 76.5617 42.2722Z" fill="#5E84A1" fill-opacity="0.533333"/>
<path d="M54.8169 41.2761C54.8112 41.3722 54.9697 41.3754 54.9697 41.2443C55.0678 40.9495 55.0264 34.8034 55.0143 34.6659C55.2468 34.6876 55.2584 34.6727 56.8321 34.6848C56.8321 34.6848 56.7939 40.7107 56.8003 40.9266C56.8003 41.0412 56.8192 41.1619 56.8128 41.2761C56.8067 41.3714 56.9527 41.3654 56.9591 41.2761C56.9591 41.3074 56.972 41.2146 56.972 41.1808C57.0746 40.1533 57.0098 35.5788 57.0098 34.6257C57.0222 34.6129 57.0292 34.5958 57.0292 34.578C57.0292 34.5602 57.0222 34.5431 57.0098 34.5304C56.9713 34.5037 56.928 34.4849 56.8822 34.4751C56.8365 34.4652 56.7892 34.4645 56.7432 34.4729C56.703 34.4729 55.131 34.4873 54.9633 34.5111C54.9194 34.4761 54.8551 34.5018 54.8551 34.5875C54.8149 34.8288 54.7968 40.8904 54.798 40.931C54.8146 41.0453 54.8209 41.1607 54.8169 41.2761Z" fill="#5E84A1" fill-opacity="0.533333"/>
<path d="M59.4126 41.1981C59.4062 41.2934 59.5525 41.287 59.5586 41.1981C59.5586 41.2106 59.5586 41.1917 59.565 41.1728C59.565 41.1599 59.565 41.147 59.5714 41.141C59.6543 40.8112 59.6032 35.0528 59.6032 32.7762C59.83 32.7963 61.4744 32.7891 61.4338 32.7891C61.4185 32.8948 61.3992 41.2399 61.402 41.1985C61.3956 41.2938 61.542 41.2874 61.5484 41.1985C61.5484 41.211 61.5484 41.1856 61.5545 41.1732C61.5535 41.1601 61.5557 41.147 61.5609 41.135C61.6413 40.8132 61.6011 32.8265 61.5862 32.7299L61.5927 32.7235C61.6049 32.7107 61.6117 32.6936 61.6117 32.6759C61.6117 32.6581 61.6049 32.6411 61.5927 32.6282C61.5135 32.5774 61.4186 32.5572 61.3256 32.5711C61.2854 32.5711 59.7432 32.5868 59.5586 32.6153C59.5523 32.6063 59.5436 32.5993 59.5335 32.5952C59.5233 32.5911 59.5122 32.5899 59.5014 32.592C59.4907 32.594 59.4807 32.5991 59.4728 32.6067C59.4649 32.6143 59.4593 32.624 59.4568 32.6346C59.4568 32.6765 59.3877 41.5697 59.4126 41.1981Z" fill="#5E84A1" fill-opacity="0.533333"/>
<path d="M64.1669 41.1981C64.1605 41.2934 64.3069 41.2934 64.3133 41.1981C64.3357 41.0466 64.3463 40.8936 64.3451 40.7404C64.3958 39.6277 64.3632 30.8113 64.3515 30.7164C64.5192 30.7312 64.4794 30.7292 66.1821 30.7292C66.1821 30.8044 66.1628 30.8257 66.1628 30.8816V41.1981C66.1628 41.2068 66.1646 41.2155 66.1679 41.2236C66.1713 41.2317 66.1762 41.2391 66.1824 41.2453C66.1886 41.2515 66.1959 41.2564 66.204 41.2598C66.2121 41.2631 66.2208 41.2648 66.2296 41.2648C66.2384 41.2648 66.247 41.2631 66.2551 41.2598C66.2632 41.2564 66.2706 41.2515 66.2768 41.2453C66.283 41.2391 66.2879 41.2317 66.2913 41.2236C66.2946 41.2155 66.2963 41.2068 66.2963 41.1981C66.3447 40.7655 66.3659 40.3303 66.3599 39.8951C66.3961 37.5803 66.3124 30.6657 66.3535 30.6657C66.3659 30.6529 66.3728 30.6358 66.3728 30.618C66.3728 30.6002 66.3659 30.5831 66.3535 30.5704C66.2356 30.4899 66.3587 30.506 64.5739 30.5386C64.491 30.5387 64.4082 30.545 64.3262 30.5575C64.321 30.5472 64.3129 30.5387 64.3029 30.533C64.2929 30.5273 64.2815 30.5246 64.27 30.5253C64.2585 30.526 64.2475 30.53 64.2383 30.5369C64.229 30.5437 64.222 30.5531 64.218 30.5639C64.218 30.5969 64.1939 30.6001 64.2052 30.6339C64.1561 30.8808 64.1645 41.2391 64.1669 41.1981Z" fill="#5E84A1" fill-opacity="0.533333"/>
<path d="M69.074 41.1554V41.1872C69.0676 41.2825 69.214 41.2825 69.2204 41.1872V41.149C69.2195 41.1338 69.2215 41.1187 69.2264 41.1043C69.3069 40.6294 69.2667 29.3888 69.2522 29.2565C69.4798 29.2766 71.1234 29.2694 71.0828 29.2694C71.0794 29.3081 71.0719 29.3464 71.0603 29.3836V41.1807C71.0603 41.1989 71.0675 41.2163 71.0803 41.2291C71.0931 41.2419 71.1105 41.2491 71.1286 41.2491C71.1468 41.2491 71.1642 41.2419 71.177 41.2291C71.1898 41.2163 71.197 41.1989 71.197 41.1807V41.1425C71.196 41.1254 71.1981 41.1082 71.2034 41.0919C71.2754 40.6596 71.2561 29.3309 71.2288 29.2501V29.2115C71.2541 29.2115 71.279 29.1467 71.2416 29.1097C71.2305 29.099 71.2176 29.0903 71.2034 29.084C70.9757 29.0342 70.7406 29.0278 70.5105 29.0651C70.078 29.0541 69.6451 29.0669 69.214 29.1033C69.2011 29.0522 69.1122 29.0522 69.1058 29.1033C69.1058 29.1266 69.0833 29.1596 69.0933 29.1797C69.066 29.3434 69.0326 40.6411 69.0487 41.11C69.074 41.1281 69.074 41.1405 69.074 41.1554Z" fill="#5E84A1" fill-opacity="0.533333"/>
<path d="M69.3538 25.981C68.8221 25.857 68.2787 25.7896 67.7328 25.7799C67.7141 25.7803 67.6963 25.7874 67.6825 25.7999C67.6686 25.8124 67.6598 25.8295 67.6575 25.848C67.6552 25.8664 67.6596 25.8851 67.67 25.9006C67.6803 25.9161 67.6959 25.9274 67.7139 25.9323C68.2092 26.0578 68.7125 26.149 69.2203 26.2054C68.4891 26.7391 67.7272 27.2295 66.9385 27.674C62.1219 30.4111 57.056 31.1965 55.0903 31.6654C54.9761 31.6912 55.0267 31.85 55.1349 31.8307C55.6432 31.7607 56.152 31.653 56.6538 31.5448C60.7063 30.6818 64.748 29.3723 68.2041 27.1444C68.5866 26.8987 68.9621 26.6421 69.3301 26.3751C69.3193 26.4523 69.3301 26.4716 69.2666 26.9345C69.2288 27.2204 69.1588 27.5003 69.127 27.7863C69.1142 27.9262 69.3281 27.9451 69.3683 27.818C69.4713 27.3553 69.5414 26.8859 69.5782 26.4133C69.6116 26.0345 69.6579 26.0192 69.3538 25.981Z" fill="#5E84A1" fill-opacity="0.533333"/>
<path d="M78.8881 9.83614C78.8857 9.81773 78.8797 9.79997 78.8704 9.7839C78.8611 9.76783 78.8487 9.75378 78.8339 9.74255C78.8192 9.73132 78.8023 9.72315 78.7843 9.7185C78.7663 9.71386 78.7476 9.71283 78.7293 9.71549C78.689 9.71549 7.45961 9.87917 7.41859 9.89968C7.40304 9.87963 7.38157 9.865 7.35724 9.85785C7.3329 9.85071 7.30692 9.85142 7.28301 9.85988C7.2591 9.86834 7.23846 9.88412 7.22403 9.90499C7.2096 9.92585 7.20211 9.95073 7.20263 9.97609C7.20263 10.4703 7.41457 47.9591 7.38682 48.2342C7.38038 48.4059 7.64741 48.4059 7.66028 48.2342C7.71296 47.2437 7.71377 47.1648 7.46323 10.1603C8.29528 10.1723 78.5511 9.95075 78.6275 9.95075C78.6275 11.865 78.8374 47.8127 78.8117 48.0689C78.8057 48.2406 79.0723 48.2406 79.0852 48.0689C79.2714 44.5689 78.8933 9.88802 78.8881 9.83614Z" fill="#263B55"/>
<path d="M19.9859 45.8888C19.98 45.8704 19.97 45.8535 19.9566 45.8396C19.9432 45.8256 19.9268 45.8149 19.9087 45.8083C19.5908 44.7873 19.1685 43.8018 18.6483 42.8674C18.7999 42.612 18.7573 40.7762 18.7211 40.3029C18.7202 40.2837 18.715 40.265 18.706 40.248C18.697 40.2311 18.6843 40.2163 18.669 40.2048C18.6536 40.1933 18.6359 40.1853 18.6171 40.1814C18.5983 40.1775 18.5789 40.1778 18.5602 40.1822C16.5447 40.5413 14.3598 41.301 12.9985 42.8328C12.8892 42.9239 12.806 43.0422 12.7572 43.1758C12.7254 43.3283 12.8336 43.5 12.8843 43.6403C13.2341 44.526 13.637 45.3898 14.0907 46.227C14.0967 46.2367 14.1049 46.2449 14.1147 46.2508C14.1245 46.2567 14.1356 46.2601 14.147 46.2608C13.7601 46.9533 14.3079 47.9498 14.9742 47.9498C14.9867 48.0769 15.0378 48.204 15.0567 48.325C15.1773 48.9902 14.9224 49.3642 14.9803 49.5769C14.9835 49.5877 14.989 49.5976 14.9965 49.6059C15.004 49.6143 15.0133 49.6208 15.0237 49.6251C15.0341 49.6294 15.0453 49.6313 15.0565 49.6307C15.0677 49.6301 15.0786 49.6269 15.0885 49.6216C15.3965 49.4064 15.3615 48.2542 15.2027 47.918C15.4524 47.8539 15.6698 47.7 15.8131 47.4857C15.8217 47.4708 15.8258 47.4537 15.8249 47.4364C15.824 47.4192 15.8182 47.4026 15.8082 47.3886C15.7981 47.3746 15.7843 47.3638 15.7683 47.3574C15.7523 47.351 15.7348 47.3493 15.7178 47.3526C15.4874 47.4117 14.9666 48.0797 14.4655 47.3651C14.0545 46.7824 14.3384 46.0782 14.8086 46.1063C14.9146 46.1226 15.0175 46.1549 15.1138 46.2021C15.154 46.2153 15.3527 46.1478 15.3551 46.0412C15.368 45.5184 15.45 44.998 15.495 44.4776C15.5087 44.3168 15.4697 44.2745 15.6092 44.2046C16.5565 43.7473 17.5271 43.3397 18.5168 42.9836C18.621 43.2358 18.8659 43.7272 18.9081 43.8551C18.8209 43.8342 18.7299 43.8343 18.6427 43.8553C18.5555 43.8762 18.4745 43.9175 18.4062 43.9757C18.3936 43.9888 18.3856 44.0057 18.3834 44.0238C18.3811 44.0418 18.3848 44.0601 18.3939 44.0759C18.403 44.0917 18.4169 44.1041 18.4336 44.1113C18.4504 44.1184 18.469 44.12 18.4867 44.1157C18.6122 44.0741 18.7475 44.0719 18.8743 44.1092C18.9121 44.1169 18.9672 44.1249 18.995 44.0968C19.2534 44.6944 19.4795 45.3055 19.6722 45.9274C19.1846 46.3715 18.57 46.6515 17.915 46.7279C17.2599 46.8043 16.5973 46.6733 16.0207 46.3533C15.8156 46.1486 15.6635 46.3649 15.7918 46.4928C16.1339 46.8292 16.3759 47.254 16.4908 47.7198C16.5619 48.0206 16.504 48.2197 16.7831 48.317C17.269 48.5004 17.7794 48.611 18.2976 48.6451C18.2832 48.7984 18.3443 49.1965 18.4802 49.2838C18.5249 49.3087 18.6009 49.2898 18.6073 49.2327C18.627 49.1161 18.5104 48.9262 18.4742 48.6504C19.6239 48.6423 20.497 47.5742 19.9859 45.8888ZM19.1217 47.6052C19.0542 47.6692 18.9694 47.7118 18.8777 47.7276C18.7861 47.7434 18.6919 47.7317 18.6069 47.694C18.5269 47.6577 18.4577 47.6011 18.4064 47.5298C18.355 47.4584 18.3232 47.3749 18.3141 47.2875C18.3141 47.2364 18.3781 47.2107 18.4034 47.2364C18.5176 47.351 18.6005 47.5444 18.7911 47.5416C18.9817 47.5388 19.0903 47.3333 19.1663 47.2746C19.3091 47.162 19.3827 47.3928 19.1205 47.6052H19.1217Z" fill="#263B55"/>
<path d="M18.7199 45.3804C18.7985 45.5159 18.8584 45.6613 18.8981 45.8127C18.8981 45.937 18.6343 45.9611 18.51 45.9523C18.4481 45.9523 18.3656 46.0235 18.3958 46.0987C18.404 46.1212 18.4187 46.1407 18.4379 46.155C18.4571 46.1693 18.4801 46.1777 18.504 46.1791C18.6046 46.196 18.7079 46.1886 18.8051 46.1577C18.9024 46.1268 18.9909 46.0732 19.0634 46.0014C19.1905 45.8296 19.0758 45.6133 18.9994 45.442C18.8381 45.054 18.5928 44.7067 18.2812 44.4249C18.2241 44.3803 18.1288 44.4374 18.1734 44.5053C18.3759 44.7838 18.5585 45.0763 18.7199 45.3804Z" fill="#263B55"/>
<path d="M17.0041 44.961C17.0462 44.8723 17.1021 44.7909 17.1697 44.7197C17.2373 44.6578 17.2771 44.6666 17.3395 44.5794C17.4368 44.4426 17.2916 44.3807 17.2019 44.4044C17.1138 44.4438 17.0358 44.5028 16.9739 44.5769C16.912 44.651 16.8679 44.7382 16.8448 44.8319C16.8146 44.9843 16.9602 45.0479 17.0041 44.961Z" fill="#263B55"/>
<path d="M6.38865 52.6711C6.58004 52.4054 6.68849 52.089 6.70032 51.7618C6.62318 51.4332 6.51686 51.112 6.38262 50.8023C6.31256 50.4585 6.33886 50.1021 6.45863 49.7724C6.46506 49.7088 6.37618 49.6835 6.33798 49.7217C6.25195 49.8336 6.18908 49.9615 6.15303 50.0979C6.11699 50.2343 6.1085 50.3766 6.12806 50.5163C6.15661 51.1686 6.67619 51.5809 6.42042 52.1688C6.2896 52.4 6.17498 52.64 6.07738 52.887C6.01384 53.1094 6.00741 53.4653 6.25514 53.5864C6.26672 53.5926 6.28001 53.595 6.29303 53.5931C6.30606 53.5912 6.31812 53.5851 6.32743 53.5758C6.33674 53.5665 6.34279 53.5545 6.3447 53.5414C6.3466 53.5284 6.34424 53.5151 6.33798 53.5035C6.26633 53.3744 6.23303 53.2274 6.24201 53.0799C6.25098 52.9325 6.30186 52.7906 6.38865 52.6711Z" fill="#263B55"/>
<path d="M5.23217 49.7724C5.25027 49.8999 5.24464 50.0777 5.33995 50.1746C5.35154 50.1849 5.36549 50.1922 5.38056 50.1959C5.39564 50.1997 5.4114 50.1996 5.42646 50.1959C5.44152 50.1921 5.45544 50.1847 5.46699 50.1743C5.47855 50.164 5.4874 50.1509 5.49277 50.1364C5.55189 49.9932 5.43888 49.8207 5.41636 49.3228C5.39746 49.0493 5.39102 48.7699 5.37816 48.4964C5.37212 48.4204 5.25751 48.4011 5.24464 48.4775C5.18 48.9064 5.1758 49.3423 5.23217 49.7724Z" fill="#263B55"/>
<path d="M4.51387 50.1729C4.52055 50.2681 4.55604 50.359 4.61561 50.4335C4.62621 50.4447 4.63963 50.4529 4.65446 50.4571C4.66929 50.4614 4.68499 50.4615 4.69991 50.4576C4.71483 50.4537 4.72843 50.4459 4.73928 50.4349C4.75013 50.424 4.75784 50.4103 4.76159 50.3953C4.7828 50.3069 4.77848 50.2143 4.74913 50.1283C4.63491 49.4817 4.57105 48.8271 4.5581 48.1706C4.55207 48.1006 4.44389 48.0753 4.43102 48.1517C4.33792 48.825 4.36597 49.5095 4.51387 50.1729Z" fill="#263B55"/>
<path d="M3.69867 50.1476C3.73688 50.2747 3.75578 50.4653 3.89573 50.5224C3.91261 50.5279 3.93093 50.5272 3.94729 50.5202C3.96364 50.5133 3.9769 50.5006 3.9846 50.4846C4.08313 50.3072 3.84184 50.1689 3.6287 48.7682C3.61583 48.6793 3.46341 48.6982 3.46784 48.7875C3.49496 49.2479 3.57237 49.704 3.69867 50.1476Z" fill="#263B55"/>
<path d="M4.10096 53.3005C3.36301 52.094 3.21622 50.8811 2.88726 49.5821C2.86796 49.5017 2.7264 49.5186 2.74087 49.6014C2.84962 50.8751 3.2082 52.1148 3.79613 53.2498C3.885 53.4106 3.99318 53.5675 4.08206 53.7263C4.27107 54.0505 4.25458 54.1172 4.35552 54.1715C4.36667 54.177 4.37887 54.1801 4.39131 54.1804C4.40374 54.1808 4.4161 54.1785 4.42755 54.1736C4.439 54.1688 4.44927 54.1615 4.45766 54.1523C4.46605 54.1432 4.47237 54.1323 4.47617 54.1204C4.54011 53.9696 4.3893 53.7722 4.10096 53.3005Z" fill="#263B55"/>
<path d="M3.68741 51.1135C3.67909 51.1227 3.67427 51.1346 3.67378 51.147C3.67328 51.1594 3.67715 51.1715 3.6847 51.1814C3.69225 51.1912 3.70301 51.1981 3.71511 51.2009C3.72722 51.2036 3.73989 51.202 3.75095 51.1964C4.85606 50.6309 5.19066 50.9277 5.51157 50.8722C5.58155 50.8594 5.57511 50.7705 5.53088 50.7323C5.29522 50.5529 4.25082 50.5505 3.68741 51.1135Z" fill="#263B55"/>
<path d="M58.3321 51.8C58.5155 51.5479 58.6201 51.2472 58.6329 50.9358C58.5612 50.6223 58.4612 50.3159 58.3341 50.0205C58.2715 49.6932 58.2979 49.3552 58.4105 49.0416C58.4165 48.9781 58.3341 48.9588 58.2959 48.997C58.2148 49.1039 58.1557 49.2257 58.1219 49.3556C58.0881 49.4854 58.0802 49.6206 58.0988 49.7534C58.1266 50.3683 58.6128 50.7588 58.3783 51.317C58.2564 51.5368 58.1483 51.7639 58.0546 51.9971C57.9971 52.207 57.9846 52.55 58.2195 52.6646C58.2302 52.6705 58.2425 52.6727 58.2545 52.671C58.2665 52.6692 58.2777 52.6637 58.2863 52.655C58.2949 52.6464 58.3005 52.6353 58.3022 52.6232C58.304 52.6112 58.3017 52.5989 58.2959 52.5882C58.2301 52.4659 58.1987 52.3279 58.205 52.1891C58.2114 52.0503 58.2553 51.9158 58.3321 51.8Z" fill="#263B55"/>
<path d="M57.2254 49.0477C57.2402 49.1683 57.2378 49.3404 57.3271 49.4293C57.3381 49.4396 57.3515 49.4469 57.3661 49.4506C57.3807 49.4543 57.396 49.4542 57.4106 49.4504C57.4252 49.4466 57.4386 49.4392 57.4495 49.4288C57.4604 49.4184 57.4685 49.4055 57.4731 49.3911C57.4944 49.2654 57.4835 49.1363 57.4413 49.0159C57.3936 48.6237 57.3682 48.2291 57.3653 47.834C57.3589 47.764 57.2507 47.7383 57.2378 47.8147C57.1746 48.223 57.1704 48.6382 57.2254 49.0477Z" fill="#263B55"/>
<path d="M56.546 49.4293C56.5546 49.5191 56.5876 49.6047 56.6414 49.6771C56.652 49.6869 56.6649 49.6939 56.6789 49.6973C56.693 49.7008 56.7076 49.7006 56.7216 49.6968C56.7356 49.693 56.7483 49.6858 56.7587 49.6757C56.7691 49.6656 56.7767 49.6531 56.7809 49.6393C56.8021 49.555 56.7978 49.4664 56.7684 49.3847C56.6611 48.7693 56.5994 48.1468 56.5838 47.5223C56.5778 47.4588 56.4761 47.4334 56.4632 47.5034C56.3756 48.1452 56.4037 48.7974 56.546 49.4293Z" fill="#263B55"/>
<path d="M55.7704 49.404C55.8054 49.5246 55.8279 49.7088 55.955 49.7599C55.972 49.7647 55.99 49.7635 56.0062 49.7565C56.0224 49.7496 56.0357 49.7373 56.0439 49.7217C56.142 49.5447 55.883 49.3774 55.7069 48.0881C55.6944 47.9988 55.548 48.0246 55.5545 48.107C55.5788 48.5459 55.6512 48.9809 55.7704 49.404Z" fill="#263B55"/>
<path d="M56.152 52.4041C55.4475 51.2378 55.3256 50.1922 54.995 48.87C54.9761 48.7935 54.8426 48.8064 54.8551 48.8889C54.961 50.1002 55.3025 51.2791 55.8605 52.3594C55.9494 52.5119 56.0447 52.6647 56.1335 52.8171C56.3157 53.1292 56.2896 53.1947 56.3941 53.243C56.4044 53.2486 56.4158 53.2519 56.4274 53.2527C56.4391 53.2534 56.4508 53.2517 56.4617 53.2475C56.4726 53.2432 56.4825 53.2367 56.4906 53.2283C56.4987 53.2199 56.5049 53.2098 56.5088 53.1987C56.5566 53.0773 56.4862 52.9566 56.152 52.4041Z" fill="#263B55"/>
<path d="M57.0545 49.8617C56.8186 49.8454 56.5819 49.8776 56.3589 49.9563C56.136 50.0349 55.9314 50.1583 55.7579 50.3189C55.7133 50.3635 55.7704 50.4211 55.8215 50.3953C56.8453 49.8725 57.2205 50.1399 57.4932 50.0905C57.5628 50.0776 57.5567 49.9952 57.5121 49.957C57.3711 49.884 57.2128 49.851 57.0545 49.8617Z" fill="#263B55"/>
<path d="M32.5895 48.7364C32.4049 48.5776 32.1697 48.5076 31.9791 48.3677C31.7881 48.1993 31.5707 48.0634 31.3356 47.9655C31.2281 47.9295 31.1134 47.9199 31.0014 47.9377C30.8893 47.9555 30.7833 48.0001 30.6922 48.0677C30.0487 48.5442 30.1694 48.872 30.2534 49.3831C30.2949 49.6779 30.2819 49.9777 30.2152 50.2678C30.2113 50.2824 30.2128 50.2979 30.2193 50.3116C30.2258 50.3252 30.2369 50.3361 30.2507 50.3422C30.2645 50.3484 30.2801 50.3494 30.2946 50.3451C30.3091 50.3409 30.3216 50.3316 30.3298 50.3189C30.732 49.595 30.1605 48.9645 30.5204 48.5265C30.6315 48.3676 30.7859 48.2439 30.9652 48.1702C31.3674 48.0496 31.7152 48.5072 32.0269 48.6789C32.2042 48.7476 32.3646 48.8538 32.497 48.9902C32.5253 49.0191 32.5461 49.0544 32.5577 49.0932C32.5692 49.1319 32.5711 49.1729 32.5631 49.2125C32.5552 49.2522 32.5377 49.2893 32.5122 49.3206C32.4866 49.352 32.4538 49.3766 32.4166 49.3924C32.2702 49.4423 32.1143 49.4579 31.9609 49.4381C31.8076 49.4183 31.6608 49.3636 31.5319 49.2781C31.4514 49.2109 31.3665 49.1493 31.2777 49.0936C31.2202 49.0618 31.1695 49.1189 31.1949 49.1764C31.3304 49.3477 31.5088 49.4802 31.7119 49.5606C31.915 49.6409 32.1358 49.6663 32.3519 49.634C32.4569 49.6322 32.5584 49.5962 32.6411 49.5314C32.7237 49.4666 32.783 49.3766 32.8099 49.2751C32.8368 49.1735 32.8298 49.066 32.79 48.9688C32.7503 48.8716 32.6799 48.79 32.5895 48.7364Z" fill="#263B55"/>
<path d="M31.9982 47.9546C32.2757 47.4572 32.5259 46.648 32.7547 46.2893C32.7925 46.2322 32.8351 46.1811 32.8753 46.124C32.7996 46.7924 32.6699 47.4535 32.4877 48.101C32.4748 48.1899 32.6019 48.2723 32.6529 48.1706C32.8703 47.5461 33.0133 46.8982 33.0788 46.2402C33.0913 46.1321 33.0977 45.9921 33.0024 45.9221C32.7366 45.6981 32.4117 46.49 32.2842 46.8121C32.1255 47.1665 31.9855 47.5289 31.8647 47.8979C31.8607 47.9148 31.8629 47.9326 31.8707 47.948C31.8786 47.9635 31.8916 47.9757 31.9076 47.9825C31.9236 47.9893 31.9414 47.9902 31.958 47.9851C31.9746 47.98 31.9888 47.9692 31.9982 47.9546Z" fill="#263B55"/>
<path d="M32.6212 48.5458C32.581 48.615 32.6783 48.6982 32.7354 48.6347C32.8459 48.5069 32.9796 48.4013 33.1295 48.3234C33.3937 48.1911 33.436 48.3423 33.549 48.3616C33.6696 48.3914 33.7223 48.1605 33.4283 48.0801C33.2631 48.0709 33.0988 48.1101 32.9554 48.1928C32.8121 48.2755 32.696 48.3982 32.6212 48.5458Z" fill="#263B55"/>
<path d="M33.0406 48.9017C32.9835 48.9463 33.0595 49.0352 33.1166 49.0035C33.2964 48.8989 33.4247 48.7581 33.5489 48.6857C33.7528 48.5836 33.8188 48.7071 33.9241 48.7493C34.0295 48.7915 34.0802 48.5595 33.8288 48.4758C33.4669 48.354 33.181 48.7915 33.0406 48.9017Z" fill="#263B55"/>
<path d="M34.0701 49.2323C34.017 48.9616 33.6534 49.0167 33.4471 49.2641C33.4029 49.3147 33.46 49.41 33.5235 49.3658C33.5806 49.3276 33.8159 49.1877 33.8794 49.2641C33.9048 49.2958 33.8794 49.4165 33.867 49.4547C33.7387 50.0961 32.3541 50.7951 32.3541 51.4759C32.3549 51.4919 32.3608 51.5073 32.3709 51.5198C32.381 51.5323 32.3947 51.5413 32.4102 51.5455C32.4257 51.5498 32.4422 51.549 32.4572 51.5434C32.4722 51.5377 32.4851 51.5275 32.494 51.5141C32.6299 51.2367 32.8101 50.9834 33.0277 50.7641C33.3578 50.4247 34.1859 49.819 34.0701 49.2323Z" fill="#263B55"/>
<path d="M32.1189 51.7048C31.4085 51.4082 30.7415 51.017 30.1359 50.5417C30.1097 50.5274 30.0798 50.5216 30.0502 50.525C30.0206 50.5284 29.9928 50.5408 29.9706 50.5606C29.0579 51.2945 28.2346 52.1329 27.5175 53.0588C27.3235 53.7226 27.2125 54.4079 27.1869 55.0989C27.1866 55.1189 27.1792 55.1382 27.1661 55.1533C27.1529 55.1684 27.1349 55.1784 27.1151 55.1815C27.0953 55.1846 27.0751 55.1806 27.058 55.1702C27.0409 55.1598 27.028 55.1436 27.0216 55.1247C26.8531 54.5717 27.1 53.7171 27.3075 53.0652C27.1551 52.9124 26.2462 52.01 25.9539 51.7112C24.4679 50.2232 22.8826 48.4537 20.6716 48.4135C20.0795 48.3972 19.4942 48.5425 18.9785 48.8338C18.5547 49.0787 18.3246 49.5878 17.0816 49.7069C16.5204 49.7689 15.9527 49.7356 15.4026 49.6083C14.9481 49.4475 15.2908 49.2271 14.2963 49.2271C12.3225 49.2798 10.6769 51.0472 9.74549 52.8183C9.29918 53.6923 8.91823 54.5981 8.60578 55.5284C8.89131 56.001 9.85568 57.801 9.91077 58.3483C9.9168 58.4372 9.80259 58.4501 9.75795 58.3865C9.52591 58.0536 9.53838 57.7182 8.77268 56.3078C8.27802 55.3107 7.56553 54.4375 6.68791 53.7529C6.46994 53.5707 6.42048 53.5466 6.10961 53.6829C6.03441 53.7163 4.3699 54.4036 4.32968 54.4201C4.30083 54.4288 4.27546 54.4464 4.25719 54.4704C4.23892 54.4943 4.22868 54.5235 4.22794 54.5536C4.21145 54.8066 4.9305 57.6671 6.70078 60.3885C7.24087 61.2149 7.90724 62.0349 8.88086 62.359C9.94013 62.7209 10.7328 62.365 11.5186 61.5643C12.2058 60.8499 12.8054 60.0563 13.3049 59.2001C13.1179 58.4529 12.7576 56.975 12.6249 56.2125C12.6212 56.1936 12.6249 56.1741 12.6351 56.1578C12.6454 56.1416 12.6614 56.1298 12.68 56.1249C12.6986 56.1201 12.7183 56.1225 12.7352 56.1316C12.7521 56.1408 12.7648 56.1561 12.7709 56.1743C13.4252 58.2763 13.4184 59.8701 15.3008 63.0073C15.3197 63.0389 15.3502 63.062 15.3858 63.0715C15.4214 63.081 15.4593 63.0763 15.4915 63.0584C18.9419 61.4019 22.5617 60.1954 26.2845 61.126C26.3001 61.1301 26.3164 61.1306 26.3323 61.1274C26.3481 61.1242 26.363 61.1175 26.3759 61.1077C26.3887 61.0978 26.3991 61.0852 26.4064 61.0708C26.4136 61.0563 26.4174 61.0404 26.4176 61.0243C26.3813 60.3982 26.2239 59.7851 25.9539 59.219C25.2457 57.6176 23.9158 55.3547 23.9387 53.5301C23.9387 53.4602 24.0533 53.4413 24.0658 53.5112C24.4128 55.5469 24.7921 56.1586 25.9981 58.699C27.3952 58.7943 28.3612 58.6105 29.2592 57.536C30.5846 55.8415 31.5864 53.9174 32.2146 51.86C32.2395 51.8001 32.1889 51.7297 32.1189 51.7048ZM20.8111 57.2919C20.4757 57.076 20.1645 56.8245 19.883 56.5419C19.6084 56.2657 19.3885 55.9401 19.2347 55.5823C19.2094 55.5188 19.3175 55.4741 19.3493 55.5312C19.7346 56.3315 20.6113 56.8881 20.8936 57.1837C20.9059 57.1953 20.9135 57.211 20.9149 57.2279C20.9163 57.2447 20.9114 57.2615 20.9012 57.275C20.8909 57.2884 20.876 57.2976 20.8594 57.3007C20.8428 57.3038 20.8256 57.3007 20.8111 57.2919Z" fill="#5E84A1" fill-opacity="0.533333"/>
<path d="M47.3867 43.6005C46.1923 40.6604 41.4634 40.7621 40.5726 44.5657C40.4056 45.2242 40.3827 45.911 40.5057 46.5791C40.6286 47.2472 40.8944 47.8809 41.2848 48.4368C41.3227 48.4814 41.3991 48.4432 41.3653 48.3861C40.7778 47.3901 40.5302 46.2299 40.6599 45.0808C41.0528 42.0345 44.0086 41.0239 45.9482 42.2139C47.0666 42.9072 47.4281 43.917 47.4925 45.195C47.5454 45.879 47.4427 46.5662 47.1919 47.2047C46.9412 47.8433 46.5489 48.4168 46.0447 48.882C45.9494 48.9624 46.0894 49.0979 46.1783 49.0151C47.7881 47.6663 48.0113 45.1367 47.3867 43.6005Z" fill="#263B55"/>
<path d="M44.2403 46.3147C44.0882 46.3356 43.9415 46.3853 43.808 46.461C43.7444 46.4928 43.7891 46.5881 43.8526 46.5752C44.3573 46.4377 44.6087 46.5017 44.6971 46.4482C44.7074 46.4423 44.7162 46.4341 44.7226 46.4241C44.7291 46.4142 44.7332 46.4029 44.7344 46.3911C44.7357 46.3794 44.7341 46.3674 44.7299 46.3564C44.7256 46.3453 44.7188 46.3354 44.71 46.3275C44.5574 46.281 44.3951 46.2765 44.2403 46.3147Z" fill="#263B55"/>
<path d="M41.6913 46.303C41.6783 46.3062 41.667 46.314 41.6594 46.325C41.6519 46.336 41.6486 46.3493 41.6501 46.3626C41.6517 46.3758 41.6581 46.388 41.668 46.3969C41.678 46.4058 41.6908 46.4107 41.7041 46.4108C41.999 46.4184 42.2925 46.4525 42.5812 46.5125C42.6016 46.5074 42.6199 46.4961 42.6335 46.4802C42.6472 46.4643 42.6556 46.4445 42.6577 46.4236C42.6577 46.2463 42.0102 46.2037 41.6913 46.303Z" fill="#263B55"/>
<path d="M43.2231 46.2511C43.2106 46.1876 43.1153 46.2065 43.1153 46.264C43.122 46.5758 43.0133 46.8791 42.8101 47.1157C42.759 47.1728 42.683 47.2235 42.683 47.3063C42.683 47.4861 43.1346 47.725 43.236 47.5987C43.2482 47.5846 43.255 47.5665 43.255 47.5478C43.255 47.5291 43.2482 47.5111 43.236 47.497C43.1978 47.4463 43.1025 47.4523 43.0454 47.4334C43.0003 47.4153 42.8736 47.3421 42.8736 47.3128C43.0146 47.1781 43.1203 47.0108 43.1812 46.8257C43.2422 46.6405 43.2566 46.4432 43.2231 46.2511Z" fill="#263B55"/>
<path d="M43.0262 48.5647C43.1095 48.5987 43.1989 48.6151 43.2889 48.613C43.3788 48.6108 43.4674 48.5901 43.549 48.5522C43.6115 48.5258 43.6647 48.4815 43.7021 48.4249C43.7394 48.3683 43.7592 48.3019 43.7589 48.2341C43.778 48.0993 43.7559 47.9619 43.6954 47.84C43.6202 47.7459 43.516 47.8086 43.5261 47.9168C43.5504 47.986 43.562 48.059 43.5602 48.1323C43.5623 48.1896 43.5536 48.2468 43.5345 48.3008C43.4568 48.3631 43.3623 48.4009 43.2631 48.4094C43.1639 48.4179 43.0643 48.3968 42.9771 48.3487C42.8661 48.3049 42.8159 48.4657 43.0262 48.5647Z" fill="#263B55"/>
<path d="M15.2622 63.1271C14.671 64.1273 13.4424 68.6451 13.4569 69.1654C13.4569 69.2415 13.5715 69.2797 13.6033 69.2037C13.7642 68.8819 13.9576 67.3984 14.9252 64.519C15.0623 64.0769 15.2215 63.6421 15.4021 63.216C15.4528 63.113 15.3185 63.0326 15.2622 63.1271Z" fill="#263B55"/>
<path d="M26.4365 61.2711C26.4312 61.252 26.4186 61.2358 26.4014 61.2259C26.3843 61.216 26.3639 61.2132 26.3447 61.2181C26.3255 61.2231 26.309 61.2354 26.2988 61.2524C26.2886 61.2694 26.2855 61.2897 26.2901 61.3089C26.7234 63.1288 27.0293 64.9766 27.2054 66.839C27.3067 68.2208 27.2951 68.1906 27.3329 68.4154C27.3518 68.5232 27.4977 68.4854 27.5042 68.3901C27.5814 67.4366 27.1479 63.4347 26.4365 61.2711Z" fill="#263B55"/>
<path d="M22.6165 66.3432C22.386 66.4035 21.0557 67.63 20.4999 69.0191C20.4742 69.0891 20.5824 69.1337 20.6206 69.0702C20.9544 68.4394 21.3619 67.8505 21.8347 67.316C21.8094 67.6079 21.8029 67.9067 21.7965 68.2007C21.7577 68.5243 21.764 68.8517 21.8154 69.1735C21.8204 69.191 21.8309 69.2064 21.8454 69.2173C21.86 69.2283 21.8776 69.2342 21.8958 69.2342C21.914 69.2342 21.9317 69.2283 21.9462 69.2173C21.9607 69.2064 21.9713 69.191 21.9763 69.1735C22.0326 68.8525 22.0497 68.5258 22.0273 68.2007C22.0439 67.844 22.0381 67.4866 22.01 67.1306C22.0502 67.0924 22.0591 67.0759 22.0973 67.0377C22.5143 66.6206 22.6229 66.6021 22.6945 66.4654C22.7371 66.3942 22.6865 66.3251 22.6165 66.3432Z" fill="#263B55"/>
<path d="M22.4512 61.5889C22.4383 61.5125 22.3112 61.5314 22.3112 61.6078C22.3559 62.3719 22.4319 63.1271 22.4765 63.8896C22.524 64.601 22.5614 66.0612 22.6036 66.1654C22.6089 66.1815 22.6191 66.1955 22.6328 66.2054C22.6465 66.2154 22.6631 66.2207 22.68 66.2207C22.6969 66.2207 22.7134 66.2154 22.7272 66.2054C22.7409 66.1955 22.7511 66.1815 22.7564 66.1654C22.7846 64.634 22.6825 63.103 22.4512 61.5889Z" fill="#263B55"/>
<path d="M21.6247 65.4025C21.6192 65.7953 21.6577 66.1876 21.7393 66.5719C21.743 66.585 21.7509 66.5966 21.7618 66.6048C21.7727 66.613 21.786 66.6174 21.7996 66.6174C21.8132 66.6174 21.8265 66.613 21.8374 66.6048C21.8483 66.5966 21.8562 66.585 21.8599 66.5719C21.8874 66.3824 21.8896 66.1901 21.8664 66.0001C21.7634 64.4083 21.6886 63.2083 21.5044 61.8619C21.498 61.7919 21.3898 61.7919 21.3962 61.8619C21.4441 63.0555 21.5507 64.2523 21.6247 65.4025Z" fill="#263B55"/>
<path d="M48.1814 62.3513C48.0494 62.2118 47.8997 62.0901 47.7362 61.9894C47.7615 61.8052 47.8472 61.4871 47.8444 61.3729C47.5629 61.2474 44.6203 59.7385 44.4056 59.6251C44.1481 59.5024 43.9019 59.3575 43.6696 59.192C40.6269 60.7137 40.7633 60.7656 40.0708 61.0419C40.1165 61.3781 40.1823 61.7113 40.2678 62.0396C38.9098 62.8629 37.8345 64.08 37.1849 65.5291C36.9702 65.9352 36.8221 66.3731 36.7462 66.8261C36.7465 66.8476 36.7539 66.8685 36.7671 66.8855C36.7803 66.9025 36.7987 66.9148 36.8195 66.9205C36.8403 66.9262 36.8623 66.9251 36.8824 66.9172C36.9025 66.9093 36.9194 66.8951 36.9307 66.8767C37.2352 66.2333 37.1998 65.8862 37.8959 64.7538C39.9139 61.5253 42.1157 61.3974 45.9301 61.8679C47.7125 62.0931 47.733 62.2085 48.4235 63.0567C49.2911 64.1556 50.0192 65.3579 50.5911 66.6359C51.0162 67.5572 51.0636 67.8186 51.2394 68.0981C51.2495 68.1145 51.2653 68.1268 51.2838 68.1325C51.3022 68.1383 51.3221 68.1372 51.3399 68.1295C51.3576 68.1218 51.372 68.108 51.3803 68.0905C51.3887 68.0731 51.3905 68.0532 51.3853 68.0345C51.3303 67.5431 49.9706 64.2032 48.1814 62.3513Z" fill="#263B55"/>
<path d="M51.2131 54.8765C51.1994 53.3372 50.7854 51.828 50.0119 50.497C49.6823 49.926 49.1484 49.5012 48.5179 49.3083C48.0962 49.1863 47.6532 49.1559 47.2188 49.2191C46.7843 49.2823 46.3684 49.4376 45.9988 49.6746C45.8318 49.126 45.7906 48.5467 45.8782 47.98C45.9893 47.9731 46.0978 47.9434 46.1969 47.8929C46.2961 47.8424 46.3839 47.772 46.4548 47.6863C46.5257 47.6005 46.5782 47.501 46.6092 47.3941C46.6401 47.2872 46.6488 47.1751 46.6346 47.0647C46.5827 46.7027 46.2972 46.387 45.9671 46.4482C45.9671 46.3163 45.918 46.3251 45.7893 45.8952L45.7511 45.781C45.7612 45.78 45.771 45.7767 45.7797 45.7713C45.7884 45.766 45.7958 45.7588 45.8013 45.7502C45.8067 45.7416 45.8102 45.7319 45.8114 45.7217C45.8126 45.7116 45.8115 45.7014 45.8082 45.6917C45.5882 45.0945 42.6714 44.4048 41.6005 44.9928C41.594 44.9831 41.5849 44.9754 41.5742 44.9708C41.5635 44.9662 41.5517 44.9648 41.5402 44.9668C41.5287 44.9688 41.5181 44.9741 41.5096 44.9821C41.501 44.9901 41.495 45.0003 41.4923 45.0117C41.4013 45.5879 41.3525 46.17 41.3463 46.7534C41.3318 47.9824 41.6837 49.41 42.9034 49.5946C42.8922 49.7822 42.862 49.9681 42.8134 50.1496C41.8735 49.5958 40.651 49.8379 39.7952 50.4528C38.8099 51.1582 38.2063 52.2516 37.6405 53.2936C36.6101 55.1886 35.0136 58.5216 36.3375 60.2159C36.7012 60.6523 37.2038 60.9504 37.7611 61.0604C38.5092 61.2055 39.282 61.1567 40.0059 60.9189C40.3092 60.7701 42.4683 59.4466 46.9017 57.4374C45.316 56.6926 43.1065 56.995 41.4163 57.4438C40.6061 57.6406 39.8242 57.9395 39.0894 58.3334C38.8023 58.5474 38.7074 58.3636 38.8328 58.2329C39.1671 58.0055 39.5288 57.8215 39.9094 57.6851C39.91 57.1878 40.0006 56.6948 40.1768 56.2297C40.2244 56.0645 40.3092 55.9124 40.4246 55.785C40.4364 55.7744 40.4512 55.7677 40.467 55.7659C40.4828 55.764 40.4988 55.7671 40.5127 55.7748C40.5267 55.7824 40.5379 55.7942 40.5449 55.8085C40.5518 55.8228 40.5542 55.8388 40.5517 55.8545C40.5014 56.1803 40.1861 56.4055 40.1004 57.6091C41.2183 57.2226 42.3759 56.9624 43.5517 56.8334C44.7542 56.7127 46.0925 56.7228 47.0983 57.3863C47.2786 57.3502 47.4615 57.3289 47.6452 57.3228C47.6452 57.2826 47.6617 57.0594 47.6641 57.018C47.6786 56.7811 47.6706 55.6619 47.6706 55.575C47.6706 55.4986 47.7977 55.4733 47.8105 55.5557C47.8881 56.1436 47.9072 56.7376 47.8676 57.3292C48.058 57.3395 48.2472 57.3651 48.4335 57.4056C48.5794 57.4374 48.8046 57.4615 48.8847 57.5963C48.8903 57.6065 48.8936 57.6179 48.8944 57.6296C48.8951 57.6412 48.8934 57.6529 48.8892 57.6638C48.8849 57.6747 48.8784 57.6846 48.87 57.6927C48.8616 57.7009 48.8515 57.707 48.8404 57.7109C48.7258 57.7491 48.6217 57.6763 48.3953 57.6341C47.9469 57.5453 47.4867 57.5347 47.0348 57.6027C46.2566 57.957 45.4346 58.323 43.8175 59.1216C44.099 59.2153 45.1619 59.7627 45.2605 59.8145C48.4596 61.461 48.6197 61.6777 49.5189 61.1557C50.0914 60.7832 50.5301 60.2377 50.7712 59.5986C51.2614 58.4138 51.2735 56.1525 51.2131 54.8765ZM43.7826 53.0266C43.491 52.0754 43.2522 51.1087 43.0675 50.1311C43.112 49.9643 43.1282 49.7913 43.1154 49.6191C43.685 49.6249 44.2345 49.4086 44.6472 49.0159C44.8758 48.8401 45.0606 48.6138 45.1873 48.3548C45.219 48.2719 45.1068 48.2341 45.0538 48.2784C44.7612 48.6508 44.4039 48.9674 43.9989 49.213C43.8039 49.3179 43.59 49.3831 43.3696 49.4049C43.1492 49.4266 42.9266 49.4045 42.7148 49.3396C42.4935 49.2529 42.2949 49.1168 42.134 48.9418C41.9732 48.7667 41.8544 48.5573 41.7867 48.3294C41.3531 47.1833 41.6588 45.6624 41.6343 45.1319C41.8987 45.0566 42.1685 45.0013 42.4414 44.9666C43.2994 44.9066 44.1599 45.0414 44.9585 45.3611C45.2145 45.4421 45.4491 45.5795 45.6449 45.7633C45.6437 45.8248 45.6459 45.8863 45.6514 45.9475C45.6803 46.1145 45.7316 46.2768 45.8038 46.4301C45.8201 46.4555 45.8418 46.4771 45.8673 46.4932C45.8101 46.5198 45.7633 46.5646 45.7342 46.6207C45.7274 46.6342 45.7256 46.6496 45.729 46.6643C45.7325 46.679 45.741 46.692 45.7531 46.7011C45.7651 46.7102 45.78 46.7147 45.7951 46.7139C45.8102 46.7131 45.8245 46.707 45.8355 46.6967C46.0141 46.5121 46.4231 46.7482 46.4388 47.1793C46.44 47.263 46.4237 47.3461 46.391 47.4232C46.3584 47.5003 46.31 47.5697 46.249 47.6271C46.188 47.6845 46.1158 47.7285 46.0368 47.7565C45.9579 47.7844 45.874 47.7956 45.7905 47.7893C45.7675 47.7888 45.745 47.796 45.7265 47.8098C45.7081 47.8236 45.6948 47.8431 45.6888 47.8654C45.5998 48.3438 45.5998 48.8346 45.6888 49.3131C45.7048 49.4104 45.7483 49.7241 45.8516 49.8078C45.7398 50.0068 43.8095 52.9864 43.7826 53.0266Z" fill="#263B55"/>
<path d="M66.0105 46.6135C65.8943 46.6871 65.8971 46.8833 65.6992 46.9376C65.5341 46.9523 65.3699 46.9021 65.2412 46.7976C65.2301 46.7872 65.2157 46.781 65.2005 46.7801C65.1853 46.7792 65.1703 46.7838 65.1582 46.793C65.146 46.8021 65.1375 46.8153 65.1341 46.8302C65.1308 46.845 65.1328 46.8606 65.1398 46.8741C65.2048 46.9674 65.2946 47.0408 65.3991 47.0857C65.5036 47.1306 65.6185 47.1453 65.731 47.1282C65.807 47.1096 65.8782 47.0748 65.9396 47.0262C66.001 46.9776 66.0512 46.9164 66.0869 46.8467C66.1243 46.7998 66.1445 46.7414 66.144 46.6814C66.1427 46.6665 66.1375 46.6522 66.1292 46.6398C66.1208 46.6274 66.1094 46.6173 66.096 46.6105C66.0827 46.6038 66.0678 46.6005 66.0529 46.601C66.0379 46.6015 66.0233 46.6058 66.0105 46.6135Z" fill="#263B55"/>
<path d="M67.0591 56.3641C67.0122 56.3277 66.9569 56.3037 66.8983 56.2941C66.4961 56.1598 66.3159 55.5352 66.0208 55.2007C65.7519 54.9468 65.448 54.7328 65.1183 54.5653C65.0353 54.4954 64.9681 54.4086 64.9213 54.3107C64.8706 54.2093 64.7435 54.2854 64.756 54.3807C64.8248 54.8154 65.4863 54.8793 65.9065 55.3724C66.1925 55.7134 66.2765 56.1554 66.7012 56.4148C66.7965 56.4658 66.9489 56.5418 67.0507 56.4783C67.0588 56.4714 67.0655 56.4629 67.0703 56.4534C67.0751 56.4439 67.078 56.4336 67.0788 56.423C67.0796 56.4123 67.0782 56.4017 67.0749 56.3915C67.0715 56.3814 67.0661 56.3721 67.0591 56.3641Z" fill="#263B55"/>
<path d="M63.5186 55.4548C63.8238 55.6261 64.1541 55.7483 64.4974 55.8168C64.6374 55.8425 64.8726 55.9121 64.9997 55.8168C65.0079 55.8115 65.0149 55.8045 65.0201 55.7963C65.0254 55.7881 65.0287 55.7788 65.0299 55.7691C65.0312 55.7594 65.0302 55.7496 65.0272 55.7403C65.0242 55.731 65.0192 55.7225 65.0126 55.7154C64.8815 55.5843 64.7809 55.682 64.0844 55.4673C63.7807 55.3476 63.4837 55.2119 63.1944 55.0607C63.1813 55.0573 63.1674 55.0579 63.1546 55.0624C63.1418 55.0669 63.1306 55.0751 63.1225 55.0859C63.1143 55.0968 63.1095 55.1098 63.1087 55.1233C63.1079 55.1369 63.1112 55.1503 63.118 55.1621C63.2288 55.2874 63.3655 55.3873 63.5186 55.4548Z" fill="#263B55"/>
<path d="M64.4911 56.5981C64.6584 56.6186 64.676 56.6198 64.7834 56.5663C64.8281 56.547 64.8152 56.4899 64.7834 56.4642C64.6114 56.3799 64.4268 56.3242 64.2369 56.2993C63.6864 56.1179 63.2035 55.7745 62.8515 55.314C62.794 55.244 62.6906 55.3329 62.7308 55.4093C62.923 55.7211 63.1793 55.9884 63.4828 56.1934C63.7864 56.3984 64.1301 56.5363 64.4911 56.5981Z" fill="#263B55"/>
<path d="M63.4233 56.796C63.5649 56.8764 64.1223 57.1579 64.2751 57.1012C64.2853 57.0973 64.2946 57.0914 64.3025 57.0837C64.3103 57.0761 64.3166 57.0669 64.3207 57.0568C64.3249 57.0466 64.327 57.0358 64.3268 57.0248C64.3266 57.0138 64.3242 57.003 64.3197 56.993C64.2083 56.8077 63.5958 56.8551 62.8575 56.1159C62.8464 56.1055 62.832 56.0993 62.8168 56.0984C62.8016 56.0975 62.7866 56.1021 62.7745 56.1113C62.7623 56.1204 62.7538 56.1336 62.7505 56.1484C62.7471 56.1633 62.7491 56.1789 62.7561 56.1924C62.9228 56.4477 63.1526 56.6556 63.4233 56.796Z" fill="#263B55"/>
<path d="M65.1269 58.0229C64.1754 57.7302 63.6337 57.6099 62.9722 56.9488C62.9614 56.9385 62.9473 56.9325 62.9325 56.9319C62.9176 56.9312 62.903 56.936 62.8914 56.9452C62.8798 56.9545 62.8719 56.9677 62.8693 56.9823C62.8666 56.9969 62.8693 57.012 62.8769 57.0248C63.4616 58.0342 65.0964 58.0901 66.0804 58.6266C66.2091 58.7148 66.3477 58.7874 66.4935 58.8429C66.5066 58.8462 66.5204 58.8454 66.5332 58.8409C66.546 58.8363 66.5571 58.8281 66.5653 58.8173C66.5734 58.8064 66.5782 58.7935 66.579 58.7799C66.5798 58.7664 66.5766 58.7529 66.5699 58.7412C66.3945 58.4195 65.4784 58.1315 65.1269 58.0229Z" fill="#263B55"/>
<path d="M69.4556 49.9888C68.6949 50.0145 67.9367 50.091 67.1862 50.2176C65.3205 50.5179 63.4964 51.0362 61.7515 51.7619C61.7179 51.7705 61.687 51.7874 61.6617 51.8111C61.6364 51.8348 61.6175 51.8646 61.6068 51.8975C61.596 51.9305 61.5938 51.9657 61.6002 51.9997C61.6067 52.0338 61.6217 52.0657 61.6437 52.0924C62.5904 53.6902 62.7529 54.0682 63.2833 54.9148C63.328 54.9912 63.4361 54.9272 63.404 54.8448C63.0296 54.036 61.992 52.2762 61.9039 52.1371C61.7929 51.9432 61.7833 51.9762 61.8529 51.94C64.0903 51.0186 66.4539 50.44 68.864 50.2236C69.0353 50.2112 69.2006 50.1983 69.3659 50.173C69.4317 50.3604 69.5148 50.5413 69.614 50.7135C71.5351 54.6835 71.7209 55.8803 71.9911 56.3259C72.0229 56.383 72.1375 56.3641 72.1247 56.2877C72.0615 55.5928 69.68 50.0137 69.4556 49.9888Z" fill="#263B55"/>
<path d="M68.8009 59.8725C68.2962 59.8322 66.1105 60.271 65.6163 60.3748C64.7444 58.4223 64.7271 58.3777 64.6109 58.2325C64.5727 58.1818 64.4963 58.2389 64.5091 58.29C64.5606 58.547 65.4626 60.487 65.4815 60.5272C65.531 60.6253 65.5278 60.5561 67.204 60.2601C67.7494 60.2052 68.2908 60.116 68.825 59.9931C68.8898 59.9762 68.8709 59.8781 68.8009 59.8725Z" fill="#263B55"/>
<path d="M74.2164 48.9335C73.515 47.6775 72.5845 47.4077 71.1846 47.5794C70.4877 47.6427 69.8132 47.8587 69.2092 48.212C68.9285 47.574 68.7664 46.8901 68.731 46.194C68.8657 46.185 68.9943 46.1344 69.0991 46.0491C69.2038 45.9639 69.2795 45.8483 69.3158 45.7183C71.0229 44.7708 71.1106 42.7516 70.2809 41.0131C68.8847 38.1123 64.6536 38.5885 63.3591 41.0195C63.0685 41.5026 62.9658 42.0757 63.0705 42.6296C63.1751 43.1836 63.4798 43.6797 63.9265 44.0236C62.9477 44.3545 63.004 45.5445 63.906 45.7106C63.8903 46.761 64.0355 47.7564 65.0055 48.1452C65.2515 48.2461 65.5149 48.2977 65.7808 48.2973C65.7904 48.5132 65.7719 48.7295 65.7257 48.9407C65.1068 48.794 64.4714 48.7294 63.8356 48.7485C61.927 48.7887 61.101 50.4335 60.4032 52.1933C60.1187 52.8582 59.9031 53.5504 59.7598 54.2592C59.7598 54.3352 59.8744 54.3738 59.9062 54.2974C60.0176 54.0126 60.1131 53.7218 60.1921 53.4263C60.4722 52.5668 60.8121 51.7279 61.2092 50.9157C61.711 49.9557 62.4993 49.0726 63.6369 48.9833C64.3235 48.95 65.0117 48.9884 65.6903 49.098C65.6862 49.1118 65.6851 49.1264 65.6873 49.1408C65.6895 49.1551 65.6947 49.1688 65.7028 49.1808C66.0523 49.587 66.6628 49.587 67.1586 49.5552C67.7372 49.5498 68.3011 49.3731 68.7793 49.0473C69.6596 48.3865 68.8151 48.4903 70.0388 48.0745C70.9409 47.7672 72.2056 47.5641 73.0317 47.9981C73.6924 48.3552 74.0543 49.0602 74.3535 49.7462C74.844 50.907 75.1796 52.1273 75.3517 53.3757C75.529 54.6083 75.6533 56.9798 75.3517 58.1874C74.9652 59.7598 73.7925 60.5276 72.237 60.5135C71.3962 60.4531 70.5693 60.2667 69.7839 59.9605C68.8991 59.681 66.7275 58.9954 66.5228 58.9246C66.8371 58.1423 67.0652 57.3281 67.2032 56.4964C67.2157 56.4397 67.2157 56.3822 67.2793 56.3564C67.3412 56.3386 67.4054 56.3302 67.4699 56.3315C68.7594 56.1984 70.0609 56.2348 71.341 56.4397C71.892 56.5262 72.4374 56.6449 72.9746 56.7952C73.051 56.8145 73.1334 56.8145 73.2158 56.8269C73.2351 56.8265 73.2537 56.8198 73.2688 56.8079C73.284 56.796 73.2949 56.7796 73.2999 56.761C73.3049 56.7424 73.3038 56.7227 73.2967 56.7048C73.2896 56.6869 73.2769 56.6717 73.2605 56.6617C72.9995 56.5314 73.252 56.6074 72.4087 56.3946C70.8054 56.0231 69.1519 55.9179 67.5145 56.0834C66.8019 56.1598 67.1393 56.1791 66.6298 57.9393C66.3189 59.0187 66.3048 59.0718 66.4263 59.1088C67.348 59.4015 70.0939 60.2782 70.5451 60.4186C71.7918 60.795 73.1362 60.9261 74.2699 60.1704C74.66 63.3736 74.695 63.1649 74.6194 63.2023C74.5666 63.2225 74.5106 63.2333 74.4541 63.2341C72.4916 63.549 70.5047 63.6872 68.5175 63.6471C66.3559 63.6471 64.2273 63.6286 62.155 63.1709C62.192 61.2546 62.3427 59.3423 62.6062 57.4438C62.6127 57.3614 62.4856 57.3481 62.4663 57.4245C62.3858 57.7933 62.3203 58.1681 62.2628 58.5433C62.112 58.5433 61.639 59.2555 60.5532 59.5157C60.2341 59.5971 59.9018 59.6132 59.5763 59.5629C59.2508 59.5127 58.9388 59.3972 58.6591 59.2234C57.1309 58.2469 56.699 54.9919 56.2755 53.3379C56.9025 53.356 57.5624 52.9956 58.1632 52.7399C58.2143 52.7149 58.2646 52.6944 58.3157 52.6699C58.4785 52.5931 58.4399 52.6248 58.6844 52.9514C60.0715 54.8906 60.1772 56.3649 60.4197 56.8161C60.4467 56.866 60.5094 56.835 60.515 56.7907C60.4794 56.31 60.3678 55.8379 60.1845 55.3921C59.8631 54.4949 59.4204 53.646 58.8686 52.8689C58.4451 52.2906 58.5787 52.3337 57.7426 52.7037C56.3801 53.3314 56.0938 53.1034 56.1279 53.2695C56.1199 53.2763 56.1139 53.2852 56.1106 53.2952C56.1073 53.3052 56.1067 53.3159 56.109 53.3262C56.3102 54.8521 56.7009 56.3469 57.2721 57.776C57.514 58.391 57.9129 58.9317 58.4291 59.3444C59.5688 60.1737 61.2844 59.8318 62.2298 58.8172C62.0427 60.2888 61.943 61.7703 61.9314 63.2538C61.9331 63.2778 61.9418 63.3009 61.9564 63.32C61.9711 63.3392 61.9911 63.3536 62.0139 63.3615C64.083 63.7544 66.1886 63.9228 68.2939 63.8638C70.4072 63.9195 72.521 63.7705 74.6057 63.419C74.6599 63.4172 74.7125 63.4002 74.7575 63.3698C74.8025 63.3394 74.8379 63.297 74.8599 63.2473C74.88 63.1094 74.8713 62.9688 74.8345 62.8343C74.7963 62.5291 74.7581 62.2238 74.7139 61.925C74.4657 59.9666 74.4867 60.0751 74.4275 60.0438C75.5322 59.1948 75.7265 57.8581 75.7498 56.4586C75.7912 54.046 75.4028 50.9993 74.2164 48.9335ZM63.4355 44.9067C63.4604 44.7467 63.5335 44.5981 63.6449 44.4806C63.7563 44.3631 63.9008 44.2822 64.0592 44.2488C64.1473 44.2501 64.2341 44.2696 64.3142 44.3062C64.3943 44.3429 64.4659 44.3957 64.5244 44.4615C64.583 44.5272 64.6273 44.6045 64.6544 44.6882C64.6816 44.772 64.691 44.8605 64.6821 44.9481C64.6612 45.0831 64.5994 45.2085 64.505 45.3073C64.4107 45.4062 64.2884 45.4738 64.1545 45.5011C64.0671 45.5168 63.9774 45.5132 63.8915 45.4906C63.8056 45.4681 63.7257 45.4271 63.6572 45.3705C63.5888 45.314 63.5335 45.2432 63.4952 45.1631C63.4569 45.083 63.4365 44.9955 63.4355 44.9067ZM67.644 49.264C67.0665 49.4025 66.4597 49.3497 65.9147 49.1136C66.0012 48.8474 66.008 48.5617 65.9345 48.2916C66.7844 48.1777 67.5558 47.7348 68.0828 47.0582C68.1419 46.9834 68.0244 46.8535 67.9303 46.9376C67.552 47.3233 67.1168 47.6488 66.6398 47.9028C65.7105 48.327 64.5486 48.101 64.2269 47.051C64.1113 46.6246 64.0619 46.183 64.0805 45.7416C64.2647 45.7258 64.4397 45.6539 64.5818 45.5356C64.7239 45.4173 64.8263 45.2583 64.8752 45.08C64.8868 45.0256 64.8953 44.9706 64.9005 44.9152L65.0529 44.8773C64.979 45.139 64.9175 45.4041 64.8687 45.6716C64.8305 45.8727 64.7352 46.1944 65.0212 46.2499C65.2696 46.2936 65.5254 46.2439 65.7394 46.1104C65.7606 46.0961 65.7756 46.0743 65.7813 46.0493C65.7869 46.0244 65.7828 45.9983 65.7698 45.9762C65.7568 45.9542 65.7359 45.938 65.7113 45.931C65.6867 45.9239 65.6604 45.9265 65.6377 45.9382C65.5474 45.9866 65.4513 46.0231 65.3517 46.0468C65.2537 46.0719 65.151 46.0719 65.0529 46.0468C64.9986 46.0166 65.0103 45.9455 65.1229 45.4363C65.1674 45.2457 65.2182 45.055 65.2753 44.8641C65.3698 44.8717 65.4623 44.8954 65.5488 44.9341C65.5435 45.0498 65.5623 45.1655 65.6042 45.2735C65.6461 45.3816 65.7101 45.4798 65.7921 45.5617C65.8741 45.6436 65.9722 45.7076 66.0803 45.7494C66.1884 45.7913 66.3041 45.8101 66.4199 45.8047C66.607 45.7918 66.7856 45.7214 66.9312 45.6031C67.0769 45.4849 67.1824 45.3245 67.2334 45.144C67.2608 45.0241 67.263 44.8999 67.2397 44.7792C67.2165 44.6585 67.1683 44.5439 67.0983 44.4428C67.0283 44.3418 66.938 44.2564 66.8332 44.1922C66.7283 44.128 66.6113 44.0863 66.4894 44.0698C66.2936 44.0775 66.1045 44.1433 65.9461 44.2587C65.7877 44.3741 65.6672 44.534 65.5999 44.7181C65.5187 44.6842 65.4329 44.6628 65.3453 44.6546C65.4024 44.4704 65.4535 44.2926 65.5062 44.1076C65.5251 44.0381 65.4157 43.987 65.3787 44.057C65.2815 44.2498 65.1987 44.4495 65.131 44.6546C65.0515 44.662 64.974 44.6835 64.9021 44.7181C64.8736 44.5512 64.7979 44.396 64.6838 44.2709C64.5698 44.1458 64.4222 44.0561 64.2587 44.0123C64.286 43.8426 64.3391 43.5647 64.3544 43.5052C64.7051 43.1742 66.115 43.3106 66.5723 43.3705C67.0508 43.4387 67.5227 43.5471 67.983 43.6946C68.1133 43.7348 68.1403 43.7348 68.1612 43.8788C68.2087 44.2326 68.3119 44.5767 68.4668 44.8983C68.3759 44.9875 68.4572 45.0849 68.53 45.0422C68.8223 44.8641 69.1022 45.144 69.14 45.4363C69.152 45.5061 69.1478 45.5777 69.1278 45.6457C69.1079 45.7136 69.0726 45.7761 69.0247 45.8282C68.9768 45.8804 68.9176 45.921 68.8517 45.9467C68.7857 45.9725 68.7147 45.9828 68.6442 45.9768C68.6277 45.9726 68.6105 45.9722 68.5938 45.9756C68.5772 45.9791 68.5615 45.9863 68.5481 45.9967C68.5346 46.007 68.5237 46.0204 68.5162 46.0356C68.5087 46.0509 68.5047 46.0676 68.5046 46.0846C68.5195 46.6878 68.7375 47.91 69.0869 48.3809C68.924 48.6231 68.7108 48.8274 68.4618 48.9798C68.2128 49.1322 67.9338 49.2291 67.644 49.264ZM65.8259 44.7953C65.8846 44.6252 66.2892 44.1832 66.6463 44.3634C66.771 44.4188 66.8745 44.513 66.9415 44.6319C67.0085 44.7507 67.0354 44.888 67.0182 45.0234C67.0011 45.1588 66.9408 45.2851 66.8463 45.3835C66.7517 45.4819 66.628 45.5473 66.4934 45.5699C66.3914 45.5905 66.2857 45.5836 66.1872 45.5499C66.0887 45.5162 66.0009 45.4568 65.933 45.378C65.865 45.2991 65.8192 45.2036 65.8004 45.1012C65.7816 44.9988 65.7904 44.8932 65.8259 44.7953Z" fill="#263B55"/>
<path d="M62.6605 63.5083C62.3203 64.0874 61.2827 68.2867 61.2051 69.1526C61.1923 69.2672 61.3704 69.2861 61.4022 69.1779C61.4959 68.8449 61.6033 68.1291 61.8848 66.9661C62.2938 65.2718 62.519 64.6513 62.6541 64.1566C62.7233 63.9555 62.7771 63.7494 62.815 63.5401C62.8258 63.4637 62.6983 63.4444 62.6605 63.5083Z" fill="#263B55"/>
<path d="M67.9299 68.0213V67.9895C67.9304 67.973 67.9248 67.9568 67.9144 67.9439C67.9039 67.9311 67.8891 67.9224 67.8728 67.9196C67.8109 67.8133 67.7452 67.7094 67.6758 67.6079C67.6663 67.5931 67.6514 67.5826 67.6343 67.5787C67.6172 67.5748 67.5992 67.5777 67.5842 67.5868C67.5693 67.596 67.5585 67.6106 67.5541 67.6276C67.5498 67.6447 67.5523 67.6627 67.5612 67.6779C67.6187 67.7985 67.6758 67.9192 67.7329 68.0342C67.4453 68.6818 67.2238 69.3569 67.0717 70.049C67.0692 70.0586 67.0686 70.0686 67.07 70.0784C67.0713 70.0883 67.0746 70.0977 67.0797 70.1063C67.0847 70.1149 67.0913 70.1224 67.0993 70.1284C67.1072 70.1344 67.1162 70.1387 67.1258 70.1413C67.1354 70.1438 67.1454 70.1444 67.1553 70.143C67.1651 70.1416 67.1746 70.1384 67.1832 70.1333C67.1917 70.1283 67.1992 70.1216 67.2052 70.1137C67.2112 70.1058 67.2156 70.0968 67.2181 70.0872C67.3544 69.7116 67.5994 68.8003 67.8475 68.2626C68.2319 69.0479 68.5546 69.8619 68.8127 70.6972C68.8573 70.8054 68.9972 70.7226 68.9844 70.6273C68.7247 69.7242 68.3713 68.8508 67.9299 68.0213Z" fill="#263B55"/>
<path d="M73.8922 64.9384C73.7872 64.4757 73.649 64.0212 73.4788 63.5783C73.4535 63.5148 73.3392 63.5466 73.3517 63.6101C73.4237 64.1856 73.486 64.1788 74.5582 68.4725C74.6498 68.9374 74.7707 69.3959 74.9201 69.8455C74.9519 69.9279 75.0918 69.9279 75.0854 69.8266C75.0327 69.3199 74.0201 65.4307 73.8922 64.9384Z" fill="#263B55"/>
<path d="M27.4853 26.4197C27.213 24.653 26.1646 22.8538 24.4852 22.3073C22.8053 21.8724 21.0223 22.1029 19.5082 22.9507C17.2899 24.1901 16.5696 26.371 17.0993 28.786C17.8195 32.0273 20.5228 34.1583 20.5823 36.3561C20.0901 36.5202 19.7993 37.3615 20.2964 37.7234C20.2112 37.7855 20.1417 37.8667 20.0934 37.9604C20.0451 38.054 20.0193 38.1577 20.0181 38.2631C20.0168 38.3685 20.0402 38.4727 20.0862 38.5675C20.1323 38.6623 20.1999 38.7451 20.2835 38.8092C20.185 38.9095 20.1238 39.0404 20.11 39.1803C20.0962 39.3202 20.1306 39.4605 20.2075 39.5781C20.3445 39.7473 20.5155 39.8857 20.7095 39.9843C20.9036 40.0829 21.1162 40.1395 21.3335 40.1504C21.8211 40.2624 22.322 40.3052 22.8215 40.2775C24.1084 40.1782 24.3975 39.433 24.0352 39.0252C24.1348 38.9706 24.2198 38.8928 24.2829 38.7985C24.3461 38.7041 24.3856 38.5959 24.3981 38.4831C24.4106 38.3702 24.3958 38.256 24.3548 38.1501C24.3138 38.0442 24.2479 37.9497 24.1627 37.8746C24.3598 37.6626 24.4683 37.3831 24.4659 37.0936C24.4807 37.0198 24.4807 36.9437 24.466 36.8698C24.4512 36.796 24.4221 36.7257 24.3802 36.6631C24.3382 36.6006 24.2844 36.5469 24.2217 36.5052C24.159 36.4634 24.0886 36.4345 24.0147 36.42C24.2315 34.3489 25.945 33.0745 26.9959 30.28C27.4819 29.0551 27.6503 27.7271 27.4853 26.4197ZM22.2541 27.0744C22.0783 26.8986 21.9967 26.5918 22.203 26.4386C22.3558 26.3308 22.4954 26.4897 22.5082 26.6356C22.5061 26.7242 22.4817 26.8109 22.4373 26.8875C22.3929 26.9642 22.3299 27.0285 22.2541 27.0744ZM22.1523 27.4492C22.1777 27.4363 22.197 27.4239 22.2223 27.4114C22.5791 27.6963 23.0136 27.8669 23.469 27.9008C23.3355 28.2885 23.2337 28.6951 23.1384 29.0892C22.5453 31.4789 22.2779 33.9378 22.3437 36.3991L21.5555 36.3609C21.8274 33.8358 21.7116 29.6337 21.0154 27.6845C21.4085 27.708 21.8008 27.6268 22.1523 27.4492ZM26.9512 29.5151C25.9893 32.7773 23.9222 34.0594 23.7412 36.4687C23.7352 36.4751 23.7223 36.488 23.7223 36.4944C23.3524 36.455 22.9815 36.4253 22.61 36.4052C22.5609 34.5287 22.7058 32.6522 23.0423 30.8056C23.2159 29.8186 23.4537 28.844 23.7541 27.8879C23.9564 27.8855 24.1548 27.8316 24.3306 27.7316C24.5065 27.6315 24.654 27.4884 24.7595 27.3157C25.0788 26.632 24.1731 26.0288 23.5711 27.6338C23.1669 27.6246 22.7756 27.489 22.4523 27.2461C23.1477 26.6352 22.5818 25.9612 22.1218 26.1844C21.8121 26.3348 21.6754 26.7728 22.0329 27.2143C21.6939 27.3875 21.311 27.4561 20.933 27.4114C20.8239 27.0815 20.6438 26.7795 20.4054 26.5267C19.9308 26.1338 19.3702 26.5958 19.6047 26.9903C19.8911 27.3435 20.2992 27.577 20.7488 27.645C20.9677 28.3239 21.121 29.0221 21.2065 29.7302C21.6541 32.7379 21.3653 35.7163 21.3653 36.334C21.0062 36.3179 20.8465 36.3078 20.7806 36.3151C20.7806 34.283 18.7256 32.6032 17.6723 29.8002C16.7989 27.4705 17.0168 25.0898 18.9689 23.5966C20.6036 22.339 23.5414 21.819 25.2107 22.9354C26.1294 23.6244 26.7809 24.6106 27.0542 25.726C27.3837 26.9728 27.348 28.288 26.9512 29.5151ZM23.8623 27.6145C23.931 27.4569 24.0139 27.3058 24.11 27.1633C24.5471 26.5323 24.7132 27.0881 24.3915 27.3732C24.2409 27.5012 24.0577 27.5848 23.8623 27.6145ZM20.633 27.3539C20.4072 27.2917 20.1957 27.186 20.0105 27.0426C19.9278 26.9908 19.8599 26.9185 19.8134 26.8327C19.7643 26.6742 20.0857 26.4595 20.3664 26.8709C20.4699 27.0233 20.5592 27.185 20.633 27.3539Z" fill="#263B55"/>
<path d="M10.1134 13.6943C10.1557 13.6988 14.7623 13.7619 15.2811 13.7579C15.744 13.788 16.2088 13.7667 16.6669 13.6943C16.7433 13.669 16.7558 13.5419 16.6669 13.5291C16.4646 13.5026 16.2601 13.4984 16.0569 13.5166C14.8001 13.5544 10.7862 13.4205 10.0881 13.5102C9.97229 13.5166 10.0125 13.6839 10.1134 13.6943Z" fill="#263B55"/>
<path d="M10.1134 15.6078C10.1372 15.6078 14.6296 15.6762 15.2811 15.6714C15.744 15.7015 16.2088 15.6802 16.6669 15.6078C16.7433 15.5825 16.7558 15.455 16.6669 15.4425C16.4647 15.4159 16.2601 15.4116 16.0569 15.4297C14.8001 15.4679 10.7862 15.3339 10.0881 15.4232C9.97229 15.4361 10.0125 15.6002 10.1134 15.6078Z" fill="#263B55"/>
<path d="M34.2548 14.4573C34.2769 14.4573 38.7698 14.5256 39.4225 14.5208C39.8852 14.5509 40.3499 14.5296 40.8079 14.4573C40.8843 14.4319 40.8968 14.3048 40.8079 14.292C40.6056 14.2656 40.4011 14.2613 40.1978 14.2791C38.9411 14.3173 34.9272 14.1834 34.2291 14.2731C34.1149 14.2855 34.1595 14.45 34.2548 14.4573Z" fill="#263B55"/>
<path d="M34.2547 16.3768C34.2949 16.3812 38.8497 16.4447 39.4224 16.4403C39.8851 16.4704 40.3498 16.4491 40.8078 16.3768C40.8842 16.3514 40.8967 16.2243 40.8078 16.2115C40.6055 16.185 40.401 16.1808 40.1978 16.199C38.941 16.2368 34.9271 16.1029 34.229 16.1926C34.1148 16.199 34.159 16.3663 34.2547 16.3768Z" fill="#263B55"/>
<path d="M17.8545 21.9196C17.3043 20.6026 16.6385 19.3369 15.865 18.1374C16.1003 18.2009 16.8302 18.3855 16.9585 18.4237C17.0822 18.4785 17.2179 18.5004 17.3526 18.4873C17.3718 18.4819 17.3893 18.4716 17.4034 18.4574C17.4174 18.4432 17.4275 18.4255 17.4326 18.4062C17.4377 18.3869 17.4377 18.3666 17.4325 18.3473C17.4274 18.328 17.4173 18.3104 17.4033 18.2962C17.2789 18.2171 17.1372 18.1692 16.9903 18.1567C16.8439 18.1185 16.272 17.9785 16.1321 17.9468C15.7866 17.8663 15.5896 17.7308 15.4774 18.0674C15.3253 18.4903 15.2043 18.9238 15.1154 19.3644C15.1101 19.3838 15.1127 19.4045 15.1226 19.422C15.1326 19.4395 15.1491 19.4523 15.1685 19.4577C15.1879 19.463 15.2086 19.4604 15.2261 19.4504C15.2436 19.4405 15.2565 19.424 15.2618 19.4046C15.423 19.0493 15.5548 18.6815 15.6559 18.3047C16.4045 19.4922 17.0856 20.721 17.696 21.9852C17.7411 22.0721 17.8923 22.0089 17.8545 21.9196Z" fill="#5E84A1" fill-opacity="0.533333"/>
<path d="M31.6165 19.2115C31.5831 19.0273 31.413 19.043 30.9047 18.9766C30.6116 18.9325 30.3162 18.9049 30.02 18.8938C30.0023 18.8944 29.9853 18.9013 29.9722 18.9133C29.9591 18.9252 29.9507 18.9414 29.9484 18.959C29.9462 18.9766 29.9502 18.9944 29.9598 19.0092C29.9695 19.0241 29.9841 19.0351 30.0011 19.0402C30.3796 19.1442 30.7667 19.2143 31.1577 19.2497C30.1164 20.1846 29.019 21.055 27.8717 21.8561C27.7828 21.9196 27.8588 22.0656 27.9605 22.0085C28.5986 21.6252 29.2124 21.2028 29.7984 20.7437C30.6984 20.06 31.3266 19.4568 31.3668 19.4279C31.3414 19.6756 31.2715 20.4385 31.2586 20.572C31.2258 20.7016 31.228 20.8376 31.265 20.9661C31.2755 20.9828 31.29 20.9966 31.3072 21.0061C31.3245 21.0157 31.3439 21.0207 31.3636 21.0207C31.3833 21.0207 31.4026 21.0157 31.4199 21.0061C31.4371 20.9966 31.4516 20.9828 31.4621 20.9661C31.4984 20.9023 31.5159 20.8295 31.5128 20.7562C31.551 20.3239 31.6443 19.3269 31.6165 19.2115Z" fill="#5E84A1" fill-opacity="0.533333"/>
<path d="M33.4919 30.3415C33.1979 30.0029 32.8773 29.6884 32.5331 29.4009C32.5185 29.3882 32.4997 29.3816 32.4804 29.3823C32.4611 29.383 32.4428 29.391 32.4291 29.4046C32.4155 29.4183 32.4075 29.4366 32.4068 29.4559C32.4061 29.4752 32.4127 29.494 32.4254 29.5086C32.6542 29.8221 32.9116 30.1137 33.1943 30.3797C32.9574 30.4199 31.5648 30.4432 31.1795 30.4368C30.4459 30.4294 29.7126 30.406 28.9801 30.3668C28.8848 30.3604 28.8595 30.5257 28.9548 30.5385C30.3727 30.6998 31.8021 30.7338 33.226 30.6403C32.1869 31.7177 32.2158 31.6726 32.1965 31.7663C32.1912 31.7857 32.1911 31.8061 32.1963 31.8255C32.2014 31.8449 32.2115 31.8626 32.2257 31.8768C32.2399 31.891 32.2575 31.9012 32.2769 31.9064C32.2963 31.9116 32.3167 31.9115 32.3361 31.9063C32.4788 31.8661 32.4913 31.7812 33.2707 30.9528C33.3727 30.8567 33.4669 30.7526 33.5522 30.6415C33.6443 30.5321 33.5747 30.43 33.4919 30.3415Z" fill="#5E84A1" fill-opacity="0.533333"/>
<path d="M48.9314 23.1908C48.0349 22.4955 46.9659 22.0577 45.8393 21.9244C44.7127 21.7911 43.5711 21.9674 42.5371 22.4344C42.5144 22.4239 42.4892 22.4198 42.4643 22.4224C42.4394 22.425 42.4156 22.4342 42.3954 22.4491C42.3753 22.4641 42.3596 22.4841 42.3498 22.5072C42.3401 22.5303 42.3367 22.5555 42.3401 22.5804C42.7853 25.145 43.3968 27.6781 44.1707 30.1634C44.1783 30.187 44.1924 30.208 44.2115 30.224C44.2305 30.2399 44.2537 30.2502 44.2783 30.2535C44.3029 30.2568 44.328 30.2531 44.3505 30.2428C44.3731 30.2325 44.3923 30.2159 44.4059 30.1952C49.2093 22.9516 49.0319 23.2914 48.9314 23.1908Z" fill="#5E84A1" fill-opacity="0.533333"/>
<path d="M76.6063 17.4067C76.558 17.2491 76.4715 17.106 76.3543 16.9901C76.2372 16.8742 76.0932 16.7891 75.9351 16.7425C75.7771 16.6959 75.61 16.6892 75.4487 16.723C75.2874 16.7568 75.137 16.83 75.011 16.9362C74.9482 16.5774 75.0773 14.397 74.949 13.7189C74.9128 13.5291 74.8931 13.5279 74.674 13.5307C74.4355 13.5343 71.6152 13.5476 71.6039 13.55C71.5175 13.5645 71.4543 13.7153 71.5975 13.8315C71.6796 13.9292 71.7389 14.0439 71.7712 14.1673C71.8034 14.2907 71.8079 14.4198 71.7841 14.5451C71.7604 14.6704 71.709 14.7889 71.6338 14.892C71.5586 14.995 71.4615 15.0801 71.3494 15.1409C71.2314 15.2025 71.1014 15.2372 70.9685 15.2427C70.8356 15.2482 70.7031 15.2243 70.5805 15.1728C70.4579 15.1212 70.3482 15.0432 70.2592 14.9443C70.1702 14.8455 70.1041 14.7282 70.0657 14.6009C69.9639 14.2389 70.231 13.9715 70.377 13.6662C70.3833 13.6534 70.3862 13.6392 70.3855 13.6249C70.3847 13.6106 70.3803 13.5968 70.3727 13.5847C70.3651 13.5726 70.3545 13.5626 70.3419 13.5558C70.3294 13.5489 70.3153 13.5454 70.301 13.5456L58.8468 13.5203C58.8318 13.5202 58.8169 13.5231 58.803 13.5288C58.7892 13.5346 58.7765 13.543 58.7659 13.5536C58.7553 13.5642 58.7469 13.5768 58.7412 13.5907C58.7355 13.6046 58.7325 13.6195 58.7326 13.6345C58.7451 14.1239 58.7768 16.4568 58.7833 17.1304C58.653 17.0338 58.5017 16.9696 58.3418 16.9429C58.1819 16.9162 58.018 16.9279 57.8634 16.9769C57.7089 17.0259 57.5682 17.111 57.453 17.225C57.3377 17.339 57.2511 17.4787 57.2004 17.6327C57.1089 17.8774 57.0979 18.1449 57.1688 18.3964C57.2398 18.6478 57.389 18.8701 57.5949 19.031C57.7723 19.1567 57.9843 19.2242 58.2018 19.2242C58.4192 19.2242 58.6312 19.1567 58.8086 19.031C58.8086 19.1834 58.8404 22.2217 58.8404 22.2217C58.8407 22.2462 58.849 22.27 58.8639 22.2895C58.8788 22.3089 58.8996 22.3231 58.9232 22.3298C59.0583 22.3612 62.4851 22.3556 62.4445 22.3552C62.2747 22.5213 62.1519 22.7295 62.0886 22.9584C62.0475 23.1476 62.0608 23.3445 62.1268 23.5265C62.1928 23.7085 62.3089 23.8681 62.4617 23.987C62.6144 24.1059 62.7977 24.1792 62.9903 24.1985C63.1829 24.2178 63.3771 24.1823 63.5504 24.0961C63.7099 24.0278 63.8521 23.9248 63.9668 23.7946C64.0814 23.6643 64.1656 23.5102 64.2131 23.3433C64.2606 23.1764 64.2703 23.0011 64.2414 22.83C64.2125 22.6589 64.1459 22.4964 64.0463 22.3544C70.6725 22.3544 70.2442 22.3946 70.3392 22.3355C70.4087 22.2848 70.3198 22.2148 70.2881 22.1702C70.1803 22.0389 70.1104 21.8808 70.0856 21.7128C70.0609 21.5448 70.0824 21.3732 70.1477 21.2165C70.213 21.0597 70.3198 20.9237 70.4565 20.823C70.5933 20.7223 70.7548 20.6607 70.9239 20.6448C71.0607 20.6437 71.1962 20.6721 71.3211 20.728C71.446 20.784 71.5574 20.8661 71.6478 20.969C71.7565 21.0915 71.8213 21.2468 71.8317 21.4103C71.8421 21.5738 71.7976 21.7361 71.7053 21.8714C71.6035 22.0648 71.3703 22.3632 71.5782 22.3861C71.5782 22.3861 74.7902 22.3636 74.8895 22.3608C75.1059 22.4054 75.1059 22.3226 75.1059 22.2848C75.1059 21.1149 75.0612 19.9523 75.0484 18.7824C75.8499 19.1979 76.8593 18.2858 76.6063 17.4067ZM75.9898 18.4808C75.3617 18.9489 74.8582 18.1993 74.7946 18.5508C74.8075 19.7392 74.8139 20.9215 74.8517 22.1103C73.8222 22.1292 72.7987 22.1292 71.7692 22.1292C72.5064 21.2967 71.4877 20.0826 70.5225 20.4956C70.374 20.5608 70.2409 20.6566 70.1319 20.7768C70.0229 20.8969 69.9405 21.0387 69.8901 21.1929C69.8397 21.3471 69.8224 21.5102 69.8393 21.6715C69.8563 21.8329 69.9071 21.9888 69.9885 22.1292C69.0289 22.1227 68.069 22.1292 67.1091 22.1103C67.0837 21.0486 67.0648 19.9873 67.0519 18.9333C66.8958 19.0775 66.6984 19.1691 66.4875 19.1954C66.2766 19.2216 66.0628 19.1812 65.8761 19.0796C65.6826 18.972 65.5199 18.8169 65.4031 18.6288C65.2863 18.4408 65.2193 18.2262 65.2085 18.0051C65.1984 17.841 65.2255 17.6767 65.2877 17.5246C65.35 17.3724 65.4458 17.2362 65.568 17.1262C65.6902 17.0163 65.8356 16.9353 65.9935 16.8893C66.1514 16.8434 66.3175 16.8337 66.4797 16.861C66.5873 16.8683 66.6921 16.8982 66.7874 16.9486C66.8827 16.9991 66.9664 17.0689 67.033 17.1537C67.0202 16.0221 67.0073 14.8908 66.9884 13.7591C68.0119 13.7784 69.035 13.7784 70.0649 13.7784C69.3531 14.6109 70.3762 15.7997 71.3297 15.3927C71.9208 15.1514 72.2639 14.3121 71.8384 13.7841C72.8036 13.7776 73.7707 13.7901 74.7303 13.7648C74.826 14.1344 74.5779 17.6419 74.9466 17.3307C75.8048 16.1926 77.064 17.6793 75.9898 18.4808Z" fill="#5E84A1" fill-opacity="0.533333"/>
<path d="M48.7025 24.5574C48.6816 24.5976 44.7614 30.4964 44.7867 30.4557C44.7258 30.5493 44.6395 30.6237 44.5379 30.6701C44.4363 30.7164 44.3236 30.7329 44.2129 30.7176C44.1023 30.7023 43.9983 30.6558 43.9131 30.5836C43.8279 30.5114 43.7651 30.4164 43.7319 30.3098C43.0359 28.0858 42.4692 25.8234 42.0348 23.5339C40.1678 24.4205 38.7183 25.9977 37.9919 27.9326C36.3572 32.5453 39.6838 36.9674 44.7171 36.4181C47.7892 36.0887 50.3718 33.9959 50.895 30.9327C51.1157 29.7711 51.0295 28.5721 50.645 27.454C50.2605 26.3359 49.5909 25.3375 48.7025 24.5574Z" fill="#5E84A1" fill-opacity="0.533333"/>
<path d="M17.5976 45.3455C17.3137 45.3885 17.4987 45.7553 17.7134 45.6865C17.7573 45.6701 17.793 45.6372 17.8131 45.5949C17.8331 45.5526 17.8359 45.5042 17.8209 45.4598C17.8058 45.4155 17.7741 45.3788 17.7324 45.3574C17.6907 45.3361 17.6424 45.3318 17.5976 45.3455Z" fill="#263B55"/>
<path d="M19.0307 44.8082C19.0029 44.8179 18.9777 44.8341 18.9574 44.8554C18.937 44.8768 18.922 44.9027 18.9136 44.9309C18.9052 44.9592 18.9036 44.9891 18.909 45.0181C18.9144 45.0471 18.9266 45.0744 18.9447 45.0977C18.9763 45.1316 19.0187 45.1536 19.0647 45.1598C19.1106 45.166 19.1573 45.1562 19.1968 45.1319C19.2282 45.1042 19.2503 45.0675 19.2601 45.0268C19.27 44.9861 19.2671 44.9433 19.2519 44.9043C19.2352 44.8623 19.2026 44.8286 19.1612 44.8106C19.1197 44.7926 19.0728 44.7917 19.0307 44.8082Z" fill="#263B55"/>
<path d="M63.6864 44.9453C63.6457 44.9621 63.6133 44.9944 63.5964 45.0351C63.5794 45.0758 63.5794 45.1216 63.5962 45.1623C63.613 45.203 63.6453 45.2355 63.6859 45.2524C63.7266 45.2693 63.7724 45.2694 63.8131 45.2526C63.9796 45.1991 63.9141 44.8621 63.6864 44.9453Z" fill="#263B55"/>
<path d="M66.0324 45.0161C66.0121 45.0242 65.9936 45.0363 65.978 45.0516C65.9623 45.0669 65.9498 45.0851 65.9412 45.1052C65.9326 45.1253 65.9281 45.1469 65.9278 45.1688C65.9276 45.1907 65.9316 45.2124 65.9397 45.2327C65.9479 45.253 65.9599 45.2715 65.9752 45.2871C65.9905 45.3028 66.0087 45.3153 66.0288 45.3239C66.0489 45.3325 66.0705 45.337 66.0924 45.3373C66.1143 45.3376 66.136 45.3335 66.1563 45.3254C66.3248 45.2574 66.2504 44.9409 66.0324 45.0161Z" fill="#263B55"/>
</svg>
