<svg width="82" height="81" viewBox="0 0 82 81" fill="none" xmlns="http://www.w3.org/2000/svg">
<path d="M69.9188 66.0312C68.0589 62.6555 64.0792 60.9954 60.5563 59.9904C57.9762 59.2599 55.3452 58.7222 52.6854 58.3818C46.3032 57.5667 39.6918 57.7243 37.2286 58.1176C36.6998 58.2021 35.4189 58.3818 35.4189 58.3818C35.4189 58.3818 38.1379 59.3554 39.3439 60.1915C39.693 60.4244 40.6131 61.2705 40.6131 61.2705L40.6449 59.9587C40.6449 59.9587 41.1315 61.1651 41.3643 61.7784C43.1841 60.1597 45.2154 59.3132 47.4582 58.7313C49.4364 58.2133 53.8166 58.3718 54.0068 58.6573C54.0704 58.7526 54.9165 60.6359 54.906 60.6359C55.4616 60.5796 56.0212 60.576 56.5774 60.625C56.768 60.7308 57.3077 62.3708 57.3817 62.3495C58.0504 62.1936 58.7378 62.1331 59.4234 62.1697C59.6141 62.2546 62.8723 68.0942 63.4329 69.279C63.7293 69.9035 64.9671 73.2149 64.9671 73.2149C64.9671 73.2149 60.5977 72.76 59.3494 72.5799C58.1856 72.4214 51.3619 72.2412 47.5535 73.1195C46.6647 73.3206 42.5917 74.326 42.5177 74.4841C42.2849 74.918 41.682 75.5843 41.2059 75.5952C39.693 75.627 39.5237 74.4631 39.5446 74.4736C38.8586 74.2239 38.1594 74.0121 37.4502 73.839C36.5823 73.6484 32.4884 71.9666 23.8976 72.5272C22.7442 72.6012 16.9681 73.1618 16.8599 73.3946C17.5795 71.786 18.3024 70.1774 19.0287 68.5688C19.6955 67.0981 22.3722 62.1472 22.2978 62.1259C22.9592 62.1832 23.6232 62.2044 24.2869 62.1894C24.2869 62.1894 24.9641 61.0574 25.1756 60.7819C25.4507 60.4328 27.1538 60.5173 27.1011 60.6761C27.2387 60.2848 27.3762 59.8827 27.5134 59.4914C17.6534 61.1736 9.87772 66.5793 11.7292 70.335C13.6543 74.2391 18.2248 76.0798 31.0366 77.91C42.1664 79.4533 53.5048 78.2362 64.0534 74.3658C67.0628 73.278 72.0052 69.8175 69.9188 66.0312Z" fill="#3078FF" fill-opacity="0.502"/>
<path d="M42.5185 8.01372C42.4445 7.62243 41.8944 7.41049 41.6824 7.80219C41.6402 7.88704 41.8517 7.92927 41.9575 8.04549C42.2036 8.327 41.5956 8.57473 41.2067 8.57473C40.8447 8.56387 40.3919 8.32057 40.6565 7.90796C40.7092 7.83396 40.6139 7.74951 40.5399 7.79173C40.4702 7.8413 40.4119 7.90511 40.3688 7.97894C40.3256 8.05276 40.2987 8.13491 40.2897 8.21994C40.2807 8.30497 40.2899 8.39094 40.3167 8.47214C40.3435 8.55335 40.3872 8.62793 40.445 8.69095C41.049 9.37823 42.7111 8.90007 42.5185 8.01372Z" fill="#263B54"/>
<path d="M53.4681 17.2922C52.4152 17.5737 51.5329 18.1797 49.1518 18.826C42.6731 20.5919 35.7992 20.236 29.5375 17.8106C29.4213 17.7679 29.3473 17.9586 29.4531 18.0116C36.2861 21.1786 44.7064 21.1609 51.3524 18.6993C52.1673 18.4505 52.9383 18.0757 53.6374 17.5886C53.7854 17.472 53.6269 17.25 53.4681 17.2922Z" fill="#263B54"/>
<path d="M34.8696 50.0142C34.8674 49.756 34.7778 49.5061 34.6154 49.3053C34.6065 49.2973 34.5957 49.2918 34.584 49.289C34.5724 49.2863 34.5603 49.2866 34.5487 49.2897C34.5372 49.2929 34.5266 49.2988 34.518 49.3071C34.5093 49.3154 34.5029 49.3256 34.4992 49.337C34.4071 49.6439 34.6355 49.8751 34.4887 50.8286C34.4805 50.8622 34.481 50.8974 34.4903 50.9307C34.4996 50.964 34.5173 50.9944 34.5418 51.0188C34.5663 51.0433 34.5966 51.061 34.63 51.0703C34.6633 51.0796 34.6985 51.0802 34.732 51.0719C34.8753 51.0404 35.0116 50.983 35.1342 50.9026C35.1962 51.1981 35.3225 51.4763 35.5042 51.7174C35.5256 51.7389 35.5529 51.7537 35.5826 51.7598C35.6124 51.766 35.6433 51.7633 35.6715 51.752C35.6997 51.7407 35.7239 51.7214 35.7412 51.6964C35.7586 51.6715 35.7681 51.642 35.7688 51.6116C35.7157 51.1781 35.5255 50.7759 35.462 50.3315C35.4075 49.8508 35.4004 49.3659 35.4406 48.8838C35.4406 48.7672 35.2822 48.7567 35.2396 48.852C35.0685 49.377 35.0072 49.9315 35.0594 50.4811C34.7678 50.6271 34.9701 50.6907 34.8696 50.0142Z" fill="#263B54"/>
<path d="M36.1602 47.9195C36.0078 48.3518 35.8746 49.136 36.3612 49.4428C36.4531 49.493 36.5553 49.5212 36.6599 49.5251C36.7645 49.5291 36.8686 49.5088 36.9639 49.4657C37.0593 49.4226 37.1434 49.358 37.2096 49.2769C37.2758 49.1958 37.3222 49.1005 37.3453 48.9984C37.5038 48.5649 37.5991 47.8559 37.3135 47.4646C37.028 47.0733 36.1497 46.978 36.171 47.6339C36.1737 47.6657 36.1851 47.6962 36.204 47.7219C36.2229 47.7476 36.2486 47.7676 36.2782 47.7796C36.3077 47.7916 36.34 47.7953 36.3715 47.7901C36.403 47.7849 36.4324 47.771 36.4566 47.7502C36.8161 47.4115 37.0276 47.8028 37.0172 48.1523C37.0172 49.1404 36.6572 49.2261 36.4779 48.9968C36.2659 48.7322 36.3508 48.246 36.3717 47.9512C36.3938 47.8137 36.2016 47.8024 36.1602 47.9195Z" fill="#263B54"/>
<path d="M38.5091 45.5495C38.4963 45.4442 38.308 45.4438 38.2867 45.5495C38.2201 46.1114 38.1848 46.6765 38.181 47.2422C38.181 47.2744 38.1884 47.3061 38.2027 47.3349C38.217 47.3638 38.2378 47.3889 38.2634 47.4084C38.289 47.4278 38.3188 47.4411 38.3504 47.4472C38.382 47.4532 38.4146 47.4519 38.4456 47.4433L38.8264 47.2844C38.8651 47.4868 38.9403 47.6805 39.0484 47.8559C39.1333 47.9934 39.3975 47.9512 39.3766 47.7714C39.3235 47.2237 39.0082 46.766 39.1333 45.5813C39.1319 45.5506 39.1198 45.5215 39.099 45.4989C39.0782 45.4763 39.0501 45.4619 39.0196 45.4581C38.9892 45.4543 38.9583 45.4614 38.9326 45.4781C38.9069 45.4948 38.8879 45.5202 38.8791 45.5495C38.7893 45.9807 38.7538 46.4214 38.7733 46.8614C38.7117 46.8815 38.6516 46.9063 38.5936 46.9354C38.5831 46.4701 38.5654 46.0056 38.5091 45.5495Z" fill="#263B54"/>
<path d="M30.5107 57.7899C29.8377 57.8349 29.1749 57.9775 28.543 58.2133C28.2454 58.3386 27.9765 58.5234 27.7528 58.7562C27.5291 58.989 27.3553 59.2651 27.242 59.5674C26.4059 61.3771 23.9411 66.8355 23.5707 67.7452C23.4241 68.1 23.29 68.4599 23.1686 68.8242C23.1051 69.0252 23.0311 69.5436 22.8509 69.6812C22.6816 69.7978 22.7769 70.1235 22.9993 70.0411C26.0878 68.8196 29.4744 68.5649 32.7109 69.3108C35.5642 69.9605 38.2404 71.228 40.5509 73.0239C40.7833 73.2145 41.1219 72.8972 40.8895 72.6852C38.6889 70.7175 35.6213 69.468 32.766 68.8246C29.6431 68.1165 26.3812 68.3372 23.3821 69.4596C23.734 68.2628 23.4774 68.7498 26.6617 61.8951C27.8545 59.339 27.7672 58.7333 29.7297 58.3722C31.4577 58.0539 33.2319 58.0857 34.9473 58.4657C36.6627 58.8456 38.2844 59.5659 39.7164 60.584C39.833 60.658 39.9706 60.4783 39.8648 60.3938C38.5585 59.3572 37.0578 58.5927 35.4512 58.1455C33.8446 57.6982 32.1648 57.5773 30.5107 57.7899Z" fill="#263B54"/>
<path d="M48.464 68.5387C47.0848 68.857 45.7567 69.3662 44.5181 70.0516C43.386 70.6652 42.1052 71.4056 41.3761 72.5047C41.249 72.6953 41.5241 72.8751 41.6825 72.7375C43.7142 70.9918 46.0519 69.5955 48.7073 69.0454C51.9246 68.3786 55.3513 68.7808 58.4724 69.7331C58.5193 69.7453 58.5685 69.7451 58.6152 69.7324C58.6619 69.7198 58.7045 69.6951 58.7387 69.6608C58.773 69.6266 58.7976 69.584 58.8102 69.5372C58.8228 69.4905 58.823 69.4413 58.8106 69.3944C57.9521 66.4241 56.8004 63.5465 55.3726 60.804C55.7163 60.9048 56.0722 60.9581 56.4303 60.9625C57.266 62.8124 61.1701 71.2882 61.2441 71.4587C59.6355 71.1836 58.049 70.8028 56.4182 70.6439C51.076 70.1067 45.7378 70.7819 41.0157 73.4264C40.9905 73.4419 40.9725 73.4667 40.9656 73.4955C40.9587 73.5243 40.9635 73.5546 40.9789 73.5799C40.9944 73.6051 41.0193 73.6231 41.048 73.63C41.0768 73.6369 41.1071 73.6321 41.1324 73.6166C44.1587 72.0291 47.4943 71.1194 50.9075 70.9508C56.0635 70.6492 58.8802 71.6606 61.5927 72.0828C61.6394 72.0938 61.6882 72.0927 61.7343 72.0796C61.7805 72.0665 61.8225 72.0418 61.8564 72.0079C61.8903 71.974 61.915 71.9319 61.9281 71.8858C61.9413 71.8396 61.9424 71.7909 61.9313 71.7442C61.8043 71.141 60.3336 68.2857 59.9318 67.4279C59.1384 65.7457 57.0436 61.2179 56.7685 60.6359C56.7503 60.6019 56.7227 60.5738 56.6889 60.5551C56.6552 60.5363 56.6168 60.5277 56.5783 60.5302C56.2154 60.5724 55.8483 60.5617 55.4884 60.4984C55.3912 60.4733 55.2923 60.4556 55.1925 60.4453C54.0495 58.3248 54.2116 58.3219 53.3196 58.266C48.7725 57.9069 45.2601 58.3127 41.8092 61.2705C41.7247 61.3445 41.841 61.4925 41.9258 61.4185C44.3608 59.6697 47.2651 58.6929 50.2621 58.6151C50.9924 58.6047 53.3936 58.7104 53.6804 58.9006C53.945 59.0808 55.7752 62.7613 56.3993 64.2223C57.0803 65.8012 57.6668 67.4191 58.1559 69.0675C55.0232 68.1791 51.639 67.8554 48.464 68.5387Z" fill="#263B54"/>
<path d="M39.4291 61.4611C39.3941 61.4817 39.3651 61.5111 39.3449 61.5464C39.3247 61.5816 39.3141 61.6216 39.3141 61.6622C39.3141 61.7028 39.3247 61.7428 39.3449 61.778C39.3651 61.8133 39.3941 61.8427 39.4291 61.8633C39.6768 62.0306 39.8801 62.2555 40.0215 62.5188C39.7896 62.4969 39.5557 62.5221 39.3338 62.5928C39.2911 62.6065 39.2533 62.6321 39.2247 62.6667C39.1961 62.7012 39.1779 62.7432 39.1724 62.7877C39.1668 62.8322 39.1741 62.8774 39.1934 62.9178C39.2127 62.9583 39.2431 62.9925 39.2811 63.0162C39.6453 63.2647 39.9081 63.6358 40.0215 64.0618C39.6724 63.9983 39.7255 64.2207 39.81 64.2842C39.4423 64.1889 39.0564 64.1889 38.6888 64.2842C38.6522 64.2956 38.6191 64.3161 38.5927 64.3438C38.5663 64.3715 38.5474 64.4055 38.5378 64.4426C38.5283 64.4797 38.5284 64.5186 38.5381 64.5557C38.5479 64.5927 38.5669 64.6266 38.5935 64.6542C39.153 65.1894 39.5648 65.86 39.7891 66.601C39.6407 66.601 39.4927 66.6115 39.3447 66.6115C39.302 66.612 39.2604 66.6252 39.2252 66.6493C39.1899 66.6734 39.1627 66.7075 39.1468 66.7471C39.1309 66.7868 39.1271 66.8302 39.1359 66.872C39.1447 66.9138 39.1658 66.952 39.1963 66.9819C39.3897 67.1834 39.5536 67.4115 39.6829 67.6591C39.3515 67.5738 39.0069 67.5523 38.6675 67.5956C38.5086 67.6165 38.3606 67.828 38.5195 67.9551C38.874 68.2332 39.166 68.5829 39.3765 68.9814C39.2072 68.9496 39.0378 68.9287 38.879 68.8969C38.8407 68.8875 38.8005 68.8896 38.7634 68.9029C38.7262 68.9161 38.6938 68.94 38.6702 68.9716C38.6465 69.0031 38.6327 69.0409 38.6303 69.0803C38.628 69.1196 38.6373 69.1588 38.657 69.1929C39.1858 70.0708 39.7026 70.9809 40.2966 71.827C40.316 71.8554 40.3455 71.8753 40.379 71.8827C40.4126 71.8901 40.4477 71.8845 40.4773 71.8671C40.5069 71.8496 40.5287 71.8215 40.5384 71.7886C40.5481 71.7556 40.5449 71.7202 40.5294 71.6895C40.1381 70.896 39.6724 70.1239 39.2281 69.3622C39.3765 69.394 39.5349 69.4149 39.6829 69.4467C39.8204 69.468 40.0006 69.3518 39.9371 69.1929C39.7681 68.7543 39.5167 68.3521 39.1963 68.0082C39.4637 68.0286 39.7254 68.0967 39.9688 68.2093C40.1273 68.2832 40.3497 68.1562 40.2861 67.9655C40.1856 67.6287 40.0242 67.3132 39.81 67.0346C39.9053 67.0346 40.0006 67.0241 40.0955 67.0241C40.1287 67.023 40.1612 67.0145 40.1907 66.9994C40.2202 66.9842 40.246 66.9628 40.2663 66.9365C40.2865 66.9102 40.3007 66.8798 40.3078 66.8474C40.3149 66.815 40.3148 66.7814 40.3074 66.749C40.1193 65.9727 39.7453 65.2538 39.2176 64.6542C39.4797 64.6417 39.741 64.6926 39.9793 64.8026C40.1168 64.8658 40.4554 64.8553 40.3074 64.5167C40.5399 64.5062 40.5717 64.3687 40.5508 64.2311C40.4839 63.7631 40.2731 63.3273 39.9475 62.9845C40.0917 62.9932 40.2341 63.0216 40.3706 63.0689C40.4101 63.0791 40.4515 63.0787 40.4909 63.068C40.5302 63.0572 40.566 63.0364 40.5949 63.0076C40.6237 62.9788 40.6446 62.943 40.6554 62.9037C40.6662 62.8644 40.6666 62.8229 40.6565 62.7834C40.539 62.3962 40.3283 62.0438 40.0428 61.7571C40.2374 61.734 40.4342 61.7749 40.6034 61.8737C40.7514 61.9477 40.9634 61.8206 40.8998 61.6409C40.8192 61.4017 40.7729 61.1523 40.7623 60.9001C40.898 61.3047 41.0942 61.6863 41.3442 62.0322C41.1833 63.4289 41.0691 64.8251 40.9525 66.2323C40.7676 67.7421 40.6617 69.2605 40.6352 70.7814C40.6352 70.919 40.868 70.9612 40.889 70.8132C41.1095 69.3301 41.2509 67.8362 41.3124 66.338C41.4287 64.7938 41.5662 63.2382 41.6297 61.6936C41.2407 61.1483 40.9901 60.5166 40.8998 59.8529C40.868 59.6414 40.5717 59.6836 40.519 59.8529C40.3444 60.3375 40.3041 60.8602 40.4024 61.3658C40.2421 61.3155 40.0733 61.298 39.906 61.3144C39.7388 61.3308 39.5766 61.3807 39.4291 61.4611Z" fill="#263B54"/>
<path d="M26.2793 60.3186C25.7609 60.3186 25.1154 60.3926 24.8315 60.8683C24.0932 62.0905 20.8775 67.9189 19.7427 71.2894C19.7319 71.3318 19.7324 71.3762 19.744 71.4184C19.7556 71.4606 19.778 71.499 19.8089 71.53C19.8398 71.5609 19.8783 71.5833 19.9204 71.5949C19.9626 71.6065 20.0071 71.6069 20.0495 71.5962C26.8133 69.786 34.0032 70.4772 40.2983 73.5426C40.489 73.6379 40.6583 73.3524 40.4676 73.2571C34.2673 70.0364 27.0908 69.2365 20.3334 71.0131C21.0316 68.6975 22.2907 66.509 23.4123 64.3916C23.8989 63.4815 25.179 61.1225 25.2743 61.0059C25.5839 60.8517 25.9228 60.7652 26.2684 60.7521C26.2969 60.7528 26.3252 60.7479 26.3518 60.7377C26.3783 60.7275 26.4026 60.7121 26.4233 60.6925C26.4439 60.6729 26.4605 60.6494 26.472 60.6233C26.4836 60.5973 26.4899 60.5693 26.4906 60.5408C26.4913 60.5123 26.4864 60.484 26.4762 60.4574C26.4659 60.4309 26.4506 60.4066 26.4309 60.3859C26.4113 60.3653 26.3878 60.3487 26.3618 60.3372C26.3358 60.3256 26.3077 60.3193 26.2793 60.3186Z" fill="#263B54"/>
<path d="M59.7099 62.0748C59.6787 62.0352 59.6384 62.0039 59.5923 61.9835C59.5462 61.9632 59.4959 61.9545 59.4456 61.9582C59.1492 61.9493 58.8525 61.9564 58.5569 61.9795C58.2406 61.9881 57.9257 62.0235 57.6154 62.0853C57.5097 62.117 57.4988 62.2968 57.6154 62.3181C57.9487 62.364 58.2845 62.3887 58.6208 62.3921C58.9064 62.4026 59.2554 62.3495 59.4654 62.3708C61.0024 65.3214 62.4843 67.532 64.7022 73.0773C58.6755 72.0756 50.7177 71.8186 44.94 73.4686C44.05 73.6622 43.1893 73.9717 42.3799 74.3892C42.2336 74.743 41.9653 75.0327 41.6236 75.2054C41.2819 75.3782 40.8896 75.4226 40.5179 75.3306C40.3443 75.2731 40.1878 75.1733 40.0622 75.0404C39.9366 74.9075 39.846 74.7455 39.7984 74.5689C39.7244 74.3469 37.9151 73.7859 37.069 73.5535C31.0697 71.8174 23.2434 72.0587 17.1596 73.0878C19.4519 67.3925 20.8373 65.3765 22.4069 62.3286C22.9315 62.3717 23.4587 62.3717 23.9833 62.3286C24.0089 62.3216 24.0315 62.3065 24.0475 62.2854C24.0636 62.2644 24.0723 62.2386 24.0723 62.2122C24.0723 62.1857 24.0636 62.1599 24.0475 62.1389C24.0315 62.1178 24.0089 62.1027 23.9833 62.0957C23.4659 62.0019 22.943 61.9419 22.4178 61.916C22.3329 61.916 22.2569 61.9264 22.1318 62.0853C20.8413 63.7249 19.9843 65.6926 19.0638 67.5546C18.1494 69.3889 17.3094 71.2593 16.5459 73.1614C16.451 73.4027 16.5672 73.5 16.9163 73.4473C17.2654 73.3946 24.671 72.6028 28.596 72.717C35.0422 72.8992 38.298 74.4543 39.3448 74.7061C39.43 74.9728 39.5784 75.2151 39.7773 75.4122C39.9762 75.6093 40.2198 75.7554 40.4873 75.8381C40.9201 75.9404 41.3755 75.8779 41.7647 75.6627C42.1539 75.4475 42.449 75.0952 42.5926 74.6743C44.22 74.0227 45.9113 73.5439 47.6388 73.2458C53.4483 72.2171 58.8066 72.865 64.9149 73.4469C65.1373 73.4678 65.3806 73.4043 65.2853 73.161C64.0479 69.9619 61.532 64.7101 59.7099 62.0748Z" fill="#263B54"/>
<path d="M66.3541 21.2265C66.2812 20.7472 66.0718 20.299 65.7509 19.9356C64.7294 18.7142 61.2938 17.0823 58.5355 17.3332C58.2467 16.3945 57.6421 15.5845 56.8242 15.0407C56.0064 14.4969 55.0256 14.2528 54.0482 14.3497C51.8645 10.2135 46.9301 6.64801 41.4395 6.59613C41.4287 6.23661 41.3651 3.32703 41.3651 3.32703L40.8576 3.46456C40.8576 3.46456 40.9843 6.25752 41.0056 6.58568C38.4806 6.67534 36.0208 7.41097 33.8611 8.72229C31.7015 10.0336 29.9142 11.8768 28.6699 14.0758C26.734 13.9913 24.5547 15.3136 23.8775 17.1322C21.3954 17.4366 18.6897 18.2465 16.9902 20.084C16.5186 20.5426 16.1725 21.1144 15.9848 21.7449C15.2231 23.5855 16.4714 26.3696 16.4714 26.3696C16.4714 26.3696 20.2484 30.0292 30.5737 31.4054C30.8597 32.3468 31.9069 32.9392 32.9014 33.1403C36.4669 33.8734 43.8532 33.6442 48.1249 33.2038C49.8031 33.0361 51.3824 32.7072 52.2405 31.2465C61.032 29.9243 65.4646 27.0573 66.3216 24.2217C66.4778 23.2302 66.4888 22.2212 66.3541 21.2265ZM18.3869 26.5385C18.3653 26.5748 18.3357 26.6057 18.3003 26.6288C18.265 26.6519 18.2248 26.6665 18.1829 26.6716C18.1409 26.6767 18.0984 26.6721 18.0585 26.6582C18.0187 26.6442 17.9826 26.6213 17.9529 26.5912C17.6779 26.3584 17.6779 25.9248 17.6461 25.5858C17.6108 25.1905 17.6504 24.7922 17.7627 24.4115C17.7751 24.3693 17.8009 24.3321 17.8362 24.3057C17.8714 24.2793 17.9143 24.265 17.9584 24.265C18.0024 24.265 18.0453 24.2793 18.0806 24.3057C18.1158 24.3321 18.1416 24.3693 18.154 24.4115C18.2389 24.7924 18.3149 25.1732 18.3655 25.5645C18.4701 25.8797 18.4775 26.219 18.3869 26.5385ZM19.9738 27.1518C19.9356 27.375 19.6456 27.3955 19.5081 27.2789C19.2225 27.0356 19.1908 26.5703 19.1381 26.2104C19.0727 25.847 19.0655 25.4757 19.1168 25.1101C19.1485 24.9199 19.4132 24.9621 19.4658 25.1101C19.5929 25.4591 19.6565 25.8295 19.7727 26.1895C19.9099 26.4915 19.9785 26.8201 19.9738 27.1518ZM51.3417 31.7118C50.5929 32.4357 49.4689 32.632 48.4639 32.7574C44.204 33.2437 39.9085 33.3393 35.6312 33.043C33.9864 32.9255 31.7303 32.936 30.9662 31.4878C36.1504 32.1514 45.0492 32.2756 51.6699 31.3503C51.5672 31.4768 51.4577 31.5975 51.3417 31.7118ZM32.159 29.2466C32.2032 28.9615 32.6565 29.0351 32.6565 29.3102C32.6565 30.0606 32.9432 30.3345 32.7518 30.6538C32.7154 30.7127 32.6578 30.7554 32.5908 30.7731C32.5239 30.7909 32.4527 30.7823 32.3919 30.7491C31.9949 30.5331 32.0963 29.6677 32.161 29.2466H32.159ZM62.0672 27.3529C62.0568 27.3884 62.0352 27.4196 62.0056 27.4418C61.9761 27.464 61.9401 27.4759 61.9031 27.4759C61.8661 27.4759 61.8301 27.464 61.8005 27.4418C61.771 27.4196 61.7494 27.3884 61.739 27.3529C61.6755 26.8795 61.6648 26.4006 61.7072 25.9248C61.7072 25.8813 61.7245 25.8396 61.7553 25.8088C61.7861 25.778 61.8278 25.7608 61.8713 25.7608C61.9148 25.7608 61.9566 25.778 61.9873 25.8088C62.0181 25.8396 62.0354 25.8813 62.0354 25.9248C62.1025 26.3979 62.1138 26.8772 62.0692 27.3529H62.0672ZM63.4848 26.9298C63.4697 26.9765 63.4417 27.018 63.4041 27.0494C63.3664 27.0809 63.3207 27.1012 63.2721 27.1078C63.2235 27.1144 63.174 27.1072 63.1293 27.087C63.0846 27.0667 63.0465 27.0343 63.0195 26.9934C62.705 26.5466 62.9145 25.2967 62.9982 24.7815C63.015 24.7249 63.0515 24.6762 63.101 24.644C63.1506 24.6118 63.21 24.5984 63.2685 24.606C63.3271 24.6137 63.381 24.6419 63.4206 24.6857C63.4603 24.7295 63.483 24.786 63.4848 24.8451C63.3834 26.0523 63.6617 26.5072 63.4868 26.9298H63.4848ZM65.2727 22.5061C62.1697 26.1762 56.9783 26.9813 52.3765 27.7852C47.7425 28.6 26.6366 29.8587 17.9192 23.8389C15.8561 22.4108 16.6073 21.2683 16.7766 21.0568C17.9087 19.6179 18.5542 19.2471 19.1992 18.8984C20.6381 18.1154 22.2154 17.883 23.7697 17.4704C23.5806 18.1565 23.6253 18.886 23.8968 19.5439C24.0025 19.8085 24.4151 19.7023 24.3198 19.4272C24.0908 18.7562 24.0834 18.0294 24.2985 17.3537C24.911 19.712 31.7931 21.4754 34.1818 21.8941C41.9197 23.1882 48.8834 22.2636 54.9599 19.6935C55.1079 19.6299 55.0021 19.3762 54.8433 19.4289C51.7571 20.5058 48.5709 21.2714 45.3324 21.7143C40.647 22.2447 35.9042 21.9149 31.3374 20.7411C28.8038 20.0506 23.5111 18.3865 24.9263 16.1706C25.889 14.8905 27.2753 14.6895 28.5022 14.4039C28.1056 15.1744 27.7969 15.9871 27.5817 16.8265C27.5503 16.9427 27.7192 16.9854 27.7619 16.8796C30.0574 10.758 35.5749 7.14749 41.039 7.14749C41.0603 7.49186 41.1027 7.8346 41.166 8.17378C41.187 8.31132 41.3671 8.25823 41.388 8.14201C41.4268 7.81546 41.4445 7.48676 41.4411 7.15794C43.6354 7.23394 45.7829 7.81318 47.7178 8.85095C49.6527 9.88872 51.3233 11.3573 52.6005 13.1432C53.3063 14.1972 53.9019 15.321 54.378 16.4967C54.4942 16.7614 54.8964 16.5711 54.8328 16.3065C54.6689 15.7192 54.4492 15.149 54.1769 14.6034C54.7846 14.615 55.3829 14.7558 55.932 15.0166C56.481 15.2774 56.9682 15.6522 57.3612 16.1159C58.1759 17.1213 58.3135 18.3587 58.1973 19.6074C56.6272 20.4839 55.0055 21.2647 53.3412 21.9455C49.2461 23.4387 45.5531 23.67 41.1009 23.7757C36.4399 23.8932 32.1839 23.6125 27.7812 21.966C27.6863 21.9258 27.6119 22.0931 27.7072 22.1353C31.6109 23.8811 36.0016 24.2088 40.2335 24.1863C46.1853 24.1714 50.7864 23.8208 55.9118 21.3713C56.7793 20.9482 58.4088 20.0063 58.5041 19.7313C58.7484 19.055 58.7779 18.3197 58.5885 17.626C60.1166 17.7177 61.6168 18.0757 63.0215 18.6841C63.6987 18.9854 64.332 19.3769 64.9044 19.8479C65.1756 20.0838 65.4108 20.3582 65.6025 20.6623C66.1209 21.4276 65.5168 22.221 65.2747 22.5077L65.2727 22.5061Z" fill="#263B54"/>
<path d="M51.0984 16.6467C51.1907 16.6918 51.2914 16.7167 51.394 16.7201C51.4966 16.7234 51.5987 16.7049 51.6937 16.666C51.7887 16.627 51.8743 16.5684 51.945 16.4939C52.0157 16.4195 52.0698 16.331 52.1038 16.2341C52.1451 15.8072 52.0721 15.3769 51.8923 14.9875C51.7997 14.7779 51.6328 14.6101 51.4237 14.5163C51.2147 14.4225 50.9783 14.4094 50.7602 14.4795C49.7335 14.8588 50.4007 16.3697 51.0984 16.6467Z" fill="#3078FF" fill-opacity="0.502"/>
<path d="M46.9089 16.6994C46.9855 16.8711 47.0964 17.0254 47.2347 17.1528C47.373 17.2801 47.5358 17.378 47.7132 17.4402C48.2312 17.546 48.39 16.8688 48.337 16.4984C48.2965 16.0669 48.1269 15.6577 47.8503 15.3241C47.777 15.253 47.6883 15.1998 47.5911 15.1686C47.4938 15.1374 47.3907 15.1291 47.2897 15.1443C47.1371 15.1747 46.9993 15.2562 46.8993 15.3755C46.7993 15.4948 46.7429 15.6446 46.7396 15.8002C46.7348 16.1083 46.7923 16.4142 46.9089 16.6994Z" fill="#3078FF" fill-opacity="0.502"/>
<path d="M42.9838 17.9373C43.1143 17.9861 43.2569 17.993 43.3916 17.957C43.5262 17.9209 43.6463 17.8437 43.735 17.7362C43.853 17.5495 43.9154 17.333 43.9148 17.1121C43.9361 16.8161 43.7985 15.3876 43.1322 15.7045C42.1903 16.1706 42.6962 17.8146 42.9838 17.9373Z" fill="#3078FF" fill-opacity="0.502"/>
<path d="M36.044 17.7044C36.5619 17.8443 37.2183 16.4879 37.1443 15.8851C37.1468 15.7855 37.1245 15.6869 37.0794 15.5982C37.0343 15.5094 36.9678 15.4333 36.8859 15.3767C36.804 15.3201 36.7093 15.2848 36.6103 15.274C36.5113 15.2632 36.4112 15.2772 36.319 15.3148C35.5895 15.5674 35.1544 17.4647 36.044 17.7044Z" fill="#3078FF" fill-opacity="0.502"/>
<path d="M30.5534 16.4244C30.6987 16.4771 30.8566 16.484 31.006 16.4444C31.1554 16.4047 31.2891 16.3202 31.389 16.2024C32.2987 14.901 31.7803 14.3826 31.6323 14.3525C30.5823 14.042 29.7181 15.9506 30.5534 16.4244Z" fill="#3078FF" fill-opacity="0.502"/>
<path d="M51.0985 33.0132C52.124 36.8336 57.5076 53.4772 57.5201 53.5158C57.7976 54.4755 58.1296 55.4186 58.5146 56.3405C58.5886 56.5014 58.8106 56.3807 58.7788 56.2243C58.4619 54.5163 52.2173 35.2978 51.3418 32.9396C51.2887 32.8012 51.0558 32.8543 51.0985 33.0132Z" fill="#3078FF" fill-opacity="0.502"/>
<path d="M21.5945 59.3559C22.5283 57.3853 30.7326 34.7996 31.1476 33.542C31.1879 33.4258 31.0101 33.3832 30.9679 33.4889C28.2381 39.9741 25.8686 46.618 23.4034 53.1985C22.663 55.1767 21.806 57.1657 21.2346 59.197C21.1799 59.4085 21.4972 59.5565 21.5945 59.3559Z" fill="#3078FF" fill-opacity="0.502"/>
<path d="M30.2356 43.8251C29.9734 44.6185 29.7615 45.4276 29.601 46.2477C29.5883 46.2926 29.594 46.3407 29.6169 46.3814C29.6397 46.4221 29.6777 46.452 29.7226 46.4647C29.7675 46.4773 29.8156 46.4716 29.8563 46.4488C29.897 46.4259 29.9269 46.3879 29.9396 46.343C30.2216 45.5587 30.4514 44.7565 30.6273 43.9417C31.4517 40.932 31.7983 39.5462 32.4575 36.8747C32.4892 36.7372 32.2777 36.6736 32.2459 36.8112C31.7802 38.3767 30.4495 43.0534 30.2356 43.8251Z" fill="#3078FF" fill-opacity="0.502"/>
<path d="M38.657 38.1974C38.6409 37.4244 38.5195 36.674 38.5513 35.891C38.5617 35.7113 38.2762 35.7113 38.2653 35.891C38.2002 36.673 38.2465 37.4602 38.4029 38.2292C38.4099 38.2603 38.4283 38.2877 38.4545 38.3061C38.4806 38.3244 38.5126 38.3324 38.5443 38.3284C38.576 38.3245 38.6051 38.3089 38.626 38.2846C38.6468 38.2604 38.6579 38.2293 38.657 38.1974Z" fill="#3078FF" fill-opacity="0.502"/>
<path d="M49.9464 40.7784C51.1392 44.6419 52.9895 52.3049 53.7129 53.9919C53.7974 54.1821 54.0407 54.0321 54.0194 53.8648C53.8183 52.5599 51.5767 45.4522 50.1989 40.7044C50.1474 40.5455 49.8957 40.6183 49.9464 40.7784Z" fill="#3078FF" fill-opacity="0.502"/>
<path d="M35.1764 56.626C35.2608 56.7426 35.4724 56.6369 35.3879 56.5098C30.7101 49.2642 35.7732 40.1743 40.9207 41.9844C39.5164 43.1929 38.7668 46.2295 40.0762 48.7446C39.8225 48.7341 39.5578 48.7128 39.3037 48.7024C39.2636 48.7021 39.224 48.7112 39.188 48.7287C39.1519 48.7463 39.1204 48.7719 39.0959 48.8036C39.0713 48.8353 39.0544 48.8722 39.0465 48.9115C39.0385 48.9508 39.0397 48.9914 39.0499 49.0301C39.1666 49.3157 39.2723 49.6016 39.3885 49.8871C39.1348 49.8976 38.8915 49.8976 38.6373 49.9084C38.6055 49.9082 38.5739 49.9142 38.5444 49.9262C38.5149 49.9382 38.488 49.956 38.4654 49.9784C38.4428 50.0008 38.4248 50.0275 38.4126 50.0569C38.4003 50.0863 38.394 50.1179 38.394 50.1497C38.4258 50.5832 38.4576 51.0172 38.4893 51.4615C38.0345 51.4298 37.5688 51.4085 37.114 51.3767C37.0529 51.3788 36.9949 51.404 36.9516 51.4472C36.9084 51.4904 36.8832 51.5484 36.8811 51.6095C36.8493 52.1915 36.8176 52.7838 36.7753 53.3657C36.3523 53.334 35.9308 53.3022 35.5057 53.3022C35.453 53.3041 35.403 53.3259 35.3657 53.3632C35.3284 53.4005 35.3066 53.4506 35.3047 53.5033C35.3791 54.1274 35.3791 54.762 35.4531 55.3866C35.4548 55.4163 35.4678 55.4442 35.4895 55.4646C35.5111 55.485 35.5397 55.4963 35.5695 55.4963C35.5992 55.4963 35.6279 55.485 35.6495 55.4646C35.6711 55.4442 35.6842 55.4163 35.6859 55.3866C35.7173 54.8364 35.6859 54.2863 35.6964 53.7253C36.1194 53.7784 36.5534 53.7997 36.9869 53.831C37.0163 53.8318 37.0455 53.8266 37.0728 53.8157C37.1001 53.8048 37.1249 53.7885 37.1457 53.7678C37.1665 53.747 37.1829 53.7222 37.1938 53.6949C37.2047 53.6676 37.21 53.6384 37.2093 53.609C37.241 53.0271 37.2833 52.4348 37.3255 51.8528C37.8016 51.8846 38.2778 51.9164 38.7431 51.9586C38.8074 51.9579 38.8688 51.932 38.9143 51.8865C38.9598 51.8411 38.9857 51.7796 38.9864 51.7153C38.9546 51.2729 38.9337 50.8374 38.9019 50.393C39.1875 50.3822 39.473 50.3822 39.7465 50.3717C39.7858 50.3711 39.8246 50.3613 39.8596 50.3433C39.8946 50.3252 39.9249 50.2993 39.9483 50.2676C39.9717 50.2359 39.9874 50.1992 39.9942 50.1604C40.0011 50.1216 39.9988 50.0818 39.9878 50.044C39.882 49.7689 39.7867 49.5043 39.6813 49.2292L40.5488 49.2927C40.5964 49.2913 40.6428 49.2775 40.6835 49.2529C40.7243 49.2282 40.758 49.1935 40.7813 49.152C40.8047 49.1105 40.817 49.0637 40.817 49.016C40.8169 48.9684 40.8046 48.9216 40.7812 48.8801C40.3091 48.114 40.0232 47.2479 39.9464 46.3513C39.8696 45.4547 40.004 44.5525 40.3388 43.7173C40.6003 43.1553 40.9045 42.6142 41.2485 42.0986C41.9557 42.4234 42.512 43.0062 42.8036 43.7277C42.8258 43.7793 42.8618 43.8236 42.9078 43.8558C42.9537 43.888 43.0077 43.9068 43.0637 43.9101C43.1197 43.9134 43.1755 43.9011 43.2249 43.8745C43.2742 43.8479 43.3153 43.8081 43.3433 43.7595C43.4382 43.5584 44.8454 40.3533 46.0514 39.0519C48.0087 36.9466 49.7227 36.2368 49.7967 35.973C49.9238 35.5077 46.1998 36.46 44.4328 37.0524C39.9773 38.5311 37.6002 40.4494 35.1764 43.6348C32.5861 46.9828 32.2358 52.6274 35.1764 56.626Z" fill="#3078FF" fill-opacity="0.502"/>
<path d="M40.5399 3.50719C40.6577 3.62989 40.8136 3.70906 40.9822 3.73177C41.1508 3.75448 41.3221 3.7194 41.4682 3.63224C41.6143 3.54509 41.7265 3.41101 41.7866 3.25187C41.8467 3.09273 41.8511 2.91792 41.7991 2.75597C41.7658 2.6165 41.6942 2.48912 41.5923 2.38823C41.4905 2.28733 41.3624 2.21694 41.2226 2.18502C41.0828 2.1531 40.9369 2.16092 40.8014 2.20759C40.6658 2.25426 40.546 2.33792 40.4555 2.44912C40.3265 2.59444 40.2582 2.78376 40.2648 2.97796C40.2835 3.18365 40.3823 3.37376 40.5399 3.50719Z" fill="#3078FF" fill-opacity="0.502"/>
</svg>
