<svg width="144" height="144" viewBox="0 0 144 144" fill="none" xmlns="http://www.w3.org/2000/svg">
<path d="M83.6681 68.3376C74.9089 65.5123 72.8089 56.6709 72.8089 56.6709C73.103 56.2507 73.3902 55.8257 73.6701 55.396L73.9534 50.8347C69.378 49.5697 71.9752 43.9984 71.9752 43.9984C69.8771 40.9318 68.1259 37.6418 66.7538 34.1888C64.2134 34.4363 61.7799 35.3353 59.6888 36.7988C61.4375 42.6371 64.391 49.8452 70.667 59.4487C67.9664 62.8201 63.5581 68.1506 61.4347 70.9228L44.5069 63.3443L40.6482 71.3251L59.6484 81.054C60.9607 81.6679 62.4461 81.8049 63.8486 81.4413C65.2511 81.0778 66.4829 80.2365 67.3318 79.0623L71.4901 73.3295C73.1588 75.8864 74.4372 77.9857 79.0686 79.9236C83.9954 77.7067 86.1287 75.0216 87.9766 71.3251C86.3776 70.5875 84.9196 69.5765 83.6681 68.3376Z" fill="#3078FF" fill-opacity="0.8"/>
<path d="M83.897 102.827L83.2107 99.0721L99.2503 96.1122L99.9366 99.8661L83.897 102.827Z" fill="#3078FF" fill-opacity="0.8"/>
<path d="M97.9322 99.6641L95.4156 96.8119L108.966 84.8625L111.482 87.7148L97.9322 99.6641Z" fill="#3078FF" fill-opacity="0.8"/>
<path d="M36.3284 42.5956C35.7592 42.5794 35.2069 42.7901 34.7931 43.1811C34.3792 43.5721 34.1376 44.1116 34.1214 44.6808C34.1053 45.2499 34.3159 45.8022 34.7069 46.2161C35.098 46.63 35.6374 46.8716 36.2066 46.8878C36.7757 46.9039 37.328 46.6933 37.7419 46.3023C38.1558 45.9112 38.3974 45.3718 38.4136 44.8026C38.4297 44.2334 38.2191 43.6811 37.8281 43.2672C37.437 42.8534 36.8976 42.6118 36.3284 42.5956Z" fill="#3078FF" fill-opacity="0.8"/>
<path d="M38.0778 32.7185C38.6521 31.8464 39.0034 30.8465 39.1007 29.8069C39.1981 28.7672 39.0385 27.7195 38.6361 26.756C38.2336 25.7924 37.6006 24.9424 36.7928 24.2808C35.9849 23.6192 35.0268 23.1662 34.0028 22.9617C32.9788 22.7571 31.9203 22.8072 30.9202 23.1076C29.9201 23.408 29.0091 23.9495 28.2673 24.6845C27.5256 25.4195 26.9757 26.3254 26.6661 27.3227C26.3565 28.32 26.2967 29.378 26.4918 30.4039C26.5081 30.5129 26.5301 30.6206 26.5591 30.7268L29.6536 30.1489C29.5256 29.727 29.4851 29.2835 29.5345 28.8454C29.584 28.4074 29.7223 27.9841 29.9411 27.6014C30.16 27.2187 30.4546 26.8847 30.807 26.6199C31.1595 26.355 31.5623 26.165 31.9907 26.0613C32.4192 25.9576 32.8643 25.9425 33.2988 26.0169C33.7333 26.0913 34.1481 26.2537 34.5177 26.494C34.8872 26.7343 35.2038 27.0476 35.4481 27.4145C35.6923 27.7815 35.8591 28.1945 35.9381 28.6282C36.2214 30.173 35.3821 31.3586 34.3367 32.6654C33.6503 33.4837 33.2742 34.5176 33.2743 35.5856C33.2785 37.1806 33.4683 38.7707 33.8409 40.3218L37.0281 39.7163C36.6862 38.2895 36.5368 36.8233 36.584 35.3568C36.7859 34.3334 37.526 33.5529 38.0778 32.7185Z" fill="#3078FF" fill-opacity="0.8"/>
<path fill-rule="evenodd" clip-rule="evenodd" d="M29.9001 6.48608C35.0677 5.85424 40.3098 6.64092 45.0643 8.76177C54.2124 12.8372 59.8318 20.7855 61.5083 29.4682C61.5083 29.4682 61.5494 30.6383 61.6379 31.5399C61.0791 31.8771 59.9792 30.94 59.018 30.1205C58.1511 29.3818 57.3968 28.7394 57.2551 29.2161C57.1191 29.6743 57.4464 30.1652 57.9662 30.9443C58.6639 31.9897 59.7072 33.5535 60.4424 36.2542L59.7341 36.83C59.9487 37.6885 60.4565 39.1319 61.0536 40.8318L61.2987 41.5308C60.1102 46.6701 57.4789 51.5643 53.3214 55.5667C49.7703 59.0015 45.3922 61.4608 40.6114 62.7062C40.5051 62.7345 39.7813 62.2642 38.9207 61.7054C37.7443 60.9404 36.3121 60.0105 35.8517 59.9595C35.1215 59.878 36.8483 62.1055 37.5941 63.0688C37.6621 63.1552 37.7216 63.2317 37.7698 63.2954C34.0072 63.8834 30.1652 63.7161 26.4679 62.8033C22.7707 61.8905 19.2923 60.2506 16.2356 57.9791C13.1789 55.7077 10.6052 52.8502 8.66469 49.5735C6.72415 46.2968 5.45561 42.6664 4.9331 38.8941C4.41059 35.1219 4.64458 31.2834 5.62139 27.6026C6.59821 23.9217 8.29831 20.4723 10.6225 17.4555C12.9466 14.4388 15.8484 11.9151 19.1583 10.0317C22.4682 8.14834 26.1201 6.94302 29.9008 6.48608H29.9001ZM30.6551 12.6247C34.6977 12.1303 38.7986 12.7456 42.518 14.4046C57.1737 20.9335 60.2497 40.1688 48.9775 51.0189C46.42 53.4931 43.3107 55.3234 39.9063 56.3588C36.5019 57.3942 32.9 57.6049 29.398 56.9736C25.8961 56.3423 22.5945 54.8871 19.7659 52.7281C16.9374 50.5691 14.6629 47.7683 13.1303 44.5568C11.5978 41.3454 10.8511 37.8154 10.9519 34.2585C11.0527 30.7015 11.9982 27.2196 13.7102 24.1001C15.4222 20.9806 17.8517 18.3131 20.798 16.3178C23.7444 14.3225 27.123 13.0566 30.6551 12.6247Z" fill="#263B54" fill-opacity="0.75"/>
<path d="M111.523 92.9225L113.164 90.4329L110.634 88.4412L109.303 89.6389L111.523 92.9225Z" fill="#263B54" fill-opacity="0.75"/>
<path d="M120.216 95.94L118.091 100.827C117.45 102.316 116.346 103.558 114.942 104.369L125.546 112.636L131.791 104.939L120.216 95.94Z" fill="#263B54" fill-opacity="0.75"/>
<path d="M109.034 58.6895C110.801 58.9364 112.595 58.4881 114.038 57.4389C115.481 56.3897 116.461 54.8215 116.771 53.0644C114.593 52.3639 112.297 52.1065 110.018 52.3076C107.74 52.5087 105.524 53.1641 103.503 54.2352C103.938 55.4073 104.681 56.44 105.655 57.2241C106.628 58.0083 107.796 58.5146 109.034 58.6895Z" fill="#263B54" fill-opacity="0.75"/>
<path d="M68.4892 55.9981L58.693 48.382C57.2847 51.3673 55.2465 54.0122 52.7187 56.1348L65.326 66.079L70.682 59.4453L68.4892 55.9981Z" fill="#263B54" fill-opacity="0.75"/>
<path d="M76.3474 66.7095L71.5049 73.3843C71.8458 74.0104 72.2421 74.6046 72.6892 75.1599L76.3474 66.7095Z" fill="#263B54" fill-opacity="0.75"/>
<path d="M73.872 52.2303L75.7957 50.8718C75.1858 50.9116 74.5737 50.8981 73.9662 50.8314L73.872 52.2303Z" fill="#263B54" fill-opacity="0.75"/>
<path d="M86.6686 59.2412C86.8102 58.1563 86.5638 57.0561 85.973 56.1352C85.3821 55.2142 84.4848 54.5317 83.4395 54.2082C83.5732 53.824 83.6147 53.4137 83.5606 53.0105C82.6725 46.5249 81.3267 42.5281 79.1063 40.241C77.5991 38.6658 74.5181 38.9222 72.6879 41.2227C70.8705 43.5267 71.3273 46.5659 71.3153 46.8181C71.4996 44.5541 72.5563 42.4503 74.2624 40.9507C74.7399 40.5587 75.3015 40.2823 75.9035 40.1433C75.8093 42.1895 77.4376 45.432 79.4024 44.6245C80.7162 44.0884 80.8742 46.4661 78.2854 46.4661C77.5856 52.077 77.8009 58.5068 80.3847 63.7445L80.8019 64.5377C82.0718 66.8507 83.8873 68.8186 86.0906 70.2705C87.5539 70.3469 88.9876 69.839 90.0764 68.8585C91.1653 67.878 91.8202 66.5052 91.8971 65.042C91.9732 63.5789 91.4653 62.1454 90.4848 61.0567C89.5044 59.9679 88.1317 59.3132 86.6686 59.2363V59.2412Z" fill="#263B54" fill-opacity="0.75"/>
<path d="M111.523 92.9224L113.164 90.4328L110.634 88.4412L109.303 89.6389L111.523 92.9224Z" stroke="#263B54" stroke-width="0.711835" stroke-linejoin="round"/>
<path d="M120.216 95.9399L118.091 100.827C117.45 102.316 116.346 103.558 114.942 104.368L125.546 112.636L131.791 104.939L120.216 95.9399Z" stroke="#263B54" stroke-width="0.711835"/>
<path d="M68.4892 55.998L58.693 48.3819C57.2847 51.3672 55.2465 54.0121 52.7187 56.1347L65.326 66.0789L70.682 59.4452L68.4892 55.998Z" stroke="#263B54" stroke-width="0.711835"/>
<path d="M71.7728 43.7123C69.7407 40.7413 68.0607 37.5442 66.7667 34.1853C64.2257 34.4319 61.7919 35.3323 59.7023 36.7989C61.4518 42.6386 64.3982 49.8382 70.6806 59.446" stroke="#263B54" stroke-width="0.711835" stroke-linecap="round" stroke-linejoin="round"/>
<path d="M61.8554 32.7318C61.4781 30.7687 61.3336 28.7679 61.4248 26.7709C61.3847 25.739 61.4559 24.7058 61.6373 23.6892C62.1331 20.9007 62.8123 21.1727 63.0368 23.8642C63.5858 30.4568 65.1617 32.6376 65.741 34.3332" stroke="#263B54" stroke-width="0.711835" stroke-linecap="round" stroke-linejoin="round"/>
<path d="M61.5182 24.537C61.0671 23.5854 60.4825 22.703 59.7823 21.9164C59.5698 21.7124 59.074 21.6919 59.6881 23.3967C59.8198 23.7607 60.3461 25.3345 60.509 25.8997C60.8867 27.0273 61.1923 28.1777 61.424 29.3441" stroke="#263B54" stroke-width="0.711835" stroke-linecap="round" stroke-linejoin="round"/>
<path d="M61.6131 31.1575C61.5189 32.4898 59.4614 30.4294 58.491 29.6503C57.6177 28.9491 56.3662 28.5036 58.1277 31.0498C59.1715 32.6743 59.9611 34.4487 60.4692 36.3116" stroke="#263B54" stroke-width="0.711835" stroke-linecap="round" stroke-linejoin="round"/>
<path d="M112.478 94.322L109.303 89.6389" stroke="#263B54" stroke-width="0.711835" stroke-linecap="round" stroke-linejoin="round"/>
<path d="M73.984 50.7963C73.984 50.7963 73.8353 52.6605 73.6872 55.3923C73.3902 55.8135 73.0986 56.2385 72.8125 56.6672" stroke="#263B54" stroke-width="0.711835" stroke-linecap="round" stroke-linejoin="round"/>
<path d="M75.7964 50.912L73.8777 52.2138" stroke="#263B54" stroke-width="0.711835" stroke-linecap="round" stroke-linejoin="round"/>
<path d="M96.0885 96.2063L85.3369 84.3512" stroke="#263B54" stroke-width="0.711835" stroke-linecap="round" stroke-linejoin="round"/>
<path d="M76.334 66.6959L72.6878 75.1463" stroke="#263B54" stroke-width="0.711835" stroke-linecap="round" stroke-linejoin="round"/>
<path d="M104.054 89.1814C99.8769 82.4673 93.8103 77.1357 86.6153 73.855" stroke="#263B54" stroke-width="0.711835" stroke-linecap="round" stroke-linejoin="round"/>
<path d="M84.3297 98.8659L79.1062 79.9103" stroke="#263B54" stroke-width="0.711835" stroke-linecap="round" stroke-linejoin="round"/>
<path d="M99.6136 98.1834L99.9366 99.8656L83.897 102.826L83.2107 99.0716L95.4157 96.825" stroke="#263B54" stroke-width="0.711835" stroke-linecap="round" stroke-linejoin="round"/>
<path d="M86.077 70.2891C87.5186 70.3274 88.9181 69.8015 89.9777 68.8234C91.0373 67.8454 91.6734 66.4924 91.7505 65.0524C91.8275 63.6124 91.3396 62.1993 90.3904 61.1137C89.4412 60.0281 88.1058 59.3558 86.6685 59.24C86.8101 58.155 86.5637 57.0549 85.9728 56.134C85.382 55.213 84.4847 54.5305 83.4394 54.207C83.875 52.9441 82.5279 45.0079 80.102 41.4651C77.8256 38.1405 74.4982 38.9189 72.6743 41.2215C70.8505 43.5241 71.3137 46.564 71.3017 46.8169" stroke="#263B54" stroke-width="0.711835" stroke-linecap="round" stroke-linejoin="round"/>
<path d="M111.523 92.9226L120.687 78.9816C122.436 76.169 122.368 75.2809 123.149 73.3437C126.809 71.3521 135.112 69.0105 139.216 68.4722C136.202 73.1822 129.137 75.9672 126.352 81.8076L118.076 100.808C117.587 101.933 116.833 102.923 115.878 103.694C114.922 104.464 113.795 104.991 112.591 105.23C111.388 105.469 110.144 105.414 108.967 105.068C107.79 104.722 106.714 104.096 105.831 103.244L100.125 97.7403" stroke="#263B54" stroke-width="0.711835" stroke-linecap="round" stroke-linejoin="round"/>
<path d="M97.9322 99.664L95.4156 96.8118L108.966 84.8625L111.482 87.7147L97.9322 99.664Z" stroke="#263B54" stroke-width="0.711835" stroke-linecap="round" stroke-linejoin="round"/>
<path d="M37.5786 64.4081C39.0454 64.2601 36.6068 61.9341 36.206 61.2209C35.6641 60.2541 35.0897 59.1343 37.619 60.9114C39.668 62.2047 41.7934 63.3728 43.9835 64.4095" stroke="#263B54" stroke-width="0.711835" stroke-linecap="round" stroke-linejoin="round"/>
<path d="M86.4808 102.342L87.597 106.352C88.3252 108.929 90.0294 111.12 92.3474 112.461C94.6621 113.807 115.802 123.953 115.802 123.953C121.441 127.14 123.741 134.368 128.236 137.705C127.98 133.574 126.204 125.124 124.468 121.344C122.616 120.445 121.714 120.441 119.139 118.6L98.9408 104.403L97.7841 100.258" stroke="#263B54" stroke-width="0.711835" stroke-linecap="round" stroke-linejoin="round"/>
<path d="M76.334 66.6958C75.5677 67.6917 70.9717 74.0513 67.3318 79.0758C66.4819 80.2486 65.25 81.0888 63.8479 81.452C62.4458 81.8152 60.9609 81.6787 59.6485 81.066L40.6483 71.3386L44.4963 63.3591L61.4241 70.9214" stroke="#263B54" stroke-width="0.711835" stroke-linecap="round" stroke-linejoin="round"/>
<path d="M83.6683 68.3378C84.9284 69.5724 86.3861 70.5876 87.981 71.3416C86.1961 75.4496 83.142 78.1091 79.0794 79.9372C74.4352 77.993 73.1639 75.9135 71.4874 73.3453" stroke="#263B54" stroke-width="0.711835" stroke-linecap="round" stroke-linejoin="round"/>
<path d="M108.186 85.5353C99.8495 74.3615 91.0159 72.593 87.981 71.3414" stroke="#263B54" stroke-width="0.711835" stroke-linecap="round" stroke-linejoin="round"/>
<path d="M72.8089 56.6708C72.8089 56.6708 74.9082 65.5115 83.6682 68.3375C82.3175 67.0054 81.2026 65.4537 80.3712 63.7486C77.781 58.518 77.5721 52.0819 78.2718 46.4709H78.6217C80.7466 46.3498 80.7069 44.0875 79.3888 44.6294C77.4233 45.4347 75.7964 42.1936 75.8906 40.1488C75.289 40.2889 74.7274 40.5649 74.2488 40.9556C73.2537 41.8269 72.4733 42.9163 71.9685 44.1388C71.4636 45.3614 71.2481 46.684 71.3385 48.0036C71.5893 49.7141 72.7671 51.0811 75.7964 50.9139" stroke="#263B54" stroke-width="0.711835" stroke-linecap="round" stroke-linejoin="round"/>
<path d="M72.8089 56.6708C71.544 58.5832 61.6805 70.2754 60.3617 72.4151" stroke="#263B54" stroke-width="0.711835" stroke-linecap="round" stroke-linejoin="round"/>
<path d="M32.5604 65.9423C31.9145 66.0231 30.5829 66.2929 30.1919 66.373C28.4163 66.7384 28.6451 67.2073 28.9277 67.2342C30.0708 67.3426 31.9279 67.3291 32.991 67.463C34.7001 67.679 37.9971 67.9878 39.289 68.7549" stroke="#263B54" stroke-width="0.711835" stroke-linecap="round" stroke-linejoin="round"/>
<path d="M32.8969 67.4494C32.6136 67.557 32.3586 67.6512 32.2375 67.7051C30.5419 68.351 30.8521 68.7852 31.134 68.7675C32.2786 68.7002 34.1088 68.3645 35.1847 68.3234C36.4785 68.2992 37.7718 68.3983 39.0469 68.6194" stroke="#263B54" stroke-width="0.711835" stroke-linecap="round" stroke-linejoin="round"/>
<path d="M82.0534 28.7896C82.0327 29.1358 81.9095 29.4681 81.6995 29.7441C81.4895 30.0202 81.2022 30.2276 80.8741 30.34C80.629 30.4242 80.3683 30.4531 80.1107 30.4244C79.8531 30.3958 79.6051 30.3104 79.3845 30.1744C79.1639 30.0384 78.9761 29.8552 78.8348 29.6379C78.6935 29.4207 78.6022 29.1748 78.5673 28.918C78.5325 28.6611 78.555 28.3998 78.6333 28.1527C78.7115 27.9057 78.8436 27.679 79.02 27.4892C79.1964 27.2993 79.4127 27.1509 79.6533 27.0546C79.8939 26.9583 80.1529 26.9166 80.4116 26.9325C80.8749 26.9629 81.3074 27.1752 81.6149 27.523C81.9224 27.8708 82.08 28.3261 82.0534 28.7896Z" stroke="#263B54" stroke-width="0.711835" stroke-linecap="round" stroke-linejoin="round"/>
<path d="M128.572 71.1232C128.963 67.3313 128.078 63.5173 126.057 60.285C124.037 57.0526 120.996 54.5867 117.415 53.2775C114.44 52.1901 111.222 51.9491 108.118 52.5812C105.014 53.2133 102.146 54.6938 99.8325 56.8581C97.5194 59.0224 95.8518 61.7858 95.0151 64.841C94.1783 67.8962 94.2052 71.1237 95.0926 74.1645" stroke="#263B54" stroke-width="0.711835" stroke-linecap="round" stroke-linejoin="round"/>
<path d="M110.365 86.4488C112.291 86.5855 114.225 86.3893 116.085 85.8702" stroke="#263B54" stroke-width="0.711835" stroke-linecap="round" stroke-linejoin="round"/>
<path d="M110.944 45.0311C109.935 44.8921 108.909 44.9783 107.938 45.2835C106.966 45.5887 106.075 46.1053 105.327 46.7962C104.579 47.487 103.994 48.335 103.613 49.2791C103.232 50.2232 103.066 51.2399 103.125 52.2562C103.205 53.6155 103.686 54.9206 104.507 56.0067C105.328 57.0927 106.453 57.9111 107.739 58.3584C109.025 58.8057 110.415 58.8618 111.733 58.5197C113.051 58.1777 114.238 57.4528 115.144 56.4365C116.05 55.4198 116.634 54.1573 116.823 52.8087C117.072 50.9981 116.594 49.1624 115.492 47.7043C114.389 46.2462 112.754 45.2848 110.944 45.0311Z" stroke="#263B54" stroke-width="0.711835" stroke-linecap="round" stroke-linejoin="round"/>
<path d="M60.0664 24.4965C58.3503 20.1196 55.5851 16.2313 52.014 13.1737C48.4428 10.1161 44.1751 7.98268 39.5861 6.96118C34.9971 5.93969 30.2274 6.06135 25.6965 7.31549C21.1655 8.56963 17.0121 10.9178 13.6015 14.1535C10.1909 17.3893 7.62754 21.4135 6.13686 25.8722C4.64619 30.3309 4.27385 35.0876 5.05261 39.724C5.83136 44.3603 7.73735 48.7343 10.603 52.4613C13.4686 56.1884 17.206 59.1542 21.4866 61.0981C26.5873 63.3734 32.2332 64.1393 37.7557 63.305" stroke="#263B54" stroke-width="0.711835" stroke-linecap="round" stroke-linejoin="round"/>
<path d="M61.2775 41.4783C60.4056 45.2483 58.7776 48.8022 56.4923 51.9248C54.2069 55.0474 51.3116 57.6737 47.9817 59.6448C45.6808 61.0033 43.1981 62.0273 40.6086 62.6862" stroke="#263B54" stroke-width="0.711835" stroke-linecap="round" stroke-linejoin="round"/>
<path d="M42.5181 14.4045C38.7988 12.7455 34.698 12.1301 30.6555 12.6244C26.6131 13.1187 22.7814 14.704 19.5714 17.2104C16.3614 19.7168 13.8941 23.0496 12.4342 26.8515C10.9744 30.6535 10.5769 34.7811 11.2844 38.7917C11.992 42.8024 13.7779 46.5448 16.4506 49.6176C19.1234 52.6905 22.5821 54.9779 26.456 56.2345C30.3299 57.4911 34.4727 57.6696 38.4403 56.7508C42.4079 55.832 46.0505 53.8505 48.9776 51.0189C60.2498 40.1688 57.1738 20.9334 42.5181 14.4045Z" stroke="#263B54" stroke-width="0.711835" stroke-linecap="round" stroke-linejoin="round"/>
<path d="M22.0915 81.9689L28.0665 86.7051L34.1619 77.3531" stroke="#263B54" stroke-width="0.711835" stroke-linecap="round" stroke-linejoin="round"/>
<path d="M74.4105 86.1271L68.5969 86.8665" stroke="#263B54" stroke-width="0.711835" stroke-linecap="round" stroke-linejoin="round"/>
<path d="M71.867 89.4104L71.1268 83.5841" stroke="#263B54" stroke-width="0.711835" stroke-linecap="round" stroke-linejoin="round"/>
<path d="M38.4143 44.8025C38.4024 45.2271 38.2648 45.6386 38.019 45.985C37.7732 46.3314 37.4301 46.5971 37.0333 46.7485C36.6365 46.9 36.2036 46.9303 35.7895 46.8357C35.3754 46.7412 34.9987 46.5259 34.7069 46.2172C34.4152 45.9085 34.2215 45.5202 34.1505 45.1015C34.0794 44.6827 34.1341 44.2523 34.3077 43.8646C34.4812 43.4769 34.7659 43.1494 35.1256 42.9235C35.4852 42.6976 35.9039 42.5835 36.3284 42.5955C36.8972 42.6131 37.4358 42.8551 37.8267 43.2687C38.2175 43.6822 38.4288 44.2337 38.4143 44.8025Z" stroke="#263B54" stroke-width="0.711835" stroke-linecap="round" stroke-linejoin="round"/>
<path d="M38.0645 32.7184C38.6388 31.8463 38.9901 30.8465 39.0874 29.8068C39.1848 28.7671 39.0252 27.7195 38.6228 26.7559C38.2203 25.7923 37.5873 24.9424 36.7794 24.2808C35.9716 23.6192 35.0135 23.1662 33.9895 22.9616C32.9655 22.757 31.9069 22.8071 30.9069 23.1076C29.9068 23.408 28.9958 23.9495 28.254 24.6844C27.5123 25.4194 26.9624 26.3254 26.6528 27.3226C26.3432 28.3199 26.2834 29.378 26.4785 30.4038C26.4941 30.5129 26.5168 30.6205 26.5458 30.7268L29.641 30.1488C29.512 29.7267 29.4708 29.2828 29.5197 28.8441C29.5685 28.4055 29.7066 27.9815 29.9253 27.5982C30.144 27.2149 30.4387 26.8803 30.7914 26.615C31.1441 26.3497 31.5473 26.1593 31.9763 26.0555C32.4052 25.9517 32.8509 25.9367 33.2859 26.0113C33.7208 26.086 34.1359 26.2488 34.5057 26.4897C34.8755 26.7307 35.1921 27.0446 35.4361 27.4124C35.6802 27.7801 35.8465 28.1938 35.9248 28.6282C36.2081 30.1729 35.3688 31.3586 34.3234 32.6653C33.637 33.4836 33.2609 34.5175 33.261 35.5855C33.2454 36.1592 33.2709 36.7337 33.336 37.3045C33.4147 38.0553 33.8396 40.3218 33.8396 40.3218L37.0269 39.7162C36.9865 39.7162 36.5962 37.187 36.5693 36.9044C36.4953 36.3911 36.4953 35.87 36.5693 35.3568C36.7726 34.3333 37.5127 33.5528 38.0645 32.7184Z" stroke="#263B54" stroke-width="0.711835" stroke-linecap="round" stroke-linejoin="round"/>
<path d="M41.307 69.966C39.4228 68.7218 37.4273 67.6549 35.3462 66.7788C33.6754 66.1681 31.9409 65.7482 30.1758 65.5273C27.5785 65.2086 27.2817 64.5095 30.1085 64.1277C31.1486 64.0017 32.1969 63.9567 33.244 63.9932C35.2293 64.0187 37.2061 64.2623 39.1383 64.7198" stroke="#263B54" stroke-width="0.711835" stroke-linecap="round" stroke-linejoin="round"/>
</svg>
