<svg width="144" height="143" viewBox="0 0 144 143" fill="none" xmlns="http://www.w3.org/2000/svg">
<path d="M125.989 40.4499L124.993 52.8044C120.454 52.8957 115.912 52.7477 111.388 52.3603L102.936 62.8428L98.5086 50.7582C88.1437 50.6831 79.0679 48.8331 69.0238 46.2896C68.191 47.5202 67.6275 48.9128 67.3701 50.3762C67.1127 51.8397 67.1672 53.341 67.5301 54.7819C75.4982 56.7417 81.8875 58.3232 90.071 59.0478L94.0139 57.8636C93.516 63.4767 93.5833 69.1252 94.2158 74.7255C99.5852 74.1872 105.641 74.9004 112.128 76.3807C112.447 71.0418 112.836 66.7963 114.241 61.9949C119.007 62.4107 123.798 62.4737 128.573 62.1833C129.877 62.0638 131.097 61.486 132.016 60.5525C132.935 59.6189 133.494 58.39 133.592 57.0838L134.817 41.1901C131.95 40.3764 128.952 40.125 125.989 40.4499Z" fill="#E95C49"/>
<path d="M105.076 46.3448L103.717 47.6367L104.107 46.4262L105.076 46.3448Z" fill="#263B54" fill-opacity="0.75"/>
<path d="M90.0709 59.0349C91.292 59.1418 92.5811 59.231 93.8956 59.2976C93.9339 58.8139 93.9785 58.3337 94.0139 57.8506L90.0709 59.0349Z" fill="#263B54" fill-opacity="0.75"/>
<path d="M69.7505 52.9117C69.7057 52.8572 69.6505 52.812 69.5881 52.7789C69.5257 52.7458 69.4574 52.7254 69.3871 52.7189C69.3168 52.7123 69.2459 52.7197 69.1784 52.7407C69.111 52.7617 69.0484 52.7959 68.9942 52.8412C68.9401 52.8865 68.8954 52.9421 68.8629 53.0048C68.8303 53.0674 68.8105 53.1359 68.8046 53.2063C68.7986 53.2767 68.8067 53.3475 68.8283 53.4148C68.8499 53.482 68.8845 53.5443 68.9303 53.5981C69.0218 53.7054 69.1519 53.7723 69.2924 53.7842C69.4329 53.796 69.5724 53.7519 69.6806 53.6614C69.7887 53.5709 69.8568 53.4414 69.8699 53.301C69.883 53.1606 69.8401 53.0207 69.7505 52.9117Z" fill="#263B54" fill-opacity="0.75"/>
<path d="M82.4946 50.7452C82.4038 50.6364 82.2735 50.5682 82.1323 50.5555C81.9912 50.5428 81.8508 50.5867 81.7421 50.6776C81.6333 50.7684 81.5651 50.8987 81.5524 51.0398C81.5397 51.181 81.5836 51.3213 81.6744 51.4301C81.7194 51.484 81.7745 51.5284 81.8367 51.561C81.8988 51.5935 81.9668 51.6135 82.0367 51.6198C82.1066 51.6261 82.177 51.6185 82.244 51.5976C82.3109 51.5766 82.3731 51.5427 82.427 51.4977C82.4808 51.4528 82.5253 51.3976 82.5578 51.3355C82.5904 51.2733 82.6104 51.2054 82.6166 51.1355C82.6229 51.0656 82.6154 50.9952 82.5944 50.9282C82.5735 50.8612 82.5396 50.7991 82.4946 50.7452Z" fill="#263B54" fill-opacity="0.75"/>
<path d="M92.6116 56.9758C92.5668 56.9216 92.5117 56.877 92.4494 56.8444C92.3872 56.8118 92.319 56.7919 92.249 56.786C92.179 56.7795 92.1084 56.787 92.0413 56.8081C91.9741 56.8291 91.9119 56.8632 91.858 56.9085C91.7749 56.975 91.714 57.0653 91.6836 57.1673C91.6532 57.2693 91.6548 57.3782 91.6881 57.4794C91.7093 57.5466 91.7447 57.609 91.7908 57.6621C91.859 57.7428 91.9494 57.8016 92.0507 57.8313C92.1521 57.861 92.26 57.8603 92.3609 57.8292C92.4281 57.8085 92.4905 57.7747 92.5445 57.7297C92.5986 57.6848 92.6432 57.6295 92.6758 57.5672C92.7083 57.505 92.7283 57.4368 92.7344 57.3668C92.7406 57.2968 92.7328 57.2262 92.7115 57.1592C92.6909 57.092 92.6569 57.0296 92.6116 56.9758Z" fill="#263B54" fill-opacity="0.75"/>
<path d="M115.506 59.6539C115.573 59.7357 115.664 59.7954 115.765 59.8256C115.867 59.8557 115.975 59.8549 116.077 59.8232C116.178 59.7915 116.267 59.7304 116.333 59.6476C116.4 59.5649 116.44 59.4642 116.449 59.3586C116.455 59.2799 116.444 59.2008 116.417 59.1269C116.389 59.053 116.346 58.986 116.289 58.9307C116.233 58.8755 116.165 58.8332 116.091 58.807C116.016 58.7809 115.937 58.7713 115.859 58.7792C115.762 58.7898 115.671 58.8263 115.594 58.8847C115.517 58.9432 115.457 59.0214 115.421 59.1111C115.385 59.2009 115.374 59.2987 115.388 59.3943C115.403 59.4898 115.444 59.5796 115.506 59.6539Z" fill="#263B54" fill-opacity="0.75"/>
<path d="M131.466 55.6841C131.534 55.7659 131.624 55.8257 131.726 55.8558C131.827 55.886 131.936 55.8852 132.037 55.8535C132.138 55.8218 132.227 55.7606 132.294 55.6779C132.36 55.5951 132.4 55.4945 132.409 55.3888C132.415 55.3102 132.404 55.2311 132.377 55.1572C132.349 55.0832 132.306 55.0163 132.25 54.961C132.193 54.9057 132.125 54.8635 132.051 54.8373C131.977 54.8111 131.897 54.8016 131.819 54.8094C131.723 54.8201 131.631 54.8565 131.554 54.915C131.477 54.9734 131.417 55.0517 131.381 55.1414C131.345 55.2311 131.334 55.3289 131.349 55.4245C131.364 55.5201 131.404 55.6098 131.466 55.6841Z" fill="#263B54" fill-opacity="0.75"/>
<path d="M101.51 63.0047C101.465 62.9505 101.41 62.9058 101.347 62.8732C101.285 62.8406 101.217 62.8207 101.147 62.8149C101.006 62.8024 100.865 62.8464 100.757 62.9374C100.702 62.9815 100.656 63.0365 100.622 63.0988C100.589 63.1611 100.569 63.2296 100.563 63.3C100.556 63.3704 100.564 63.4413 100.586 63.5086C100.608 63.5758 100.643 63.6379 100.689 63.691C100.734 63.7458 100.789 63.7912 100.852 63.8245C100.914 63.8579 100.982 63.8784 101.053 63.885C101.123 63.8916 101.194 63.8841 101.262 63.8629C101.329 63.8418 101.392 63.8074 101.446 63.7618C101.527 63.6932 101.586 63.6021 101.615 63.5C101.645 63.3979 101.644 63.2894 101.612 63.1881C101.59 63.1207 101.556 63.0583 101.51 63.0047Z" fill="#263B54" fill-opacity="0.75"/>
<path d="M104.389 64.0815C104.457 64.1632 104.547 64.223 104.649 64.2532C104.751 64.2833 104.859 64.2825 104.96 64.2508C105.061 64.2191 105.151 64.158 105.217 64.0752C105.283 63.9924 105.323 63.8918 105.332 63.7861C105.339 63.7075 105.328 63.6284 105.3 63.5545C105.273 63.4806 105.229 63.4136 105.173 63.3583C105.117 63.303 105.049 63.2608 104.974 63.2346C104.9 63.2084 104.821 63.1989 104.742 63.2068C104.646 63.2174 104.555 63.2539 104.477 63.3123C104.4 63.3708 104.341 63.449 104.304 63.5387C104.268 63.6284 104.257 63.7263 104.272 63.8218C104.287 63.9174 104.328 64.0071 104.389 64.0815Z" fill="#263B54" fill-opacity="0.75"/>
<path d="M109.398 73.0841C109.449 73.1445 109.512 73.1929 109.584 73.2259C109.656 73.2589 109.734 73.2756 109.813 73.2748C109.892 73.2741 109.97 73.2559 110.041 73.2216C110.112 73.1873 110.175 73.1377 110.224 73.0763C110.291 72.9942 110.332 72.8941 110.341 72.7887C110.351 72.6834 110.328 72.5776 110.277 72.4849C110.242 72.4184 110.193 72.36 110.134 72.3137C110.075 72.2673 110.006 72.234 109.933 72.2159C109.86 72.1978 109.784 72.1953 109.71 72.2086C109.636 72.2219 109.565 72.2507 109.503 72.2931C109.441 72.3355 109.388 72.3905 109.348 72.4546C109.309 72.5188 109.283 72.5905 109.273 72.6651C109.264 72.7398 109.269 72.8157 109.291 72.8879C109.312 72.9601 109.349 73.0269 109.398 73.0841Z" fill="#263B54" fill-opacity="0.75"/>
<path d="M95.6572 71.7788C95.7254 71.8594 95.8158 71.9181 95.9172 71.9479C96.0185 71.9776 96.1264 71.9769 96.2273 71.9459C96.3286 71.9146 96.4182 71.8539 96.4849 71.7715C96.5515 71.6891 96.5922 71.5887 96.6016 71.4831C96.611 71.3776 96.5888 71.2716 96.5378 71.1787C96.4868 71.0858 96.4093 71.0101 96.3151 70.9614C96.2373 70.9203 96.1504 70.8991 96.0623 70.8997C95.9742 70.9003 95.8877 70.9227 95.8104 70.9649C95.7331 71.0072 95.6674 71.0679 95.6193 71.1417C95.5712 71.2155 95.5421 71.3 95.5346 71.3878C95.5225 71.5292 95.5665 71.6696 95.6572 71.7788Z" fill="#263B54" fill-opacity="0.75"/>
<path d="M110.389 42.3203C109.878 39.7641 109.42 37.1123 107.429 35.4302C106.15 36.4926 103.862 38.5119 102.84 41.1368C105.571 36.4529 107.119 40.1402 106.849 42.1453C106.837 42.5094 107.039 42.6029 107.629 42.2268C108.867 41.4194 109.621 43.518 107.319 44.3799C107.024 44.4876 106.337 46.0217 106.512 47.7712C106.261 45.3482 110.389 42.3203 110.389 42.3203Z" fill="#263B54" fill-opacity="0.75"/>
<path d="M127.86 42.3882C127.792 42.3064 127.702 42.2467 127.6 42.2165C127.499 42.1863 127.39 42.1872 127.289 42.2189C127.188 42.2505 127.098 42.3117 127.032 42.3945C126.966 42.4772 126.926 42.5779 126.917 42.6835C126.911 42.7622 126.922 42.8412 126.949 42.9152C126.977 42.9891 127.02 43.0561 127.076 43.1113C127.133 43.1666 127.2 43.2088 127.275 43.235C127.349 43.2612 127.428 43.2707 127.507 43.2629C127.603 43.2523 127.695 43.2158 127.772 43.1573C127.849 43.0989 127.909 43.0206 127.945 42.9309C127.981 42.8412 127.992 42.7434 127.977 42.6478C127.962 42.5523 127.922 42.4625 127.86 42.3882Z" fill="#263B54" fill-opacity="0.75"/>
<path d="M46.7925 95.3558C44.451 97.1591 40.2381 100.282 38.7585 101.872C40.6291 102.29 46.4695 100.957 49.8339 100.957C50.9104 100.958 51.9828 100.813 53.0211 100.526C53.667 99.813 54.3803 98.9255 55.1204 98.1039C52.2018 97.6961 49.3807 96.7652 46.7925 95.3558Z" fill="#263B54" fill-opacity="0.75"/>
<path d="M74.9451 125.326C74.2184 128.192 72.8323 133.252 72.6439 135.405C74.3664 134.584 78.1486 129.915 80.7891 127.842C81.6352 127.176 82.3907 126.403 83.0364 125.541C83.1037 124.586 83.1172 123.442 83.1979 122.338C80.6446 123.813 77.8507 124.824 74.9451 125.326Z" fill="#263B54" fill-opacity="0.75"/>
<path d="M108.925 96.3651L111.049 114.506C113.883 114.191 116.606 113.223 119.004 111.68C121.401 110.137 123.409 108.059 124.87 105.61L108.925 96.3651Z" fill="#263B54" fill-opacity="0.75"/>
<path d="M111.994 61.7802L114.254 61.9955L113.649 64.216L111.994 61.7802Z" fill="#263B54" fill-opacity="0.75"/>
<path d="M58.9686 51.1731C59.0334 51.0918 59.1274 51.0389 59.2306 51.0258C57.0895 50.6291 55.1106 50.6468 54.0305 50.3175L30.8854 48.874C30.8385 48.8728 30.7929 48.8897 30.7581 48.9212C30.7233 48.9527 30.702 48.9964 30.6985 49.0432C30.695 49.09 30.7097 49.1364 30.7395 49.1727C30.7693 49.2089 30.8119 49.2324 30.8585 49.2381L59.0465 51.7312C58.8906 51.4784 58.8538 51.3183 58.9686 51.1731Z" fill="#263B54" fill-opacity="0.75"/>
<path d="M122.746 52.8178L108.51 20.8697C107.372 18.3165 105.267 16.3196 102.658 15.3178C100.049 14.3159 97.1485 14.3912 94.5947 15.5271L22.8917 47.4484C20.3382 48.5855 18.3408 50.6903 17.339 53.2999C16.3371 55.9094 16.4127 58.8101 17.5492 61.3639L41.3827 114.871C41.9455 116.135 42.7519 117.276 43.7558 118.229C44.7597 119.182 45.9414 119.928 47.2335 120.424C48.5257 120.92 49.9029 121.157 51.2865 121.121C52.6701 121.084 54.033 120.776 55.2975 120.213L75.591 111.183" stroke="#263B54" stroke-width="0.711835" stroke-linecap="round" stroke-linejoin="round"/>
<path d="M88.7926 105.301L126.998 88.2912C128.263 87.7284 129.404 86.922 130.357 85.9181C131.31 84.9142 132.056 83.7325 132.552 82.4404C133.048 81.1482 133.285 79.7711 133.248 78.3874C133.212 77.0038 132.904 75.6409 132.341 74.3764L126.958 62.2918" stroke="#263B54" stroke-width="0.711835" stroke-linecap="round" stroke-linejoin="round"/>
<path d="M54.9312 86.9185L41.0596 55.765C40.9145 55.4365 40.7059 55.14 40.4458 54.8923C40.1858 54.6447 39.8793 54.4509 39.5441 54.3221C39.2089 54.1933 38.8515 54.132 38.4926 54.1418C38.1336 54.1515 37.7801 54.2321 37.4524 54.3789L31.262 57.1242C30.9336 57.2692 30.637 57.4777 30.3894 57.7377C30.1418 57.9978 29.948 58.3042 29.8192 58.6393C29.6904 58.9745 29.6291 59.3318 29.6388 59.6907C29.6486 60.0496 29.7291 60.4031 29.8759 60.7307L45.6754 96.2154" stroke="#263B54" stroke-width="0.711835" stroke-linecap="round" stroke-linejoin="round"/>
<path d="M48.3804 102.314L50.3586 106.755C50.5037 107.083 50.7122 107.379 50.9723 107.627C51.2323 107.875 51.5387 108.068 51.8738 108.197C52.2089 108.326 52.5662 108.387 52.9251 108.378C53.284 108.368 53.6374 108.287 53.9651 108.141L60.1555 105.378C60.4838 105.233 60.7802 105.025 61.0278 104.765C61.2754 104.505 61.4692 104.198 61.5982 103.863C61.727 103.528 61.7882 103.171 61.7785 102.812C61.7688 102.453 61.6883 102.1 61.5415 101.772L59.3884 96.9138" stroke="#263B54" stroke-width="0.711835" stroke-linecap="round" stroke-linejoin="round"/>
<path d="M66.6688 91.1306L69.764 98.1015C69.9092 98.4297 70.1179 98.7261 70.3779 98.9736C70.638 99.221 70.9443 99.4147 71.2794 99.5435C71.6145 99.6723 71.9717 99.7336 72.3305 99.724C72.6894 99.7144 73.0428 99.6341 73.3705 99.4876L78.9284 97.0249" stroke="#263B54" stroke-width="0.711835" stroke-linecap="round" stroke-linejoin="round"/>
<path d="M77.4751 85.3171L81.0278 93.2838" stroke="#263B54" stroke-width="0.711835" stroke-linecap="round" stroke-linejoin="round"/>
<path d="M72.2401 73.5688L67.5974 63.1395C67.4524 62.811 67.244 62.5143 66.984 62.2667C66.724 62.019 66.4176 61.8252 66.0824 61.6964C65.7472 61.5675 65.3899 61.5063 65.0309 61.5161C64.672 61.5258 64.3185 61.6065 63.9909 61.7534L57.8005 64.4987C57.472 64.6436 57.1754 64.8521 56.9277 65.1121C56.68 65.3721 56.4862 65.6785 56.3574 66.0137C56.2286 66.3488 56.1673 66.7062 56.1771 67.0651C56.1869 67.4241 56.2675 67.7775 56.4144 68.1052L62.1203 80.9299" stroke="#263B54" stroke-width="0.711835" stroke-linecap="round" stroke-linejoin="round"/>
<path d="M93.8156 69.774L90.1014 61.4163C89.8827 60.9218 89.5219 60.5034 89.0649 60.2144C88.6079 59.9253 88.0752 59.7786 87.5346 59.793C87.1758 59.8029 86.8225 59.8835 86.4949 60.0303L80.3046 62.789C79.9758 62.9338 79.6791 63.1422 79.4315 63.4024C79.1838 63.6626 78.9902 63.9692 78.8618 64.3047C78.7328 64.6397 78.6714 64.9969 78.6811 65.3558C78.6908 65.7146 78.7715 66.068 78.9185 66.3955L82.2828 73.9741" stroke="#263B54" stroke-width="0.711835" stroke-linecap="round" stroke-linejoin="round"/>
<path d="M113.178 81.7779L118.386 79.4498C118.881 79.2318 119.3 78.8711 119.589 78.4139C119.878 77.9567 120.024 77.4237 120.009 76.883C119.999 76.5242 119.918 76.1709 119.772 75.8433L114.001 62.8705" stroke="#263B54" stroke-width="0.711835" stroke-linecap="round" stroke-linejoin="round"/>
<path d="M106.691 46.466L109.114 51.9027" stroke="#263B54" stroke-width="0.711835" stroke-linecap="round" stroke-linejoin="round"/>
<path d="M103.703 39.7613L99.2891 29.8299C99.0704 29.3355 98.7098 28.9172 98.2529 28.6281C97.796 28.3391 97.2635 28.1923 96.723 28.2065C96.364 28.2163 96.0104 28.297 95.6826 28.4438L89.4923 31.2025C89.1639 31.3476 88.8674 31.5562 88.6198 31.8162C88.3722 32.0762 88.1785 32.3826 88.0497 32.7178C87.9209 33.0529 87.8596 33.4102 87.8693 33.7691C87.879 34.1279 87.9595 34.4814 88.1062 34.8091L95.1443 50.622" stroke="#263B54" stroke-width="0.711835" stroke-linecap="round" stroke-linejoin="round"/>
<path d="M104.107 46.4264C104.432 46.4278 104.756 46.4016 105.077 46.3485L103.718 47.6404" stroke="#263B54" stroke-width="0.711835" stroke-linecap="round" stroke-linejoin="round"/>
<path d="M113.628 64.2593L111.994 61.7803L114.241 62.0034" stroke="#263B54" stroke-width="0.711835" stroke-linecap="round" stroke-linejoin="round"/>
<path d="M60.0881 49.1816C58.3413 49.0624 56.5895 49.0355 54.8398 49.1009C53.0224 49.2191 52.2284 50.2469 55.4858 50.5812C57.8677 50.8248 60.3573 50.958 62.5374 52.1018" stroke="#263B54" stroke-width="0.711835" stroke-linecap="round" stroke-linejoin="round"/>
<path d="M58.5271 47.9463C58.7559 46.8839 59.4691 46.5298 61.6492 46.7352" stroke="#263B54" stroke-width="0.711835" stroke-linecap="round" stroke-linejoin="round"/>
<path d="M57.6659 49.0634C57.9754 47.9301 58.6079 47.7042 60.6803 47.8926" stroke="#263B54" stroke-width="0.711835" stroke-linecap="round" stroke-linejoin="round"/>
<path d="M59.4423 46.8158C59.7518 45.7392 60.465 45.5452 62.5374 45.6826C64.6198 45.9248 66.6865 46.2846 68.7278 46.7591" stroke="#263B54" stroke-width="0.711835" stroke-linecap="round" stroke-linejoin="round"/>
<path d="M68.7426 46.7622C67.4705 48.8681 66.9749 51.3526 67.3416 53.7855C65.5749 54.1595 63.7424 54.0813 62.014 53.5581C59.8183 52.9915 58.0165 50.9 59.535 51.0791C60.1526 51.1967 60.7603 51.3625 61.3518 51.5749" stroke="#263B54" stroke-width="0.711835" stroke-linecap="round" stroke-linejoin="round"/>
<path d="M106.529 47.7578C106.266 45.3695 110.231 42.4125 110.387 42.297C109.878 39.7472 109.417 37.1075 107.432 35.4303C105.536 37.007 103.976 38.9473 102.843 41.1369" stroke="#263B54" stroke-width="0.711835" stroke-linecap="round" stroke-linejoin="round"/>
<path d="M75.5505 85.1017C79.743 85.4927 83.8862 86.2993 87.9191 87.5098C86.046 88.859 84.2316 90.288 82.481 91.7927C80.7211 93.3074 79.436 95.2981 78.7802 97.5255C76.7782 104.514 75.3116 111.645 74.3932 118.856C78.0476 120.12 81.8725 120.823 85.7376 120.942C86.5248 114.144 88.0018 107.445 90.1459 100.946L107.324 92.7886C116.555 87.9723 112.128 76.3842 112.128 76.3842C112.491 70.3419 112.989 66.0837 114.241 62.0062C119.007 62.4259 123.797 62.4907 128.573 62.2003C129.877 62.0808 131.097 61.503 132.016 60.5694C132.935 59.6358 133.493 58.4069 133.592 57.1007L134.815 41.207C131.946 40.3841 128.944 40.1236 125.975 40.4399L124.98 52.7774C108.898 53.0465 107.39 51.5528 106.946 50.3954C105.99 47.8789 106.905 44.5274 107.337 44.3666C109.637 43.5039 108.882 41.4025 107.646 42.2127C107.184 42.5159 106.812 42.6271 106.873 42.0796C107.101 40.0617 105.557 36.504 102.855 41.1362C100.119 45.8108 102.595 46.427 104.106 46.4263C104.106 46.4263 103.486 48.2012 103.137 49.7495C102.895 50.8254 101.657 50.7758 99.1538 50.7588C87.8214 50.6809 79.9369 48.969 69.0096 46.2775C68.1834 47.5111 67.6237 48.9034 67.3664 50.3656C67.1091 51.8278 67.1597 53.3276 67.5151 54.769C77.4218 57.2119 84.1065 58.8062 93.8948 59.2978C93.503 64.9414 93.6733 70.61 94.4034 76.2199C88.091 74.7517 81.6829 73.7309 75.2268 73.1651C73.5382 73.0164 71.8534 73.4902 70.4899 74.4974C63.6656 79.514 57.0993 84.8723 50.8161 90.5518C52.6318 93.5292 54.949 96.1698 57.6651 98.357C63.2622 93.4666 69.2432 89.0338 75.5505 85.1017Z" stroke="#263B54" stroke-width="0.711835" stroke-linecap="round" stroke-linejoin="round"/>
<path d="M97.9704 81.2933C94.4789 83.127 91.1203 85.2034 87.9193 87.507" stroke="#263B54" stroke-width="0.711835" stroke-linecap="round" stroke-linejoin="round"/>
<path d="M112.141 76.3793C105.654 74.899 99.5986 74.1837 94.2291 74.7241" stroke="#263B54" stroke-width="0.711835" stroke-linecap="round" stroke-linejoin="round"/>
<path d="M98.4952 50.7589L102.923 62.8166L111.374 52.3468" stroke="#263B54" stroke-width="0.711835" stroke-linecap="round" stroke-linejoin="round"/>
<path d="M102.707 50.4225C103.324 50.9161 104.075 51.2123 104.863 51.2724C105.65 51.3324 106.438 51.1534 107.122 50.7589" stroke="#263B54" stroke-width="0.711835" stroke-linecap="round" stroke-linejoin="round"/>
<path d="M100.096 50.7722L101.631 54.7018L104.793 51.2702L107.122 55.0382L109.625 52.0238" stroke="#263B54" stroke-width="0.711835" stroke-linecap="round" stroke-linejoin="round"/>
<path d="M104.794 51.2702C103.865 54.8498 101.833 69.1952 102.031 74.7261" stroke="#263B54" stroke-width="0.711835" stroke-linecap="round" stroke-linejoin="round"/>
<path d="M108.335 75.5874C108.335 75.5874 107.528 81.4661 112.13 83.3118" stroke="#263B54" stroke-width="0.711835" stroke-linecap="round" stroke-linejoin="round"/>
<path d="M110.85 82.6122C103.338 86.3093 96.1375 90.6072 89.3181 95.4638C87.1202 97.0486 85.5146 99.322 84.7561 101.923C83.0391 108.016 81.753 114.222 80.9073 120.495" stroke="#263B54" stroke-width="0.711835" stroke-linecap="round" stroke-linejoin="round"/>
<path d="M92.4393 84.4826C87.3953 83.0525 82.2672 81.9379 77.0846 81.1452C75.3627 80.8865 73.6062 81.28 72.1593 82.2487C66.0462 86.3071 60.2025 90.7573 54.6649 95.5714" stroke="#263B54" stroke-width="0.711835" stroke-linecap="round" stroke-linejoin="round"/>
<path d="M56.1856 97.0517C54.3763 95.4147 52.7803 93.5565 51.4352 91.5208C50.3586 92.5705 48.5822 93.9835 46.7924 95.3696C49.3851 96.7729 52.205 97.708 55.1224 98.1319C55.4525 97.7487 55.8081 97.3882 56.1856 97.0517Z" stroke="#263B54" stroke-width="0.711835" stroke-linecap="round" stroke-linejoin="round"/>
<path d="M38.7584 101.869C38.3689 102.3 38.1614 102.612 38.2329 102.784C38.6777 103.86 45.0699 102.273 48.4887 102.273C49.4917 102.281 50.4901 102.136 51.4493 101.842C52.0537 101.514 52.5841 101.066 53.0075 100.524C51.9692 100.811 50.8969 100.956 49.8203 100.954C46.4701 100.956 40.6155 102.302 38.7584 101.869Z" stroke="#263B54" stroke-width="0.711835" stroke-linecap="round" stroke-linejoin="round"/>
<path d="M46.7924 95.3562C44.4508 97.1594 40.2387 100.282 38.7584 101.872C40.629 102.289 46.4694 100.957 49.8337 100.957C50.9103 100.958 51.9826 100.813 53.021 100.527C53.6669 99.8134 54.3802 98.9252 55.1203 98.1043C52.2017 97.6965 49.3805 96.7655 46.7924 95.3562Z" stroke="#263B54" stroke-width="0.711835" stroke-linecap="round" stroke-linejoin="round"/>
<path d="M83.3692 120.804C80.9489 120.584 78.5558 120.128 76.2234 119.445C76.0216 120.925 75.4968 123.132 74.9485 125.324C77.8528 124.822 80.6454 123.81 83.1978 122.336C83.2347 121.827 83.2885 121.275 83.3692 120.804Z" stroke="#263B54" stroke-width="0.711835" stroke-linecap="round" stroke-linejoin="round"/>
<path d="M72.6438 135.406C72.5899 135.984 72.631 136.36 72.7918 136.442C73.8322 136.972 77.846 131.805 80.5432 129.7C81.3357 129.086 82.03 128.356 82.6021 127.533C82.8792 126.901 83.0213 126.218 83.0193 125.528C82.3773 126.393 81.6214 127.167 80.7719 127.829C78.1322 129.895 74.3797 134.585 72.6438 135.406Z" stroke="#263B54" stroke-width="0.711835" stroke-linecap="round" stroke-linejoin="round"/>
<path d="M74.945 125.326C74.2183 128.192 72.8322 133.252 72.6438 135.406C74.3663 134.585 78.1485 129.916 80.789 127.843C81.635 127.177 82.3906 126.403 83.0363 125.541C83.1036 124.586 83.1171 123.442 83.1978 122.339C80.6445 123.813 77.8505 124.825 74.945 125.326Z" stroke="#263B54" stroke-width="0.711835" stroke-linecap="round" stroke-linejoin="round"/>
<path d="M14.1311 78.3731L7.56396 63.4087" stroke="#263B54" stroke-width="0.711835" stroke-linecap="round" stroke-linejoin="round"/>
<path d="M4.64368 70.9178L7.5639 63.4087L15.073 66.3424" stroke="#263B54" stroke-width="0.711835" stroke-linecap="round" stroke-linejoin="round"/>
<path d="M133.108 106.445C133.213 106.685 133.263 106.945 133.255 107.207C133.247 107.469 133.181 107.726 133.062 107.959C132.943 108.192 132.773 108.396 132.566 108.556C132.359 108.716 132.119 108.828 131.863 108.884C131.52 108.958 131.164 108.929 130.838 108.801C130.512 108.672 130.232 108.45 130.032 108.163C129.833 107.875 129.723 107.535 129.716 107.185C129.71 106.834 129.807 106.49 129.996 106.196C130.218 105.851 130.552 105.595 130.941 105.47C131.331 105.345 131.752 105.359 132.132 105.509C132.567 105.681 132.918 106.016 133.108 106.445Z" stroke="#263B54" stroke-width="0.711835" stroke-linecap="round" stroke-linejoin="round"/>
<path d="M139.069 108.748C139.174 108.988 139.224 109.248 139.216 109.51C139.208 109.772 139.142 110.028 139.023 110.262C138.904 110.495 138.735 110.699 138.528 110.859C138.32 111.019 138.08 111.131 137.824 111.187C137.482 111.261 137.126 111.232 136.8 111.103C136.474 110.975 136.194 110.753 135.994 110.465C135.794 110.178 135.684 109.837 135.678 109.487C135.671 109.137 135.769 108.793 135.958 108.498C136.147 108.204 136.42 107.972 136.741 107.833C137.172 107.648 137.657 107.641 138.093 107.812C138.529 107.984 138.88 108.32 139.069 108.748Z" stroke="#263B54" stroke-width="0.711835" stroke-linecap="round" stroke-linejoin="round"/>
<path d="M132.354 113.578L136.553 102.933" stroke="#263B54" stroke-width="0.711835" stroke-linecap="round" stroke-linejoin="round"/>
<path d="M132.933 40.746C132.952 39.2122 133.123 37.684 133.444 36.184C133.745 34.9584 134.183 33.7704 134.75 32.6427C135.585 30.9881 135.469 30.7126 133.956 32.0505C133.372 32.5586 132.845 33.1269 132.381 33.7462C130.802 35.7647 129.471 37.9649 128.415 40.2998" stroke="#263B54" stroke-width="0.711835" stroke-linecap="round" stroke-linejoin="round"/>
<path d="M131.237 35.3227C130.349 36.3724 129.999 33.6271 129.528 32.4563C129.138 31.4874 128.415 30.6262 128.466 33.5187C128.398 35.7901 128.191 38.0551 127.847 40.3012" stroke="#263B54" stroke-width="0.711835" stroke-linecap="round" stroke-linejoin="round"/>
<path d="M134.481 33.1965C135.084 32.429 135.76 31.7215 136.499 31.0837C137.946 29.8974 138.169 30.3585 138.006 30.6127C137.369 31.6128 136.165 33.1158 135.598 34.0578C134.63 35.6902 133.771 37.385 133.028 39.1312" stroke="#263B54" stroke-width="0.711835" stroke-linecap="round" stroke-linejoin="round"/>
<path d="M136.58 32.6177C136.836 32.4293 136.877 32.4052 136.997 32.3216C138.559 31.2514 138.747 31.7437 138.555 31.9852C137.817 32.9293 136.578 34.2063 135.837 35.04C134.897 35.9371 134.098 36.9716 133.468 38.1082" stroke="#263B54" stroke-width="0.711835" stroke-linecap="round" stroke-linejoin="round"/>
<path d="M46.0658 29.6033L40.01 39.8039L28.4495 37.1663" stroke="#263B54" stroke-width="0.711835" stroke-linecap="round" stroke-linejoin="round"/>
<path d="M50.8296 34.9324C49.5344 32.0817 47.1649 29.8585 44.2375 28.7473C41.3102 27.6361 38.0623 27.727 35.2017 29.0002C32.341 30.2734 30.0996 32.6257 28.9659 35.5444C27.8322 38.4631 27.8981 41.7116 29.1493 44.582" stroke="#263B54" stroke-width="0.711835" stroke-linecap="round" stroke-linejoin="round"/>
<path d="M122.584 31.6221L123.93 28.1501L120.471 26.8448L121.817 23.3594L118.318 21.9463L119.664 18.4744L116.098 17.0748" stroke="#263B54" stroke-width="0.711835" stroke-linecap="round" stroke-linejoin="round"/>
<path d="M124.051 25.768L125.397 22.296L121.952 20.9907L123.298 17.5053L119.785 16.0923L121.144 12.6203L117.565 11.2342" stroke="#263B54" stroke-width="0.711835" stroke-linecap="round" stroke-linejoin="round"/>
<path d="M125.759 88.845C126.909 91.3492 127.471 94.0836 127.401 96.8386C127.233 100.995 125.671 104.974 122.967 108.136C120.263 111.297 116.574 113.456 112.493 114.266C108.413 115.076 104.179 114.489 100.472 112.6C96.7658 110.71 93.8031 107.628 92.0612 103.85" stroke="#263B54" stroke-width="0.711835" stroke-linecap="round" stroke-linejoin="round"/>
<path d="M124.872 105.611L108.925 96.379L111.051 114.507" stroke="#263B54" stroke-width="0.711835" stroke-linecap="round" stroke-linejoin="round"/>
<path d="M108.925 96.379L94.9154 108.262" stroke="#263B54" stroke-width="0.711835" stroke-linecap="round" stroke-linejoin="round"/>
<path d="M69.3333 6.64536L73.5857 15.8097" stroke="#263B54" stroke-width="0.711835" stroke-linecap="round" stroke-linejoin="round"/>
<path d="M76.0483 9.09454L66.8705 13.3605" stroke="#263B54" stroke-width="0.711835" stroke-linecap="round" stroke-linejoin="round"/>
<path d="M31.8812 107.293L29.257 110.967L27.3871 106.849L31.8812 107.293Z" stroke="#263B54" stroke-width="0.711835" stroke-linecap="round" stroke-linejoin="round"/>
<path d="M94.4042 76.22L95.5346 76.4623" stroke="#263B54" stroke-width="0.711835" stroke-linecap="round" stroke-linejoin="round"/>
</svg>
