<svg width="144" height="143" viewBox="0 0 144 143" fill="none" xmlns="http://www.w3.org/2000/svg">
<path d="M64.9244 44.9879C64.3465 42.8333 62.4093 42.5634 61.383 43.5479C60.0642 44.786 60.1854 47.7976 61.7599 48.6751C62.0168 48.8095 62.2982 48.8906 62.5872 48.9138C62.8763 48.937 63.167 48.9016 63.4421 48.8099C63.7172 48.7182 63.9709 48.5721 64.1883 48.3801C64.4056 48.1882 64.582 47.9544 64.707 47.6928C65.1002 46.846 65.1773 45.8865 64.9244 44.9879Z" fill="#FF9F40"/>
<path d="M98.0037 60.9671C107.778 58.0157 114.967 55.8087 119.52 54.5692C117.264 54.73 115.121 41.7608 117.138 41.0178C89.8202 48.6346 88.3938 49.0921 86.1868 50.3975C84.1009 51.6355 81.9881 54.3808 72.9852 65.7522C71.6813 66.1878 62.9277 69.8786 60.7795 70.839C61.7619 73.6516 61.0487 79.5997 58.0342 82.6672C59.212 84.5889 60.6988 86.303 62.4348 87.7406C62.8676 86.9784 63.2367 86.1817 63.5383 85.3587C63.9151 84.2821 65.0186 84.3897 64.09 88.4807C64.7935 88.0215 65.5534 87.6551 66.3508 87.3907C66.7545 87.31 71.6395 87.4311 73.9138 87.458C74.9762 87.458 75.472 88.723 69.4594 89.0162C70.8052 89.2584 72.4066 89.512 73.8734 89.7025C78.1896 89.223 81.9258 85.0867 85.0932 79.9226C87.7584 75.3401 90.122 70.589 92.1703 65.6998C91.6469 68.5683 90.7537 73.9745 90.1567 75.8954L92.3098 74.4555C95.1628 76.3126 111.567 86.9976 114.487 88.7471C112.388 87.22 119.14 76.3522 121.351 77.4295C117.076 74.034 101.959 63.4021 98.0037 60.9671Z" fill="#FF9F40"/>
<path d="M54.6686 117.943L52.1507 118.387L52.9588 122.972L55.4767 122.529L54.6693 117.943H54.6686Z" fill="#FF9F40"/>
<path d="M58.2383 117.322L55.7197 117.767L56.53 122.353L59.0486 121.908L58.2383 117.322Z" fill="#FF9F40"/>
<path d="M61.694 116.706L59.1754 117.15L59.9835 121.735L62.5014 121.292L61.694 116.706Z" fill="#FF9F40"/>
<path d="M65.2056 116.087L62.6877 116.531L63.4958 121.117L66.0137 120.673L65.2063 116.087H65.2056Z" fill="#FF9F40"/>
<path d="M68.7774 115.461L66.2587 115.906L67.069 120.493L69.5876 120.047L68.7774 115.461Z" fill="#FF9F40"/>
<path d="M72.231 114.849L69.713 115.293L70.5212 119.878L73.0391 119.435L72.231 114.849Z" fill="#FF9F40"/>
<path d="M75.7434 114.23L73.2255 114.674L74.0336 119.26L76.5515 118.816L75.7434 114.23Z" fill="#FF9F40"/>
<path d="M79.2557 113.611L76.7378 114.055L77.5459 118.641L80.0646 118.196L79.2557 113.611Z" fill="#FF9F40"/>
<path d="M82.7681 112.993L80.2502 113.436L81.0583 118.022L83.5769 117.578L82.7681 112.993Z" fill="#FF9F40"/>
<path d="M86.2804 112.373L83.7625 112.817L84.5706 117.402L87.0893 116.958L86.2804 112.373Z" fill="#FF9F40"/>
<path d="M89.7927 111.754L87.2748 112.198L88.083 116.784L90.6016 116.34L89.7927 111.754Z" fill="#FF9F40"/>
<path d="M122.05 94.2953C121.912 93.5055 121.542 92.7747 120.987 92.1957C120.432 91.6168 119.718 91.2157 118.935 91.0436C118.415 90.9293 117.878 90.9185 117.354 91.0117L48.4528 103.164L48.9486 103.971H45.4249C44.7218 104.391 44.1634 105.015 43.8244 105.76C43.4853 106.506 43.3817 107.337 43.5275 108.143L44.3066 112.624L122.804 98.79L122.05 94.2953ZM105.269 99.5974C104.857 99.597 104.454 99.4745 104.111 99.2453C103.768 99.0162 103.5 98.6907 103.342 98.3098C103.184 97.9287 103.143 97.5093 103.223 97.1046C103.304 96.7 103.503 96.3284 103.795 96.0369C104.086 95.7443 104.458 95.5448 104.863 95.4638C105.267 95.3828 105.687 95.4239 106.069 95.5819C106.45 95.7399 106.776 96.0076 107.005 96.3512C107.234 96.6948 107.356 97.0987 107.355 97.5116C107.355 98.0646 107.135 98.5949 106.744 98.9862C106.353 99.377 105.822 99.5968 105.269 99.5974ZM111.567 98.4805C111.155 98.4801 110.752 98.3575 110.409 98.1284C110.066 97.8993 109.798 97.5737 109.64 97.1928C109.482 96.8117 109.441 96.3923 109.521 95.9877C109.602 95.5831 109.801 95.2115 110.093 94.92C110.384 94.6274 110.756 94.4279 111.161 94.3468C111.565 94.2658 111.985 94.3069 112.367 94.4649C112.748 94.6229 113.074 94.8907 113.303 95.2343C113.532 95.5778 113.654 95.9817 113.653 96.3946C113.653 96.9481 113.433 97.4789 113.042 97.8706C112.651 98.2622 112.121 98.4826 111.567 98.4833V98.4805ZM117.865 97.377C117.453 97.3766 117.05 97.254 116.707 97.0249C116.364 96.7958 116.096 96.4702 115.938 96.0894C115.78 95.7083 115.739 95.2888 115.819 94.8842C115.9 94.4796 116.099 94.108 116.391 93.8165C116.682 93.5239 117.054 93.3244 117.458 93.2434C117.863 93.1623 118.283 93.2034 118.665 93.3614C119.046 93.5194 119.372 93.7872 119.601 94.1308C119.83 94.4743 119.952 94.8782 119.951 95.2911C119.95 95.8442 119.731 96.3744 119.34 96.7658C118.949 97.1566 118.418 97.3764 117.865 97.377Z" fill="#263B54" fill-opacity="0.75"/>
<path d="M99.8459 36.6173C97.0508 30.7459 93.1381 25.4756 88.3265 21.1012C87.1566 22.3559 86.3355 23.8952 85.9451 25.5658C85.5547 27.2364 85.6086 28.9801 86.1013 30.6234C86.5941 32.2668 87.5085 33.7524 88.7537 34.9326C89.9989 36.1128 91.5314 36.9464 93.1988 37.3504C95.432 37.891 97.7841 37.6316 99.8459 36.6173Z" fill="#263B54" fill-opacity="0.75"/>
<path d="M116.358 44.4496C117.255 44.2047 118.097 43.7889 118.837 43.225C118.407 41.7376 117.81 40.9266 117.321 40.8969C116.344 40.8381 116.323 43.4729 116.358 44.4496Z" fill="#263B54" fill-opacity="0.75"/>
<path d="M120.314 51.0841C120.598 53.1968 120.166 54.4243 119.507 54.4753C118.955 54.5178 118.202 53.6409 117.542 51.5416C118.538 51.3532 119.454 51.1917 120.314 51.0841Z" fill="#263B54" fill-opacity="0.75"/>
<path d="M121.351 77.3525C120.893 77.1237 119.736 77.6081 118.269 79.2648C119.16 79.827 120.107 80.296 121.095 80.6643C122.064 78.9673 121.808 77.5678 121.351 77.3525Z" fill="#263B54" fill-opacity="0.75"/>
<path d="M114.689 85.1846C113.91 87.2031 114.043 88.3336 114.487 88.6551C115.012 89.0185 116.237 88.534 117.354 86.8136C116.527 86.1761 115.634 85.63 114.689 85.1846Z" fill="#263B54" fill-opacity="0.75"/>
<path d="M85.7293 78.8194C86.6713 78.1735 88.3266 77.0565 90.1837 75.805C90.87 73.598 91.9197 67.475 92.3638 65.2007C90.3875 69.8511 88.1731 74.3967 85.7293 78.8194Z" fill="#263B54" fill-opacity="0.75"/>
<path d="M68.6386 44.194C68.6528 44.7861 68.7059 45.7522 68.7874 46.9392C67.4951 47.4646 66.1017 47.6945 64.7091 47.6121C65.1006 46.7648 65.176 45.8053 64.9216 44.9072C65.6108 44.9072 67.8447 44.7053 68.6386 44.194Z" fill="#263B54" fill-opacity="0.75"/>
<path d="M69.6621 58.3949C69.7294 59.4176 69.7967 60.225 69.8236 60.723C70.6253 60.6443 72.2558 60.3766 72.0723 59.5947C71.9526 59.0826 71.0368 58.5634 69.6621 58.3949Z" fill="#263B54" fill-opacity="0.75"/>
<path d="M61.7485 59.9255C60.7931 59.5756 60.3773 59.1585 60.3221 58.7923C60.23 58.1867 60.9546 57.8503 61.7485 57.6888V59.9255Z" fill="#263B54" fill-opacity="0.75"/>
<path d="M51.05 100.512C51.05 102.472 50.4558 103.666 49.7199 103.894C48.5958 104.241 47.9336 102.268 47.6722 101.105C48.3182 101.01 49.5563 100.795 51.05 100.512Z" fill="#263B54" fill-opacity="0.75"/>
<path d="M49.1221 90.7497C48.2431 90.5939 47.758 91.7512 47.5405 92.6132C48.3076 92.5728 49.2496 92.5055 50.2858 92.4248C50.2879 92.0598 50.1772 91.703 49.969 91.4032C49.7607 91.1033 49.4649 90.8751 49.1221 90.7497Z" fill="#263B54" fill-opacity="0.75"/>
<path d="M52.9468 83.8255C50.3092 84.4042 47.8196 84.8617 46.1644 85.1712C46.6085 84.0678 47.0795 82.9756 47.5505 82.0492C49.2871 82.8155 51.0945 83.4105 52.9468 83.8255Z" fill="#263B54" fill-opacity="0.75"/>
<path d="M36.0318 52.295C33.6799 51.4679 31.0958 51.6085 28.8476 52.6858C26.5993 53.7632 24.8708 55.6892 24.0421 58.0405C23.6061 57.4989 23.0612 57.0549 22.4425 56.7376C21.8239 56.4202 21.1454 56.2366 20.4511 56.1985C19.7569 56.1604 19.0623 56.2688 18.4127 56.5166C17.7631 56.7644 17.1728 57.146 16.6802 57.6368C16.1877 58.1275 15.8039 58.7164 15.5537 59.3651C15.3035 60.0139 15.1926 60.708 15.2282 61.4024C15.2637 62.0968 15.4449 62.7759 15.76 63.3957C16.0751 64.0155 16.517 64.5621 17.0571 65C18.0869 65.8126 19.3914 66.1948 20.6969 66.0666C22.0025 65.9384 23.2077 65.3097 24.0598 64.3123C24.8778 66.5955 26.5468 68.474 28.7178 69.5552C30.8888 70.6364 33.3937 70.8366 35.7088 70.1138C35.0359 66.9265 33.771 64.9866 33.3269 65.0142C31.1468 65.1622 30.8104 62.9822 32.8962 63.3993C33.9586 63.6281 32.977 62.1074 32.183 61.1251C33.5803 60.3846 34.8374 59.4054 35.8972 58.2318C40.5399 61.9998 41.9395 65.1084 38.6963 65.6602L36.893 65.7409C38.0644 66.2582 39.327 66.5373 40.6072 66.5618C41.723 64.9839 42.3202 63.098 42.3163 61.1654C42.315 59.2184 41.7098 57.3198 40.5843 55.7311C39.4587 54.1424 37.8682 52.9419 36.0318 52.295Z" fill="#263B54" fill-opacity="0.75"/>
<path d="M45.4653 103.944C44.7664 104.368 44.2116 104.993 43.8731 105.737C43.5347 106.481 43.4283 107.31 43.5678 108.116L47.0533 127.979C47.2422 129.036 47.8426 129.975 48.723 130.591C49.6034 131.206 50.6918 131.448 51.7498 131.262L122.266 118.841C123.056 118.703 123.786 118.332 124.365 117.778C124.944 117.223 125.345 116.509 125.517 115.725C125.632 115.206 125.643 114.668 125.549 114.145L122.064 94.2816C121.925 93.4918 121.555 92.7611 121 92.1821C120.446 91.6031 119.731 91.2021 118.948 91.0299C118.428 90.9157 117.891 90.9048 117.367 90.9981L50.6718 102.763" stroke="#263B54" stroke-width="0.711835" stroke-linecap="round" stroke-linejoin="round"/>
<path d="M44.3484 112.61L122.844 98.7629" stroke="#263B54" stroke-width="0.711835" stroke-linecap="round" stroke-linejoin="round"/>
<path d="M118.668 105.124L50.4295 117.152L51.766 124.733L120.003 112.704L118.668 105.124Z" stroke="#263B54" stroke-width="0.711835" stroke-linecap="round" stroke-linejoin="round"/>
<path d="M99.9268 79.3172C96.8386 85.8828 92.3567 91.6966 86.7932 96.3541M102.914 44.907C100.588 36.3853 96.0434 28.6331 89.7437 22.4408C83.4441 16.2485 75.6147 11.8379 67.0543 9.65863C58.4939 7.4794 49.5086 7.60956 41.0149 10.0359C32.5211 12.4621 24.8229 17.0977 18.7052 23.4699C12.5875 29.842 8.2693 37.7227 6.19097 46.3082C4.11265 54.8937 4.34856 63.8768 6.87466 72.3414C9.40075 80.806 14.1266 88.4492 20.5704 94.4914C27.0141 100.534 34.945 104.759 43.5544 106.736" stroke="#263B54" stroke-width="0.711835" stroke-linecap="round" stroke-linejoin="round"/>
<path d="M104.664 58.862C104.633 60.8924 104.48 62.9192 104.206 64.9312" stroke="#263B54" stroke-width="0.711835" stroke-linecap="round" stroke-linejoin="round"/>
<path d="M95.5126 37.6268C100.938 37.6268 105.336 33.2284 105.336 27.803C105.336 22.3776 100.938 17.9792 95.5126 17.9792C90.0872 17.9792 85.6888 22.3776 85.6888 27.803C85.6888 33.2284 90.0872 37.6268 95.5126 37.6268Z" stroke="#263B54" stroke-width="0.711835" stroke-linecap="round" stroke-linejoin="round"/>
<path d="M34.3227 36.3481L42.4239 34.9217" stroke="#263B54" stroke-width="0.711835" stroke-linecap="round" stroke-linejoin="round"/>
<path d="M44.7116 47.8677L36.6103 49.2942" stroke="#263B54" stroke-width="0.711835" stroke-linecap="round" stroke-linejoin="round"/>
<path d="M37.808 49.0787C37.574 47.8622 37.6055 46.6096 37.9005 45.4064C38.1955 44.2033 38.7469 43.0781 39.5171 42.1078C40.2871 41.1375 40.8385 40.0123 41.1335 38.8092C41.4285 37.6061 41.4601 36.3535 41.2261 35.137" stroke="#263B54" stroke-width="0.711835" stroke-linecap="round" stroke-linejoin="round"/>
<path d="M43.5139 48.0693C43.3232 46.8457 42.8695 45.6779 42.1842 44.6465C41.4988 43.615 40.5981 42.7443 39.544 42.0943C38.4863 41.4488 37.5811 40.5816 36.8911 39.5523C36.201 38.5231 35.7426 37.3564 35.5472 36.1327" stroke="#263B54" stroke-width="0.711835" stroke-linecap="round" stroke-linejoin="round"/>
<path d="M121.458 65.6716L125.051 65.0391" stroke="#263B54" stroke-width="0.711835" stroke-linecap="round" stroke-linejoin="round"/>
<path d="M131.417 63.9221L135.01 63.2896" stroke="#263B54" stroke-width="0.711835" stroke-linecap="round" stroke-linejoin="round"/>
<path d="M127.043 57.705L127.676 61.2981" stroke="#263B54" stroke-width="0.711835" stroke-linecap="round" stroke-linejoin="round"/>
<path d="M128.792 67.6634L129.425 71.2564" stroke="#263B54" stroke-width="0.711835" stroke-linecap="round" stroke-linejoin="round"/>
<path d="M122.602 60.5311L125.59 62.6304" stroke="#263B54" stroke-width="0.711835" stroke-linecap="round" stroke-linejoin="round"/>
<path d="M130.892 66.331L133.879 68.4303" stroke="#263B54" stroke-width="0.711835" stroke-linecap="round" stroke-linejoin="round"/>
<path d="M132.184 58.8487L130.098 61.8227" stroke="#263B54" stroke-width="0.711835" stroke-linecap="round" stroke-linejoin="round"/>
<path d="M126.384 67.125L124.298 70.1125" stroke="#263B54" stroke-width="0.711835" stroke-linecap="round" stroke-linejoin="round"/>
<path d="M26.8539 119.245L34.1746 108.802" stroke="#263B54" stroke-width="0.711835" stroke-linecap="round" stroke-linejoin="round"/>
<path d="M25.2929 110.363L35.7491 117.684" stroke="#263B54" stroke-width="0.711835" stroke-linecap="round" stroke-linejoin="round"/>
<path d="M107.88 130.105L105.956 129.015L107.046 127.09" stroke="#263B54" stroke-width="0.711835" stroke-linecap="round" stroke-linejoin="round"/>
<path d="M105.956 129.015C106.435 128.771 106.965 128.641 107.503 128.638C108.176 128.638 108.835 128.838 109.394 129.212C109.954 129.586 110.391 130.118 110.649 130.739C110.906 131.362 110.973 132.046 110.842 132.707C110.71 133.367 110.386 133.974 109.911 134.45C109.554 134.806 109.124 135.078 108.65 135.247C108.176 135.416 107.67 135.478 107.17 135.429C106.669 135.38 106.185 135.22 105.753 134.962C105.322 134.703 104.952 134.353 104.672 133.935C104.298 133.374 104.098 132.716 104.098 132.043" stroke="#263B54" stroke-width="0.711835" stroke-linecap="round" stroke-linejoin="round"/>
<path d="M38.3074 65.7225C42.0174 68.2235 49.2503 66.3416 60.2144 63.8145" stroke="#263B54" stroke-width="0.711835" stroke-linecap="round" stroke-linejoin="round"/>
<path d="M61.7485 57.6779C60.9545 57.8393 60.2214 58.1736 60.322 58.7813C60.4374 59.4797 61.7754 60.3141 65.7453 60.6519C70.3207 61.0407 72.0376 60.4394 72.0836 59.7368C72.1197 59.1851 71.1551 58.5795 69.6479 58.3911" stroke="#263B54" stroke-width="0.711835" stroke-linecap="round" stroke-linejoin="round"/>
<path d="M62.6905 42.9288C65.6914 42.858 66.0413 48.8436 62.7039 48.8365C59.7164 48.833 59.7462 42.9954 62.6905 42.9288Z" stroke="#263B54" stroke-width="0.711835" stroke-linecap="round" stroke-linejoin="round"/>
<path d="M69.8229 60.7193C69.6621 58.0547 68.6521 46.172 68.6521 43.9246C68.6521 41.6907 70.2315 38.7797 70.6707 38.0573C71.1473 37.2718 71.1473 36.3886 71.0602 34.2326C71.0234 33.2906 70.2726 33.2615 69.621 35.4168C69.0353 37.3525 66.7171 38.9695 66.8084 35.2419C66.863 33.0753 67.21 30.0715 67.2795 29.2534C67.4211 27.5705 66.5216 27.4253 66.0145 29.2534C65.5134 30.9536 65.1044 32.6796 64.7892 34.4238" stroke="#263B54" stroke-width="0.711835" stroke-linecap="round" stroke-linejoin="round"/>
<path d="M64.8303 34.0873C64.6553 31.9625 64.6553 29.3369 64.6419 28.516C64.6149 26.8473 63.6821 26.8331 63.3769 28.664C63.0631 30.5473 62.7309 33.4548 62.6906 34.639" stroke="#263B54" stroke-width="0.711835" stroke-linecap="round" stroke-linejoin="round"/>
<path d="M62.7592 33.6052C62.3909 31.5271 62.2726 30.0426 62.1791 29.2437C61.9907 27.5884 61.0537 27.6819 60.9411 29.5397C60.8265 31.4622 60.8176 33.3894 60.9142 35.3129" stroke="#263B54" stroke-width="0.711835" stroke-linecap="round" stroke-linejoin="round"/>
<path d="M60.8873 34.747C60.3624 32.7149 60.1868 31.6653 60.0373 30.8713C59.7399 29.2699 58.9275 29.4448 58.9338 31.2616C58.9126 33.1215 59.0429 34.98 59.3241 36.8194C59.674 38.367 61.2485 42.8886 61.3831 43.4673" stroke="#263B54" stroke-width="0.711835" stroke-linecap="round" stroke-linejoin="round"/>
<path d="M61.7485 48.6079C61.7485 51.6223 61.7216 58.2567 61.7485 59.9254" stroke="#263B54" stroke-width="0.711835" stroke-linecap="round" stroke-linejoin="round"/>
<path d="M64.9243 44.9071C65.5972 44.9071 67.8445 44.7053 68.6385 44.1939" stroke="#263B54" stroke-width="0.711835" stroke-linecap="round" stroke-linejoin="round"/>
<path d="M64.7091 47.6119C66.1014 47.6932 67.4943 47.4633 68.7867 46.9391" stroke="#263B54" stroke-width="0.711835" stroke-linecap="round" stroke-linejoin="round"/>
<path d="M60.3219 58.7814C60.2547 60.0867 60.2008 64.2316 60.1874 64.8775" stroke="#263B54" stroke-width="0.711835" stroke-linecap="round" stroke-linejoin="round"/>
<path d="M35.7087 70.1259C33.5794 70.7958 31.2813 70.6879 29.2242 69.8212C27.167 68.9545 25.4845 67.3855 24.4765 65.3937C23.4685 63.402 23.2006 61.1171 23.7205 58.9462C24.2404 56.7753 25.5143 54.8596 27.3151 53.5405C29.116 52.2215 31.3267 51.5848 33.5533 51.744C35.7799 51.9032 37.8776 52.8479 39.4724 54.4098C41.0673 55.9716 42.0557 58.0491 42.2615 60.2718C42.4672 62.4946 41.8769 64.7182 40.5958 66.5462" stroke="#263B54" stroke-width="0.711835" stroke-linecap="round" stroke-linejoin="round"/>
<path d="M50.2829 92.4247C50.1752 91.4019 49.5427 90.654 48.8663 90.7425C47.9519 90.8672 46.983 92.5996 47.2246 97.5653C47.454 102.289 48.5561 103.99 49.5257 103.917C50.3325 103.857 51.0464 102.639 51.0464 100.499" stroke="#263B54" stroke-width="0.711835" stroke-linecap="round" stroke-linejoin="round"/>
<path d="M47.5512 92.6128C50.8347 92.4648 57.8212 91.6978 58.6399 91.5766C59.4587 91.4555 64.8997 87.6032 66.3644 87.3107C66.7554 87.2328 71.6531 87.3709 73.9274 87.3914C74.9898 87.4006 75.4856 88.6564 69.473 88.9496" stroke="#263B54" stroke-width="0.711835" stroke-linecap="round" stroke-linejoin="round"/>
<path d="M67.8984 88.6294C69.6209 89.0331 72.704 89.4942 75.0173 89.7733C76.0945 89.9029 75.6767 91.3478 69.123 90.7287" stroke="#263B54" stroke-width="0.711835" stroke-linecap="round" stroke-linejoin="round"/>
<path d="M67.8984 90.2982C69.5805 90.9576 71.9483 91.6326 74.1312 92.3033C75.1405 92.6135 74.508 93.8509 68.6137 92.6128" stroke="#263B54" stroke-width="0.711835" stroke-linecap="round" stroke-linejoin="round"/>
<path d="M67.7498 91.8728C68.8122 92.7879 69.7705 93.6591 71.5037 94.9545C72.3125 95.5587 71.6999 96.3796 66.6321 93.7164C65.705 93.2292 64.9762 94.3617 64.0349 95.5063C62.7961 97.0128 62.3662 98.2685 59.0961 98.9378C55.4896 99.6787 49.3665 100.862 47.6709 101.104" stroke="#263B54" stroke-width="0.711835" stroke-linecap="round" stroke-linejoin="round"/>
<path d="M60.497 90.5809C61.7856 88.9787 62.8162 87.1852 63.5518 85.2652C63.947 84.2092 65.0321 84.3098 64.1035 88.3873" stroke="#263B54" stroke-width="0.711835" stroke-linecap="round" stroke-linejoin="round"/>
<path d="M40.9061 92.088C42.8036 91.792 47.0291 90.9845 48.8862 90.7289" stroke="#263B54" stroke-width="0.711835" stroke-linecap="round" stroke-linejoin="round"/>
<path d="M49.5428 103.931C40.1631 103.931 36.9872 104.509 34.4707 101.104C31.6878 97.345 34.8184 83.96 35.9226 76.2596C36.8866 69.531 33.9253 64.9874 33.3402 65.0256C31.1446 65.1602 30.8245 62.9908 32.9096 63.4108C33.972 63.6232 33.0038 62.1054 32.1964 61.1365C33.5895 60.3851 34.8453 59.4033 35.9106 58.2326C41.331 62.6444 42.3297 66.1426 36.6507 65.7254C38.1399 66.4013 39.7525 66.763 41.3877 66.7878" stroke="#263B54" stroke-width="0.711835" stroke-linecap="round" stroke-linejoin="round"/>
<path d="M24.042 58.0406C23.3966 57.2449 22.5206 56.6687 21.5344 56.3912C20.5482 56.1137 19.5002 56.1485 18.5346 56.4909C17.569 56.8333 16.7331 57.4664 16.142 58.3031C15.5509 59.1399 15.2335 60.1393 15.2335 61.1638C15.2335 62.1883 15.5509 63.1877 16.142 64.0244C16.7331 64.8612 17.569 65.4943 18.5346 65.8367C19.5002 66.1791 20.5482 66.2139 21.5344 65.9364C22.5206 65.6588 23.3966 65.0826 24.042 64.2869C23.3423 62.2636 23.3423 60.064 24.042 58.0406Z" stroke="#263B54" stroke-width="0.711835" stroke-linecap="round" stroke-linejoin="round"/>
<path d="M43.9985 91.5633C44.965 88.0202 46.2766 84.5804 47.9145 81.2933" stroke="#263B54" stroke-width="0.711835" stroke-linecap="round" stroke-linejoin="round"/>
<path d="M35.8298 76.8007C40.9075 74.7856 44.6833 71.189 45.5141 66.7729" stroke="#263B54" stroke-width="0.711835" stroke-linecap="round" stroke-linejoin="round"/>
<path d="M46.8513 68.1208C50.5521 67.4345 52.2881 66.7347 60.7796 70.7449C63.5518 69.5069 71.3973 66.2233 72.9853 65.685" stroke="#263B54" stroke-width="0.711835" stroke-linecap="round" stroke-linejoin="round"/>
<path d="M66.6066 73.6936C81.1263 55.486 83.6839 51.7987 86.1869 50.3205C88.3939 49.0152 89.8338 48.5576 117.179 40.9139" stroke="#263B54" stroke-width="0.711835" stroke-linecap="round" stroke-linejoin="round"/>
<path d="M118.821 43.2377C118.363 41.6086 117.678 40.7906 117.165 40.923C116.426 41.1143 115.951 43.2115 116.694 47.8266C117.474 52.6585 118.673 54.5552 119.494 54.4844C120.153 54.4306 120.584 53.2095 120.301 51.0932" stroke="#263B54" stroke-width="0.711835" stroke-linecap="round" stroke-linejoin="round"/>
<path d="M72.0837 59.7405C71.8712 61.8653 71.2763 65.6482 71.0879 66.4018" stroke="#263B54" stroke-width="0.711835" stroke-linecap="round" stroke-linejoin="round"/>
<path d="M46.165 85.1711C48.8834 84.6753 53.9029 83.7446 58.0478 82.5604C59.2254 84.4822 60.7122 86.1964 62.4483 87.6338" stroke="#263B54" stroke-width="0.711835" stroke-linecap="round" stroke-linejoin="round"/>
<path d="M60.7796 70.7314C61.762 73.544 61.0629 79.4921 58.0343 82.5596" stroke="#263B54" stroke-width="0.711835" stroke-linecap="round" stroke-linejoin="round"/>
<path d="M73.8735 89.639C83.1186 88.6297 89.6992 70.745 93.7229 62.1728C102.632 59.5083 113.747 56.0497 119.504 54.4887" stroke="#263B54" stroke-width="0.711835" stroke-linecap="round" stroke-linejoin="round"/>
<path d="M117.542 51.5548C120.305 50.9744 123.132 50.7483 125.952 50.882C127.904 43.9649 128.738 35.6215 128.994 30.2655C122.13 34.9082 122.669 42.6327 116.357 44.4629" stroke="#263B54" stroke-width="0.711835" stroke-linecap="round" stroke-linejoin="round"/>
<path d="M121.108 80.663C122.077 78.9674 121.808 77.5685 121.364 77.3525C120.704 77.0309 118.673 78.1316 116.318 81.9953C113.852 86.0445 113.851 88.1912 114.487 88.653C115.009 89.0341 116.223 88.5454 117.354 86.8229" stroke="#263B54" stroke-width="0.711835" stroke-linecap="round" stroke-linejoin="round"/>
<path d="M114.716 85.1981C118.202 86.8937 118.417 88.199 120.395 89.6255C125.253 89.316 134.956 86.4765 139.356 84.4551C133.435 81.656 124.688 83.3112 118.269 79.274" stroke="#263B54" stroke-width="0.711835" stroke-linecap="round" stroke-linejoin="round"/>
<path d="M121.351 77.3525C116.883 73.7998 101.124 62.6204 98.0966 60.8539" stroke="#263B54" stroke-width="0.711835" stroke-linecap="round" stroke-linejoin="round"/>
<path d="M114.487 88.6564C111.567 86.907 95.1627 76.2219 92.3233 74.3648C89.6587 76.1412 87.0211 77.9444 85.7158 78.8192" stroke="#263B54" stroke-width="0.711835" stroke-linecap="round" stroke-linejoin="round"/>
<path d="M90.1702 75.805C90.87 73.598 91.9062 67.4615 92.3659 65.1873" stroke="#263B54" stroke-width="0.711835" stroke-linecap="round" stroke-linejoin="round"/>
<path d="M47.5512 82.0357C49.292 82.8066 51.1039 83.406 52.961 83.8255" stroke="#263B54" stroke-width="0.711835" stroke-linecap="round" stroke-linejoin="round"/>
<path d="M54.6686 117.944L52.1507 118.387L52.9588 122.973L55.4767 122.529L54.6693 117.944H54.6686Z" stroke="#263B54" stroke-width="0.711835"/>
<path d="M58.2383 117.322L55.7197 117.767L56.53 122.353L59.0486 121.909L58.2383 117.322Z" stroke="#263B54" stroke-width="0.711835"/>
<path d="M61.694 116.706L59.1754 117.15L59.9835 121.735L62.5014 121.292L61.694 116.706Z" stroke="#263B54" stroke-width="0.711835"/>
<path d="M65.2057 116.087L62.6877 116.531L63.4959 121.117L66.0138 120.673L65.2064 116.087H65.2057Z" stroke="#263B54" stroke-width="0.711835"/>
<path d="M68.7774 115.461L66.2588 115.906L67.069 120.493L69.5877 120.047L68.7774 115.461Z" stroke="#263B54" stroke-width="0.711835"/>
<path d="M72.231 114.849L69.713 115.293L70.5212 119.878L73.0391 119.435L72.231 114.849Z" stroke="#263B54" stroke-width="0.711835"/>
<path d="M75.7434 114.23L73.2255 114.675L74.0337 119.26L76.5516 118.816L75.7434 114.23Z" stroke="#263B54" stroke-width="0.711835"/>
<path d="M79.2557 113.611L76.7378 114.055L77.546 118.641L80.0646 118.196L79.2557 113.611Z" stroke="#263B54" stroke-width="0.711835"/>
<path d="M82.7681 112.993L80.2502 113.436L81.0583 118.022L83.5769 117.578L82.7681 112.993Z" stroke="#263B54" stroke-width="0.711835"/>
<path d="M86.2804 112.373L83.7625 112.817L84.5707 117.402L87.0893 116.958L86.2804 112.373Z" stroke="#263B54" stroke-width="0.711835"/>
<path d="M89.7927 111.754L87.2748 112.198L88.083 116.784L90.6016 116.34L89.7927 111.754Z" stroke="#263B54" stroke-width="0.711835"/>
</svg>
