<svg width="144" height="143" viewBox="0 0 144 143" fill="none" xmlns="http://www.w3.org/2000/svg">
<path d="M45.5395 59.085V43.7331H35.6973V22.4884H22.0878V43.7331H12.2463V133.714" stroke="#120071" stroke-width="0.711835" stroke-linecap="round" stroke-linejoin="round"/>
<path d="M15.4222 128.776V51.1196C15.435 50.2342 15.7958 49.3894 16.4264 48.7678C17.0571 48.1463 17.907 47.7978 18.7925 47.7978C19.678 47.7978 20.5279 48.1463 21.1586 48.7678C21.7893 49.3894 22.15 50.2342 22.1628 51.1196V128.776" stroke="#120071" stroke-width="0.711835" stroke-linecap="round" stroke-linejoin="round"/>
<path d="M25.5222 83.7966V51.1196C25.535 50.2342 25.8958 49.3894 26.5265 48.7678C27.1571 48.1463 28.0071 47.7978 28.8925 47.7978C29.778 47.7978 30.628 48.1463 31.2587 48.7678C31.8893 49.3894 32.2501 50.2342 32.2629 51.1196V69.9066" stroke="#120071" stroke-width="0.711835" stroke-linecap="round" stroke-linejoin="round"/>
<path d="M35.6223 59.4547V51.1197C35.6223 50.2257 35.9774 49.3684 36.6095 48.7363C37.2417 48.1041 38.099 47.749 38.9929 47.749C39.8869 47.749 40.7443 48.1041 41.3764 48.7363C42.0085 49.3684 42.3636 50.2257 42.3636 51.1197V69.9067" stroke="#120071" stroke-width="0.711835" stroke-linecap="round" stroke-linejoin="round"/>
<path d="M35.6223 69.9067V65.8546" stroke="#120071" stroke-width="0.711835" stroke-linecap="round" stroke-linejoin="round"/>
<path d="M24.5016 43.8003V26.7918C24.4972 26.586 24.5339 26.3814 24.6096 26.19C24.6854 25.9986 24.7985 25.8243 24.9425 25.6772C25.0865 25.5301 25.2584 25.4132 25.4481 25.3334C25.6379 25.2536 25.8416 25.2125 26.0474 25.2125C26.2533 25.2125 26.457 25.2536 26.6468 25.3334C26.8365 25.4132 27.0084 25.5301 27.1524 25.6772C27.2963 25.8243 27.4095 25.9986 27.4852 26.19C27.561 26.3814 27.5976 26.586 27.5933 26.7918V43.8003" stroke="#120071" stroke-width="0.711835" stroke-linecap="round" stroke-linejoin="round"/>
<path d="M30.017 43.8003V26.7918C30.0126 26.586 30.0493 26.3814 30.125 26.19C30.2007 25.9986 30.3139 25.8243 30.4578 25.6772C30.6018 25.5301 30.7737 25.4132 30.9634 25.3334C31.1532 25.2536 31.3569 25.2125 31.5628 25.2125C31.7686 25.2125 31.9724 25.2536 32.1621 25.3334C32.3518 25.4132 32.5237 25.5301 32.6677 25.6772C32.8117 25.8243 32.9248 25.9986 33.0006 26.19C33.0763 26.3814 33.113 26.586 33.1086 26.7918V43.8003" stroke="#120071" stroke-width="0.711835" stroke-linecap="round" stroke-linejoin="round"/>
<path d="M33.9146 22.4888H23.8713V20.6806C23.8713 19.3488 24.4004 18.0715 25.3421 17.1297C26.2838 16.188 27.5611 15.6589 28.8929 15.6589C30.2248 15.6589 31.502 16.188 32.4438 17.1297C33.3855 18.0715 33.9146 19.3488 33.9146 20.6806V22.4888Z" stroke="#120071" stroke-width="0.711835" stroke-linecap="round" stroke-linejoin="round"/>
<path d="M106.839 65.8225V51.2865H135.334V133.862" stroke="#120071" stroke-width="0.711835" stroke-linecap="round" stroke-linejoin="round"/>
<path d="M131.044 43.7577H111.128V51.2867H131.044V43.7577Z" stroke="#120071" stroke-width="0.711835" stroke-linecap="round" stroke-linejoin="round"/>
<path d="M128.627 36.228H113.545V43.7569H128.627V36.228Z" stroke="#120071" stroke-width="0.711835" stroke-linecap="round" stroke-linejoin="round"/>
<path d="M125.274 28.699H116.898V36.228H125.274V28.699Z" stroke="#120071" stroke-width="0.711835" stroke-linecap="round" stroke-linejoin="round"/>
<path d="M124.388 24.1873H117.784V28.699H124.388V24.1873Z" stroke="#120071" stroke-width="0.711835" stroke-linecap="round" stroke-linejoin="round"/>
<path d="M121.086 19.2674V24.1871" stroke="#120071" stroke-width="0.711835" stroke-linecap="round" stroke-linejoin="round"/>
<path d="M111.128 57.2106H123.37" stroke="#120071" stroke-width="0.711835" stroke-linecap="round" stroke-linejoin="round"/>
<path d="M126.653 57.2106H131.044" stroke="#120071" stroke-width="0.711835" stroke-linecap="round" stroke-linejoin="round"/>
<path d="M113.937 47.522H123.103" stroke="#120071" stroke-width="0.711835" stroke-linecap="round" stroke-linejoin="round"/>
<path d="M125.56 47.522H128.848" stroke="#120071" stroke-width="0.711835" stroke-linecap="round" stroke-linejoin="round"/>
<path d="M111.128 63.1339H123.37" stroke="#120071" stroke-width="0.711835" stroke-linecap="round" stroke-linejoin="round"/>
<path d="M126.653 63.1339H131.044" stroke="#120071" stroke-width="0.711835" stroke-linecap="round" stroke-linejoin="round"/>
<path d="M111.128 69.058H123.37" stroke="#120071" stroke-width="0.711835" stroke-linecap="round" stroke-linejoin="round"/>
<path d="M126.653 69.058H131.044" stroke="#120071" stroke-width="0.711835" stroke-linecap="round" stroke-linejoin="round"/>
<path d="M111.128 74.9819H123.37" stroke="#120071" stroke-width="0.711835" stroke-linecap="round" stroke-linejoin="round"/>
<path d="M126.653 74.9819H131.044" stroke="#120071" stroke-width="0.711835" stroke-linecap="round" stroke-linejoin="round"/>
<path d="M126.653 80.9057H131.044" stroke="#120071" stroke-width="0.711835" stroke-linecap="round" stroke-linejoin="round"/>
<path d="M126.653 86.8293H131.044" stroke="#120071" stroke-width="0.711835" stroke-linecap="round" stroke-linejoin="round"/>
<path d="M126.653 92.7533H131.044" stroke="#120071" stroke-width="0.711835" stroke-linecap="round" stroke-linejoin="round"/>
<path d="M126.653 98.6772H131.044" stroke="#120071" stroke-width="0.711835" stroke-linecap="round" stroke-linejoin="round"/>
<path d="M126.653 104.601H131.044" stroke="#120071" stroke-width="0.711835" stroke-linecap="round" stroke-linejoin="round"/>
<path d="M126.653 110.525H131.044" stroke="#120071" stroke-width="0.711835" stroke-linecap="round" stroke-linejoin="round"/>
<path d="M126.653 116.449H131.044" stroke="#120071" stroke-width="0.711835" stroke-linecap="round" stroke-linejoin="round"/>
<path d="M126.653 122.372H131.044" stroke="#120071" stroke-width="0.711835" stroke-linecap="round" stroke-linejoin="round"/>
<path d="M126.653 128.296H131.044" stroke="#120071" stroke-width="0.711835" stroke-linecap="round" stroke-linejoin="round"/>
<path d="M116.898 39.0986V41.5499" stroke="#120071" stroke-width="0.711835" stroke-linecap="round" stroke-linejoin="round"/>
<path d="M121.086 39.0986V41.5499" stroke="#120071" stroke-width="0.711835" stroke-linecap="round" stroke-linejoin="round"/>
<path d="M125.274 39.0986V41.5499" stroke="#120071" stroke-width="0.711835" stroke-linecap="round" stroke-linejoin="round"/>
<path d="M119.631 31.2381V33.6894" stroke="#120071" stroke-width="0.711835" stroke-linecap="round" stroke-linejoin="round"/>
<path d="M122.542 31.2381V33.6894" stroke="#120071" stroke-width="0.711835" stroke-linecap="round" stroke-linejoin="round"/>
<path d="M69.4459 26.4435H66.4435" stroke="#120071" stroke-width="0.711835" stroke-linecap="round" stroke-linejoin="round"/>
<path d="M67.9451 27.9444V24.9421" stroke="#120071" stroke-width="0.711835" stroke-linecap="round" stroke-linejoin="round"/>
<path d="M55.1168 18.204H52.1144" stroke="#120071" stroke-width="0.711835" stroke-linecap="round" stroke-linejoin="round"/>
<path d="M53.6153 19.705V16.7026" stroke="#120071" stroke-width="0.711835" stroke-linecap="round" stroke-linejoin="round"/>
<path d="M115.046 9.61614H112.044" stroke="#120071" stroke-width="0.711835" stroke-linecap="round" stroke-linejoin="round"/>
<path d="M113.545 11.1169V8.11454" stroke="#120071" stroke-width="0.711835" stroke-linecap="round" stroke-linejoin="round"/>
<path d="M139.216 36.7807H136.214" stroke="#120071" stroke-width="0.711835" stroke-linecap="round" stroke-linejoin="round"/>
<path d="M137.715 38.2814V35.279" stroke="#120071" stroke-width="0.711835" stroke-linecap="round" stroke-linejoin="round"/>
<path d="M7.64606 32.9196H4.64368" stroke="#120071" stroke-width="0.711835" stroke-linecap="round" stroke-linejoin="round"/>
<path d="M6.1452 34.4208V31.4184" stroke="#120071" stroke-width="0.711835" stroke-linecap="round" stroke-linejoin="round"/>
<path d="M101.59 62.4641V134.326H124.264V76.9738L101.59 62.4641ZM119.378 128.926H105.965V122.389H119.378V128.926ZM119.378 117.572H105.965V111.035H119.378V117.572ZM119.378 106.218H105.965V99.6811H119.378V106.218ZM119.378 94.8641H105.965V88.3274H119.378V94.8641ZM119.378 83.5105H105.965V76.9738H119.378V83.5105Z" fill="#73C585"/>
<path d="M124.264 134.322V76.9738L101.59 62.4641V134.322" stroke="#120071" stroke-width="0.711835" stroke-linecap="round" stroke-linejoin="round"/>
<path d="M101.59 134.322V62.4641L95.6146 58.6408V134.322" stroke="#120071" stroke-width="0.711835" stroke-linecap="round" stroke-linejoin="round"/>
<path d="M119.378 76.974H105.965V83.5107H119.378V76.974Z" stroke="#120071" stroke-width="0.711835" stroke-linecap="round" stroke-linejoin="round"/>
<path d="M119.378 88.3275H105.965V94.8642H119.378V88.3275Z" stroke="#120071" stroke-width="0.711835" stroke-linecap="round" stroke-linejoin="round"/>
<path d="M119.378 99.6812H105.965V106.218H119.378V99.6812Z" stroke="#120071" stroke-width="0.711835" stroke-linecap="round" stroke-linejoin="round"/>
<path d="M119.378 111.036H105.965V117.572H119.378V111.036Z" stroke="#120071" stroke-width="0.711835" stroke-linecap="round" stroke-linejoin="round"/>
<path d="M119.378 122.389H105.965V128.926H119.378V122.389Z" stroke="#120071" stroke-width="0.711835" stroke-linecap="round" stroke-linejoin="round"/>
<path d="M95.6146 131.156H101.59" stroke="#120071" stroke-width="0.711835" stroke-linecap="round" stroke-linejoin="round"/>
<path d="M95.6146 126.879H101.59" stroke="#120071" stroke-width="0.711835" stroke-linecap="round" stroke-linejoin="round"/>
<path d="M95.6146 122.602H101.59" stroke="#120071" stroke-width="0.711835" stroke-linecap="round" stroke-linejoin="round"/>
<path d="M95.6146 118.325H101.59" stroke="#120071" stroke-width="0.711835" stroke-linecap="round" stroke-linejoin="round"/>
<path d="M95.6146 114.048H101.59" stroke="#120071" stroke-width="0.711835" stroke-linecap="round" stroke-linejoin="round"/>
<path d="M95.6146 109.772H101.59" stroke="#120071" stroke-width="0.711835" stroke-linecap="round" stroke-linejoin="round"/>
<path d="M95.6146 105.495H101.59" stroke="#120071" stroke-width="0.711835" stroke-linecap="round" stroke-linejoin="round"/>
<path d="M95.6146 101.218H101.59" stroke="#120071" stroke-width="0.711835" stroke-linecap="round" stroke-linejoin="round"/>
<path d="M95.6146 96.9408H101.59" stroke="#120071" stroke-width="0.711835" stroke-linecap="round" stroke-linejoin="round"/>
<path d="M95.6146 92.6642H101.59" stroke="#120071" stroke-width="0.711835" stroke-linecap="round" stroke-linejoin="round"/>
<path d="M95.6146 88.3869H101.59" stroke="#120071" stroke-width="0.711835" stroke-linecap="round" stroke-linejoin="round"/>
<path d="M95.6146 84.1103H101.59" stroke="#120071" stroke-width="0.711835" stroke-linecap="round" stroke-linejoin="round"/>
<path d="M95.6146 79.833H101.59" stroke="#120071" stroke-width="0.711835" stroke-linecap="round" stroke-linejoin="round"/>
<path d="M95.6146 75.5566H101.59" stroke="#120071" stroke-width="0.711835" stroke-linecap="round" stroke-linejoin="round"/>
<path d="M95.6146 71.28H101.59" stroke="#120071" stroke-width="0.711835" stroke-linecap="round" stroke-linejoin="round"/>
<path d="M95.6146 67.0029H101.59" stroke="#120071" stroke-width="0.711835" stroke-linecap="round" stroke-linejoin="round"/>
<path d="M95.6146 62.7261H101.59" stroke="#120071" stroke-width="0.711835" stroke-linecap="round" stroke-linejoin="round"/>
<path d="M63.342 48.0728V82.1011L77.7434 48.0728H63.342Z" stroke="#120071" stroke-width="0.711835" stroke-linecap="round" stroke-linejoin="round"/>
<path d="M92.1441 48.0728H77.7435L92.1441 82.1011V48.0728Z" stroke="#120071" stroke-width="0.711835" stroke-linecap="round" stroke-linejoin="round"/>
<path d="M82.3026 58.8446H73.185L68.3765 70.2054H87.1104L82.3026 58.8446Z" fill="#263B54" fill-opacity="0.75"/>
<path d="M92.1441 82.101L87.41 70.9138H68.0769L63.342 82.101L63.3428 82.9113H92.1441V82.101Z" fill="#263B54" fill-opacity="0.75"/>
<path d="M92.1441 97.0815H66.3253V109.835H92.1441V97.0815Z" fill="#263B54" fill-opacity="0.75"/>
<path d="M82.0022 58.1366L77.7434 48.0728L73.4845 58.1366H82.0022Z" fill="#263B54" fill-opacity="0.75"/>
<path d="M92.1441 124.007H66.3253V134.173H92.1441V124.007Z" fill="#263B54" fill-opacity="0.75"/>
<path d="M92.1441 110.544H66.3253V123.298H92.1441V110.544Z" fill="#263B54" fill-opacity="0.75"/>
<path d="M66.3253 83.7968V96.3736H92.1441V83.6197H63.3428L63.342 83.7968H66.3253Z" fill="#263B54" fill-opacity="0.75"/>
<path d="M66.3253 134.172H92.1441V82.1011L77.7434 48.0728L63.342 82.1011V83.7968" stroke="#120071" stroke-width="0.711835" stroke-linecap="round" stroke-linejoin="round"/>
<path d="M86.1776 67.7789L92.1441 72.6809" stroke="#120071" stroke-width="0.711835" stroke-linecap="round" stroke-linejoin="round"/>
<path d="M82.9393 60.3484L92.1441 67.9106" stroke="#120071" stroke-width="0.711835" stroke-linecap="round" stroke-linejoin="round"/>
<path d="M79.9383 53.1141L92.144 63.1412" stroke="#120071" stroke-width="0.711835" stroke-linecap="round" stroke-linejoin="round"/>
<path d="M79.6055 48.0705L92.1441 58.3717" stroke="#120071" stroke-width="0.711835" stroke-linecap="round" stroke-linejoin="round"/>
<path d="M69.3086 67.7789L63.342 72.6809" stroke="#120071" stroke-width="0.711835" stroke-linecap="round" stroke-linejoin="round"/>
<path d="M72.5475 60.3484L63.342 67.9106" stroke="#120071" stroke-width="0.711835" stroke-linecap="round" stroke-linejoin="round"/>
<path d="M75.5478 53.1141L63.342 63.1412" stroke="#120071" stroke-width="0.711835" stroke-linecap="round" stroke-linejoin="round"/>
<path d="M75.8806 48.0705L63.342 58.3717" stroke="#120071" stroke-width="0.711835" stroke-linecap="round" stroke-linejoin="round"/>
<path d="M87.8873 44.1919H67.5987V48.0732H87.8873V44.1919Z" fill="#73C585"/>
<path d="M87.8873 44.1919H67.5987V48.0732H87.8873V44.1919Z" stroke="#120071" stroke-width="0.711835" stroke-linecap="round" stroke-linejoin="round"/>
<path d="M81.0702 44.1921H74.1404V38.2263C74.1404 37.3074 74.5052 36.4261 75.1554 35.7762C75.8049 35.1264 76.6867 34.7614 77.6053 34.7614C78.524 34.7614 79.4058 35.1264 80.0553 35.7762C80.7055 36.4261 81.0702 37.3074 81.0702 38.2263V44.1921Z" fill="#73C585"/>
<path d="M81.0702 44.1921H74.1404V38.2263C74.1404 37.3074 74.5052 36.4261 75.1554 35.7762C75.8049 35.1264 76.6867 34.7614 77.6053 34.7614C78.524 34.7614 79.4058 35.1264 80.0553 35.7762C80.7055 36.4261 81.0702 37.3074 81.0702 38.2263V44.1921Z" stroke="#120071" stroke-width="0.711835" stroke-linecap="round" stroke-linejoin="round"/>
<path d="M77.6053 28.1226V34.7612" stroke="#120071" stroke-width="0.711835" stroke-linecap="round" stroke-linejoin="round"/>
<path d="M24.5016 134.326H38.4426V83.7967H24.5016V134.326ZM26.4678 88.3708H36.0677V93.3995H26.4678V88.3708ZM26.4678 98.6832H36.0677V103.712H26.4678V98.6832ZM26.4678 108.995H36.0677V114.024H26.4678V108.995ZM26.4678 119.308H36.0677V124.336H26.4678V119.308Z" fill="#73C585"/>
<path d="M24.5016 134.322V83.7967H38.4426V134.322" stroke="#120071" stroke-width="0.711835" stroke-linecap="round" stroke-linejoin="round"/>
<path d="M38.4426 134.326H52.3815V83.7967H38.4426V134.326ZM40.6128 88.3708H50.2135V93.3995H40.6128V88.3708ZM40.6128 98.6832H50.2135V103.712H40.6128V98.6832ZM40.6128 108.995H50.2135V114.024H40.6128V108.995ZM40.6128 119.308H50.2135V124.336H40.6128V119.308Z" fill="#73C585"/>
<path d="M38.4426 134.322V83.7967H52.3843V134.322" stroke="#120071" stroke-width="0.711835" stroke-linecap="round" stroke-linejoin="round"/>
<path d="M52.3815 83.7967V134.326H66.3253V83.7967H52.3815ZM64.4562 124.334H54.8604V119.305H64.459L64.4562 124.334ZM64.4562 114.022H54.8604V108.993H64.459L64.4562 114.022ZM64.4562 103.71H54.8604V98.6811H64.459L64.4562 103.71ZM64.4562 93.3974H54.8604V88.3686H64.459L64.4562 93.3974Z" fill="#73C585"/>
<path d="M52.3842 134.322V83.7967H66.3252V134.322" stroke="#120071" stroke-width="0.711835" stroke-linecap="round" stroke-linejoin="round"/>
<path d="M60.5173 69.9067H30.3094V83.7967H60.5173V69.9067Z" stroke="#120071" stroke-width="0.711835" stroke-linecap="round" stroke-linejoin="round"/>
<path d="M36.0684 88.3674H26.4678V93.3976H36.0684V88.3674Z" stroke="#120071" stroke-width="0.711835" stroke-linecap="round" stroke-linejoin="round"/>
<path d="M36.0684 98.6797H26.4678V103.71H36.0684V98.6797Z" stroke="#120071" stroke-width="0.711835" stroke-linecap="round" stroke-linejoin="round"/>
<path d="M36.0684 108.991H26.4678V114.022H36.0684V108.991Z" stroke="#120071" stroke-width="0.711835" stroke-linecap="round" stroke-linejoin="round"/>
<path d="M36.0684 119.304H26.4678V124.334H36.0684V119.304Z" stroke="#120071" stroke-width="0.711835" stroke-linecap="round" stroke-linejoin="round"/>
<path d="M50.2133 88.3674H40.6127V93.3976H50.2133V88.3674Z" stroke="#120071" stroke-width="0.711835" stroke-linecap="round" stroke-linejoin="round"/>
<path d="M50.2133 98.6797H40.6127V103.71H50.2133V98.6797Z" stroke="#120071" stroke-width="0.711835" stroke-linecap="round" stroke-linejoin="round"/>
<path d="M50.2133 108.991H40.6127V114.022H50.2133V108.991Z" stroke="#120071" stroke-width="0.711835" stroke-linecap="round" stroke-linejoin="round"/>
<path d="M50.2133 119.304H40.6127V124.334H50.2133V119.304Z" stroke="#120071" stroke-width="0.711835" stroke-linecap="round" stroke-linejoin="round"/>
<path d="M64.459 88.3674H54.8583V93.3976H64.459V88.3674Z" stroke="#120071" stroke-width="0.711835" stroke-linecap="round" stroke-linejoin="round"/>
<path d="M64.459 98.6797H54.8583V103.71H64.459V98.6797Z" stroke="#120071" stroke-width="0.711835" stroke-linecap="round" stroke-linejoin="round"/>
<path d="M64.459 108.991H54.8583V114.022H64.459V108.991Z" stroke="#120071" stroke-width="0.711835" stroke-linecap="round" stroke-linejoin="round"/>
<path d="M64.459 119.304H54.8583V124.334H64.459V119.304Z" stroke="#120071" stroke-width="0.711835" stroke-linecap="round" stroke-linejoin="round"/>
<path d="M43.2433 73.9964H33.6426V79.0265H43.2433V73.9964Z" stroke="#120071" stroke-width="0.711835" stroke-linecap="round" stroke-linejoin="round"/>
<path d="M57.1843 73.9964H47.5836V79.0265H57.1843V73.9964Z" stroke="#120071" stroke-width="0.711835" stroke-linecap="round" stroke-linejoin="round"/>
<path d="M54.5339 66.2293V69.9066" stroke="#120071" stroke-width="0.711835" stroke-linecap="round" stroke-linejoin="round"/>
<path d="M45.7286 66.2293V69.9066" stroke="#120071" stroke-width="0.711835" stroke-linecap="round" stroke-linejoin="round"/>
<path d="M37.2173 66.2293V69.9066" stroke="#120071" stroke-width="0.711835" stroke-linecap="round" stroke-linejoin="round"/>
<path d="M37.2173 59.0798C36.294 59.0801 35.4066 59.4376 34.741 60.0776C34.0754 60.7175 33.6832 61.5901 33.6466 62.5127C33.61 63.4353 33.9318 64.3363 34.5446 65.0269C35.1574 65.7176 36.0136 66.1444 36.934 66.2178V65.0846L35.1704 63.0447C35.1212 62.9879 35.0966 62.9138 35.102 62.8389C35.1074 62.7639 35.1423 62.6941 35.1991 62.6449C35.256 62.5957 35.33 62.571 35.405 62.5764C35.4799 62.5818 35.5497 62.6168 35.5989 62.6736L36.9375 64.2191V62.8606C36.9375 62.7854 36.9674 62.7134 37.0206 62.6603C37.0737 62.6071 37.1457 62.5773 37.2209 62.5773C37.296 62.5773 37.3681 62.6071 37.4212 62.6603C37.4743 62.7134 37.5042 62.7854 37.5042 62.8606V66.2178C38.4246 66.1444 39.2809 65.7176 39.8937 65.0269C40.5065 64.3363 40.8282 63.4353 40.7916 62.5127C40.755 61.5901 40.3628 60.7175 39.6972 60.0776C39.0316 59.4376 38.1442 59.0801 37.2209 59.0798H37.2173Z" fill="#263B54" fill-opacity="0.75"/>
<path d="M40.7919 62.6545C40.7919 63.3615 40.5823 64.0526 40.1895 64.6405C39.7967 65.2283 39.2384 65.6865 38.5852 65.957C37.932 66.2276 37.2133 66.2984 36.5199 66.1604C35.8265 66.0225 35.1895 65.6821 34.6896 65.1822C34.1897 64.6822 33.8492 64.0452 33.7113 63.3518C33.5733 62.6584 33.6441 61.9397 33.9147 61.2865C34.1853 60.6333 34.6434 60.075 35.2312 59.6823C35.8191 59.2895 36.5103 59.0798 37.2173 59.0798C38.1653 59.0798 39.0746 59.4564 39.7449 60.1268C40.4153 60.7972 40.7919 61.7064 40.7919 62.6545Z" stroke="#120071" stroke-width="0.711835" stroke-linecap="round" stroke-linejoin="round"/>
<path d="M45.7287 59.0798C44.8054 59.0801 43.918 59.4376 43.2523 60.0776C42.5867 60.7175 42.1945 61.5901 42.1579 62.5127C42.1213 63.4353 42.4431 64.3363 43.0559 65.0269C43.6687 65.7176 44.525 66.1444 45.4454 66.2178V62.8606C45.4454 62.7854 45.4752 62.7134 45.5284 62.6603C45.5815 62.6071 45.6535 62.5773 45.7287 62.5773C45.8038 62.5773 45.8759 62.6071 45.929 62.6603C45.9822 62.7134 46.012 62.7854 46.012 62.8606V66.2178C46.9324 66.1444 47.7886 65.7176 48.4014 65.0269C49.0142 64.3363 49.3361 63.4353 49.2995 62.5127C49.2628 61.5901 48.8707 60.7175 48.205 60.0776C47.5394 59.4376 46.652 59.0801 45.7287 59.0798Z" fill="#263B54" fill-opacity="0.75"/>
<path d="M49.3033 62.6545C49.3033 63.3615 49.0937 64.0526 48.7009 64.6405C48.308 65.2283 47.7498 65.6865 47.0966 65.957C46.4434 66.2276 45.7247 66.2984 45.0312 66.1604C44.3378 66.0225 43.7008 65.6821 43.2009 65.1822C42.701 64.6822 42.3606 64.0452 42.2226 63.3518C42.0847 62.6584 42.1555 61.9397 42.426 61.2865C42.6966 60.6333 43.1548 60.075 43.7426 59.6823C44.3305 59.2895 45.0216 59.0798 45.7286 59.0798C46.6767 59.0798 47.5859 59.4564 48.2563 60.1268C48.9266 60.7972 49.3033 61.7064 49.3033 62.6545Z" stroke="#120071" stroke-width="0.711835" stroke-linecap="round" stroke-linejoin="round"/>
<path d="M57.1928 60.2722C57.5 59.7946 57.6729 59.2431 57.6933 58.6756C57.7137 58.1081 57.5809 57.5456 57.3088 57.0471C57.0368 56.5487 56.6355 56.1327 56.1472 55.8429C55.6588 55.5531 55.1014 55.4001 54.5336 55.4001C53.9657 55.4001 53.4084 55.5531 52.92 55.8429C52.4316 56.1327 52.0304 56.5487 51.7583 57.0471C51.4862 57.5456 51.3534 58.1081 51.3739 58.6756C51.3943 59.2431 51.5672 59.7946 51.8744 60.2722C51.4308 60.7686 51.1344 61.3789 51.0188 62.0344C50.9031 62.69 50.9727 63.3648 51.2196 63.9831C51.4665 64.6013 51.881 65.1383 52.4165 65.5338C52.9519 65.9293 53.5871 66.1675 54.2506 66.2217V65.0885L52.4799 63.0493C52.4386 62.9921 52.4201 62.9215 52.4281 62.8513C52.4361 62.7811 52.47 62.7165 52.5232 62.6701C52.5764 62.6236 52.645 62.5987 52.7157 62.6002C52.7863 62.6017 52.8537 62.6296 52.9049 62.6782L54.2443 64.2237V59.0802C54.2443 59.005 54.2741 58.933 54.3272 58.8799C54.3803 58.8267 54.4524 58.7969 54.5276 58.7969C54.6027 58.7969 54.6747 58.8267 54.7279 58.8799C54.781 58.933 54.8109 59.005 54.8109 59.0802V66.2189C55.4743 66.1653 56.1096 65.9276 56.6454 65.5326C57.1811 65.1377 57.596 64.6011 57.8436 63.9832C58.091 63.3654 58.1612 62.6907 58.0463 62.0351C57.9313 61.3795 57.6358 60.769 57.1928 60.2722Z" fill="#263B54" fill-opacity="0.75"/>
<path d="M57.1928 60.2722C57.5 59.7946 57.6728 59.2431 57.6932 58.6756C57.7137 58.1081 57.5809 57.5456 57.3088 57.0471C57.0367 56.5487 56.6355 56.1327 56.1472 55.8429C55.6588 55.5531 55.1015 55.4001 54.5336 55.4001C53.9657 55.4001 53.4083 55.5531 52.92 55.8429C52.4316 56.1327 52.0304 56.5487 51.7583 57.0471C51.4863 57.5456 51.3535 58.1081 51.3739 58.6756C51.3943 59.2431 51.5672 59.7946 51.8743 60.2722C51.4137 60.7858 51.1117 61.4219 51.0049 62.1034C50.898 62.785 50.9908 63.483 51.272 64.113C51.5533 64.7429 52.0109 65.2779 52.5897 65.6534C53.1685 66.0289 53.8436 66.2287 54.5336 66.2287C55.2235 66.2287 55.8986 66.0289 56.4774 65.6534C57.0562 65.2779 57.5139 64.7429 57.7951 64.113C58.0764 63.483 58.1691 62.785 58.0623 62.1034C57.9554 61.4219 57.6534 60.7858 57.1928 60.2722Z" stroke="#120071" stroke-width="0.711835" stroke-linecap="round" stroke-linejoin="round"/>
<path d="M39.2826 41.7965V43.7329" stroke="#120071" stroke-width="0.711835" stroke-linecap="round" stroke-linejoin="round"/>
<path d="M42.0286 41.5169V43.7331" stroke="#120071" stroke-width="0.711835" stroke-linecap="round" stroke-linejoin="round"/>
<path d="M17.1987 41.572V43.733" stroke="#120071" stroke-width="0.711835" stroke-linecap="round" stroke-linejoin="round"/>
<path d="M17.1986 37.8216C16.7263 37.8223 16.2716 38.0012 15.9254 38.3226C15.5792 38.6439 15.367 39.084 15.3313 39.555C15.2955 40.026 15.4387 40.4931 15.7324 40.8631C16.026 41.2331 16.4485 41.4786 16.9152 41.5507V39.8041C16.9152 39.7289 16.9451 39.6569 16.9983 39.6038C17.0514 39.5506 17.1234 39.5207 17.1986 39.5207C17.2737 39.5207 17.3458 39.5506 17.3989 39.6038C17.452 39.6569 17.4819 39.7289 17.4819 39.8041V41.5507C17.9487 41.4786 18.3711 41.2331 18.6648 40.8631C18.9584 40.4931 19.1017 40.026 19.0659 39.555C19.0301 39.084 18.818 38.6439 18.4718 38.3226C18.1256 38.0012 17.6709 37.8223 17.1986 37.8216Z" fill="#263B54" fill-opacity="0.75"/>
<path d="M19.0734 39.7001C19.0733 40.0708 18.9632 40.4333 18.7571 40.7414C18.551 41.0497 18.2581 41.2898 17.9155 41.4316C17.573 41.5734 17.1961 41.6105 16.8324 41.538C16.4688 41.4656 16.1348 41.287 15.8726 41.0248C15.6105 40.7625 15.432 40.4285 15.3598 40.0648C15.2875 39.7012 15.3247 39.3242 15.4666 38.9817C15.6085 38.6392 15.8488 38.3464 16.1571 38.1404C16.4654 37.9345 16.8278 37.8245 17.1986 37.8245C17.6959 37.8248 18.1728 38.0224 18.5244 38.3741C18.8759 38.7258 19.0734 39.2028 19.0734 39.7001Z" stroke="#120071" stroke-width="0.711835" stroke-linecap="round" stroke-linejoin="round"/>
<path d="M40.515 39.0372C40.6572 38.8159 40.7373 38.5605 40.7467 38.2975C40.7561 38.0347 40.6946 37.7741 40.5686 37.5432C40.4425 37.3123 40.2566 37.1197 40.0304 36.9855C39.8042 36.8512 39.546 36.7803 39.283 36.7803C39.0199 36.7803 38.7617 36.8512 38.5355 36.9855C38.3092 37.1197 38.1234 37.3123 37.9973 37.5432C37.8713 37.7741 37.8098 38.0347 37.8192 38.2975C37.8286 38.5605 37.9086 38.8159 38.0509 39.0372C37.8545 39.2576 37.7205 39.5264 37.6627 39.8159C37.6049 40.1053 37.6253 40.4049 37.722 40.6839C37.8186 40.9628 37.988 41.2109 38.2125 41.4025C38.4371 41.5941 38.7086 41.7223 38.9993 41.774V39.9686C38.9993 39.8934 39.0291 39.8214 39.0822 39.7683C39.1354 39.7151 39.2075 39.6853 39.2826 39.6853C39.3577 39.6853 39.4298 39.7151 39.4829 39.7683C39.536 39.8214 39.5659 39.8934 39.5659 39.9686V41.774C39.8566 41.7225 40.1283 41.5943 40.3529 41.4027C40.5775 41.2111 40.7469 40.9631 40.8437 40.6842C40.9404 40.4052 40.9609 40.1055 40.9032 39.816C40.8454 39.5265 40.7114 39.2576 40.515 39.0372Z" fill="#263B54" fill-opacity="0.75"/>
<path d="M40.515 39.0372C40.6572 38.8159 40.7373 38.5605 40.7467 38.2975C40.7561 38.0347 40.6946 37.7741 40.5686 37.5432C40.4425 37.3123 40.2566 37.1197 40.0304 36.9855C39.8042 36.8512 39.546 36.7803 39.2829 36.7803C39.0199 36.7803 38.7617 36.8512 38.5355 36.9855C38.3092 37.1197 38.1234 37.3123 37.9973 37.5432C37.8712 37.7741 37.8098 38.0347 37.8192 38.2975C37.8286 38.5605 37.9086 38.8159 38.0509 39.0372C37.8376 39.2752 37.6978 39.5698 37.6483 39.8854C37.5989 40.2012 37.6419 40.5244 37.7722 40.8162C37.9025 41.108 38.1145 41.3557 38.3826 41.5296C38.6507 41.7035 38.9634 41.7961 39.2829 41.7961C39.6025 41.7961 39.9152 41.7035 40.1833 41.5296C40.4513 41.3557 40.6633 41.108 40.7937 40.8162C40.924 40.5244 40.967 40.2012 40.9175 39.8854C40.8681 39.5698 40.7283 39.2752 40.515 39.0372Z" stroke="#120071" stroke-width="0.711835" stroke-linecap="round" stroke-linejoin="round"/>
<path d="M43.4636 38.3039C43.6292 38.0462 43.7224 37.7488 43.7334 37.4426C43.7444 37.1366 43.6727 36.8332 43.526 36.5643C43.3792 36.2955 43.1627 36.0711 42.8993 35.9148C42.6359 35.7585 42.3353 35.6761 42.029 35.6761C41.7227 35.6761 41.422 35.7585 41.1586 35.9148C40.8952 36.0711 40.6788 36.2955 40.532 36.5643C40.3852 36.8332 40.3136 37.1366 40.3246 37.4426C40.3355 37.7488 40.4287 38.0462 40.5943 38.3039C40.3632 38.5635 40.2063 38.8806 40.1404 39.2218C40.0745 39.5631 40.1019 39.9159 40.2198 40.2428C40.3377 40.5698 40.5416 40.8589 40.8101 41.0796C41.0786 41.3003 41.4017 41.4445 41.7453 41.4968V39.3883C41.7453 39.3131 41.7752 39.2411 41.8283 39.188C41.8814 39.1348 41.9534 39.105 42.0286 39.105C42.1037 39.105 42.1758 39.1348 42.229 39.188C42.2821 39.2411 42.3119 39.3131 42.3119 39.3883V41.4968C42.6557 41.4447 42.979 41.3008 43.2478 41.0802C43.5165 40.8596 43.7207 40.5705 43.8387 40.2434C43.9567 39.9163 43.9841 39.5634 43.9181 39.222C43.8521 38.8806 43.695 38.5634 43.4636 38.3039Z" fill="#263B54" fill-opacity="0.75"/>
<path d="M43.4636 38.3039C43.6291 38.0462 43.7224 37.7488 43.7333 37.4426C43.7443 37.1366 43.6727 36.8332 43.5259 36.5643C43.3791 36.2955 43.1627 36.0711 42.8993 35.9148C42.6359 35.7585 42.3352 35.6761 42.0289 35.6761C41.7226 35.6761 41.422 35.7585 41.1586 35.9148C40.8952 36.0711 40.6787 36.2955 40.5319 36.5643C40.3852 36.8332 40.3135 37.1366 40.3245 37.4426C40.3355 37.7488 40.4287 38.0462 40.5943 38.3039C40.346 38.581 40.1832 38.924 40.1256 39.2916C40.0681 39.6592 40.1182 40.0356 40.2699 40.3753C40.4216 40.715 40.6684 41.0036 40.9806 41.2061C41.2928 41.4085 41.6569 41.5162 42.0289 41.5162C42.401 41.5162 42.7651 41.4085 43.0773 41.2061C43.3894 41.0036 43.6362 40.715 43.788 40.3753C43.9397 40.0356 43.9898 39.6592 43.9322 39.2916C43.8746 38.924 43.7119 38.581 43.4636 38.3039Z" stroke="#120071" stroke-width="0.711835" stroke-linecap="round" stroke-linejoin="round"/>
<path d="M52.0373 53.2208V32.9194H65.996V46.1316" stroke="#73C585" stroke-width="0.711835" stroke-linecap="round" stroke-linejoin="round"/>
<path d="M111.128 42.4522V29.8577H106.685V21.7734H103.621V15.5774H95.961V21.7734H92.897V29.8577H88.454V43.0698" stroke="#73C585" stroke-width="0.711835" stroke-linecap="round" stroke-linejoin="round"/>
</svg>
