<svg width="176" height="78" xmlns="http://www.w3.org/2000/svg" xmlns:xlink="http://www.w3.org/1999/xlink" xml:space="preserve" overflow="hidden"><defs><clipPath id="clip0"><rect x="507" y="86" width="176" height="78"/></clipPath><linearGradient x1="624.974" y1="118.174" x2="624.974" y2="86.281" gradientUnits="userSpaceOnUse" spreadMethod="pad" id="fill1"><stop offset="0" stop-color="#FFFFFF"/><stop offset="0.7766" stop-color="#FFFFFF"/><stop offset="1" stop-color="#FFFFFF" stop-opacity="0"/></linearGradient><linearGradient x1="624.974" y1="131.838" x2="624.974" y2="163.777" gradientUnits="userSpaceOnUse" spreadMethod="pad" id="fill2"><stop offset="0" stop-color="#FFFFFF"/><stop offset="0.7566" stop-color="#FFFFFF"/><stop offset="1" stop-color="#FFFFFF" stop-opacity="0"/></linearGradient><linearGradient x1="622.471" y1="132.509" x2="682.536" y2="132.509" gradientUnits="userSpaceOnUse" spreadMethod="pad" id="fill3"><stop offset="0" stop-color="#FFFFFF"/><stop offset="0.8334" stop-color="#FFFFFF"/><stop offset="1" stop-color="#FFFFFF" stop-opacity="0"/></linearGradient><linearGradient x1="622.471" y1="117.504" x2="682.536" y2="117.504" gradientUnits="userSpaceOnUse" spreadMethod="pad" id="fill4"><stop offset="0" stop-color="#FFFFFF"/><stop offset="0.8332" stop-color="#FFFFFF"/><stop offset="1" stop-color="#FFFFFF" stop-opacity="0"/></linearGradient></defs><g clip-path="url(#clip0)" transform="translate(-507 -86)"><path d="M514.062 141.252 513.206 141.252 508.447 134.023 508.447 141.252 507.59 141.252 507.59 132.644 508.447 132.644 513.206 139.873 513.206 132.644 514.062 132.644 514.062 141.252Z" fill="#FFFFFF"/><path d="M516.109 136.068C516.395 135.545 516.775 135.141 517.251 134.856 517.751 134.57 518.298 134.428 518.917 134.428 519.559 134.428 520.107 134.57 520.583 134.88 521.035 135.165 521.392 135.545 521.582 136.021L521.582 134.547 522.439 134.547 522.439 141.275 521.582 141.275 521.582 139.777C521.368 140.229 521.035 140.61 520.559 140.919 520.083 141.228 519.536 141.371 518.893 141.371 518.274 141.371 517.727 141.228 517.251 140.943 516.751 140.657 516.371 140.253 516.109 139.73 515.823 139.207 515.704 138.589 515.704 137.899 515.681 137.186 515.823 136.591 516.109 136.068ZM521.225 136.473C521.011 136.068 520.701 135.736 520.321 135.521 519.94 135.307 519.512 135.189 519.06 135.189 518.584 135.189 518.155 135.307 517.775 135.521 517.394 135.736 517.108 136.045 516.87 136.449 516.656 136.853 516.537 137.328 516.537 137.899 516.537 138.446 516.656 138.922 516.87 139.35 517.085 139.754 517.394 140.087 517.775 140.301 518.155 140.515 518.584 140.633 519.06 140.633 519.512 140.633 519.94 140.515 520.321 140.301 520.701 140.087 521.011 139.754 521.225 139.35 521.439 138.945 521.558 138.47 521.558 137.923 521.558 137.376 521.463 136.877 521.225 136.473Z" fill="#FFFFFF"/><path d="M525.58 135.26 525.58 139.421C525.58 139.825 525.651 140.11 525.818 140.277 525.984 140.443 526.246 140.515 526.65 140.515L527.436 140.515 527.436 141.252 526.508 141.252C525.889 141.252 525.437 141.109 525.151 140.824 524.866 140.538 524.699 140.063 524.699 139.421L524.699 135.26 523.771 135.26 523.771 134.523 524.699 134.523 524.699 132.835 525.58 132.835 525.58 134.523 527.436 134.523 527.436 135.26 525.58 135.26Z" fill="#FFFFFF"/><path d="M528.887 133.073C528.768 132.954 528.697 132.787 528.697 132.621 528.697 132.431 528.768 132.288 528.887 132.169 529.006 132.05 529.149 131.979 529.339 131.979 529.506 131.979 529.648 132.026 529.791 132.169 529.91 132.288 529.982 132.431 529.982 132.621 529.982 132.811 529.91 132.954 529.791 133.073 529.672 133.191 529.529 133.263 529.339 133.263 529.172 133.263 529.006 133.215 528.887 133.073ZM529.767 134.523 529.767 141.252 528.911 141.252 528.911 134.523 529.767 134.523Z" fill="#FFFFFF"/><path d="M533.028 140.919C532.528 140.634 532.123 140.23 531.838 139.707 531.552 139.184 531.409 138.566 531.409 137.876 531.409 137.186 531.552 136.568 531.862 136.045 532.147 135.522 532.552 135.118 533.075 134.833 533.575 134.547 534.146 134.405 534.788 134.405 535.431 134.405 536.002 134.547 536.502 134.833 537.025 135.118 537.406 135.522 537.715 136.045 538.001 136.568 538.143 137.186 538.143 137.876 538.143 138.566 538.001 139.184 537.691 139.707 537.406 140.23 536.978 140.634 536.478 140.919 535.954 141.205 535.383 141.348 534.765 141.348 534.098 141.348 533.527 141.205 533.028 140.919ZM535.954 140.301C536.335 140.087 536.644 139.802 536.882 139.398 537.12 138.994 537.239 138.494 537.239 137.9 537.239 137.305 537.12 136.806 536.906 136.402 536.668 135.998 536.383 135.689 536.002 135.498 535.621 135.308 535.217 135.189 534.765 135.189 534.312 135.189 533.908 135.284 533.527 135.498 533.146 135.712 532.837 135.998 532.623 136.402 532.409 136.806 532.29 137.305 532.29 137.9 532.29 138.494 532.409 138.994 532.623 139.398 532.837 139.802 533.146 140.111 533.527 140.301 533.908 140.492 534.312 140.61 534.765 140.61 535.169 140.61 535.574 140.515 535.954 140.301Z" fill="#FFFFFF"/><path d="M544.878 135.165C545.377 135.665 545.639 136.378 545.639 137.329L545.639 141.276 544.782 141.276 544.782 137.448C544.782 136.711 544.592 136.164 544.235 135.783 543.878 135.403 543.378 135.213 542.736 135.213 542.094 135.213 541.57 135.427 541.189 135.831 540.808 136.235 540.618 136.853 540.618 137.638L540.618 141.3 539.761 141.3 539.761 134.571 540.618 134.571 540.618 135.712C540.832 135.308 541.142 134.999 541.546 134.761 541.951 134.547 542.403 134.428 542.903 134.428 543.712 134.404 544.378 134.666 544.878 135.165Z" fill="#FFFFFF"/><path d="M547.638 136.068C547.924 135.545 548.304 135.141 548.78 134.856 549.28 134.57 549.827 134.428 550.446 134.428 551.088 134.428 551.636 134.57 552.112 134.88 552.564 135.165 552.921 135.545 553.111 136.021L553.111 134.547 553.968 134.547 553.968 141.275 553.111 141.275 553.111 139.777C552.897 140.229 552.564 140.61 552.088 140.919 551.612 141.228 551.065 141.371 550.422 141.371 549.803 141.371 549.256 141.228 548.78 140.943 548.281 140.657 547.9 140.253 547.638 139.73 547.352 139.207 547.234 138.589 547.234 137.899 547.234 137.186 547.352 136.591 547.638 136.068ZM552.754 136.473C552.54 136.068 552.23 135.736 551.85 135.521 551.469 135.307 551.041 135.189 550.589 135.189 550.113 135.189 549.684 135.307 549.304 135.521 548.923 135.736 548.637 136.045 548.399 136.449 548.185 136.853 548.066 137.328 548.066 137.899 548.066 138.446 548.185 138.922 548.399 139.35 548.614 139.754 548.923 140.087 549.304 140.301 549.684 140.515 550.113 140.633 550.589 140.633 551.041 140.633 551.469 140.515 551.85 140.301 552.23 140.087 552.54 139.754 552.754 139.35 552.968 138.945 553.087 138.47 553.087 137.923 553.087 137.376 552.992 136.877 552.754 136.473Z" fill="#FFFFFF"/><path d="M556.846 132.145 556.846 141.251 555.99 141.251 555.99 132.145 556.846 132.145Z" fill="#FFFFFF"/><path d="M563.177 133.358 563.177 136.568 566.436 136.568 566.436 137.281 563.177 137.281 563.177 140.538 566.817 140.538 566.817 141.252 562.32 141.252 562.32 132.644 566.817 132.644 566.817 133.358 563.177 133.358Z" fill="#FFFFFF"/><path d="M573.694 135.165C574.194 135.665 574.455 136.378 574.455 137.329L574.455 141.276 573.599 141.276 573.599 137.448C573.599 136.711 573.408 136.164 573.052 135.783 572.695 135.403 572.195 135.213 571.552 135.213 570.91 135.213 570.386 135.427 570.006 135.831 569.625 136.235 569.435 136.853 569.435 137.638L569.435 141.3 568.578 141.3 568.578 134.571 569.435 134.571 569.435 135.712C569.649 135.308 569.958 134.999 570.363 134.761 570.767 134.547 571.219 134.428 571.719 134.428 572.528 134.404 573.194 134.666 573.694 135.165Z" fill="#FFFFFF"/><path d="M582.498 138.232 576.906 138.232C576.93 138.731 577.049 139.183 577.287 139.54 577.501 139.896 577.81 140.182 578.167 140.348 578.524 140.538 578.929 140.633 579.357 140.633 579.904 140.633 580.38 140.491 580.761 140.229 581.142 139.968 581.403 139.587 581.522 139.135L582.427 139.135C582.26 139.801 581.903 140.324 581.38 140.752 580.832 141.157 580.166 141.371 579.357 141.371 578.714 141.371 578.167 141.228 577.667 140.943 577.168 140.657 576.763 140.253 576.502 139.73 576.216 139.207 576.073 138.589 576.073 137.899 576.073 137.21 576.216 136.591 576.502 136.068 576.787 135.545 577.168 135.141 577.667 134.856 578.167 134.57 578.738 134.428 579.381 134.428 580.023 134.428 580.571 134.57 581.07 134.856 581.546 135.141 581.927 135.521 582.189 135.973 582.45 136.449 582.569 136.972 582.569 137.542 582.522 137.852 582.498 138.066 582.498 138.232ZM581.332 136.235C581.118 135.878 580.832 135.617 580.475 135.426 580.119 135.236 579.714 135.165 579.286 135.165 578.643 135.165 578.096 135.379 577.644 135.783 577.192 136.187 576.93 136.782 576.882 137.519L581.618 137.519C581.641 137.019 581.546 136.591 581.332 136.235Z" fill="#FFFFFF"/><path d="M585.877 134.761C586.258 134.523 586.734 134.405 587.305 134.405L587.305 135.308 587.067 135.308C586.448 135.308 585.949 135.475 585.568 135.807 585.187 136.14 584.997 136.711 584.997 137.496L584.997 141.252 584.14 141.252 584.14 134.523 584.997 134.523 584.997 135.712C585.211 135.308 585.497 134.975 585.877 134.761Z" fill="#FFFFFF"/><path d="M593.135 134.88C593.611 135.165 593.944 135.545 594.134 135.997L594.134 134.523 594.991 134.523 594.991 141.418C594.991 142.036 594.848 142.583 594.586 143.059 594.325 143.534 593.944 143.915 593.468 144.152 592.992 144.414 592.445 144.533 591.85 144.533 590.993 144.533 590.279 144.319 589.708 143.915 589.137 143.51 588.78 142.94 588.637 142.25L589.494 142.25C589.637 142.726 589.922 143.083 590.327 143.368 590.731 143.653 591.255 143.796 591.85 143.796 592.278 143.796 592.683 143.701 593.016 143.51 593.349 143.32 593.634 143.059 593.825 142.702 594.015 142.345 594.11 141.917 594.11 141.418L594.11 139.754C593.896 140.206 593.563 140.586 593.087 140.895 592.611 141.204 592.064 141.347 591.445 141.347 590.827 141.347 590.279 141.204 589.78 140.919 589.28 140.633 588.899 140.229 588.637 139.706 588.352 139.183 588.233 138.565 588.233 137.875 588.233 137.186 588.376 136.591 588.637 136.068 588.923 135.545 589.304 135.141 589.78 134.856 590.279 134.57 590.827 134.428 591.445 134.428 592.135 134.428 592.683 134.594 593.135 134.88ZM593.825 136.473C593.611 136.068 593.301 135.736 592.921 135.521 592.54 135.307 592.112 135.189 591.659 135.189 591.183 135.189 590.755 135.307 590.374 135.521 589.994 135.736 589.708 136.045 589.47 136.449 589.256 136.853 589.137 137.328 589.137 137.899 589.137 138.446 589.256 138.922 589.47 139.35 589.684 139.754 589.994 140.087 590.374 140.301 590.755 140.515 591.183 140.633 591.659 140.633 592.112 140.633 592.54 140.515 592.921 140.301 593.301 140.087 593.611 139.754 593.825 139.35 594.039 138.945 594.158 138.47 594.158 137.923 594.158 137.376 594.039 136.877 593.825 136.473Z" fill="#FFFFFF"/><path d="M602.582 134.522 598.584 144.413 597.68 144.413 598.989 141.204 596.228 134.522 597.18 134.522 599.464 140.253 601.677 134.522 602.582 134.522Z" fill="#FFFFFF"/><path d="M508.685 154.544C508.256 154.353 507.923 154.068 507.661 153.711 507.424 153.355 507.281 152.974 507.257 152.523L508.161 152.523C508.209 152.951 508.375 153.307 508.708 153.616 509.042 153.925 509.518 154.092 510.16 154.092 510.731 154.092 511.207 153.949 511.54 153.64 511.873 153.331 512.04 152.951 512.04 152.499 512.04 152.118 511.945 151.833 511.754 151.595 511.564 151.357 511.326 151.191 511.04 151.096 510.755 150.977 510.374 150.858 509.874 150.739 509.303 150.573 508.851 150.43 508.518 150.288 508.185 150.145 507.899 149.907 507.661 149.598 507.424 149.289 507.305 148.861 507.305 148.338 507.305 147.886 507.424 147.506 507.661 147.149 507.899 146.792 508.209 146.531 508.637 146.341 509.065 146.15 509.541 146.055 510.089 146.055 510.874 146.055 511.516 146.245 512.016 146.65 512.516 147.03 512.778 147.553 512.849 148.148L511.921 148.148C511.873 147.791 511.659 147.482 511.35 147.197 511.017 146.911 510.588 146.792 510.017 146.792 509.494 146.792 509.065 146.935 508.732 147.197 508.399 147.482 508.209 147.839 508.209 148.314 508.209 148.671 508.304 148.956 508.494 149.194 508.685 149.408 508.923 149.574 509.208 149.693 509.494 149.812 509.874 149.931 510.35 150.074 510.898 150.24 511.35 150.383 511.707 150.525 512.064 150.668 512.349 150.906 512.587 151.215 512.825 151.524 512.944 151.952 512.944 152.475 512.944 152.879 512.849 153.26 512.635 153.616 512.421 153.973 512.111 154.258 511.683 154.496 511.255 154.71 510.755 154.829 510.184 154.829 509.613 154.829 509.113 154.734 508.685 154.544Z" fill="#FFFFFF"/><path d="M520.225 148.028 516.228 157.919 515.323 157.919 516.632 154.709 513.872 148.028 514.824 148.028 517.108 153.758 519.321 148.028 520.225 148.028Z" fill="#FFFFFF"/><path d="M521.867 154.305C521.368 153.948 521.106 153.473 521.058 152.854L521.939 152.854C521.986 153.235 522.153 153.544 522.486 153.782 522.795 154.02 523.224 154.138 523.771 154.138 524.247 154.138 524.604 154.02 524.866 153.806 525.127 153.592 525.27 153.306 525.27 152.973 525.27 152.736 525.199 152.545 525.056 152.403 524.913 152.26 524.723 152.141 524.485 152.046 524.247 151.951 523.961 151.856 523.557 151.761 523.057 151.618 522.653 151.499 522.343 151.357 522.034 151.238 521.772 151.024 521.558 150.762 521.344 150.501 521.225 150.168 521.225 149.716 521.225 149.383 521.32 149.074 521.51 148.812 521.701 148.527 521.986 148.313 522.343 148.147 522.7 147.98 523.105 147.909 523.581 147.909 524.294 147.909 524.889 148.099 525.318 148.456 525.77 148.812 526.008 149.312 526.031 149.954L525.175 149.954C525.151 149.549 524.984 149.24 524.723 149.003 524.437 148.765 524.057 148.646 523.557 148.646 523.128 148.646 522.772 148.741 522.486 148.955 522.224 149.169 522.081 149.407 522.081 149.716 522.081 149.978 522.153 150.191 522.32 150.358 522.486 150.524 522.676 150.667 522.914 150.762 523.152 150.857 523.462 150.952 523.866 151.071 524.342 151.214 524.747 151.333 525.032 151.452 525.318 151.571 525.556 151.761 525.77 151.999 525.984 152.236 526.079 152.545 526.079 152.95 526.079 153.306 525.984 153.639 525.794 153.924 525.603 154.21 525.318 154.424 524.961 154.59 524.604 154.757 524.199 154.828 523.747 154.828 522.986 154.852 522.367 154.662 521.867 154.305Z" fill="#FFFFFF"/><path d="M528.911 148.741 528.911 152.902C528.911 153.306 528.982 153.592 529.149 153.758 529.315 153.924 529.577 153.996 529.982 153.996L530.767 153.996 530.767 154.733 529.839 154.733C529.22 154.733 528.768 154.59 528.483 154.305 528.197 154.02 528.031 153.544 528.031 152.902L528.031 148.741 527.102 148.741 527.102 148.004 528.031 148.004 528.031 146.316 528.911 146.316 528.911 148.004 530.767 148.004 530.767 148.741 528.911 148.741Z" fill="#FFFFFF"/><path d="M538.31 151.713 532.718 151.713C532.742 152.212 532.861 152.664 533.099 153.021 533.313 153.378 533.622 153.663 533.979 153.829 534.336 154.02 534.741 154.115 535.169 154.115 535.716 154.115 536.192 153.972 536.573 153.711 536.954 153.449 537.215 153.068 537.334 152.617L538.239 152.617C538.072 153.283 537.715 153.806 537.192 154.234 536.644 154.638 535.978 154.852 535.169 154.852 534.527 154.852 533.979 154.709 533.48 154.424 532.98 154.138 532.575 153.734 532.314 153.211 532.028 152.688 531.885 152.07 531.885 151.38 531.885 150.691 532.028 150.073 532.314 149.549 532.599 149.027 532.98 148.622 533.48 148.337 533.979 148.052 534.55 147.909 535.193 147.909 535.835 147.909 536.383 148.052 536.882 148.337 537.358 148.622 537.739 149.003 538.001 149.454 538.262 149.93 538.381 150.453 538.381 151.024 538.334 151.333 538.31 151.571 538.31 151.713ZM537.144 149.74C536.93 149.383 536.644 149.122 536.287 148.931 535.93 148.741 535.526 148.67 535.098 148.67 534.455 148.67 533.908 148.884 533.456 149.288 533.004 149.692 532.742 150.287 532.694 151.024L537.43 151.024C537.453 150.524 537.358 150.096 537.144 149.74Z" fill="#FFFFFF"/><path d="M549.898 148.646C550.398 149.145 550.636 149.859 550.636 150.81L550.636 154.757 549.78 154.757 549.78 150.929C549.78 150.191 549.613 149.645 549.256 149.264 548.899 148.884 548.423 148.694 547.805 148.694 547.162 148.694 546.662 148.908 546.282 149.312 545.901 149.74 545.711 150.334 545.711 151.143L545.711 154.781 544.854 154.781 544.854 150.952C544.854 150.215 544.687 149.669 544.33 149.288 543.974 148.908 543.497 148.717 542.879 148.717 542.236 148.717 541.737 148.931 541.356 149.336 540.975 149.764 540.785 150.358 540.785 151.166L540.785 154.804 539.928 154.804 539.928 148.075 540.785 148.075 540.785 149.241C540.999 148.812 541.308 148.503 541.689 148.289 542.094 148.075 542.522 147.956 542.998 147.956 543.593 147.956 544.092 148.099 544.521 148.384 544.949 148.67 545.282 149.074 545.473 149.621 545.663 149.098 545.972 148.67 546.401 148.384 546.829 148.099 547.329 147.956 547.9 147.956 548.756 147.909 549.399 148.147 549.898 148.646Z" fill="#FFFFFF"/><path d="M557.751 154.281C557.109 153.901 556.585 153.378 556.228 152.712 555.847 152.046 555.657 151.285 555.657 150.429 555.657 149.573 555.847 148.836 556.228 148.147 556.609 147.457 557.109 146.958 557.751 146.577 558.393 146.197 559.131 146.007 559.916 146.007 560.726 146.007 561.439 146.197 562.106 146.577 562.748 146.958 563.272 147.481 563.628 148.147 563.985 148.812 564.176 149.573 564.176 150.429 564.176 151.285 563.985 152.022 563.628 152.712 563.248 153.378 562.748 153.901 562.106 154.281 561.463 154.662 560.726 154.852 559.916 154.852 559.131 154.828 558.393 154.638 557.751 154.281ZM561.654 153.639C562.153 153.354 562.558 152.926 562.867 152.355 563.153 151.808 563.319 151.166 563.319 150.429 563.319 149.692 563.176 149.05 562.867 148.503 562.581 147.956 562.177 147.529 561.654 147.243 561.154 146.958 560.559 146.792 559.94 146.792 559.321 146.792 558.727 146.934 558.227 147.243 557.727 147.552 557.323 147.956 557.013 148.503 556.728 149.05 556.561 149.692 556.561 150.429 556.561 151.166 556.704 151.808 557.013 152.355 557.299 152.902 557.703 153.33 558.227 153.639 558.727 153.924 559.321 154.091 559.94 154.091 560.559 154.091 561.13 153.924 561.654 153.639Z" fill="#FFFFFF"/><path d="M567.697 148.385C568.149 148.076 568.721 147.933 569.363 147.933 569.982 147.933 570.529 148.076 571.005 148.361 571.505 148.646 571.885 149.051 572.147 149.574 572.433 150.097 572.552 150.691 572.552 151.381 572.552 152.07 572.409 152.689 572.147 153.212 571.862 153.735 571.481 154.139 571.005 154.424 570.505 154.71 569.958 154.852 569.363 154.852 568.721 154.852 568.173 154.71 567.721 154.4 567.245 154.091 566.912 153.735 566.698 153.283L566.698 157.943 565.841 157.943 565.841 148.052 566.698 148.052 566.698 149.526C566.888 149.051 567.221 148.67 567.697 148.385ZM571.338 149.93C571.124 149.526 570.815 149.217 570.434 149.003 570.053 148.789 569.625 148.67 569.149 148.67 568.697 148.67 568.268 148.789 567.888 149.003 567.507 149.217 567.198 149.55 566.983 149.954 566.769 150.358 566.65 150.834 566.65 151.381 566.65 151.928 566.769 152.403 566.983 152.807 567.198 153.212 567.507 153.545 567.888 153.758 568.268 153.973 568.697 154.091 569.149 154.091 569.625 154.091 570.053 153.973 570.434 153.758 570.815 153.545 571.1 153.236 571.338 152.807 571.552 152.403 571.671 151.904 571.671 151.357 571.671 150.81 571.576 150.335 571.338 149.93Z" fill="#FFFFFF"/><path d="M580.261 151.713 574.669 151.713C574.693 152.212 574.812 152.664 575.05 153.021 575.264 153.378 575.574 153.663 575.931 153.829 576.287 154.02 576.692 154.115 577.12 154.115 577.668 154.115 578.144 153.972 578.524 153.711 578.905 153.449 579.167 153.068 579.286 152.617L580.19 152.617C580.023 153.283 579.667 153.806 579.143 154.234 578.596 154.638 577.929 154.852 577.12 154.852 576.478 154.852 575.931 154.709 575.431 154.424 574.931 154.138 574.527 153.734 574.265 153.211 573.979 152.688 573.837 152.07 573.837 151.38 573.837 150.691 573.979 150.073 574.265 149.549 574.55 149.027 574.931 148.622 575.431 148.337 575.931 148.052 576.502 147.909 577.144 147.909 577.787 147.909 578.334 148.052 578.834 148.337 579.31 148.622 579.69 149.003 579.952 149.454 580.214 149.93 580.333 150.453 580.333 151.024 580.285 151.333 580.285 151.571 580.261 151.713ZM579.119 149.74C578.905 149.383 578.62 149.122 578.263 148.931 577.906 148.741 577.501 148.67 577.073 148.67 576.43 148.67 575.883 148.884 575.431 149.288 574.979 149.692 574.717 150.287 574.669 151.024L579.405 151.024C579.429 150.524 579.31 150.096 579.119 149.74Z" fill="#FFFFFF"/><path d="M583.664 148.241C584.045 148.004 584.521 147.885 585.092 147.885L585.092 148.788 584.854 148.788C584.236 148.788 583.736 148.955 583.355 149.288 582.974 149.62 582.784 150.191 582.784 150.976L582.784 154.732 581.927 154.732 581.927 148.004 582.784 148.004 582.784 149.193C582.974 148.788 583.26 148.479 583.664 148.241Z" fill="#FFFFFF"/><path d="M586.472 149.549C586.758 149.027 587.138 148.622 587.614 148.337 588.114 148.052 588.661 147.909 589.28 147.909 589.922 147.909 590.47 148.052 590.946 148.361 591.398 148.646 591.755 149.027 591.945 149.502L591.945 148.028 592.802 148.028 592.802 154.757 591.945 154.757 591.945 153.259C591.731 153.711 591.398 154.091 590.922 154.4 590.446 154.709 589.899 154.852 589.256 154.852 588.638 154.852 588.09 154.709 587.614 154.424 587.115 154.138 586.734 153.734 586.472 153.211 586.187 152.688 586.068 152.07 586.068 151.38 586.044 150.691 586.187 150.073 586.472 149.549ZM591.588 149.954C591.374 149.549 591.065 149.217 590.684 149.003 590.303 148.789 589.875 148.67 589.423 148.67 588.947 148.67 588.519 148.789 588.138 149.003 587.757 149.217 587.472 149.526 587.234 149.93 587.019 150.334 586.901 150.81 586.901 151.38 586.901 151.927 587.019 152.403 587.234 152.831 587.448 153.235 587.757 153.568 588.138 153.782 588.519 153.996 588.947 154.115 589.423 154.115 589.875 154.115 590.303 153.996 590.684 153.782 591.065 153.568 591.374 153.235 591.588 152.831 591.802 152.426 591.921 151.951 591.921 151.404 591.921 150.833 591.802 150.358 591.588 149.954Z" fill="#FFFFFF"/><path d="M595.943 148.741 595.943 152.902C595.943 153.306 596.014 153.592 596.181 153.758 596.347 153.924 596.609 153.996 597.013 153.996L597.799 153.996 597.799 154.733 596.871 154.733C596.252 154.733 595.8 154.59 595.514 154.305 595.229 154.02 595.062 153.544 595.062 152.902L595.062 148.741 594.134 148.741 594.134 148.004 595.062 148.004 595.062 146.316 595.943 146.316 595.943 148.004 597.799 148.004 597.799 148.741 595.943 148.741Z" fill="#FFFFFF"/><path d="M600.511 154.424C600.012 154.138 599.607 153.734 599.322 153.211 599.036 152.688 598.893 152.07 598.893 151.38 598.893 150.691 599.036 150.073 599.346 149.549 599.631 149.027 600.036 148.622 600.559 148.337 601.059 148.052 601.63 147.909 602.272 147.909 602.915 147.909 603.486 148.052 603.986 148.337 604.509 148.622 604.89 149.027 605.199 149.549 605.485 150.073 605.628 150.691 605.628 151.38 605.628 152.07 605.485 152.688 605.175 153.211 604.89 153.734 604.462 154.138 603.962 154.424 603.438 154.709 602.867 154.852 602.249 154.852 601.582 154.852 601.011 154.709 600.511 154.424ZM603.438 153.782C603.819 153.568 604.128 153.283 604.366 152.878 604.604 152.474 604.723 151.975 604.723 151.38 604.723 150.786 604.604 150.287 604.39 149.882 604.152 149.478 603.867 149.169 603.486 148.979 603.105 148.789 602.701 148.67 602.249 148.67 601.797 148.67 601.392 148.765 601.011 148.979 600.63 149.169 600.321 149.478 600.107 149.882 599.893 150.287 599.774 150.786 599.774 151.38 599.774 151.975 599.893 152.474 600.107 152.878 600.321 153.283 600.63 153.592 601.011 153.782 601.392 153.972 601.797 154.091 602.249 154.091 602.653 154.091 603.058 153.996 603.438 153.782Z" fill="#FFFFFF"/><path d="M608.959 148.241C609.339 148.004 609.815 147.885 610.386 147.885L610.386 148.788 610.148 148.788C609.53 148.788 609.03 148.955 608.649 149.288 608.269 149.62 608.078 150.191 608.078 150.976L608.078 154.732 607.222 154.732 607.222 148.004 608.078 148.004 608.078 149.193C608.292 148.788 608.578 148.479 608.959 148.241Z" fill="#FFFFFF"/><path d="M531.885 124.726 526.103 124.726 513.039 104.991 513.039 124.726 507.257 124.726 507.257 95.9324 513.039 95.9324 526.103 115.715 526.103 95.9324 531.885 95.9324 531.885 124.726Z" fill="#FFFFFF"/><path d="M543.521 100.64 543.521 107.845 553.206 107.845 553.206 112.41 543.521 112.41 543.521 120.042 554.443 120.042 554.443 124.75 537.739 124.75 537.739 95.9324 554.443 95.9324 554.443 100.64 543.521 100.64Z" fill="#FFFFFF"/><path d="M564.2 123.99C562.582 123.301 561.32 122.326 560.392 121.018 559.464 119.734 558.965 118.213 558.941 116.453L565.128 116.453C565.199 117.642 565.627 118.569 566.389 119.259 567.15 119.948 568.174 120.281 569.506 120.281 570.862 120.281 571.909 119.948 572.671 119.306 573.432 118.664 573.837 117.808 573.837 116.762 573.837 115.906 573.575 115.217 573.052 114.67 572.528 114.123 571.886 113.695 571.1 113.362 570.315 113.053 569.244 112.696 567.864 112.316 565.984 111.769 564.485 111.222 563.319 110.699 562.153 110.152 561.154 109.344 560.297 108.274 559.464 107.18 559.036 105.73 559.036 103.923 559.036 102.211 559.464 100.737 560.321 99.4764 561.178 98.2163 562.367 97.2414 563.914 96.5757 565.461 95.9099 567.222 95.577 569.197 95.577 572.171 95.577 574.575 96.2903 576.43 97.7407 578.287 99.1911 579.31 101.188 579.5 103.78L573.147 103.78C573.099 102.781 572.671 101.973 571.886 101.331 571.1 100.689 570.053 100.356 568.768 100.356 567.65 100.356 566.746 100.642 566.056 101.212 565.389 101.783 565.056 102.639 565.056 103.732 565.056 104.493 565.318 105.135 565.818 105.658 566.318 106.158 566.96 106.586 567.721 106.895 568.483 107.204 569.554 107.584 570.91 107.989 572.79 108.535 574.313 109.082 575.479 109.629 576.669 110.176 577.668 111.008 578.524 112.102 579.381 113.196 579.81 114.646 579.81 116.429 579.81 117.975 579.405 119.401 578.62 120.709 577.811 122.017 576.645 123.087 575.122 123.871 573.575 124.656 571.743 125.036 569.649 125.036 567.626 125.013 565.818 124.68 564.2 123.99Z" fill="#FFFFFF"/><path d="M590.28 123.134C588.019 121.874 586.234 120.114 584.926 117.879 583.617 115.644 582.951 113.1 582.951 110.271 582.951 107.465 583.617 104.945 584.926 102.71 586.234 100.475 588.043 98.7152 590.28 97.455 592.54 96.1948 595.015 95.5529 597.704 95.5529 600.416 95.5529 602.915 96.1948 605.152 97.455 607.389 98.7152 609.173 100.475 610.482 102.71 611.791 104.945 612.433 107.465 612.433 110.271 612.433 113.1 611.791 115.644 610.482 117.879 609.173 120.114 607.389 121.874 605.152 123.134 602.891 124.394 600.416 125.036 597.728 125.036 595.015 125.012 592.54 124.394 590.28 123.134ZM602.296 118.688C603.605 117.903 604.652 116.786 605.39 115.335 606.127 113.885 606.508 112.197 606.508 110.271 606.508 108.345 606.127 106.657 605.39 105.23 604.652 103.78 603.605 102.686 602.296 101.901 600.987 101.14 599.441 100.736 597.728 100.736 595.99 100.736 594.468 101.117 593.135 101.901 591.802 102.662 590.755 103.78 590.018 105.23 589.28 106.68 588.899 108.345 588.899 110.271 588.899 112.197 589.28 113.885 590.018 115.335 590.755 116.786 591.802 117.903 593.135 118.688 594.468 119.472 595.99 119.853 597.728 119.853 599.441 119.876 600.964 119.472 602.296 118.688Z" fill="#FFFFFF"/><path d="M627.472 85.6129 622.475 85.6129 622.475 119.994 627.472 119.994 627.472 85.6129Z" fill="url(#fill1)"/><path d="M622.475 130.005 627.472 130.005 627.472 164.434 622.475 164.434 622.475 130.005Z" fill="url(#fill2)"/><path d="M622.475 134.998 622.475 130.005 682.534 130.005 682.534 134.998 622.475 134.998Z" fill="url(#fill3)"/><path d="M622.475 119.994 622.475 115.001 682.534 115.001 682.534 119.994 622.475 119.994Z" fill="url(#fill4)"/><path d="M622.498 119.591C622.498 119.71 622.522 119.852 622.522 120.019 622.736 120.019 622.951 120.019 623.141 120.019 644.842 120.019 645.437 120.019 667.163 120.019L667.163 115.144C656.74 115.144 667.448 115.144 657.026 115.144 656.859 115.144 656.716 115.144 656.455 115.144 656.621 115.049 656.693 115.002 656.764 114.954 667.353 109.676 661.666 112.505 672.255 107.203 672.35 107.155 672.445 107.132 672.54 107.108 672.54 104.373 672.54 101.639 672.54 98.881 672.374 98.9285 672.207 98.9761 672.064 99.0474 655.979 107.06 656.217 106.965 640.131 114.978 639.964 115.049 639.774 115.121 639.607 115.121 636.062 115.121 632.54 115.121 628.995 115.121 628.947 115.121 628.899 115.121 628.709 115.097 628.947 114.978 629.066 114.93 629.185 114.859L664.402 97.1928C662.57 97.1928 661.19 97.0502 659.381 97.0502L633.801 109.795C631.779 110.793 629.756 111.792 627.71 112.79 627.614 112.838 627.519 112.862 627.376 112.933 627.376 112.719 627.376 112.576 627.376 112.41 627.376 105.325 627.376 108.511 627.376 101.425L622.475 101.425 622.498 119.591Z" fill="#FFFFFF"/><path d="M640.797 135.165C640.773 135.141 640.75 135.117 640.702 135.07 640.845 135.07 640.94 135.046 641.035 135.046 644.652 135.046 648.293 135.046 651.91 135.046 652.124 135.046 652.362 135.093 652.552 135.189 658.144 137.899 663.736 140.633 669.328 143.344L672.517 144.842C672.517 143.891 672.517 142.94 672.517 141.989L658.501 135.189C658.453 135.165 658.406 135.141 658.215 135.022 658.501 135.022 658.644 135.022 658.81 135.022 669.804 135.022 660.714 135.022 671.707 135.022 671.898 135.022 672.112 135.022 672.302 135.022 672.302 133.358 672.302 131.693 672.302 130.029 672.16 130.029 672.041 130.005 671.898 130.005 648.888 130.005 645.961 130.005 622.974 130.005 622.808 130.005 622.665 130.005 622.475 130.005 622.475 130.219 622.475 130.386 622.475 130.528 622.475 140.301 622.475 136.568 622.475 146.316 622.475 146.459 622.475 146.601 622.498 146.768 624.212 146.768 625.735 146.768 627.448 146.768 627.448 145.912 627.448 145.056 627.448 144.2 627.448 137.59 627.448 144.485 627.448 137.875 627.448 137.709 627.448 137.447 627.448 137.21 627.614 137.281 627.924 137.4 628.043 137.471 630.779 138.803 633.516 140.134 636.252 141.466L654.313 150.096C660.095 150.096 665.878 150.096 671.66 150.096L640.702 135.07" fill="#FFFFFF"/></g></svg>