<svg width="112" height="112" viewBox="0 0 112 112" fill="none" xmlns="http://www.w3.org/2000/svg">
<path d="M45.4126 86.2004C45.1954 81.7987 44.9865 77.3732 45.0098 72.9477C29.7064 72.7915 11.0619 67.9022 8.25712 67.4573C6.8852 67.2395 5.53544 67.3863 4.25771 66.7713C4.23389 70.2737 4.317 84.4467 4.25771 88.0228C4.25936 88.0596 4.25113 88.0962 4.23389 88.1287C4.21666 88.1613 4.19103 88.1886 4.15967 88.208C4.12831 88.2273 4.09235 88.2379 4.05552 88.2386C4.01869 88.2394 3.98233 88.2303 3.9502 88.2123C4.18679 90.8863 4.87663 94.3217 6.7428 92.4483C9.6357 89.5432 12.9968 88.9875 17.1558 93.5842C21.3037 98.1698 26.132 101.064 27.2369 96.9209C29.0232 90.227 42.5485 98.9212 44.797 98.9328H46.3119C45.7201 94.7439 45.6215 90.437 45.4126 86.2004Z" fill="#3078FF"/>
<path d="M13.1087 53.0449C13.5109 50.7969 15.2408 48.1628 13.6295 46.3238C13.5614 46.2574 13.5174 46.1701 13.5045 46.0758C13.4917 45.9816 13.5107 45.8857 13.5586 45.8035C14.8984 43.8963 16.569 39.6753 14.1736 37.8518C14.1178 37.8192 14.0701 37.7745 14.0341 37.7209C13.998 37.6673 13.9745 37.6062 13.9654 37.5422C13.9563 37.4783 13.9618 37.4131 13.9814 37.3516C14.0011 37.29 14.0344 37.2337 14.0789 37.1869C14.774 36.5557 15.2239 35.6994 15.3493 34.7689C15.4747 33.8384 15.2675 32.8935 14.7643 32.1009C14.4623 31.6471 13.4838 31.0598 13.4389 30.4442C13.389 29.7582 14.2146 29.0235 14.3853 28.3619C14.55 27.7097 14.5609 27.0282 14.4173 26.3711C14.2736 25.714 13.9793 25.0992 13.5575 24.5753C13.0893 24.0267 12.579 23.8893 12.5396 23.1313C12.4931 22.2342 13.0937 21.8514 12.6105 20.0079C11.4508 19.44 10.7172 19.5818 10.4097 20.4811C9.69992 21.5699 9.57858 23.2726 9.32093 24.5259C8.95503 25.999 8.92266 27.5352 9.22618 29.0224C9.72098 31.4842 7.00982 33.7759 8.61114 36.1701C9.13364 36.9503 10.1493 37.0461 10.1493 38.0634C10.1493 39.0807 9.29378 40.287 9.0605 41.2821C8.70035 42.8192 8.70589 44.6421 9.84177 45.8966C10.2917 46.3953 10.904 46.536 10.9538 47.2458C11.0441 48.5241 9.69549 49.4173 10.5992 50.7958C11.3003 51.6841 12.1492 52.445 13.1087 53.0449Z" fill="#3078FF"/>
<path d="M21.865 36.4555C21.814 36.077 21.7016 35.1983 21.3918 34.9173C20.7341 34.32 20.0703 35.0154 19.6403 35.4376C18.9451 36.1177 18.4535 36.9784 18.2208 37.9227C17.9493 39.0558 18.2568 40.2194 18.1493 41.3542C18.0645 42.2546 17.6118 42.894 17.3686 43.7445C16.9076 45.3569 18.0468 47.1965 17.4395 48.7141C16.9442 49.952 15.4863 50.2755 15.57 53.2106C16.0481 52.311 16.7086 51.521 17.5093 50.8911C18.7466 49.7863 19.3079 48.667 20.0415 47.1998C20.6571 45.9692 20.5563 44.5496 20.4438 43.2237C20.3939 42.6325 20.1346 41.8268 20.3496 41.2356C20.6078 40.5253 21.2605 40.01 21.5564 39.2963C21.9097 38.3935 22.0162 37.413 21.865 36.4555Z" fill="#3078FF"/>
<path d="M29.0123 36.9287L28.184 29.4485L51.8735 19.7708C51.8735 19.7708 52.1599 24.1259 51.8735 25.4269C51.592 26.7058 52.2757 30.3495 53.1041 31.1307C53.1041 31.1307 47.2596 31.5812 44.7972 34.586C42.3138 37.6158 38.2179 43.1528 34.0058 41.1885C34.0058 41.1885 33.2245 36.9287 35.1655 34.089C35.1655 34.0652 32.0886 33.6391 29.0123 36.9287Z" fill="#3078FF"/>
<path d="M57.2691 36.8339L57.8842 36.4078L57.2691 26.9883C57.2691 26.9883 55.3659 29.0678 55.8252 31.1063C56.289 33.1625 57.0087 34.207 57.2691 36.8339Z" fill="#3078FF"/>
<path d="M39.3542 63.4108C39.3542 63.4108 47.0217 65.7064 48.0866 65.5407C49.1516 65.375 50.1689 63.9787 50.1689 63.9787C50.1689 63.9787 49.2225 62.2982 47.4239 62.7243C45.6254 63.1504 43.8739 63.1975 44.1581 60.4525L39.3542 63.4108Z" fill="#3078FF"/>
<path d="M54.6422 53.968L62.594 49.3297L69.8121 51.412L60.2984 57.7546C60.2984 57.7546 58.3591 58.5115 57.908 58.3697C57.457 58.2278 56.228 57.7546 56.228 57.7546C56.228 57.7546 57.5767 54.9382 54.6422 53.968Z" fill="#3078FF"/>
<path d="M75.4681 36.8567C75.4681 37.6141 76.0593 37.874 76.6988 37.9926C77.6341 42.5538 82.2397 44.0875 84.6738 41.7083C84.8893 41.4977 84.6051 41.096 84.3413 41.2822C81.5066 43.2891 78.2364 41.239 77.4546 38.1111H77.6208C77.6966 38.1099 77.7694 38.0812 77.8255 38.0303C77.8817 37.9793 77.9175 37.9098 77.9262 37.8344C77.9348 37.7591 77.9158 37.6832 77.8727 37.6209C77.8296 37.5585 77.7652 37.514 77.6917 37.4955C77.3392 37.4671 76.9905 37.4036 76.6506 37.306C75.9408 36.9985 76.2671 36.4284 76.5325 35.8865C76.9043 35.1257 77.3543 34.4154 77.7864 33.7089C77.9034 33.5189 77.6202 33.2828 77.4789 33.4723C77.431 33.5489 77.3753 33.6204 77.3127 33.6856C77.526 32.4631 77.8105 31.254 78.1649 30.0647C78.1751 30.0131 78.1657 29.9596 78.1385 29.9147C78.1113 29.8697 78.0683 29.8365 78.0179 29.8217C77.9675 29.8068 77.9134 29.8114 77.8661 29.8344C77.8189 29.8574 77.782 29.8972 77.7626 29.9461C77.2913 31.431 76.9353 32.95 76.6977 34.4896C76.5082 34.75 76.348 35.0376 76.1768 35.2941C75.7958 35.7364 75.5498 36.2787 75.4681 36.8567Z" fill="#263B55"/>
<path d="M79.0884 33.095C78.7737 34.1128 79.9406 34.1256 79.9406 33.4496V33.1897C79.9332 33.0882 79.8904 32.9924 79.8198 32.9191C79.7492 32.8458 79.6551 32.7994 79.5539 32.7882C79.4527 32.7769 79.3508 32.8015 79.2657 32.8575C79.1807 32.9135 79.118 32.9975 79.0884 33.095Z" fill="#263B55"/>
<path d="M79.0415 30.4918C78.9913 30.5232 78.9556 30.5732 78.9423 30.6309C78.929 30.6886 78.9392 30.7492 78.9706 30.7993C79.0019 30.8495 79.052 30.8852 79.1096 30.8985C79.1673 30.9118 79.2279 30.9016 79.2781 30.8703C79.5601 30.7473 79.9879 30.965 80.2245 31.1307C80.4611 31.2964 80.6035 31.5568 80.8894 31.6294C80.9301 31.6388 80.9724 31.6394 81.0134 31.631C81.0543 31.6226 81.093 31.6054 81.1267 31.5807C81.1605 31.556 81.1884 31.5242 81.2088 31.4877C81.2291 31.4512 81.2413 31.4106 81.2445 31.3689C81.2423 30.6154 79.7219 30.0269 79.0415 30.4918Z" fill="#263B55"/>
<path d="M81.1004 40.384C81.3462 40.1918 81.5339 39.9352 81.6425 39.6427C81.7511 39.3502 81.7763 39.0332 81.7154 38.7272C81.6669 38.6098 81.5873 38.5078 81.4851 38.4321C81.383 38.3565 81.2622 38.3101 81.1357 38.2979C81.0092 38.2857 80.8818 38.3082 80.7671 38.3629C80.6524 38.4177 80.5548 38.5026 80.4848 38.6087C80.0825 38.7034 79.8936 39.3661 79.9168 39.7451C79.917 39.8829 79.9544 40.0181 80.025 40.1364C80.0957 40.2547 80.197 40.3517 80.3183 40.4171C80.4395 40.4826 80.5762 40.5141 80.7139 40.5082C80.8515 40.5024 80.9851 40.4594 81.1004 40.384ZM81.1713 39.0586C81.2123 39.391 80.6172 40.318 80.5324 39.7235C80.5058 39.5345 80.5557 39.1555 80.769 39.0846C80.8301 39.0654 80.8811 39.0227 80.9109 38.966C81.0294 38.8929 81.1713 38.8691 81.1713 39.0586Z" fill="#263B55"/>
<path d="M85.1469 45.685C85.4311 44.6438 85.1258 43.3412 84.8144 42.3244C84.7957 42.2651 84.755 42.2151 84.7007 42.1847C84.6463 42.1543 84.5824 42.1458 84.522 42.1609C84.4616 42.1761 84.4093 42.2137 84.3757 42.2661C84.3421 42.3185 84.3298 42.3818 84.3413 42.443C84.7507 44.5751 84.4294 44.7619 84.5307 45.6141C84.5712 45.9465 85.0782 46.0401 85.1469 45.685Z" fill="#263B55"/>
<path d="M68.794 61.8488C73.7486 57.0715 78.3309 51.5827 84.7922 48.8089C85.026 48.7081 84.8631 48.3102 84.6259 48.4066C81.5636 49.7063 78.7339 51.4968 76.2481 53.7076C74.3612 55.2656 72.56 56.9246 70.8524 58.6772C66.5955 57.9867 62.248 58.0831 58.0258 58.9615C57.9281 58.972 57.8349 59.0083 57.7558 59.0668C57.6768 59.1252 57.6147 59.2036 57.5759 59.2939C56.8713 60.8093 56.5687 62.4806 56.6972 64.1468C56.8257 65.8131 57.3809 67.4182 58.3095 68.8076C58.3585 68.8774 58.4291 68.9292 58.5104 68.9548C58.5918 68.9805 58.6793 68.9786 58.7594 68.9495C58.7871 68.9681 58.8204 68.9765 58.8536 68.9733C62.4916 69.0337 66.1097 68.424 69.527 67.1747C69.9764 67.0085 69.7908 66.2843 69.3375 66.4644C66.0404 67.7493 62.5346 68.4152 58.996 68.4286V68.4054C58.1078 67.1434 57.5458 65.6812 57.3599 64.1492C57.1741 62.6172 57.3703 61.063 57.9311 59.6253C57.9506 59.5668 57.9848 59.5144 58.0304 59.4729C58.076 59.4315 58.1315 59.4025 58.1915 59.3887C62.2202 58.7058 66.3273 58.618 70.3814 59.1283C69.6665 59.8968 69.0024 60.7112 68.3934 61.5662C68.2499 61.8012 68.6012 62.0344 68.794 61.8488Z" fill="#263B55"/>
<path d="M107.511 51.1045C107.38 50.5793 107.101 50.1028 106.707 49.732C105.321 48.6471 101.419 49.7231 99.8436 53.7552C99.4078 54.9317 99.1602 56.1696 99.11 57.4233C98.9161 56.8991 98.7346 56.3703 98.5659 55.8375C98.0328 54.1298 97.901 52.3589 97.1928 50.7022C97.5928 50.7337 97.9943 50.6653 98.3614 50.5033C98.7284 50.3413 99.0495 50.0908 99.2959 49.7741C99.5422 49.4574 99.7061 49.0845 99.7727 48.6889C99.8394 48.2932 99.8068 47.8872 99.6779 47.5073C100.364 48.0514 101.409 47.5101 101.95 46.797C103.353 44.9469 102.673 42.5599 100.909 42.0169C101.362 41.6875 101.704 41.2282 101.89 40.6998C102.076 40.1715 102.097 39.5991 101.95 39.0586C101.782 38.5232 101.458 38.0502 101.019 37.7003C100.581 37.3503 100.048 37.1393 99.4884 37.0943C98.613 37.0428 97.7846 37.4268 96.9091 37.4966C98.1143 36.6821 98.3498 33.9881 94.9211 32.7636C96.3717 30.2857 93.404 26.5229 88.4842 28.8113C88.216 28.1622 87.7897 27.5905 87.244 27.1482C86.6984 26.7059 86.0508 26.4072 85.3603 26.2791C84.6671 26.1656 83.9566 26.225 83.2918 26.4521C82.6271 26.6791 82.0287 27.0668 81.5498 27.5806C80.0876 26.6869 77.6241 28.9997 78.6863 29.4978C79.559 29.9067 80.2483 29.2612 81.1004 29.2612C82.1532 29.2612 81.1514 30.6392 81.8579 31.6992C82.3704 32.4683 83.5805 32.8074 85.0999 31.841C84.6871 32.8207 85.7276 34.2375 86.1648 34.1837C86.3776 34.1582 86.4457 33.6607 86.6147 33.4977C86.8 33.3271 87.0332 33.2175 87.2828 33.1836C87.5324 33.1497 87.7864 33.1932 88.0105 33.3083C88.3108 33.5024 88.5296 33.7997 88.6256 34.1442C88.7215 34.4886 88.688 34.8563 88.5313 35.1777C88.3666 35.4932 88.1183 35.7572 87.8136 35.9409C87.5089 36.1246 87.1595 36.221 86.8037 36.2194C86.5867 36.876 86.6023 37.5873 86.848 38.2337C87.0937 38.8802 87.5545 39.4223 88.1529 39.7689C87.7036 40.0227 87.3332 40.3958 87.0826 40.8468C86.832 41.2979 86.7109 41.8094 86.7328 42.3249C86.8513 43.3428 87.9634 44.2183 88.9336 43.8631C88.3554 44.1085 87.8438 44.4875 87.4407 44.9692C87.0375 45.4508 86.7545 46.0212 86.6147 46.6335C86.305 47.9822 87.0879 49.1823 88.579 49.1424C89.2244 49.0917 89.8566 48.9317 90.4485 48.6692C89.1774 51.2108 92.4432 52.3041 94.1609 51.6508C94.5301 51.529 94.8519 51.2946 95.0811 50.9806C95.3104 50.6666 95.4356 50.2887 95.4391 49.8999C95.7538 50.2755 96.1744 50.5475 96.6459 50.6806V50.7992C97.1668 52.621 97.3862 54.5199 97.9475 56.3367C98.2921 57.4521 98.7049 58.5614 99.0601 59.6734C99.0834 60.0995 99.0839 60.5256 99.1072 60.9279C99.4219 66.3945 100.347 71.8855 99.9383 77.3516C99.8685 78.2747 99.7965 79.174 99.725 80.0733C99.7727 79.671 98.7587 78.6033 98.4944 78.2747C96.2226 75.445 94.2595 75.0893 92.1046 73.8974C90.9926 73.2818 89.9747 72.643 88.6732 72.5482C88.6247 72.5445 88.576 72.5527 88.5313 72.5721C87.7416 70.0825 86.6361 67.7043 85.2417 65.4958C85.319 65.4894 85.391 65.4543 85.4437 65.3974C85.4963 65.3404 85.5257 65.2658 85.5259 65.1883C85.9016 59.5504 85.9266 59.8596 85.8335 59.674C86.8746 58.5143 87.893 57.3319 88.9098 56.1716C88.943 56.1332 88.9604 56.0836 88.9586 56.0328C88.9567 55.982 88.9357 55.9338 88.8998 55.8979C88.8639 55.8619 88.8157 55.8409 88.7649 55.8391C88.7141 55.8372 88.6645 55.8547 88.6261 55.8879C86.5909 57.9463 84.3901 59.9327 82.4757 62.112C81.4346 61.047 80.1086 59.7244 78.6891 59.5078C77.1504 59.2739 75.7779 60.6198 74.8791 61.7324C72.2982 64.9267 71.2454 69.5877 70.6681 73.5655C70.0653 78.0339 70.234 82.5726 71.1668 86.9839C71.1767 87.031 71.1974 87.0753 71.2273 87.1131C71.2572 87.1509 71.2954 87.1813 71.3389 87.2019C71.3825 87.2225 71.4302 87.2327 71.4784 87.2318C71.5266 87.2309 71.5739 87.2189 71.6167 87.1967C72.5426 88.0287 73.733 88.5066 74.9772 88.5459C76.0166 88.5595 77.0526 88.424 78.0535 88.1436C78.5987 88.0284 78.7406 88.6251 78.361 88.6639C77.8151 88.7789 77.2835 88.9535 76.7758 89.1847C75.0642 89.7305 73.1637 90.1699 71.7585 89.0429C70.8199 88.2899 70.872 87.1972 69.3682 85.9899C68.3726 85.2294 67.1411 84.8439 65.8896 84.9011C65.6974 83.8682 65.909 82.8009 66.4808 81.9195C66.683 81.5115 66.9943 81.1674 67.3801 80.9255C68.3259 80.4268 69.1532 81.1161 69.4391 81.9905C69.4666 82.0788 69.5273 82.153 69.6085 82.1973C69.6897 82.2417 69.7849 82.2527 69.8741 82.2281C69.9633 82.2035 70.0394 82.1451 70.0863 82.0654C70.1333 81.9857 70.1474 81.8909 70.1256 81.801C70.0576 81.4472 69.9008 81.1165 69.6699 80.8399C69.439 80.5633 69.1416 80.35 68.8057 80.2198C68.4697 80.0897 68.1062 80.0471 67.7493 80.096C67.3923 80.1449 67.0537 80.2837 66.7651 80.4994C66.1323 81.0263 65.6613 81.7214 65.4064 82.5044C65.1515 83.2874 65.1231 84.1264 65.3244 84.9249C63.6936 85.1344 62.1185 85.6567 60.6856 86.4631C60.6618 86.4631 60.6618 86.4869 60.6385 86.5107C60.2938 86.2404 59.8698 86.0907 59.4317 86.0846C57.2841 86.0602 56.6369 89.1847 58.272 90.5334C58.4475 90.6788 58.6478 90.7915 58.8632 90.8658C58.6852 92.3971 59.1192 93.9366 60.0706 95.1495C61.9816 97.4894 66.0991 97.2113 67.0044 97.3503C73.9028 98.412 89.2467 98.9932 97.3685 96.9481C100.207 96.2333 104.165 93.0694 105.77 90.606C109.439 84.9515 109.174 56.0331 107.511 51.1045ZM85.3364 60.2159C85.1702 61.7779 85.0528 63.3393 84.9342 64.9013C84.3592 64.0775 83.718 63.302 83.017 62.5824C82.9389 62.5026 82.9633 62.7375 85.3364 60.2159ZM71.8943 86.7684C71.8943 86.5002 68.736 75.2865 73.9998 64.2386C74.8791 62.3946 76.2245 60.1006 78.5433 60.4048C79.8211 60.5711 82.9866 63.6994 83.2293 63.9787C85.8656 67.0146 87.242 70.6472 88.5773 74.344C88.697 74.6765 89.2334 74.5358 89.122 74.2022C88.9962 73.826 88.8854 73.4447 88.7668 73.0663C88.8222 73.073 96.6991 75.2272 99.6269 81.3255C99.0823 85.2302 97.8045 88.7803 93.4971 91.3124C92.2119 91.8814 90.8605 92.2868 89.4744 92.5192C88.0174 92.6774 86.544 92.5814 85.1198 92.2355C82.6347 91.4842 81.3448 88.1187 80.1735 85.6092C81.4659 82.1421 81.9907 78.4359 81.7116 74.7463C81.7087 74.6886 81.6838 74.6343 81.642 74.5945C81.6002 74.5547 81.5447 74.5325 81.4869 74.5325C81.4292 74.5325 81.3737 74.5547 81.3318 74.5945C81.29 74.6343 81.2651 74.6886 81.2622 74.7463C80.9619 79.1236 80.292 83.1479 78.6115 87.1945C77.9588 87.1945 75.8482 88.4805 71.8943 86.7684ZM59.399 90.9357C59.6285 90.9608 59.8602 90.9153 60.0631 90.8053C60.2661 90.6953 60.4307 90.526 60.5349 90.3201C60.7011 89.9876 60.2706 89.5826 59.9908 89.894C59.3115 90.6497 57.8731 89.6906 58.1446 88.0954C58.472 86.1738 60.4928 86.6952 60.6058 87.6693C60.6092 87.7487 60.6431 87.8237 60.7005 87.8787C60.7578 87.9336 60.8342 87.9643 60.9136 87.9643C60.9931 87.9643 61.0694 87.9336 61.1268 87.8787C61.1842 87.8237 61.2181 87.7487 61.2214 87.6693C61.2366 87.4003 61.1616 87.1339 61.0081 86.9124C62.523 86.273 64.1082 85.5643 65.7888 85.6109C66.9213 85.6873 68.014 86.0597 68.9576 86.6908C69.6284 87.0785 70.1635 87.6633 70.4902 88.3658C70.7252 88.8827 71.07 89.3423 71.5006 89.7125C71.9312 90.0827 72.4373 90.3547 72.9836 90.5096C74.9002 91.0553 76.599 89.9045 78.3084 89.2313C78.6148 89.1105 78.8071 91.0775 78.8292 91.2193C78.9903 92.445 78.8355 93.6914 78.3793 94.8403C78.3762 94.8402 78.373 94.8408 78.3701 94.842C78.3672 94.8431 78.3645 94.8449 78.3623 94.8471C78.3601 94.8493 78.3583 94.852 78.3571 94.8549C78.356 94.8579 78.3554 94.861 78.3555 94.8641C76.8173 96.118 74.6171 96.2882 72.6994 96.4494C70.9723 96.5951 69.2446 96.5912 67.517 96.568C65.8125 96.621 64.1125 96.3644 62.4997 95.8105C61.5332 95.4311 60.7121 94.7545 60.1549 93.8784C59.5976 93.0023 59.333 91.9719 59.399 90.9357Z" fill="#263B55"/>
<path d="M56.1094 66.6998C56.1918 66.6964 56.2697 66.6612 56.3268 66.6017C56.3839 66.5422 56.4158 66.4629 56.4158 66.3804C56.4158 66.2979 56.3839 66.2186 56.3268 66.1591C56.2697 66.0996 56.1918 66.0644 56.1094 66.061C53.0819 65.9369 52.0413 62.696 49.5301 61.5407C48.8748 61.2063 48.1305 61.0881 47.4038 61.2029C46.6771 61.3178 46.0055 61.6599 45.4853 62.1801C45.272 62.3929 45.5961 62.7193 45.8178 62.5126C48.1089 60.3273 50.7381 63.2479 52.3006 64.8791C53.4808 66.1125 54.3817 66.722 56.1094 66.6998Z" fill="#263B55"/>
<path d="M45.0575 59.9068C44.9162 60.1206 45.2265 60.3605 45.4126 60.191C46.0632 59.5904 46.9197 59.2628 47.805 59.276C48.6903 59.2892 49.5366 59.6422 50.1689 60.2619C50.2169 60.3047 50.2793 60.3274 50.3435 60.3256C50.4077 60.3238 50.4688 60.2974 50.5142 60.252C50.5596 60.2066 50.586 60.1456 50.5878 60.0814C50.5896 60.0172 50.5669 59.9547 50.5241 59.9068C49.1084 58.3426 46.3407 57.9713 45.0575 59.9068Z" fill="#263B55"/>
<path d="M46.0986 57.8255C46.8023 57.4224 47.6083 57.2332 48.418 57.2809C49.3167 57.4028 49.8292 58.0322 50.595 58.3935C50.8061 58.4927 51.1369 58.2771 50.9502 58.0383C50.6656 57.654 50.3048 57.3325 49.8904 57.0939C49.476 56.8553 49.0169 56.7046 48.5417 56.6513C48.0665 56.598 47.5854 56.6432 47.1284 56.7842C46.6714 56.9251 46.2484 57.1587 45.8858 57.4704C45.8611 57.4837 45.8394 57.5018 45.822 57.5237C45.8045 57.5456 45.7917 57.5708 45.7843 57.5978C45.7768 57.6249 45.7749 57.6531 45.7787 57.6808C45.7825 57.7086 45.7919 57.7353 45.8063 57.7593C45.8207 57.7833 45.8398 57.8042 45.8625 57.8206C45.8852 57.8371 45.9109 57.8487 45.9383 57.8549C45.9656 57.8611 45.9939 57.8617 46.0214 57.8567C46.049 57.8516 46.0752 57.841 46.0986 57.8255Z" fill="#263B55"/>
<path d="M48.2523 55.8851C49.1798 55.5915 50.0968 55.4845 50.9263 56.0514C51.5541 56.4759 52.1197 56.9857 52.6069 57.5662C52.7481 57.7325 52.9825 57.5435 52.9393 57.3768C52.6866 56.4348 51.7563 55.7427 50.9512 55.2945C50.0996 54.8202 48.8922 55.0579 48.0877 55.5073C47.8738 55.6009 48.0168 55.9594 48.2523 55.8851Z" fill="#263B55"/>
<path d="M56.275 58.5115C55.9356 58.3781 55.5879 58.267 55.2339 58.1791C55.5288 57.9666 55.7522 57.6696 55.8747 57.3274C55.9972 56.9852 56.0129 56.6139 55.9199 56.2625C55.6755 55.453 54.8522 54.5448 53.9556 54.7243C53.7418 54.7676 53.7894 55.1266 54.0033 55.1028C54.8078 55.079 55.4483 56.2392 55.281 56.949C55.1641 57.4477 54.6421 57.7297 54.3108 58.0611C54.2751 58.1011 54.25 58.1494 54.2377 58.2016C54.2254 58.2538 54.2263 58.3082 54.2404 58.36C54.2545 58.4117 54.2813 58.4591 54.3184 58.4979C54.3554 58.5366 54.4016 58.5655 54.4526 58.5819C55.0209 58.8059 55.6177 58.9491 56.2257 59.0075C56.2826 58.9994 56.3351 58.9725 56.3748 58.931C56.4146 58.8896 56.4393 58.836 56.4449 58.7788C56.4506 58.7217 56.437 58.6643 56.4062 58.6158C56.3754 58.5674 56.3292 58.5307 56.275 58.5115Z" fill="#263B55"/>
<path d="M64.6998 89.2296C64.9563 88.8987 65.0901 88.489 65.0783 88.0705C65.0783 87.6444 64.5851 87.5718 64.2976 87.8101C64.0797 87.9667 63.9183 88.1895 63.8372 88.4453C63.7562 88.701 63.7598 88.9761 63.8476 89.2296C63.8921 89.3028 63.9547 89.3633 64.0293 89.4052C64.1039 89.4472 64.1881 89.4692 64.2737 89.4692C64.3593 89.4692 64.4435 89.4472 64.5182 89.4052C64.5928 89.3633 64.6553 89.3028 64.6998 89.2296Z" fill="#263B55"/>
<path d="M69.1253 95.5014C69.8629 95.4117 70.5458 95.0668 71.0558 94.5265C71.5659 93.9863 71.8708 93.2846 71.9179 92.5431C71.9933 90.8393 70.3111 89.9854 68.8411 89.6319C68.0256 89.4369 67.1721 89.4707 66.3746 89.7297C65.5772 89.9887 64.8667 90.4628 64.3214 91.0997C64.1341 91.3141 64.4388 91.6427 64.6538 91.4321C66.2806 89.817 69.747 89.3477 70.9012 91.7873C71.6619 93.3942 69.978 94.8647 68.3928 94.6985C67.0436 94.5566 66.2873 93.4906 65.5764 92.45C65.2694 92.0001 64.5557 92.4284 64.8666 92.8761C65.8728 94.325 67.1367 95.7562 69.1253 95.5014Z" fill="#263B55"/>
<path d="M22.5771 44.2416C22.6582 44.287 22.7461 44.319 22.8375 44.3363C23.2381 47.5384 27.4713 49.563 29.7719 48.0991C29.7719 48.1545 29.6711 47.9584 31.1206 49.6373C31.1206 49.6611 31.0967 49.6611 31.0967 49.6844C31.0967 51.2702 31.6852 53.0682 31.4757 54.6307C31.3549 55.5294 30.3326 55.2674 30.0556 56.1218C30.0078 56.2168 29.9817 56.3212 29.9791 56.4275C29.9764 56.5338 29.9974 56.6394 30.0404 56.7366C30.0834 56.8339 30.1474 56.9204 30.2278 56.99C30.3083 57.0596 30.4031 57.1105 30.5055 57.1391C31.3804 57.3552 32.124 56.3417 32.5878 55.7428C33.3242 54.7925 34.25 53.0499 34.1259 52.9269C34.5527 53.3392 35.0024 53.7271 35.4729 54.0888C35.433 54.0945 35.3934 54.1024 35.3543 54.1126C35.1503 54.1732 34.9641 54.2824 34.8116 54.4308C34.6591 54.5793 34.5449 54.7625 34.4789 54.9648C34.4624 55.0408 34.4695 55.1201 34.4992 55.1919C34.5289 55.2638 34.5798 55.3249 34.6451 55.3671C34.8983 55.5302 35.1957 55.6109 35.4966 55.5982C35.7975 55.5855 36.0871 55.48 36.3257 55.2962C37.9541 54.3426 37.1806 52.8105 37.0116 51.32C36.9444 50.698 36.889 50.0747 36.8454 49.4505C38.6916 49.143 40.5578 49.8855 42.4068 49.9492C46.6849 50.0933 50.6943 48.2399 52.7017 44.5064C52.7017 45.24 52.725 45.947 52.7727 46.6596C51.731 46.8729 50.1684 47.7273 50.9741 48.9081C51.7044 49.9753 53.2708 48.6017 53.8609 48.0321C54.6676 47.2536 54.9447 46.2086 55.2339 45.1453C56.1138 41.905 57.2131 38.4053 56.5587 34.9451C56.1326 32.6905 52.4635 29.8386 59.163 24.6978C60.6997 23.5426 61.9741 22.0746 62.9019 20.3908C64.3021 17.7661 63.0914 12.4363 59.5414 12.2734C55.8733 12.1072 52.5139 15.2555 52.2995 18.8527C52.1587 21.2192 52.7671 23.5851 52.6546 25.976C52.5405 27.0635 52.6288 28.1627 52.9151 29.218C53.2475 30.2109 54.0038 30.9911 54.2875 31.9884C53.5705 31.7872 52.8152 31.7628 52.0867 31.9175C48.7805 32.5021 46.1025 34.2635 43.8513 36.6982C41.1568 39.6121 38.0295 43.6082 33.5563 42.2125C32.7518 39.7745 32.836 36.9824 34.2428 34.7811C34.4373 34.4769 34.0556 34.1937 33.7929 34.3317C31.594 35.4187 29.6625 36.9784 28.1368 38.899C27.011 38.7978 25.8851 39.0915 24.9523 39.7299C24.0195 40.3683 23.338 41.3115 23.0248 42.3975C22.1017 42.5139 21.9598 43.7207 22.5771 44.2416ZM32.3512 54.9355C32.34 54.9543 32.323 54.969 32.3028 54.9775C32.2826 54.9859 32.2602 54.9876 32.2389 54.9824C32.2177 54.9771 32.1987 54.9651 32.1847 54.9481C32.1708 54.9312 32.1627 54.9102 32.1617 54.8884C32.1146 54.178 31.9245 53.4211 31.8542 52.7828C31.7583 51.9074 31.7123 51.0552 31.5705 50.1786C32.2354 50.936 32.872 51.7168 33.5818 52.4271C33.233 53.2932 32.8209 54.1325 32.349 54.9382L32.3512 54.9355ZM54.6183 15.2034C56.0362 13.7107 59.4455 11.962 61.1976 13.8071C62.0481 14.7466 62.563 15.9416 62.6614 17.205C62.7599 18.4684 62.4364 19.7288 61.7417 20.7887C61.3018 21.4546 60.7944 22.0732 60.2274 22.6349C61.1416 18.907 59.0167 17.6708 55.9908 20.3864C55.9675 19.3924 55.9188 17.9484 55.2101 17.5229C54.5452 17.1223 53.6952 17.6647 53.1511 18.1878C53.328 17.0678 53.8395 16.0275 54.6183 15.2034ZM53.222 21.5201C53.1105 20.6491 53.071 19.7705 53.104 18.8931C53.1731 18.8908 53.2394 18.8659 53.2929 18.8222C54.1922 17.8043 54.9065 17.7561 55.3281 19.0588C55.4747 19.7107 55.5306 20.3797 55.4943 21.0469C55.4954 21.1013 55.5125 21.1542 55.5435 21.1989C55.5744 21.2437 55.6179 21.2783 55.6684 21.2986C55.719 21.3188 55.7743 21.3236 55.8276 21.3126C55.8809 21.3015 55.9298 21.275 55.9681 21.2364C56.5122 20.6917 57.6957 19.5769 58.5474 19.6506C60.3941 19.8101 59.758 22.16 59.3785 23.3186C59.2433 23.7281 59.9581 22.9507 57.509 25.0917C55.8168 26.5728 54.5723 28.6179 54.6455 30.7478C54.1468 29.7305 53.4852 28.7603 53.4148 27.553C53.2918 25.4979 53.4475 23.5585 53.222 21.5223V21.5201ZM28.1368 39.3423C28.5956 39.3384 29.9248 37.2877 33.2959 35.3429C32.3961 37.6861 32.0946 39.9873 32.9169 42.5139C32.9336 42.5704 32.9642 42.6218 33.0058 42.6634C33.0475 42.705 33.099 42.7354 33.1555 42.752C33.212 42.7685 33.2718 42.7706 33.3293 42.7581C33.3869 42.7455 33.4403 42.7187 33.4848 42.6801C39.3543 45.0228 42.8955 37.8646 46.8323 34.965C48.1574 33.9836 49.6603 33.2685 51.2578 32.8595C52.0889 32.6489 53.5063 32.2439 54.3108 32.6462C54.3579 32.67 54.3817 32.6938 54.4288 32.7171C54.4514 32.7846 54.492 32.8446 54.5463 32.8905C54.6007 32.9364 54.6666 32.9665 54.7369 32.9775C55.1827 33.429 55.5152 33.9796 55.7071 34.5844C55.8127 35.0981 55.8603 35.622 55.849 36.1463C56.0207 39.8848 54.8787 43.5296 53.79 47.0558C53.719 47.1743 53.5295 47.1743 53.5295 46.9848C53.5295 44.5712 53.4675 42.2507 53.6719 39.8371C53.6697 39.7804 53.6478 39.7262 53.6099 39.684C53.572 39.6417 53.5206 39.614 53.4644 39.6055C53.4083 39.5971 53.351 39.6086 53.3024 39.6379C53.2538 39.6672 53.2169 39.7126 53.1982 39.7662C52.9293 40.9154 52.7788 42.0892 52.7488 43.2691C52.6768 43.2532 52.6015 43.2635 52.5364 43.2981C52.4713 43.3327 52.4207 43.3895 52.3937 43.4581C51.7503 44.8674 50.7822 46.1043 49.5687 47.0674C48.3552 48.0305 46.9308 48.6925 45.4121 48.999C41.6355 49.85 39.1897 48.5003 36.8448 49.0222C36.8173 48.7549 36.8015 48.4864 36.7977 48.2177C36.795 48.1631 36.7713 48.1116 36.7316 48.0739C36.692 48.0362 36.6394 48.0152 36.5847 48.0152C36.53 48.0152 36.4774 48.0362 36.4377 48.0739C36.3981 48.1116 36.3744 48.1631 36.3716 48.2177C36.36 49.2594 36.3545 50.3 36.4426 51.3655C36.4681 51.673 36.8448 53.8738 36.7268 53.9697C36.3478 54.1825 34.2417 52.0764 34.1708 52.0525C32.8216 50.6562 31.6619 49.1159 30.126 47.9113C30.1969 47.8636 30.2445 47.8165 30.3155 47.7694C30.5521 47.5561 30.2484 47.1843 29.983 47.3433C27.7212 48.7031 24.1956 47.2414 23.6171 44.5978C22.9461 41.5343 25.3436 39.3661 28.1368 39.3423Z" fill="#263B55"/>
<path d="M26.0069 43.437C26.2196 43.555 26.48 43.437 26.6928 43.3655C27.048 43.2713 27.4264 43.1766 27.7816 43.058C27.8569 43.0359 27.9204 42.9849 27.958 42.916C27.9957 42.8472 28.0045 42.7662 27.9825 42.6909C27.9604 42.6156 27.9094 42.5521 27.8405 42.5144C27.7717 42.4768 27.6907 42.468 27.6154 42.49C26.4485 42.7948 26.5072 42.8413 26.29 42.8685C26.1909 42.6391 26.1117 42.4016 26.0534 42.1587C25.9764 41.9299 25.8813 41.7076 25.7691 41.4938C25.6312 41.255 25.3153 41.4234 25.3436 41.6833C25.4066 42.0638 25.5097 42.4366 25.6511 42.7953C25.7464 43.0109 25.7935 43.3184 26.0069 43.437Z" fill="#263B55"/>
<path d="M29.2261 40.2422C29.5591 39.7974 29.9582 39.4063 30.4096 39.0825C30.3154 39.6056 30.268 40.1361 30.2678 40.6677C30.2678 40.7559 30.3028 40.8404 30.3651 40.9028C30.4275 40.9651 30.5121 41.0001 30.6002 41.0001C30.6884 41.0001 30.773 40.9651 30.8353 40.9028C30.8977 40.8404 30.9327 40.7559 30.9327 40.6677C30.9279 39.9261 31.0154 39.1868 31.1931 38.4669C31.2101 38.4053 31.2082 38.3401 31.1876 38.2796C31.167 38.2192 31.1286 38.1664 31.0775 38.1281C31.0264 38.0898 30.965 38.0678 30.9012 38.065C30.8374 38.0621 30.7742 38.0786 30.7199 38.1122C29.9648 38.6118 29.3075 39.2454 28.7806 39.9817C28.585 40.241 29.0349 40.5015 29.2261 40.2422Z" fill="#263B55"/>
<path d="M27.0002 37.6385C27.0229 37.9227 27.4773 37.9466 27.474 37.6385C27.4407 34.8919 27.0529 29.5837 26.9753 28.7642C34.7392 24.9538 43.0167 22.247 50.7135 18.3274C51.138 18.1113 50.7618 17.5013 50.3345 17.6885C42.5191 21.1134 34.5259 24.3376 26.906 28.2195C26.68 26.5634 26.5697 26.6814 26.6456 26.6814C34.9397 22.6057 43.5033 19.1029 52.2761 16.1975C52.7958 16.0313 52.5625 15.2107 52.0628 15.393C43.3503 18.5718 34.7392 22.0193 26.5032 26.303C26.4598 26.263 26.406 26.2361 26.3479 26.2257C26.2898 26.2152 26.23 26.2215 26.1754 26.2438C26.1208 26.2662 26.0737 26.3036 26.0396 26.3518C26.0055 26.3999 25.9858 26.4568 25.9829 26.5157C25.9591 28.3619 26.3857 30.2525 26.5509 32.0771C26.7176 33.92 26.8517 35.7696 27.0002 37.6385Z" fill="#263B55"/>
<path d="M57.0323 38.822C57.007 38.8726 56.9965 38.9293 57.0021 38.9856C57.0077 39.0419 57.0291 39.0955 57.0639 39.1401C57.0987 39.1847 57.1455 39.2185 57.1987 39.2376C57.2519 39.2567 57.3095 39.2604 57.3648 39.2481C57.7556 39.0829 58.1095 38.8414 58.4059 38.5377C58.7633 38.2574 59.1201 37.9997 59.4947 37.7094C59.5477 37.6692 59.5857 37.6125 59.6028 37.5483C59.6199 37.484 59.615 37.4159 59.5889 37.3548C59.5889 35.4376 59.3517 33.4972 59.2342 31.5801C59.1151 29.6407 59.1461 27.6715 58.8791 25.735C58.8791 25.6689 58.8528 25.6054 58.806 25.5587C58.7593 25.5119 58.6959 25.4856 58.6297 25.4856C58.5636 25.4856 58.5002 25.5119 58.4534 25.5587C58.4067 25.6054 58.3804 25.6689 58.3804 25.735C58.1246 29.6449 58.2754 33.5708 58.8303 37.4495C58.5461 37.6157 58.2629 37.782 57.9992 37.9698C57.6723 38.2081 57.1946 38.4635 57.0323 38.822Z" fill="#263B55"/>
<path d="M45.1283 58.1802C43.6738 59.1704 42.1916 60.0957 40.679 60.9966C39.3292 61.8001 37.8625 63.1022 36.372 63.5765C35.8512 63.7427 36.1593 64.4043 36.5615 64.3101C38.5729 65.1412 40.7992 65.5845 42.8782 66.1558C44.1526 66.5071 45.8819 67.1243 47.3037 67.4335C47.7642 67.6057 48.2599 67.6628 48.7476 67.5997C48.9849 67.4879 49.2011 67.3359 49.3865 67.1504C49.7189 66.9138 50.0309 66.6616 50.3805 66.4406C50.8962 66.1208 51.3939 65.773 51.8716 65.3989C52.1082 65.2099 51.8006 64.8548 51.5391 64.9733C50.9712 65.2809 50.4309 65.6172 49.8824 65.9668C49.4444 66.1868 49.0384 66.4655 48.6756 66.7952C46.8061 66.1801 44.792 65.8333 42.9009 65.3546C40.9821 64.8658 39.0671 64.2896 37.15 63.8873C38.2864 62.988 39.7958 62.2938 40.9843 61.497C42.4449 60.5174 43.9625 59.6075 45.3616 58.5603C45.581 58.3974 45.3671 58.0179 45.1283 58.1802Z" fill="#263B55"/>
<path d="M62.7358 48.3119C64.653 48.8798 70.6161 50.5382 71.3502 50.7499C71.3867 50.7604 71.4194 50.7814 71.4442 50.8102C71.469 50.839 71.4848 50.8744 71.4898 50.9121C71.4948 50.9497 71.4887 50.9881 71.4723 51.0223C71.4559 51.0566 71.4298 51.0853 71.3973 51.105C68.1836 53.1845 65.0037 55.2879 61.9551 57.5657C61.765 57.7076 61.9551 58.0644 62.144 57.8982C65.5993 55.484 72.7703 51.0352 72.8645 50.4906C72.8645 50.2778 71.8943 50.1359 71.5397 50.0412C70.569 49.7813 64.5676 48.2016 62.4992 47.7456C62.3812 47.7196 54.9198 51.929 51.2817 54.0406C51.0429 54.1791 51.2579 54.5143 51.4945 54.3958C55.26 52.5052 62.6887 48.359 62.7358 48.3119Z" fill="#263B55"/>
<path d="M60.6768 37.5914C65.6409 34.6132 70.9219 32.1857 75.9414 29.3083C76.2267 29.1421 75.9669 28.7443 75.681 28.8822C70.4847 31.3917 65.4198 34.2868 60.4878 37.2839C60.2967 37.3997 60.4856 37.7061 60.6768 37.5914Z" fill="#263B55"/>
<path d="M45.9096 81.633C49.6774 80.2478 51.067 79.2311 64.9364 71.8811C66.7793 70.9048 68.7823 70.0526 70.4978 68.8519C70.5648 68.8085 70.6127 68.7413 70.6318 68.6638C70.6508 68.5863 70.6396 68.5045 70.6003 68.435C70.5611 68.3655 70.4967 68.3137 70.4205 68.29C70.3443 68.2664 70.262 68.2727 70.1903 68.3078C67.9069 69.2536 62.0147 73.1339 45.8619 81.0634C45.7201 78.293 45.6015 75.5492 45.4835 72.7804C48.8673 71.3608 51.8428 68.9322 55.2099 67.3847C55.4698 67.2655 55.282 66.8439 55.0204 66.9353C51.5092 68.1626 48.6545 70.8139 45.2231 72.2363H45.1992C30.3319 72.1121 14.7288 68.1255 9.20399 67.0278C7.76059 66.7419 6.17479 66.886 4.77848 66.4599C6.22188 65.4897 7.67138 64.5051 9.15578 63.5731C9.20913 63.5417 9.24782 63.4904 9.26336 63.4305C9.27889 63.3706 9.26999 63.307 9.23862 63.2537C9.20724 63.2003 9.15596 63.1616 9.09606 63.1461C9.03615 63.1305 8.97253 63.1394 8.91919 63.1708C7.35222 64.125 3.7839 66.2471 3.7839 66.4366C3.21318 74.2687 3.32566 83.3141 3.7839 87.9724C3.78676 88.03 3.81168 88.0844 3.8535 88.1242C3.89533 88.164 3.95085 88.1862 4.00858 88.1862C4.06631 88.1862 4.12183 88.164 4.16365 88.1242C4.20547 88.0844 4.2304 88.03 4.23326 87.9724C4.29255 84.3974 4.16234 80.8014 4.16234 77.2042C4.16234 73.7018 4.20999 70.2227 4.23326 66.7203C5.48772 67.3359 6.85964 67.1979 8.23322 67.4068C10.4634 67.7454 29.6947 72.741 44.9859 72.8973C44.9582 76.1869 45.1566 81.5743 45.1749 81.6297C45.6503 91.7645 45.7195 95.3667 46.3346 99.2846C46.3794 99.5689 46.8072 99.4736 46.8083 99.2132C46.821 94.6126 46.4238 92.0959 45.9096 81.633Z" fill="#263B55"/>
<path d="M80.2482 66.3685C82.0689 67.8385 83.3683 70.2953 84.8156 72.1194C85.025 72.3832 85.4805 72.1427 85.2893 71.859C84.3028 70.3948 83.3087 68.9357 82.3072 67.4817C81.8044 66.6042 81.1184 65.8454 80.2959 65.257C78.3277 64.0796 76.4217 65.5679 75.6099 67.3626C73.1232 72.863 72.7508 79.8151 73.3614 85.7029C73.4279 86.3429 74.448 86.3678 74.3793 85.7029C73.8999 80.9658 74.2198 76.1819 75.3257 71.5509C75.8061 69.518 77.1453 63.864 80.2482 66.3685Z" fill="#263B55"/>
<path d="M83.9147 76.2135C86.0058 81.4436 86.2479 83.3391 87.4176 84.6384C88.6953 86.0586 90.0972 85.0208 90.9438 83.7159C91.9879 82.0504 92.8751 80.2916 93.594 78.462C93.7392 78.1085 93.1275 77.8492 92.979 78.2016C92.5085 79.2637 91.9791 80.2987 91.3932 81.3017C90.9687 82.0597 90.116 83.9774 89.2633 84.2838C87.939 84.7592 87.1284 82.0608 86.802 81.1837C85.2583 77.028 84.067 72.9344 82.2347 71.1021C81.8597 70.6706 81.356 70.371 80.7978 70.2474C80.2397 70.1238 79.6566 70.1828 79.1345 70.4156C77.8363 71.0849 77.577 72.6408 77.4778 73.9418C77.2972 76.3088 77.2107 78.6981 77.0994 81.0651C77.0489 82.1301 76.1347 84.6767 77.2883 85.4197C77.9782 85.863 78.0396 83.7159 78.0457 83.4316C78.105 80.803 78.3887 78.1545 78.4009 75.5276C78.4054 74.4859 78.3073 73.3273 78.7794 72.356C80.6555 68.5012 83.2935 74.6549 83.9147 76.2135Z" fill="#263B55"/>
<path d="M90.8508 88.2123C88.7729 89.4745 86.9467 88.803 85.3603 87.1235C84.1302 85.8214 83.7573 84.2085 82.8514 82.7218C82.6636 82.4132 82.2613 82.6271 82.3073 82.9584C82.7954 86.4824 86.2845 91.2698 90.3061 89.6319C94.0229 88.1203 96.5263 83.8334 96.6487 79.9292C96.6681 79.3137 95.7694 79.3369 95.7018 79.9292C95.3289 83.2399 93.7919 86.4248 90.8508 88.2123Z" fill="#263B55"/>
<path d="M75.0892 42.1349C75.2798 42.0667 75.1857 41.7038 74.8526 41.6146C73.2502 41.1852 71.1957 41.2406 70.4753 43.0818C69.8237 44.7441 71.2322 46.0401 72.6995 46.4662C74.3324 46.9394 76.7997 47.1787 77.9771 45.6849C78.2133 45.3901 78.3672 45.0381 78.4231 44.6645C78.4791 44.2909 78.4351 43.9092 78.2956 43.5582C78.1562 43.2071 77.9263 42.8993 77.6293 42.6659C77.3323 42.4326 76.9787 42.282 76.6047 42.2296C76.2971 42.1814 76.0334 42.638 76.3681 42.7976C76.8839 43.0441 77.7444 44.1706 77.7167 44.7147C77.6613 45.7597 75.5984 46.5521 73.1494 45.9215C72.9604 45.8728 72.7942 45.8035 72.6053 45.7553C72.6053 45.7082 72.6285 45.6844 72.6053 45.6373C72.439 44.7142 72.3681 44.0276 73.0546 43.2708C73.5749 42.6086 74.3357 42.4058 75.0892 42.1349ZM74.2847 41.8988C73.6364 42.0679 73.047 42.4117 72.5809 42.8929C72.2558 42.6842 71.9061 42.5166 71.5398 42.3942C72.2235 41.7803 73.3616 41.7803 74.2847 41.8988ZM71.1608 42.9167C71.5306 43.0385 71.8874 43.197 72.2257 43.3899C71.8583 43.9567 71.7228 44.6431 71.8473 45.307C71.4504 45.0704 71.1586 44.6915 71.0311 44.2474C70.9036 43.8033 70.9499 43.3273 71.1608 42.9161V42.9167Z" fill="#263B55"/>
<path d="M29.8168 51.1992C26.3815 53.2073 23.0248 55.3881 19.6643 57.4942C19.529 56.1988 19.1771 54.9352 18.6231 53.7564C18.6231 53.7325 18.5993 53.7325 18.5993 53.7087C18.6447 53.0238 17.6524 52.7523 16.9924 52.6199C17.8679 51.5788 19.1467 50.8468 19.856 49.6833C20.9648 47.9521 21.495 45.9135 21.3703 43.8615C21.3249 43.0807 21.0545 42.0363 21.3465 41.2822C21.5443 40.7724 22.3776 40.492 22.7195 38.182C22.8857 37.0694 22.7677 34.3699 21.536 33.7798C20.4954 33.2811 19.006 34.9434 18.4829 35.6499C17.9418 36.3915 17.5849 37.2513 17.4418 38.1582C17.2307 39.4836 17.6806 40.8328 17.2756 42.1338C16.9226 43.2708 16.4107 44.0266 16.4949 45.2816C16.5215 45.6838 16.5957 46.085 16.6611 46.4884C16.8717 47.8104 16.8495 48.1207 16.1403 49.2339C15.4871 50.1734 15.0877 51.2657 14.9805 52.4049C14.6969 52.3811 14.4126 52.3811 14.1289 52.3811C14.6492 50.2041 15.9746 47.9794 14.4835 46.039C15.9984 43.6958 17.254 39.6493 15.0044 37.4717C15.5946 36.8242 15.9951 36.0266 16.162 35.1666C16.3289 34.3065 16.2558 33.417 15.9508 32.5957C15.6892 31.9098 14.4109 30.7733 14.4603 30.1577C14.483 29.8735 14.9589 29.3266 15.0753 28.998C15.3408 28.2225 15.417 27.3947 15.2976 26.5837C15.1781 25.7727 14.8665 25.002 14.3888 24.3359C13.7721 23.4849 13.4662 23.5547 13.5133 22.3008C13.5604 21.0469 13.6557 18.4421 11.8333 18.2775C9.98711 18.1113 9.23355 21.1893 8.94597 22.4886C8.57917 24.1464 8.02453 26.498 8.18854 27.932C8.28051 28.7365 8.73043 29.6352 8.56698 30.4403C8.32706 31.6227 7.50368 32.5702 7.36017 33.8485C7.20874 34.8824 7.4633 35.9348 8.07051 36.7852C8.25392 37.0262 8.47167 37.2118 8.66173 37.4241C9.36764 38.2092 9.18534 38.561 8.82795 39.5296C7.98186 41.8224 7.59178 44.1036 8.99418 46.1088C9.20861 46.4152 10.0785 47.0796 10.1539 47.4575C10.2436 47.9085 9.6142 48.7363 9.53885 49.2561C9.33827 50.6307 10.1301 51.6702 11.1717 52.5252C10.804 52.6105 10.4524 52.7542 10.1301 52.9507C9.91053 53.0567 9.73293 53.2333 9.62573 53.4522C9.51853 53.6711 9.48793 53.9197 9.53885 54.1581C8.16582 55.9566 8.73099 59.602 9.37262 61.518C10.1483 63.8385 11.5496 65.2581 14.1056 65.3279C18.5311 65.4487 19.9274 61.6837 19.6432 57.968C23.261 56.1378 26.7333 54.0331 30.0296 51.6724C30.3404 51.4392 30.1005 51.033 29.8168 51.1992ZM17.4158 48.7142C18.0253 47.1965 16.8617 45.3514 17.3448 43.7445C17.6008 42.8912 18.0447 42.2524 18.1261 41.3542C18.2308 40.1934 17.9355 39.0586 18.197 37.9227C18.4316 36.979 18.9231 36.1188 19.6172 35.4376C20.0427 35.0116 20.7287 34.3261 21.3681 34.9174C21.6756 35.201 21.7781 36.0754 21.8413 36.4555C21.9997 37.4145 21.8844 38.3987 21.5088 39.2952C21.2218 40.0039 20.5602 40.5253 20.302 41.2345C20.0876 41.8257 20.3469 42.6314 20.3968 43.2226C20.5076 44.5485 20.614 45.9698 19.9945 47.1987C19.2653 48.6443 18.7018 49.788 17.4623 50.8901C16.9018 51.3552 16.401 51.8878 15.9713 52.4759C15.8294 52.452 15.6876 52.452 15.569 52.4288C15.7712 50.1138 16.947 49.8866 17.4158 48.7142ZM11.0027 47.2469C10.9529 46.5371 10.3378 46.3947 9.89014 45.8977C8.75481 44.6433 8.7465 42.843 9.10943 41.2833C9.34104 40.2859 10.1982 39.0824 10.1982 38.0646C10.1982 37.0234 9.18312 36.9509 8.65951 36.1713C7.03492 33.7521 9.76769 31.4859 9.2751 29.0235C8.96344 27.5371 8.99585 25.9991 9.36985 24.5271C9.63138 23.297 9.77212 21.5904 10.4581 20.4822C10.7423 19.6062 11.4759 19.4411 12.6589 20.0091C13.1504 21.5649 12.557 22.2897 12.588 23.1325C12.6151 23.8661 13.1282 24.0123 13.6059 24.5764C14.0317 25.0982 14.3288 25.7128 14.4732 26.3706C14.6176 27.0284 14.6052 27.7109 14.437 28.363C14.2625 29.0235 13.4396 29.7594 13.4901 30.4453C13.5349 31.0609 14.5057 31.63 14.8154 32.102C15.3177 32.8954 15.5239 33.8406 15.398 34.7711C15.272 35.7016 14.8218 36.5578 14.1267 37.1891C14.0821 37.2359 14.0487 37.2921 14.0289 37.3537C14.0091 37.4152 14.0036 37.4804 14.0127 37.5444C14.0217 37.6084 14.0452 37.6695 14.0812 37.7231C14.1173 37.7767 14.1651 37.8215 14.2209 37.854C16.6162 39.6775 14.9456 43.8986 13.6059 45.8057C13.5583 45.888 13.5394 45.9838 13.5522 46.078C13.5651 46.1722 13.6089 46.2595 13.6768 46.326C15.108 47.9678 13.8895 50.2312 13.3216 52.3135C12.9434 52.2897 12.564 52.2897 12.1857 52.3135C8.83571 49.865 11.1213 48.9358 11.0027 47.2469ZM14.3866 64.5699C11.8311 64.5699 10.5512 63.0562 9.86687 60.76C9.34492 59.0091 9.01468 56.2874 9.91397 54.5121C11.973 55.6247 14.8625 55.5416 16.7293 55.1987C17.2511 55.0951 17.7343 54.8495 18.1256 54.4889C19.7114 58.1337 19.6643 64.5699 14.3866 64.5699Z" fill="#263B55"/>
</svg>
